<svg width="20" height="21" viewBox="0 0 20 21" fill="none" xmlns="http://www.w3.org/2000/svg">
<path d="M4.81289 7.07147C4.81265 7.07147 4.81307 7.07147 4.81289 7.07147H0.892878C0.622438 7.07129 0.403131 7.297 0.402952 7.5755C0.402952 7.57531 0.402952 7.57574 0.402952 7.5755V19.6874C0.402772 19.966 0.6219 20.1919 0.89228 20.1921C0.892101 20.1921 0.892519 20.1921 0.89228 20.1921H4.81229C5.08273 20.1923 5.30203 19.9665 5.30221 19.688C5.30221 19.6878 5.30221 19.6882 5.30221 19.688V7.57611C5.30239 7.29755 5.08327 7.07166 4.81289 7.07147ZM4.32236 19.1828H1.3828V8.08075H4.32236V19.1828ZM15.1007 7.07147C14.0378 7.07153 13.0045 7.43289 12.1612 8.09948V7.57611C12.1614 7.29755 11.9422 7.07166 11.6719 7.07147C11.6716 7.07147 11.672 7.07147 11.6719 7.07147H7.75184C7.4814 7.07129 7.2621 7.297 7.26192 7.5755C7.26192 7.57531 7.26192 7.57574 7.26192 7.5755V19.6874C7.26174 19.966 7.48087 20.1919 7.75131 20.1921C7.75113 20.1921 7.75149 20.1921 7.75131 20.1921H11.6713C11.9417 20.1923 12.161 19.9665 12.1612 19.688C12.1612 19.6878 12.1612 19.6882 12.1612 19.688V14.1364C12.1612 13.3003 12.8192 12.6225 13.631 12.6225C14.4427 12.6225 15.1007 13.3003 15.1007 14.1364V19.6874C15.1006 19.966 15.3197 20.1919 15.5901 20.1921C15.5899 20.1921 15.5903 20.1921 15.5901 20.1921H19.5101C19.7805 20.1923 19.9998 19.9665 20 19.688C20 19.6878 20 19.6882 20 19.688V12.1179C19.9968 9.33218 17.8052 7.07474 15.1007 7.07147ZM19.0201 19.1828H16.0806V14.1364C16.0806 12.7429 14.9839 11.6132 13.631 11.6132C12.278 11.6132 11.1813 12.7429 11.1813 14.1364V19.1828H8.24177V8.08075H11.1813V9.29504C11.1813 9.50947 11.313 9.70043 11.5096 9.77109C11.7057 9.8439 11.9251 9.77916 12.0541 9.61043C13.3892 7.86761 15.8431 7.56964 17.5351 8.94489C18.4776 9.71097 19.0254 10.8812 19.0201 12.1179V19.1828ZM3.21315 0.00838384C3.0979 6.75973e-05 2.98224 -0.000548319 2.86694 0.00653579C1.38807 -0.0975089 0.107334 1.05302 0.00632208 2.5763C0.0022553 2.63759 0.000221957 2.69895 0.000102317 2.76036C-0.0126363 4.27071 1.16571 5.50569 2.63202 5.51881C2.69189 5.51937 2.75169 5.51776 2.81144 5.51413H2.83919C4.31524 5.62051 5.5955 4.47424 5.69878 2.95385C5.80207 1.43347 4.68921 0.114769 3.21315 0.00838384ZM3.1793 4.50775C3.06615 4.51847 2.95216 4.51754 2.83919 4.50485H2.81144C1.87458 4.57902 1.0568 3.85693 0.984799 2.89194C0.912793 1.92702 1.61383 1.08462 2.55068 1.01045C2.65606 1.00214 2.76192 1.00392 2.86694 1.01581C3.80307 0.926983 4.63191 1.63663 4.71821 2.60088C4.80445 3.56519 4.11549 4.41892 3.1793 4.50775Z" fill="#625CF9"/>
</svg>
