<svg width="634" height="364" viewBox="0 0 634 364" fill="none" xmlns="http://www.w3.org/2000/svg">
<g clip-path="url(#clip0_304_311)">
<path d="M137.37 323.106C155.58 323.106 170.342 308.356 170.342 290.16C170.342 271.965 155.58 257.214 137.37 257.214C119.16 257.214 104.398 271.965 104.398 290.16C104.398 308.356 119.16 323.106 137.37 323.106Z" fill="#F2F2F2"/>
<path d="M142.731 318.285C160.941 318.285 175.703 303.534 175.703 285.339C175.703 267.143 160.941 252.393 142.731 252.393C124.522 252.393 109.76 267.143 109.76 285.339C109.76 303.534 124.522 318.285 142.731 318.285Z" fill="#625CF9"/>
<path d="M577.232 248.885H169.285V249.997H577.232V248.885Z" fill="#3F3D56"/>
<path d="M380.562 10.3727H235.765V7.39069H170.109V10.3727H24.7162C23.43 10.3727 22.1564 10.6259 20.9681 11.1177C19.7798 11.6095 18.7001 12.3304 17.7906 13.2392C16.8811 14.148 16.1596 15.2269 15.6674 16.4143C15.1752 17.6017 14.9219 18.8743 14.9219 20.1595V218.276C14.9219 220.872 15.9538 223.361 17.7906 225.196C19.6274 227.032 22.1186 228.063 24.7162 228.063H380.562C383.159 228.063 385.65 227.032 387.487 225.196C389.324 223.361 390.356 220.872 390.356 218.276V20.1595C390.356 18.8743 390.103 17.6017 389.61 16.4143C389.118 15.2269 388.397 14.148 387.487 13.2392C386.578 12.3304 385.498 11.6095 384.31 11.1177C383.121 10.6259 381.848 10.3727 380.562 10.3727Z" fill="#3F3D56"/>
<path d="M377.225 27.6686H28.0532V224.484H377.225V27.6686Z" fill="#625CF9"/>
<path d="M202.341 22.3009C204.318 22.3009 205.922 20.6988 205.922 18.7224C205.922 16.7461 204.318 15.144 202.341 15.144C200.363 15.144 198.759 16.7461 198.759 18.7224C198.759 20.6988 200.363 22.3009 202.341 22.3009Z" fill="#625CF9"/>
<path opacity="0.1" d="M277.368 224.484H28.0532V27.6688L277.368 224.484Z" fill="black"/>
<path d="M82.688 209.756C101.225 209.756 116.251 194.741 116.251 176.219C116.251 157.697 101.225 142.682 82.688 142.682C64.1514 142.682 49.1245 157.697 49.1245 176.219C49.1245 194.741 64.1514 209.756 82.688 209.756Z" fill="#F2F2F2"/>
<path d="M316.428 133.813H283.812V140.623H316.428V133.813Z" fill="#3F3D56"/>
<path d="M355.86 80.7915H244.38V83.7101H355.86V80.7915Z" fill="#3F3D56"/>
<path d="M355.86 90.0338H244.38V92.9524H355.86V90.0338Z" fill="#3F3D56"/>
<path d="M355.86 99.276H244.38V102.195H355.86V99.276Z" fill="#3F3D56"/>
<path d="M355.86 108.518H244.38V111.437H355.86V108.518Z" fill="#3F3D56"/>
<path d="M355.86 117.761H244.38V120.679H355.86V117.761Z" fill="#3F3D56"/>
<path d="M355.86 31.6616H342.229V45.2818H355.86V31.6616Z" fill="#F2F2F2"/>
<path d="M362.188 51.6055H345.637V35.0667H362.188V51.6055ZM346.356 50.8864H361.469V35.7858H346.356V50.8864Z" fill="#3F3D56"/>
<path d="M400.16 220.906H366.083V218.452C366.083 218.389 366.07 218.325 366.046 218.266C366.022 218.207 365.986 218.154 365.94 218.109C365.895 218.063 365.842 218.028 365.783 218.003C365.723 217.979 365.66 217.966 365.596 217.966H353.913C353.849 217.966 353.785 217.979 353.726 218.003C353.667 218.028 353.614 218.063 353.569 218.109C353.523 218.154 353.487 218.207 353.463 218.266C353.439 218.325 353.426 218.389 353.426 218.452V220.906H346.124V218.452C346.124 218.389 346.111 218.325 346.087 218.266C346.062 218.207 346.026 218.154 345.981 218.109C345.936 218.063 345.882 218.028 345.823 218.003C345.764 217.979 345.701 217.966 345.637 217.966H333.953C333.889 217.966 333.826 217.979 333.767 218.003C333.708 218.028 333.654 218.063 333.609 218.109C333.564 218.154 333.528 218.207 333.504 218.266C333.479 218.325 333.467 218.389 333.467 218.452V220.906H326.164V218.452C326.164 218.389 326.152 218.325 326.127 218.266C326.103 218.207 326.067 218.154 326.022 218.109C325.977 218.063 325.923 218.028 325.864 218.003C325.805 217.979 325.742 217.966 325.678 217.966H313.994C313.93 217.966 313.867 217.979 313.808 218.003C313.749 218.028 313.695 218.063 313.65 218.109C313.605 218.154 313.569 218.207 313.544 218.266C313.52 218.325 313.507 218.389 313.507 218.452V220.906H306.205V218.452C306.205 218.389 306.193 218.325 306.168 218.266C306.144 218.207 306.108 218.154 306.062 218.109C306.017 218.063 305.964 218.028 305.905 218.003C305.846 217.979 305.782 217.966 305.718 217.966H294.035C293.971 217.966 293.908 217.979 293.848 218.003C293.789 218.028 293.736 218.063 293.691 218.109C293.645 218.154 293.609 218.207 293.585 218.266C293.561 218.325 293.548 218.389 293.548 218.452V220.906H286.246V218.452C286.246 218.389 286.233 218.325 286.209 218.266C286.184 218.207 286.148 218.154 286.103 218.109C286.058 218.063 286.004 218.028 285.945 218.003C285.886 217.979 285.823 217.966 285.759 217.966H274.075C274.012 217.966 273.948 217.979 273.889 218.003C273.83 218.028 273.776 218.063 273.731 218.109C273.686 218.154 273.65 218.207 273.626 218.266C273.601 218.325 273.589 218.389 273.589 218.452V220.906H266.286V218.452C266.286 218.389 266.274 218.325 266.249 218.266C266.225 218.207 266.189 218.154 266.144 218.109C266.099 218.063 266.045 218.028 265.986 218.003C265.927 217.979 265.864 217.966 265.8 217.966H254.116C254.052 217.966 253.989 217.979 253.93 218.003C253.871 218.028 253.817 218.063 253.772 218.109C253.727 218.154 253.691 218.207 253.666 218.266C253.642 218.325 253.629 218.389 253.629 218.452V220.906H246.327V218.452C246.327 218.389 246.315 218.325 246.29 218.266C246.266 218.207 246.23 218.154 246.185 218.109C246.139 218.063 246.086 218.028 246.027 218.003C245.968 217.979 245.904 217.966 245.84 217.966H154.32C154.256 217.966 154.192 217.979 154.133 218.003C154.074 218.028 154.021 218.063 153.975 218.109C153.93 218.154 153.894 218.207 153.87 218.266C153.845 218.325 153.833 218.389 153.833 218.452V220.906H146.531V218.452C146.531 218.389 146.518 218.325 146.494 218.266C146.469 218.207 146.433 218.154 146.388 218.109C146.343 218.063 146.289 218.028 146.23 218.003C146.171 217.979 146.108 217.966 146.044 217.966H134.36C134.296 217.966 134.233 217.979 134.174 218.003C134.115 218.028 134.061 218.063 134.016 218.109C133.971 218.154 133.935 218.207 133.91 218.266C133.886 218.325 133.873 218.389 133.873 218.452V220.906H126.571V218.452C126.571 218.389 126.559 218.325 126.534 218.266C126.51 218.207 126.474 218.154 126.429 218.109C126.383 218.063 126.33 218.028 126.271 218.003C126.212 217.979 126.148 217.966 126.084 217.966H114.401C114.337 217.966 114.274 217.979 114.215 218.003C114.156 218.028 114.102 218.063 114.057 218.109C114.011 218.154 113.976 218.207 113.951 218.266C113.927 218.325 113.914 218.389 113.914 218.452V220.906H106.612V218.452C106.612 218.389 106.599 218.325 106.575 218.266C106.55 218.207 106.515 218.154 106.469 218.109C106.424 218.063 106.37 218.028 106.311 218.003C106.252 217.979 106.189 217.966 106.125 217.966H94.4416C94.3777 217.966 94.3144 217.979 94.2553 218.003C94.1963 218.028 94.1426 218.063 94.0974 218.109C94.0522 218.154 94.0163 218.207 93.9919 218.266C93.9674 218.325 93.9548 218.389 93.9548 218.452V220.906H86.6526V218.452C86.6526 218.389 86.6401 218.325 86.6156 218.266C86.5911 218.207 86.5553 218.154 86.5101 218.109C86.4649 218.063 86.4112 218.028 86.3521 218.003C86.2931 217.979 86.2298 217.966 86.1658 217.966H74.4823C74.4184 217.966 74.3551 217.979 74.296 218.003C74.237 218.028 74.1833 218.063 74.1381 218.109C74.0929 218.154 74.057 218.207 74.0326 218.266C74.0081 218.325 73.9955 218.389 73.9955 218.452V220.906H66.6933V218.452C66.6933 218.389 66.6807 218.325 66.6563 218.266C66.6318 218.207 66.5959 218.154 66.5507 218.109C66.5055 218.063 66.4519 218.028 66.3928 218.003C66.3337 217.979 66.2704 217.966 66.2065 217.966H54.523C54.4591 217.966 54.3958 217.979 54.3367 218.003C54.2776 218.028 54.224 218.063 54.1788 218.109C54.1336 218.154 54.0977 218.207 54.0732 218.266C54.0488 218.325 54.0362 218.389 54.0362 218.452V220.906H46.734V218.452C46.734 218.389 46.7214 218.325 46.697 218.266C46.6725 218.207 46.6366 218.154 46.5914 218.109C46.5462 218.063 46.4926 218.028 46.4335 218.003C46.3744 217.979 46.3111 217.966 46.2472 217.966H34.5637C34.4998 217.966 34.4365 217.979 34.3774 218.003C34.3183 218.028 34.2647 218.063 34.2195 218.109C34.1743 218.154 34.1384 218.207 34.1139 218.266C34.0895 218.325 34.0769 218.389 34.0769 218.452V220.906H11.6835C8.58485 220.906 5.6131 222.136 3.42202 224.325C1.23094 226.515 2.95209e-06 229.484 0 232.58V237.859C8.85628e-06 240.955 1.23095 243.925 3.42203 246.114C5.61311 248.304 8.58485 249.534 11.6835 249.534H400.16C403.259 249.534 406.23 248.304 408.421 246.114C410.612 243.925 411.843 240.955 411.843 237.859V232.58C411.843 229.484 410.612 226.515 408.421 224.325C406.23 222.136 403.259 220.906 400.16 220.906Z" fill="#3F3D56"/>
<path d="M90.8121 197.166C82.4465 197.166 74.2687 194.687 67.3129 190.043C60.3571 185.399 54.9358 178.798 51.7344 171.075C48.533 163.353 47.6953 154.855 49.3274 146.656C50.9595 138.458 54.9879 130.927 60.9033 125.016C66.8187 119.105 74.3554 115.08 82.5603 113.449C90.7652 111.818 99.2698 112.655 106.999 115.854C114.727 119.053 121.333 124.47 125.981 131.421C130.629 138.371 133.11 146.542 133.11 154.902C133.097 166.107 128.636 176.85 120.707 184.773C112.777 192.696 102.026 197.153 90.8121 197.166ZM90.8121 113.749C82.6666 113.749 74.704 116.163 67.9313 120.685C61.1586 125.206 55.8799 131.634 52.7627 139.153C49.6456 146.673 48.83 154.947 50.4191 162.93C52.0082 170.913 55.9306 178.245 61.6904 184.001C67.4501 189.756 74.7885 193.675 82.7774 195.263C90.7664 196.851 99.0472 196.036 106.573 192.921C114.098 189.807 120.53 184.532 125.056 177.765C129.581 170.997 131.996 163.041 131.996 154.902C131.984 143.991 127.641 133.531 119.92 125.816C112.199 118.101 101.731 113.761 90.8121 113.749Z" fill="#3F3D56"/>
<path d="M468.149 18.0977H326.23V19.2099H468.149V18.0977Z" fill="#3F3D56"/>
<path d="M634 311.725H226.053V312.838H634V311.725Z" fill="#3F3D56"/>
<path d="M249.149 362.888H107.23V364H249.149V362.888Z" fill="#3F3D56"/>
<path d="M277.716 305.862H262.133V321.433H277.716V305.862Z" fill="#625CF9"/>
<path d="M287.177 312.536H268.255V293.628H287.177V312.536ZM269.078 311.713H286.355V294.45H269.078V311.713Z" fill="#3F3D56"/>
<path d="M458.593 12.2345H443.01V27.8057H458.593V12.2345Z" fill="#625CF9"/>
<path d="M468.054 18.9078H449.132V0H468.054V18.9078ZM449.955 18.0858H467.232V0.822082H449.955V18.0858Z" fill="#3F3D56"/>
<path d="M615.539 305.862H599.956V321.433H615.539V305.862Z" fill="#625CF9"/>
<path d="M625.001 312.536H606.078V293.628H625.001V312.536ZM606.901 311.713H624.178V294.45H606.901V311.713Z" fill="#3F3D56"/>
<path d="M588.363 128.995H587.039V92.7578C587.039 90.0035 586.497 87.2763 585.442 84.7317C584.387 82.1871 582.841 79.8751 580.892 77.9275C578.943 75.98 576.629 74.4351 574.082 73.3811C571.536 72.3271 568.806 71.7847 566.05 71.7847H489.217C486.461 71.7847 483.731 72.3271 481.185 73.3811C478.638 74.4351 476.324 75.98 474.375 77.9275C472.426 79.8751 470.88 82.1871 469.825 84.7317C468.77 87.2763 468.228 90.0035 468.228 92.7578V291.558C468.228 294.312 468.77 297.039 469.825 299.584C470.88 302.128 472.426 304.441 474.375 306.388C476.324 308.336 478.638 309.881 481.185 310.935C483.731 311.988 486.461 312.531 489.217 312.531H566.05C568.806 312.531 571.536 311.989 574.082 310.935C576.629 309.881 578.943 308.336 580.892 306.388C582.841 304.441 584.387 302.128 585.442 299.584C586.497 297.039 587.039 294.312 587.039 291.558V154.789H588.363V128.995Z" fill="#3F3D56"/>
<path d="M582.57 93.9904V292.501C582.571 296.655 580.92 300.639 577.981 303.577C575.042 306.515 571.055 308.166 566.898 308.166H489.694C485.537 308.165 481.55 306.515 478.611 303.577C475.672 300.639 474.021 296.655 474.021 292.501V93.9904C474.022 89.8373 475.673 85.8543 478.612 82.9176C481.551 79.9808 485.537 78.3308 489.694 78.3303H499.06C498.599 79.4601 498.424 80.6859 498.548 81.8996C498.673 83.1133 499.095 84.2777 499.776 85.2902C500.457 86.3028 501.377 87.1324 502.455 87.706C503.533 88.2796 504.735 88.5796 505.956 88.5795H549.973C551.194 88.5796 552.397 88.2796 553.474 87.706C554.552 87.1324 555.472 86.3028 556.153 85.2903C556.834 84.2777 557.256 83.1133 557.381 81.8996C557.506 80.6859 557.33 79.4601 556.869 78.3303H566.898C571.054 78.3308 575.04 79.9808 577.979 82.9176C580.918 85.8543 582.57 89.8373 582.57 93.9904Z" fill="#625CF9"/>
<path d="M539.795 209.22H516.797V216.03H539.795V209.22Z" fill="#3F3D56"/>
<path d="M567.599 156.198H488.992V159.117H567.599V156.198Z" fill="#3F3D56"/>
<path d="M567.599 165.44H488.992V168.359H567.599V165.44Z" fill="#3F3D56"/>
<path d="M567.599 174.683H488.992V177.601H567.599V174.683Z" fill="#3F3D56"/>
<path d="M567.599 183.925H488.992V186.844H567.599V183.925Z" fill="#3F3D56"/>
<path d="M567.599 193.167H488.992V196.086H567.599V193.167Z" fill="#3F3D56"/>
<path d="M531.042 117.439H517.411V131.059H531.042V117.439Z" fill="#F2F2F2"/>
<path d="M522.629 120.845V137.384H539.181V120.845H522.629ZM538.463 136.667H523.347V121.563H538.463V136.667Z" fill="#3F3D56"/>
<path opacity="0.1" d="M582.57 271.301V292.501C582.571 296.655 580.92 300.639 577.981 303.577C575.042 306.515 571.055 308.166 566.898 308.166H489.694C485.537 308.165 481.55 306.515 478.611 303.577C475.672 300.639 474.021 296.655 474.021 292.501V185.61L539.065 236.956L540.178 237.835L552.277 247.383L553.407 248.278L582.57 271.301Z" fill="black"/>
<path d="M521.618 301.733C535.101 301.733 546.032 290.811 546.032 277.337C546.032 263.864 535.101 252.942 521.618 252.942C508.134 252.942 497.203 263.864 497.203 277.337C497.203 290.811 508.134 301.733 521.618 301.733Z" fill="#F2F2F2"/>
<path d="M178.19 364C168.614 364 159.252 361.162 151.29 355.846C143.327 350.53 137.121 342.974 133.456 334.133C129.791 325.292 128.833 315.565 130.701 306.179C132.569 296.794 137.181 288.173 143.952 281.407C150.724 274.641 159.351 270.033 168.744 268.166C178.136 266.299 187.872 267.257 196.719 270.919C205.567 274.581 213.129 280.782 218.449 288.739C223.77 296.695 226.609 306.049 226.609 315.618C226.595 328.445 221.489 340.743 212.412 349.813C203.334 358.883 191.027 363.985 178.19 364ZM178.19 268.349C168.834 268.349 159.687 271.121 151.908 276.315C144.128 281.509 138.065 288.891 134.485 297.529C130.904 306.166 129.967 315.671 131.793 324.84C133.618 334.009 138.123 342.432 144.739 349.043C151.355 355.654 159.784 360.156 168.961 361.98C178.137 363.803 187.649 362.867 196.293 359.29C204.937 355.712 212.326 349.653 217.524 341.88C222.722 334.106 225.496 324.967 225.496 315.618C225.482 303.086 220.494 291.071 211.625 282.209C202.756 273.347 190.732 268.363 178.19 268.349Z" fill="#3F3D56"/>
<path d="M528.813 296.154C522.759 296.154 516.841 294.36 511.807 291C506.773 287.639 502.85 282.862 500.533 277.273C498.216 271.684 497.61 265.534 498.791 259.601C499.972 253.668 502.888 248.218 507.169 243.94C511.449 239.663 516.904 236.75 522.841 235.57C528.779 234.389 534.934 234.995 540.527 237.31C546.12 239.625 550.901 243.545 554.264 248.575C557.628 253.605 559.423 259.519 559.423 265.568C559.414 273.677 556.186 281.452 550.448 287.186C544.709 292.92 536.929 296.145 528.813 296.154ZM528.813 236.094C522.979 236.094 517.276 237.823 512.426 241.061C507.575 244.3 503.794 248.903 501.562 254.289C499.329 259.674 498.745 265.601 499.883 271.318C501.021 277.036 503.83 282.287 507.956 286.409C512.081 290.531 517.337 293.338 523.059 294.476C528.78 295.613 534.711 295.029 540.101 292.798C545.491 290.568 550.098 286.79 553.339 281.943C556.58 277.096 558.31 271.397 558.31 265.568C558.301 257.754 555.191 250.262 549.661 244.736C544.131 239.211 536.633 236.103 528.813 236.094Z" fill="#3F3D56"/>
</g>
<defs>
<clipPath id="clip0_304_311">
<rect width="634" height="364" fill="white"/>
</clipPath>
</defs>
</svg>
