<svg width="449" height="389" viewBox="0 0 449 389" fill="none" xmlns="http://www.w3.org/2000/svg">
<g clip-path="url(#clip0_304_62)">
<path d="M308.634 120.24C308.618 129.03 305.997 137.617 301.101 144.916C296.206 152.216 289.256 157.9 281.13 161.249C273.005 164.598 264.069 165.462 255.453 163.732C246.836 162.002 238.926 157.756 232.723 151.53C226.519 145.303 222.301 137.378 220.602 128.754C218.903 120.131 219.799 111.197 223.176 103.082C226.554 94.9681 232.262 88.0377 239.577 83.1675C246.893 78.2974 255.489 75.7063 264.277 75.7219C270.117 75.7171 275.9 76.8665 281.294 79.104C286.688 81.3415 291.587 84.623 295.708 88.76C299.83 92.8969 303.094 97.8077 305.312 103.21C307.53 108.613 308.659 114.4 308.634 120.24Z" fill="#F2F2F2"/>
<path d="M382.588 146.145L388.835 134.214C383.233 127.448 364.851 119.242 364.851 119.242L339.972 96.5944C339.707 95.5839 339.181 94.6612 338.446 93.9189C337.711 93.1766 336.793 92.6411 335.786 92.3662C334.778 92.0912 333.716 92.0866 332.706 92.3528C331.696 92.619 330.774 93.1465 330.033 93.8824C329.291 94.6183 328.757 95.5364 328.483 96.5445C328.209 97.5526 328.206 98.615 328.473 99.6248C328.741 100.635 329.269 101.556 330.006 102.297C330.743 103.037 331.662 103.57 332.67 103.843L359.547 136.082L382.588 146.145Z" fill="#9E616A"/>
<path d="M379.561 145.322L388.383 148.131C394.798 150.174 401.711 150.02 408.029 147.694C409.94 146.982 411.614 145.75 412.862 144.137C414.11 142.524 414.882 140.594 415.09 138.565C415.354 135.813 414.564 133.063 412.878 130.871C411.192 128.68 408.738 127.21 406.01 126.76C397.737 125.4 387.077 124.729 383.274 129.256L383.235 129.301L379.561 145.322Z" fill="#3F3D56"/>
<path d="M316.106 181.848C340.647 181.848 360.541 161.951 360.541 137.408C360.541 112.865 340.647 92.9681 316.106 92.9681C291.565 92.9681 271.671 112.865 271.671 137.408C271.671 161.951 291.565 181.848 316.106 181.848Z" fill="white"/>
<path d="M297.971 120.026C297.361 123.302 296.361 126.495 294.992 129.534C287.154 146.118 309.476 140.712 317.453 140.712C326.175 140.712 334.52 145.299 333.246 124.918C332.701 116.212 326.175 109.124 317.453 109.124C310.003 109.124 299.529 112.435 297.971 120.026Z" fill="#2F2E41"/>
<path d="M316.147 140.708C323.234 140.708 328.98 134.962 328.98 127.874C328.98 120.785 323.234 115.039 316.147 115.039C309.059 115.039 303.313 120.785 303.313 127.874C303.313 134.962 309.059 140.708 316.147 140.708Z" fill="#FFB6B6"/>
<path d="M307.431 114.791C309.68 113.42 312.256 112.678 314.89 112.643C317.523 112.608 320.117 113.282 322.402 114.593C324.686 115.905 326.576 117.805 327.874 120.097C329.172 122.389 329.83 124.988 329.781 127.621C323.241 129.263 316.372 130.52 309.398 128.014L307.751 123.983L306.78 128.017C304.657 128.885 302.528 129.62 300.398 128.009C300.311 125.382 300.915 122.78 302.149 120.46C303.384 118.14 305.205 116.186 307.431 114.791Z" fill="#2F2E41"/>
<path d="M350.656 166.958C342.958 175.718 332.123 181.099 320.492 181.94C308.861 182.781 297.366 179.013 288.488 171.451L292.3 160.815C293.161 158.926 294.52 157.307 296.231 156.132C297.943 154.956 299.942 154.269 302.014 154.144L304.438 153.995L310.22 149.008C310.22 149.008 325.798 148.451 325.567 148.185L335.003 153.861L334.995 153.822L338.705 154.05C340.777 154.175 342.776 154.862 344.488 156.037C346.199 157.212 347.558 158.832 348.419 160.721L350.656 166.958Z" fill="#625CF9"/>
<path d="M312.207 350.075L311.103 334.717C303.871 331.101 295.865 329.306 287.781 329.486C299.154 338.278 298.243 355.85 306.119 367.876C308.605 371.608 311.898 374.732 315.755 377.018C319.612 379.304 323.933 380.693 328.4 381.082L337.865 386.527C338.948 379.371 338.466 372.064 336.454 365.111C334.441 358.158 330.945 351.724 326.207 346.253C323.518 343.21 320.457 340.517 317.096 338.239C315.027 344.179 312.207 350.075 312.207 350.075Z" fill="#F2F2F2"/>
<path d="M24.4265 77.8511L23.3224 62.4927C16.0898 58.8768 8.08393 57.0813 0 57.262C11.373 66.0539 10.462 83.6258 18.3384 95.6516C20.8237 99.3835 24.1169 102.508 27.9738 104.794C31.8308 107.08 36.1527 108.469 40.6192 108.857L50.0843 114.303C51.167 107.146 50.6855 99.8397 48.6728 92.8868C46.6602 85.9339 43.1643 79.5001 38.426 74.0285C35.7374 70.9853 32.6764 68.2929 29.3151 66.0147C27.2462 71.9552 24.4265 77.8511 24.4265 77.8511Z" fill="#F2F2F2"/>
<path d="M353.612 381.335L346.229 381.334L342.717 352.854H353.614L353.612 381.335Z" fill="#9E616A"/>
<path d="M355.495 388.492L331.689 388.492V388.19C331.69 385.733 332.666 383.376 334.404 381.638C336.141 379.9 338.498 378.924 340.955 378.924H340.956L345.304 375.624L353.418 378.924L355.496 378.924L355.495 388.492Z" fill="#2F2E41"/>
<path d="M418.682 381.335L411.299 381.334L407.787 352.854H418.684L418.682 381.335Z" fill="#9E616A"/>
<path d="M420.565 388.493L396.759 388.492V388.19C396.759 385.733 397.735 383.376 399.473 381.638C401.211 379.9 403.567 378.924 406.025 378.924H406.025L410.374 375.624L418.487 378.924L420.565 378.924L420.565 388.493Z" fill="#2F2E41"/>
<path d="M407.453 228.905L413.663 287.904C413.663 287.904 421.93 346.979 420.377 355.13C418.825 363.282 420.765 364.446 420.765 364.446L406.6 363.437C406.6 363.437 406.988 358.391 404.659 356.062C402.331 353.733 403.495 346.747 403.495 346.747L376.016 250.642L359.328 301.102C359.328 301.102 356.611 356.607 356.223 357.383C355.835 358.16 354.67 368.64 354.67 368.64H340.31C340.31 368.64 342.251 362.429 339.534 360.489C336.817 358.548 334.489 360.101 336.817 356.607C339.146 353.114 339.922 348.844 339.146 346.903C338.37 344.963 338.37 337.2 338.37 337.2C338.37 337.2 339.534 232.399 346.132 228.905C352.73 225.412 407.453 228.905 407.453 228.905Z" fill="#2F2E41"/>
<path d="M378.045 109.447C386.48 109.447 393.318 102.609 393.318 94.1725C393.318 85.7363 386.48 78.8975 378.045 78.8975C369.61 78.8975 362.771 85.7363 362.771 94.1725C362.771 102.609 369.61 109.447 378.045 109.447Z" fill="#9E616A"/>
<path d="M412.731 235.336C383.152 241.445 343.954 230.942 343.954 230.942L354.411 185.61L350.693 138.17C350.239 132.369 353.543 126.931 358.683 125.004L365.78 122.345L371.646 113.946L388.403 114.495L395.102 123.314L400.388 126.118L411.848 132.197L411.899 132.222V132.248L408.302 167.137L406.133 188.173C406.133 188.173 412.721 211.833 411.369 214.97C410.017 218.103 411.193 216.59 411.52 218.265C411.848 219.939 412.852 220.045 413.003 223.345C413.16 226.639 412.731 235.336 412.731 235.336Z" fill="#3F3D56"/>
<path d="M448.488 389H220.005C219.87 389 219.74 388.945 219.644 388.85C219.549 388.754 219.495 388.624 219.495 388.488C219.495 388.353 219.549 388.223 219.644 388.127C219.74 388.031 219.87 387.977 220.005 387.976H448.488C448.624 387.976 448.754 388.03 448.85 388.126C448.946 388.222 449 388.353 449 388.488C449 388.624 448.946 388.754 448.85 388.85C448.754 388.946 448.624 389 448.488 389Z" fill="#CCCCCC"/>
<path d="M377.301 108.714C379.98 108.686 382.652 108.43 385.287 107.948C387.896 107.347 393.652 102.895 395.22 100.266C396.386 98.312 397.085 95.2899 397.467 93.0988C397.983 90.1991 397.883 87.2235 397.176 84.3646C396.468 81.5057 395.168 78.8274 393.36 76.5029C392.662 75.5292 391.715 74.7619 390.618 74.2824C390.521 74.2473 390.421 74.2165 390.32 74.1906C388.73 73.8157 387.288 72.9739 386.179 71.7732C385.964 71.5301 385.731 71.3029 385.483 71.0932C384.239 70.0973 382.778 69.4098 381.217 69.0871C378.697 68.4817 375.091 69.2404 370.5 71.344C368.194 72.4009 365.634 72.1061 363.661 71.7311C363.551 71.7127 363.437 71.7235 363.332 71.7626C363.227 71.8017 363.134 71.8676 363.062 71.9538C362.248 72.7591 361.159 73.2262 360.014 73.2613C359.313 73.3102 358.603 74.3003 357.746 75.5896C357.552 75.8822 357.325 76.2238 357.16 76.4322L357.127 76.0408L356.742 76.4884C356.136 77.1919 355.718 78.0372 355.527 78.9457C355.336 79.8542 355.378 80.7963 355.649 81.6843C355.92 82.5723 356.411 83.3773 357.076 84.0243C357.742 84.6713 358.561 85.1393 359.456 85.3847C360.166 85.5542 360.892 85.6508 361.622 85.6728C362.064 85.7011 362.522 85.7304 362.962 85.7951C364.374 86.0464 365.696 86.6597 366.801 87.5749C367.905 88.4901 368.753 89.6761 369.262 91.0169C369.382 91.3268 369.572 91.6049 369.817 91.8298C370.061 92.0546 370.355 92.2203 370.673 92.3138C370.992 92.4074 371.328 92.4264 371.656 92.3695C371.983 92.3125 372.293 92.181 372.562 91.9852C373.008 91.6185 373.537 91.3652 374.103 91.247C374.669 91.1288 375.255 91.1492 375.811 91.3065C376.294 91.5593 376.677 91.9708 376.893 92.4718C377.154 93.0295 377.576 93.4967 378.104 93.8137C379.905 94.6842 380.132 98.7407 379.582 102.141C379.05 105.419 377.895 107.811 376.772 107.956C375.907 108.068 375.81 108.133 375.751 108.288L375.699 108.426L375.799 108.552C376.283 108.713 376.795 108.768 377.301 108.714Z" fill="#2F2E41"/>
<path d="M316.106 182.404C307.207 182.404 298.509 179.765 291.11 174.821C283.711 169.877 277.944 162.849 274.539 154.627C271.134 146.405 270.243 137.358 271.979 128.63C273.715 119.901 278 111.884 284.292 105.591C290.584 99.2978 298.601 95.0123 307.328 93.2761C316.056 91.5399 325.102 92.431 333.323 95.8367C341.544 99.2423 348.571 105.01 353.515 112.409C358.459 119.809 361.097 128.508 361.097 137.408C361.084 149.338 356.339 160.775 347.905 169.21C339.47 177.646 328.034 182.391 316.106 182.404ZM316.106 93.5249C307.428 93.5249 298.944 96.0986 291.728 100.921C284.513 105.742 278.889 112.596 275.568 120.615C272.247 128.633 271.378 137.457 273.071 145.969C274.764 154.482 278.943 162.301 285.079 168.438C291.216 174.575 299.034 178.755 307.546 180.448C316.057 182.141 324.88 181.272 332.897 177.951C340.915 174.629 347.768 169.005 352.589 161.788C357.411 154.571 359.984 146.087 359.984 137.408C359.971 125.773 355.344 114.619 347.118 106.393C338.892 98.1657 327.739 93.5381 316.106 93.5249Z" fill="#3F3D56"/>
<path d="M160.804 89.4362C185.345 89.4362 205.239 69.5398 205.239 44.9964C205.239 20.453 185.345 0.556641 160.804 0.556641C136.263 0.556641 116.369 20.453 116.369 44.9964C116.369 69.5398 136.263 89.4362 160.804 89.4362Z" fill="white"/>
<path d="M162.861 49.5295C170.863 49.5295 177.35 43.0417 177.35 35.0385C177.35 27.0353 170.863 20.5475 162.861 20.5475C154.859 20.5475 148.372 27.0353 148.372 35.0385C148.372 43.0417 154.859 49.5295 162.861 49.5295Z" fill="#FFB8B8"/>
<path d="M175.618 25.4654C175.618 25.4654 179.391 18.2526 171.091 17.5969C171.091 17.5969 164.015 11.1778 156.803 16.4234C156.803 16.4234 152.87 16.4234 150.718 20.8755C150.718 20.8755 147.625 19.702 146.945 22.8426C146.945 22.8426 144.681 29.3996 146.945 35.301C149.209 41.2023 149.961 41.858 149.961 41.858C149.961 41.858 148.372 34.5348 157.427 33.8791C166.482 33.2234 174.789 27.5502 175.544 34.7629C176.299 41.9757 177.128 38.7174 177.128 38.7174C177.128 38.7174 184.295 28.4161 175.618 25.4654Z" fill="#2F2E41"/>
<path d="M194.221 74.5461C186.523 83.3064 175.689 88.6878 164.058 89.5285C152.427 90.3691 140.931 86.6017 132.054 79.0394L135.865 68.4035C136.726 66.5144 138.085 64.8954 139.797 63.7201C141.508 62.5448 143.507 61.8576 145.579 61.732L148.004 61.5832L153.785 56.5963C153.785 56.5963 169.364 56.0399 169.132 55.7736L178.569 61.45L178.561 61.4108L182.27 61.638C184.343 61.763 186.342 62.4501 188.053 63.6254C189.765 64.8008 191.124 66.4201 191.985 68.3095L194.221 74.5461Z" fill="#625CF9"/>
<path d="M160.805 89.9928C151.906 89.9928 143.207 87.3539 135.809 82.4096C128.41 77.4653 122.643 70.4378 119.238 62.2158C115.832 53.9938 114.942 44.9465 116.678 36.2181C118.414 27.4896 122.699 19.472 128.991 13.1792C135.283 6.8863 143.3 2.60081 152.027 0.864615C160.755 -0.871582 169.801 0.0194933 178.022 3.42516C186.243 6.83084 193.27 12.5981 198.214 19.9978C203.157 27.3974 205.796 36.097 205.796 44.9964C205.783 56.9261 201.038 68.3632 192.603 76.7987C184.169 85.2343 172.733 89.9793 160.805 89.9928ZM160.805 1.11341C152.126 1.11341 143.643 3.6871 136.427 8.50903C129.211 13.331 123.587 20.1845 120.266 28.2031C116.945 36.2217 116.076 45.0451 117.769 53.5576C119.462 62.07 123.641 69.8893 129.778 76.0264C135.914 82.1636 143.733 86.343 152.244 88.0362C160.756 89.7295 169.578 88.8605 177.596 85.5391C185.614 82.2177 192.467 76.5931 197.288 69.3765C202.109 62.16 204.683 53.6757 204.683 44.9964C204.67 33.362 200.043 22.2078 191.817 13.981C183.591 5.75422 172.438 1.12661 160.805 1.11341Z" fill="#3F3D56"/>
<path d="M57.0903 159.58C81.631 159.58 101.525 139.683 101.525 115.14C101.525 90.5966 81.631 70.7002 57.0903 70.7002C32.5495 70.7002 12.6553 90.5966 12.6553 115.14C12.6553 139.683 32.5495 159.58 57.0903 159.58Z" fill="white"/>
<path d="M36.4948 100.684C38.3322 94.8276 42.5104 89.4565 48.2888 87.4767C54.0676 85.497 62.5291 88.5128 66.8734 92.8429C74.82 100.763 76.7593 127.974 71.2997 136.572C70.2137 136.515 66.4665 136.472 65.3674 136.431L63.8126 131.248V136.38C62.0616 136.326 60.2969 136.289 58.5185 136.268C52.5558 136.194 46.854 133.811 42.6117 129.62C38.3695 125.428 35.9173 119.755 35.7706 113.793C35.6283 108.09 35.7708 102.992 36.4948 100.684Z" fill="#2F2E41"/>
<path d="M56.4312 120.093C63.4252 120.093 69.0949 114.423 69.0949 107.428C69.0949 100.433 63.4252 94.7628 56.4312 94.7628C49.4373 94.7628 43.7676 100.433 43.7676 107.428C43.7676 114.423 49.4373 120.093 56.4312 120.093Z" fill="#9E616A"/>
<path d="M45.502 96.3049L60.0829 89.0031C63.0639 90.3465 65.6313 92.4631 67.5187 95.1333C69.4062 97.8035 70.5449 100.93 70.8169 104.189L71.1804 108.543L65.0746 106.988L64.4056 101.421L63.3688 106.554L60.551 105.837L60.5778 97.1938L57.7582 105.831L47.6944 103.518L45.502 96.3049Z" fill="#2F2E41"/>
<path d="M90.0639 144.549C82.3657 153.309 71.5316 158.69 59.9005 159.531C48.2694 160.372 36.7742 156.604 27.8965 149.042L31.7078 138.406C32.5691 136.517 33.9282 134.898 35.6396 133.723C37.3509 132.547 39.3499 131.86 41.422 131.734L43.8467 131.586L49.6282 126.599C49.6282 126.599 65.2064 126.042 64.9753 125.776L74.4114 131.452L74.4036 131.413L78.113 131.64C80.1853 131.765 82.1845 132.452 83.8959 133.628C85.6074 134.803 86.9665 136.422 87.8273 138.312L90.0639 144.549Z" fill="#625CF9"/>
<path d="M57.0902 160.136C48.1917 160.136 39.4931 157.497 32.0942 152.553C24.6954 147.609 18.9287 140.581 15.5234 132.359C12.1181 124.137 11.2271 115.09 12.9632 106.362C14.6992 97.6332 18.9842 89.6156 25.2764 83.3227C31.5685 77.0299 39.5853 72.7444 48.3128 71.0082C57.0403 69.272 66.0866 70.1631 74.3077 73.5687C82.5289 76.9744 89.5556 82.7417 94.4993 90.1413C99.443 97.5409 102.082 106.241 102.082 115.14C102.068 127.07 97.3237 138.507 88.8891 146.942C80.4545 155.378 69.0186 160.123 57.0902 160.136ZM57.0902 71.257C48.4119 71.257 39.9285 73.8307 32.7127 78.6526C25.497 83.4745 19.873 90.3281 16.552 98.3467C13.2309 106.365 12.362 115.189 14.055 123.701C15.7481 132.214 19.9271 140.033 26.0636 146.17C32.2001 152.307 40.0184 156.487 48.53 158.18C57.0415 159.873 65.864 159.004 73.8817 155.683C81.8994 152.361 88.7523 146.737 93.5737 139.52C98.3951 132.304 100.968 123.819 100.968 115.14C100.955 103.506 96.3282 92.3514 88.1023 84.1246C79.8763 75.8978 68.7234 71.2702 57.0902 71.257Z" fill="#3F3D56"/>
<path d="M357.145 160.463L350.418 148.795C341.703 149.902 324.928 161.03 324.928 161.03L292.479 169.91C291.484 169.592 290.423 169.542 289.403 169.765C288.382 169.988 287.439 170.476 286.667 171.18C285.895 171.884 285.322 172.778 285.006 173.774C284.689 174.769 284.641 175.831 284.865 176.851C285.089 177.871 285.578 178.814 286.283 179.585C286.987 180.357 287.883 180.928 288.879 181.244C289.874 181.559 290.936 181.606 291.955 181.38C292.975 181.155 293.918 180.665 294.688 179.959L336.306 174.53L357.145 160.463Z" fill="#9E616A"/>
<path d="M354.828 162.578L369.889 149.961L372.08 139.806C372.503 137.811 372.36 135.737 371.666 133.819C370.972 131.901 369.756 130.215 368.155 128.953C365.972 127.255 363.227 126.45 360.474 126.7C357.721 126.949 355.165 128.235 353.323 130.297C347.744 136.556 341.467 145.199 343.252 150.835L343.27 150.892L354.828 162.578Z" fill="#3F3D56"/>
<path d="M123.989 206.406H67.3981C65.8815 206.404 64.4275 205.801 63.3551 204.729C62.2827 203.656 61.6794 202.202 61.6777 200.685V165.827C61.6794 164.31 62.2827 162.856 63.3551 161.783C64.4275 160.711 65.8815 160.108 67.3981 160.106H123.989C125.505 160.108 126.959 160.711 128.032 161.783C129.104 162.856 129.707 164.31 129.709 165.827V200.685C129.707 202.202 129.104 203.656 128.032 204.729C126.959 205.801 125.505 206.404 123.989 206.406Z" fill="#E6E6E6"/>
<path d="M101.504 201.916H71.3762C69.9558 201.914 68.594 201.349 67.5896 200.345C66.5852 199.341 66.0202 197.979 66.0186 196.558V169.954C66.0202 168.533 66.5852 167.171 67.5896 166.167C68.594 165.162 69.9558 164.597 71.3762 164.596H120.011C121.431 164.597 122.793 165.162 123.797 166.167C124.802 167.171 125.367 168.533 125.368 169.954V178.05C125.361 184.377 122.844 190.444 118.371 194.918C113.897 199.392 107.831 201.909 101.504 201.916Z" fill="white"/>
<path d="M115.159 179.164H76.2277C75.891 179.164 75.568 179.03 75.3299 178.792C75.0918 178.554 74.958 178.231 74.958 177.894C74.958 177.557 75.0918 177.234 75.3299 176.996C75.568 176.758 75.891 176.624 76.2277 176.624H115.159C115.496 176.624 115.819 176.758 116.057 176.996C116.295 177.234 116.429 177.557 116.429 177.894C116.429 178.231 116.295 178.554 116.057 178.792C115.819 179.03 115.496 179.164 115.159 179.164Z" fill="#625CF9"/>
<path d="M82.3176 184.181H76.2277C75.891 184.181 75.568 184.048 75.3299 183.809C75.0918 183.571 74.958 183.248 74.958 182.911C74.958 182.575 75.0918 182.252 75.3299 182.014C75.568 181.775 75.891 181.642 76.2277 181.642H82.3176C82.6544 181.642 82.9773 181.775 83.2155 182.014C83.4536 182.252 83.5874 182.575 83.5874 182.911C83.5874 183.248 83.4536 183.571 83.2155 183.809C82.9773 184.048 82.6544 184.181 82.3176 184.181Z" fill="#625CF9"/>
<path d="M93.1034 189.199H76.2275C75.8912 189.198 75.569 189.064 75.3314 188.826C75.0939 188.588 74.9604 188.266 74.9604 187.929C74.9604 187.593 75.0939 187.27 75.3314 187.032C75.569 186.794 75.8912 186.66 76.2275 186.659H93.1034C93.4397 186.66 93.7619 186.794 93.9995 187.032C94.237 187.27 94.3705 187.593 94.3705 187.929C94.3705 188.266 94.237 188.588 93.9995 188.826C93.7619 189.064 93.4397 189.198 93.1034 189.199Z" fill="#625CF9"/>
<path d="M59.703 171.384C66.3145 171.384 71.6741 166.024 71.6741 159.412C71.6741 152.799 66.3145 147.439 59.703 147.439C53.0916 147.439 47.7319 152.799 47.7319 159.412C47.7319 166.024 53.0916 171.384 59.703 171.384Z" fill="#3F3D56"/>
<path d="M270.94 48.3044H214.35C212.833 48.3027 211.379 47.6994 210.307 46.6268C209.234 45.5543 208.631 44.1001 208.629 42.5833V7.72519C208.631 6.20841 209.234 4.75424 210.307 3.68171C211.379 2.60918 212.833 2.00587 214.35 2.00415H270.94C272.457 2.00586 273.911 2.60917 274.983 3.6817C276.056 4.75423 276.659 6.2084 276.661 7.72519V42.5833C276.659 44.1001 276.056 45.5543 274.983 46.6268C273.911 47.6994 272.457 48.3027 270.94 48.3044Z" fill="#E6E6E6"/>
<path d="M248.456 43.8145H218.328C216.907 43.8129 215.546 43.2479 214.541 42.2435C213.537 41.239 212.972 39.8771 212.97 38.4566V11.8521C212.972 10.4315 213.537 9.06962 214.541 8.06516C215.546 7.0607 216.907 6.49571 218.328 6.49414H266.963C268.383 6.49572 269.745 7.06072 270.749 8.06518C271.753 9.06965 272.318 10.4315 272.32 11.8521V19.9483C272.313 26.2759 269.796 32.3422 265.322 36.8164C260.849 41.2906 254.783 43.8074 248.456 43.8145Z" fill="white"/>
<path d="M262.111 21.0621H223.179C222.843 21.0621 222.52 20.9283 222.282 20.6902C222.043 20.452 221.91 20.1291 221.91 19.7923C221.91 19.4555 222.043 19.1325 222.282 18.8944C222.52 18.6562 222.843 18.5225 223.179 18.5225H262.111C262.448 18.5225 262.77 18.6562 263.009 18.8944C263.247 19.1325 263.38 19.4555 263.38 19.7923C263.38 20.1291 263.247 20.452 263.009 20.6902C262.77 20.9283 262.448 21.0621 262.111 21.0621Z" fill="#625CF9"/>
<path d="M229.269 26.0798H223.179C222.843 26.0798 222.52 25.946 222.282 25.7079C222.043 25.4697 221.91 25.1467 221.91 24.8099C221.91 24.4731 222.043 24.1501 222.282 23.912C222.52 23.6738 222.843 23.54 223.179 23.54H229.269C229.606 23.54 229.929 23.6738 230.167 23.912C230.405 24.1501 230.539 24.4731 230.539 24.8099C230.539 25.1467 230.405 25.4697 230.167 25.7079C229.929 25.946 229.606 26.0798 229.269 26.0798Z" fill="#625CF9"/>
<path d="M240.056 31.0975H223.18C222.843 31.0968 222.521 30.9627 222.284 30.7246C222.046 30.4865 221.913 30.164 221.913 29.8276C221.913 29.4913 222.046 29.1687 222.284 28.9306C222.521 28.6925 222.843 28.5584 223.18 28.5577H240.056C240.392 28.5577 240.715 28.6915 240.953 28.9297C241.191 29.1678 241.325 29.4908 241.325 29.8276C241.325 30.1644 241.191 30.4874 240.953 30.7256C240.715 30.9637 240.392 31.0975 240.056 31.0975Z" fill="#625CF9"/>
<path d="M206.655 55.0345C213.266 55.0345 218.626 49.6743 218.626 43.0621C218.626 36.4499 213.266 31.0897 206.655 31.0897C200.043 31.0897 194.684 36.4499 194.684 43.0621C194.684 49.6743 200.043 55.0345 206.655 55.0345Z" fill="#3F3D56"/>
</g>
<defs>
<clipPath id="clip0_304_62">
<rect width="449" height="389" fill="white"/>
</clipPath>
</defs>
</svg>
