<svg width="532" height="404" viewBox="0 0 532 404" fill="none" xmlns="http://www.w3.org/2000/svg">
<g clip-path="url(#clip0_304_141)">
<path d="M492.224 367.214C474.793 380.48 453.557 393.919 432.679 400.256C426.66 402.137 420.449 403.338 414.163 403.836C408.285 404.308 402.37 403.849 396.636 402.476C381.568 398.731 367.592 392.171 354.069 384.507C349.65 381.999 345.283 379.376 340.941 376.696C333.854 372.319 326.837 367.788 319.801 363.366C318.748 362.696 317.7 362.039 316.647 361.388H316.641C314.942 360.322 313.24 359.271 311.533 358.236C311.233 358.051 310.932 357.872 310.626 357.687C307.402 355.734 304.122 353.826 300.787 351.963C300.378 351.74 299.97 351.51 299.561 351.286C293.109 347.709 286.477 344.466 279.691 341.568C275.235 339.692 270.721 338.001 266.162 336.559H266.156C264.412 336.01 262.663 335.493 260.907 335.021C255.642 333.577 250.277 332.528 244.856 331.881C237.385 330.977 229.83 331.037 222.375 332.06C221.87 332.13 221.372 332.2 220.868 332.283C200.692 335.512 182.278 346.398 162.012 348.964C161.355 349.047 160.703 349.123 160.046 349.181C159.765 349.206 159.484 349.238 159.203 349.257C153.314 349.761 147.387 349.615 141.53 348.823C125.165 346.666 109.229 339.973 94.8819 331.537C61.3423 311.812 34.1428 281.495 17.606 246.386C14.7663 240.369 12.2451 234.207 10.0528 227.925C3.92328 210.506 0.547743 192.239 0.0477032 173.781C-1.50382 109.739 34.909 45.4867 92.0789 16.5224C149.255 -12.4418 224.469 -2.86363 270.58 41.6325C298.552 68.6249 314.738 105.202 335.789 137.88C356.84 170.552 386.759 201.762 425.349 206.523C445.008 208.947 465.58 204.257 484.422 210.358C494.855 213.74 503.755 220.21 510.925 228.455C515.746 234.049 519.78 240.275 522.916 246.96C525.214 251.793 527.08 256.82 528.49 261.982C528.752 262.932 528.994 263.883 529.231 264.834C538.616 303.147 523.618 343.31 492.224 367.214Z" fill="#F2F2F2"/>
<path d="M178.242 297.857H118.225C109.233 297.857 101.943 305.142 101.943 314.129V314.129C101.943 323.115 109.233 330.401 118.225 330.401H178.242C187.234 330.401 194.524 323.115 194.524 314.129C194.524 305.142 187.234 297.857 178.242 297.857Z" fill="#3F3D56"/>
<path d="M160.046 322.105V349.181C153.881 349.777 147.667 349.657 141.53 348.823V322.105H160.046Z" fill="#3F3D56"/>
<path d="M222.375 332.06C221.87 332.13 221.372 332.2 220.868 332.283C200.692 335.512 182.278 346.398 162.012 348.963C161.355 349.046 160.704 349.123 160.046 349.18C159.765 349.206 159.484 349.238 159.203 349.257C154.255 344.414 149.307 339.258 144.658 333.917C142.136 331.026 139.697 328.078 137.405 325.091C131.455 317.383 126.411 309.457 123.078 301.672C123.416 297.939 121.092 289.306 119.981 282.695L119.975 282.688C119.502 279.913 119.247 277.5 119.483 275.95C120.837 267.003 128.147 268.031 130.395 259.263C132.422 257.581 134.581 256.064 136.85 254.726C137.226 254.503 137.61 254.279 138.005 254.056L162.396 237.21L171.717 246.347L185.905 260.258L201.279 275.325L188.229 288.502C188.229 288.502 199.134 301.066 211.885 317.817C215.307 322.316 218.863 327.121 222.375 332.06Z" fill="#2F2E41"/>
<path d="M432.679 322.105V400.256C426.66 402.137 420.45 403.337 414.163 403.835V322.105H432.679Z" fill="#3F3D56"/>
<path d="M456.622 315.724H396.605C387.613 315.724 380.323 323.009 380.323 331.996V331.996C380.323 340.983 387.613 348.268 396.605 348.268H456.622C465.614 348.268 472.904 340.983 472.904 331.996C472.904 323.009 465.614 315.724 456.622 315.724Z" fill="#3F3D56"/>
<path d="M310.626 357.687C307.402 355.734 304.122 353.826 300.787 351.963C300.378 351.739 299.97 351.51 299.561 351.286L301.757 350.348L307.683 347.802L307.74 347.777L307.804 347.994L310.626 357.687Z" fill="#FFB6B6"/>
<path d="M319.801 363.366C318.748 362.696 317.7 362.039 316.647 361.388H316.641C314.942 360.322 313.24 359.271 311.533 358.235C311.233 358.05 310.933 357.872 310.626 357.687C307.402 355.734 304.122 353.826 300.787 351.963C300.378 351.739 299.97 351.51 299.561 351.286C293.109 347.709 286.477 344.465 279.691 341.568C275.235 339.692 270.721 338.001 266.162 336.558H266.156L262.574 330.567L246.452 303.58L242.908 297.652C242.908 297.652 230.822 301.226 213.717 304.653C207.492 305.903 200.609 307.128 193.387 308.162C185.668 309.26 177.572 310.134 169.527 310.555C165.69 310.759 161.865 310.861 158.098 310.83C148.361 310.766 139.008 309.853 130.816 307.684C128.083 305.118 119.847 301.628 113.947 298.431H113.941C111.463 297.091 109.407 295.808 108.328 294.666C102.11 288.093 107.422 282.969 101.892 275.797C101.818 273.165 101.953 270.532 102.295 267.922C102.352 267.488 102.41 267.048 102.48 266.601L104.223 237.018L117.171 235.308L136.875 232.705L158.22 229.884L160.569 248.275C160.569 248.275 177.189 247.432 198.246 247.713C232.067 248.173 277.323 251.542 283.452 266.002C284.027 267.361 284.601 268.733 285.176 270.105C286.542 273.385 287.896 276.682 289.237 279.996C294.096 291.992 298.731 304.104 302.964 315.552C305.595 322.673 308.072 329.539 310.352 335.965C312.184 341.134 313.882 346.022 315.434 350.521C316.851 354.63 318.135 358.414 319.278 361.809C319.456 362.339 319.629 362.862 319.801 363.366Z" fill="#2F2E41"/>
<path d="M200.688 184.126L159.79 149.411L186.398 122.498L204.962 152.887L273.774 166.521C275.844 164.965 278.321 164.044 280.905 163.871C283.489 163.697 286.067 164.279 288.326 165.545C290.584 166.811 292.426 168.706 293.625 171C294.825 173.294 295.331 175.887 295.081 178.463C294.832 181.039 293.838 183.487 292.22 185.508C290.603 187.529 288.432 189.036 285.972 189.845C283.512 190.655 280.87 190.732 278.368 190.066C275.865 189.401 273.61 188.022 271.878 186.098L200.688 184.126Z" fill="#A0616A"/>
<path d="M123.645 103.788C118.918 119.156 163.933 155.808 163.933 155.808C164.433 152.118 189.955 183.932 191.691 181.051C196.626 172.862 202.056 152.621 207.753 150.034C211.011 148.555 192.321 127.991 192.321 127.991C192.321 127.991 182.786 115.385 170.198 99.4073C166.723 94.8243 162.144 91.1944 156.888 88.8557C151.632 86.517 145.869 85.5455 140.136 86.0315C140.136 86.0315 128.371 88.4206 123.645 103.788Z" fill="#3F3D56"/>
<path d="M143.547 69.7677C158.825 69.7677 171.209 57.3902 171.209 42.1217C171.209 26.8533 158.825 14.4758 143.547 14.4758C128.27 14.4758 115.886 26.8533 115.886 42.1217C115.886 57.3902 128.27 69.7677 143.547 69.7677Z" fill="#A0616A"/>
<path d="M157.379 88.0396C163.338 91.5805 166.903 98.0863 168.949 104.706C172.738 116.963 175.018 129.635 175.74 142.443L177.902 180.787L204.671 262.433C181.471 282.053 94.265 266.892 94.265 266.892C94.265 266.892 91.5881 266 94.265 263.325C96.9419 260.649 99.548 263.02 96.8711 260.344C94.1941 257.669 96.0395 260.649 96.9318 257.974C97.8242 255.298 96.9318 257.082 96.0395 256.19C95.1472 255.298 102.947 247.272 102.947 247.272L95.8089 200.407L86.8857 105.876C97.5936 92.4986 119.128 84.6129 119.128 84.6129L124.693 74.6029L152.514 76.8273L157.379 88.0396Z" fill="#3F3D56"/>
<path d="M166.35 27.4338C168.5 29.0364 170.093 31.2726 170.904 33.8275C171.216 29.6522 171.236 25.4604 170.964 21.2824C170.638 18.3465 168.569 17.6861 166.175 16.9209C164.012 16.2296 161.566 15.4487 160.908 12.5986C152.213 4.14449 137.076 4.5708 126.717 7.51971C121.017 9.14245 117.737 11.2273 117.444 12.4487L117.383 12.7001L117.151 12.8158C112.757 15.0114 111.902 21.9449 111.959 27.3746C112.066 37.6046 115.6 49.2232 117.591 50.167C117.696 50.217 117.723 50.1974 117.768 50.1594C120.766 47.765 124.424 50.3414 126.031 51.742C126.979 45.3839 130.032 39.5267 134.701 35.1059C139.371 30.6851 145.388 27.9556 151.792 27.3535C153.883 27.1515 155.958 26.8038 158 26.313C159.037 26.0451 160.102 25.9053 161.172 25.897C163.015 25.869 164.822 26.4053 166.35 27.4338Z" fill="#2F2E41"/>
<path d="M131.496 225.778L123.034 221.447C122.58 221.124 122.258 220.649 122.127 220.108C121.995 219.568 122.062 218.998 122.316 218.502C122.569 218.007 122.993 217.62 123.509 217.411C124.025 217.202 124.599 217.185 125.126 217.364L133.587 221.696C134.041 222.018 134.363 222.494 134.495 223.034C134.627 223.575 134.56 224.145 134.306 224.64C134.052 225.135 133.628 225.522 133.113 225.731C132.597 225.94 132.023 225.957 131.496 225.778Z" fill="#625CF9"/>
<path d="M103.017 214.174L89.0972 162.383L126.294 155.345L124.294 190.895L173.168 241.19C175.756 241.084 178.318 241.733 180.543 243.058C182.768 244.382 184.559 246.325 185.698 248.65C186.837 250.974 187.274 253.579 186.957 256.148C186.641 258.716 185.583 261.137 183.913 263.116C182.243 265.094 180.033 266.544 177.553 267.288C175.073 268.033 172.43 268.041 169.946 267.31C167.462 266.579 165.244 265.142 163.563 263.173C161.882 261.205 160.81 258.79 160.479 256.223L103.017 214.174Z" fill="#A0616A"/>
<path d="M85.2909 104.314C72.6648 114.276 88.8704 169.999 88.8704 169.999C91.3795 167.247 94.2951 207.919 97.3619 206.534C106.078 202.598 122.054 189.026 128.213 190.132C131.735 190.765 128.045 163.229 128.045 163.229C128.045 163.229 127.366 147.441 126.09 127.145C125.836 121.4 124.132 115.813 121.136 110.904C118.14 105.994 113.95 101.922 108.956 99.0668C108.956 99.0668 97.917 94.3522 85.2909 104.314Z" fill="#3F3D56"/>
<path d="M522.916 246.96L17.606 246.386C14.7663 240.369 12.245 234.207 10.0527 227.925L510.925 228.455C515.746 234.049 519.78 240.275 522.916 246.96Z" fill="#3F3D56"/>
<path d="M361.973 380.85C359.362 382.114 356.727 383.333 354.069 384.507C349.65 381.999 345.283 379.376 340.941 376.696L357.044 369.626L361.973 380.85Z" fill="#FFB6B6"/>
<path d="M479.378 292.917C476.76 296.427 474.059 299.867 471.275 303.236C468.709 306.343 466.074 309.392 463.371 312.38C462.254 313.618 461.123 314.85 459.968 316.068C457.842 318.347 455.669 320.586 453.449 322.788C449.452 324.045 441.356 326.259 432.679 328.327C426.364 329.826 419.743 331.249 414.163 332.155C411.039 332.716 407.879 333.053 404.707 333.164C400.94 333.196 397.115 333.093 393.278 332.889C388.949 332.66 384.614 332.302 380.329 331.843C369.188 330.675 358.398 328.856 349.088 326.987C345.679 326.31 342.474 325.621 339.524 324.951C333.937 323.694 329.263 322.52 325.879 321.626C322.068 320.631 319.897 319.986 319.897 319.986L310.351 335.965L305.397 344.254L301.758 350.348L300.787 351.963C300.378 351.739 299.97 351.51 299.561 351.286C293.109 347.709 286.477 344.465 279.691 341.568C275.235 339.692 270.721 338.001 266.162 336.558H266.156C264.413 336.01 262.663 335.493 260.907 335.021C261.456 333.547 262.012 332.062 262.574 330.567C263.621 327.778 264.689 324.964 265.779 322.124C268.135 315.973 270.574 309.732 273.083 303.523C275.139 298.424 277.233 293.345 279.353 288.336C280.33 286.026 282.316 283.997 285.093 282.216C286.42 281.38 287.805 280.638 289.237 279.996C297.186 276.377 308.896 274.023 321.8 272.51C322.866 272.389 323.939 272.268 325.018 272.153C335.699 271.03 347.033 270.449 357.631 270.181C362.937 270.047 368.058 269.996 372.821 269.99C374.36 269.99 375.856 269.994 377.31 270.003H377.316C381.243 270.022 384.856 270.079 388.036 270.143C388.655 270.156 389.256 270.175 389.843 270.188H389.849C390.245 270.194 390.635 270.207 391.018 270.213C397.971 270.392 402.236 270.609 402.236 270.609L403.89 257.642L404.228 255.026L404.547 252.537V252.531L404.586 252.218L404.847 252.212L409.445 252.122L448.086 251.37L469.194 250.955L465.848 265.287L460.325 288.936C460.887 292.675 479.569 289.746 479.378 292.917Z" fill="#2F2E41"/>
<path d="M366.736 378.489C365.159 379.293 363.569 380.085 361.973 380.85C359.362 382.114 356.727 383.333 354.069 384.507C349.65 381.999 345.283 379.376 340.941 376.696C333.854 372.319 326.837 367.788 319.801 363.366C318.748 362.696 317.7 362.039 316.647 361.388H316.641C313.742 357.087 310.786 352.607 307.804 347.994C307.759 347.93 307.721 347.866 307.683 347.802C306.916 346.628 306.155 345.445 305.397 344.254C300.627 336.788 295.832 329.003 291.178 321.052L302.964 315.551L324.877 305.329L328.657 303.568L339.524 324.951L349.216 344.024L351.374 348.268L366.736 378.489Z" fill="#2F2E41"/>
<path d="M370.039 275.827L425.907 221.98L441.392 178.161L418.551 168.234C406.819 179.466 394.138 214.45 394.138 214.45L355.693 263.333C355.393 263.435 355.094 263.544 354.799 263.674C353.068 264.437 351.562 265.634 350.429 267.149C349.295 268.663 348.571 270.444 348.328 272.32C348.084 274.196 348.329 276.102 349.038 277.856C349.747 279.609 350.897 281.15 352.376 282.33C353.856 283.51 355.614 284.288 357.483 284.59C359.351 284.892 361.265 284.707 363.041 284.053C364.817 283.399 366.394 282.298 367.62 280.857C368.846 279.417 369.679 277.684 370.039 275.827Z" fill="#FFB8B8"/>
<path d="M412.124 173.127L441.096 182.319L441.205 182.301C451.988 180.496 460.936 162.894 466.543 148.446C468.388 143.681 468.353 138.393 466.446 133.652C464.54 128.911 460.903 125.07 456.271 122.906C452.844 121.333 449.044 120.749 445.302 121.221C441.56 121.693 438.025 123.201 435.096 125.576L420.219 137.725L412.124 173.127Z" fill="#625CF9"/>
<path d="M479.261 293.564L479.43 293.339C488.469 281.357 476.106 251.687 474.237 247.384L482.642 244.895L481.177 228.902L480.472 221.77L487.006 215.568L487.028 215.409L491.523 183.444L497.403 162.288C499.619 154.29 499.666 145.847 497.539 137.825C495.411 129.803 491.186 122.491 485.297 116.641L473.276 104.712L458.874 82.1826L434.727 81.5596L426.044 96.9759C417.969 98.6229 410.728 103.049 405.582 109.483C400.437 115.917 397.713 123.951 397.885 132.186L398.702 173.227L390.038 224.077L389.795 233.314L381.291 242.283L382.863 251.35L376.501 253.883L373.389 266.767C372.2 268.254 364.35 278.171 364.279 280.935C364.268 281.35 364.564 281.759 365.21 282.221C370.291 285.855 398.691 293.727 411.472 288.994C425.087 283.957 478.446 293.418 478.984 293.514L479.261 293.564Z" fill="#625CF9"/>
<path d="M444.692 74.6529C462.359 74.6529 476.682 60.3385 476.682 42.6808C476.682 25.0231 462.359 10.7087 444.692 10.7087C427.024 10.7087 412.701 25.0231 412.701 42.6808C412.701 60.3385 427.024 74.6529 444.692 74.6529Z" fill="#FFB8B8"/>
<path d="M440.79 75.0808C445.744 75.158 450.695 74.8122 455.59 74.0471C460.442 73.061 471.297 65.1113 474.322 60.3276C476.571 56.7734 478.008 51.2231 478.818 47.1932C479.91 41.8603 479.868 36.3579 478.696 31.0421C477.524 25.7263 475.249 20.7158 472.016 16.3349C470.774 14.5025 469.059 13.0398 467.053 12.1014C466.875 12.0319 466.692 11.9704 466.507 11.9177C463.585 11.1491 460.958 9.52498 458.966 7.25379C458.579 6.79441 458.16 6.36344 457.712 5.96423C455.46 4.0648 452.79 2.72498 449.921 2.0543C445.289 0.815444 438.586 2.04517 429.999 5.71285C425.685 7.55557 420.966 6.88868 417.336 6.10175C417.133 6.06245 416.922 6.07711 416.726 6.14429C416.53 6.21146 416.355 6.3288 416.218 6.48463C414.674 7.93361 412.638 8.74469 410.52 8.75485C409.222 8.81178 407.861 10.6072 406.216 12.9484C405.843 13.4799 405.407 14.1001 405.093 14.4774L405.05 13.7526L404.317 14.5611C403.163 15.832 402.35 17.3739 401.953 19.0433C401.556 20.7127 401.589 22.4553 402.047 24.1089C402.506 25.7625 403.375 27.2732 404.575 28.5004C405.775 29.7275 407.267 30.6313 408.91 31.1274C410.215 31.4745 411.552 31.6874 412.901 31.763C413.717 31.8364 414.562 31.9124 415.372 32.0528C417.97 32.5846 420.386 33.7807 422.384 35.5243C424.382 37.2679 425.893 39.4995 426.771 42.0012C426.978 42.5794 427.316 43.1023 427.757 43.5294C428.199 43.9566 428.733 44.2766 429.318 44.4647C429.903 44.6528 430.524 44.704 431.132 44.6143C431.74 44.5247 432.319 44.2966 432.825 43.9476C433.669 43.2913 434.658 42.8485 435.71 42.6571C436.762 42.4658 437.844 42.5314 438.865 42.8485C439.747 43.3387 440.433 44.1171 440.809 45.0532C441.266 46.0961 442.024 46.9793 442.985 47.5902C446.273 49.2844 446.5 56.79 445.319 63.0468C444.181 69.0778 441.931 73.4407 439.847 73.6564C438.243 73.8222 438.06 73.9361 437.944 74.2196L437.84 74.4734L438.02 74.7108C438.906 75.0317 439.851 75.1579 440.79 75.0808Z" fill="#2F2E41"/>
<path d="M420.068 163.461L407.733 138.883C389.83 140.106 354.296 160.795 354.296 160.795L287.064 175.041C285.072 174.276 282.914 174.049 280.806 174.382C278.699 174.715 276.717 175.598 275.059 176.941C273.401 178.283 272.126 180.038 271.363 182.03C270.6 184.021 270.375 186.179 270.711 188.285C271.047 190.39 271.933 192.371 273.278 194.026C274.623 195.681 276.381 196.953 278.375 197.713C280.368 198.474 282.527 198.696 284.634 198.357C286.74 198.019 288.721 197.132 290.375 195.785L375.898 189.658L420.068 163.461Z" fill="#FFB8B8"/>
<path d="M415.093 167.496L447.307 143.57L452.981 123.133C454.081 119.117 454.034 114.874 452.847 110.882C451.66 106.891 449.38 103.311 446.264 100.547C442.015 96.8292 436.511 94.8623 430.867 95.0443C425.222 95.2263 419.857 97.5437 415.857 101.528C403.734 113.621 389.907 130.492 392.877 142.191L392.908 142.31L415.093 167.496Z" fill="#625CF9"/>
<path d="M375.215 231.492H289.02V242.978H375.215V231.492Z" fill="white"/>
<path d="M154.938 231.492H68.7422V242.978H154.938V231.492Z" fill="white"/>
<path d="M165.003 176.255V230.945C165.003 231.642 165.281 232.31 165.774 232.803C166.267 233.296 166.936 233.573 167.633 233.573H248.723C249.421 233.573 250.089 233.296 250.582 232.803C251.076 232.31 251.353 231.642 251.353 230.945V176.255C251.352 175.559 251.074 174.892 250.581 174.4C250.088 173.907 249.42 173.631 248.723 173.63H167.633C166.936 173.631 166.268 173.907 165.775 174.4C165.282 174.892 165.005 175.559 165.003 176.255Z" fill="#3F3D56"/>
<path d="M166.905 176.936V230.27C166.906 230.642 167.054 230.999 167.318 231.263C167.581 231.526 167.938 231.674 168.311 231.675H248.048C248.421 231.674 248.778 231.526 249.042 231.263C249.305 230.999 249.453 230.642 249.454 230.27V176.936C249.454 176.563 249.306 176.205 249.042 175.941C248.779 175.678 248.421 175.529 248.048 175.528H168.311C167.938 175.529 167.58 175.678 167.317 175.941C167.053 176.205 166.905 176.563 166.905 176.936Z" fill="#625CF9"/>
<path d="M163.307 241.611C163.456 241.797 163.644 241.947 163.859 242.05C164.074 242.152 164.31 242.205 164.548 242.204H251.377C251.614 242.204 251.849 242.15 252.063 242.048C252.277 241.946 252.466 241.797 252.616 241.613C252.765 241.429 252.872 241.213 252.928 240.983C252.984 240.752 252.987 240.512 252.939 240.279L251.591 233.881C251.535 233.62 251.415 233.377 251.241 233.175C251.067 232.972 250.845 232.816 250.596 232.721C250.415 232.65 250.223 232.614 250.029 232.614H165.89C165.696 232.614 165.504 232.65 165.323 232.721C165.074 232.816 164.852 232.972 164.678 233.175C164.505 233.377 164.384 233.62 164.329 233.881L162.981 240.279C162.933 240.512 162.937 240.752 162.994 240.982C163.05 241.212 163.157 241.427 163.307 241.611Z" fill="#2F2E41"/>
<path d="M247.05 235.37H249.1C249.273 235.37 249.412 235.231 249.412 235.059V234.078C249.412 233.906 249.273 233.766 249.1 233.766H247.05C246.877 233.766 246.738 233.906 246.738 234.078V235.059C246.738 235.231 246.877 235.37 247.05 235.37Z" fill="#3F3D56"/>
<path d="M241.701 235.37H243.752C243.924 235.37 244.063 235.231 244.063 235.059V234.078C244.063 233.906 243.924 233.766 243.752 233.766H241.701C241.529 233.766 241.389 233.906 241.389 234.078V235.059C241.389 235.231 241.529 235.37 241.701 235.37Z" fill="#3F3D56"/>
<path d="M236.352 235.37H238.403C238.575 235.37 238.715 235.231 238.715 235.059V234.078C238.715 233.906 238.575 233.766 238.403 233.766H236.352C236.18 233.766 236.041 233.906 236.041 234.078V235.059C236.041 235.231 236.18 235.37 236.352 235.37Z" fill="#3F3D56"/>
<path d="M231.004 235.37H233.054C233.227 235.37 233.366 235.231 233.366 235.059V234.078C233.366 233.906 233.227 233.766 233.054 233.766H231.004C230.831 233.766 230.692 233.906 230.692 234.078V235.059C230.692 235.231 230.831 235.37 231.004 235.37Z" fill="#3F3D56"/>
<path d="M225.656 235.37H227.706C227.879 235.37 228.018 235.231 228.018 235.059V234.078C228.018 233.906 227.879 233.766 227.706 233.766H225.656C225.483 233.766 225.344 233.906 225.344 234.078V235.059C225.344 235.231 225.483 235.37 225.656 235.37Z" fill="#3F3D56"/>
<path d="M220.307 235.37H222.358C222.53 235.37 222.669 235.231 222.669 235.059V234.078C222.669 233.906 222.53 233.766 222.358 233.766H220.307C220.135 233.766 219.995 233.906 219.995 234.078V235.059C219.995 235.231 220.135 235.37 220.307 235.37Z" fill="#3F3D56"/>
<path d="M214.958 235.37H217.009C217.181 235.37 217.321 235.231 217.321 235.059V234.078C217.321 233.906 217.181 233.766 217.009 233.766H214.958C214.786 233.766 214.647 233.906 214.647 234.078V235.059C214.647 235.231 214.786 235.37 214.958 235.37Z" fill="#3F3D56"/>
<path d="M209.61 235.37H211.66C211.833 235.37 211.972 235.231 211.972 235.059V234.078C211.972 233.906 211.833 233.766 211.66 233.766H209.61C209.437 233.766 209.298 233.906 209.298 234.078V235.059C209.298 235.231 209.437 235.37 209.61 235.37Z" fill="#3F3D56"/>
<path d="M204.261 235.37H206.312C206.484 235.37 206.624 235.231 206.624 235.059V234.078C206.624 233.906 206.484 233.766 206.312 233.766H204.261C204.089 233.766 203.949 233.906 203.949 234.078V235.059C203.949 235.231 204.089 235.37 204.261 235.37Z" fill="#3F3D56"/>
<path d="M198.912 235.37H200.963C201.135 235.37 201.275 235.231 201.275 235.059V234.078C201.275 233.906 201.135 233.766 200.963 233.766H198.912C198.74 233.766 198.601 233.906 198.601 234.078V235.059C198.601 235.231 198.74 235.37 198.912 235.37Z" fill="#3F3D56"/>
<path d="M193.564 235.37H195.615C195.787 235.37 195.926 235.231 195.926 235.059V234.078C195.926 233.906 195.787 233.766 195.615 233.766H193.564C193.392 233.766 193.252 233.906 193.252 234.078V235.059C193.252 235.231 193.392 235.37 193.564 235.37Z" fill="#3F3D56"/>
<path d="M188.215 235.37H190.266C190.438 235.37 190.578 235.231 190.578 235.059V234.078C190.578 233.906 190.438 233.766 190.266 233.766H188.215C188.043 233.766 187.903 233.906 187.903 234.078V235.059C187.903 235.231 188.043 235.37 188.215 235.37Z" fill="#3F3D56"/>
<path d="M182.866 235.37H184.917C185.089 235.37 185.229 235.231 185.229 235.059V234.078C185.229 233.906 185.089 233.766 184.917 233.766H182.866C182.694 233.766 182.555 233.906 182.555 234.078V235.059C182.555 235.231 182.694 235.37 182.866 235.37Z" fill="#3F3D56"/>
<path d="M177.518 235.37H179.569C179.741 235.37 179.881 235.231 179.881 235.059V234.078C179.881 233.906 179.741 233.766 179.569 233.766H177.518C177.346 233.766 177.207 233.906 177.207 234.078V235.059C177.207 235.231 177.346 235.37 177.518 235.37Z" fill="#3F3D56"/>
<path d="M172.17 235.37H174.221C174.393 235.37 174.532 235.231 174.532 235.059V234.078C174.532 233.906 174.393 233.766 174.221 233.766H172.17C171.997 233.766 171.858 233.906 171.858 234.078V235.059C171.858 235.231 171.997 235.37 172.17 235.37Z" fill="#3F3D56"/>
<path d="M166.821 235.37H168.872C169.044 235.37 169.184 235.231 169.184 235.059V234.078C169.184 233.906 169.044 233.766 168.872 233.766H166.821C166.649 233.766 166.509 233.906 166.509 234.078V235.059C166.509 235.231 166.649 235.37 166.821 235.37Z" fill="#3F3D56"/>
<path d="M247.113 238.043H249.164C249.336 238.043 249.476 237.903 249.476 237.731V236.751C249.476 236.579 249.336 236.439 249.164 236.439H247.113C246.941 236.439 246.801 236.579 246.801 236.751V237.731C246.801 237.903 246.941 238.043 247.113 238.043Z" fill="#3F3D56"/>
<path d="M241.764 238.043H243.815C243.987 238.043 244.127 237.903 244.127 237.731V236.751C244.127 236.579 243.987 236.439 243.815 236.439H241.764C241.592 236.439 241.453 236.579 241.453 236.751V237.731C241.453 237.903 241.592 238.043 241.764 238.043Z" fill="#3F3D56"/>
<path d="M236.416 238.043H238.467C238.639 238.043 238.778 237.903 238.778 237.731V236.751C238.778 236.579 238.639 236.439 238.467 236.439H236.416C236.244 236.439 236.104 236.579 236.104 236.751V237.731C236.104 237.903 236.244 238.043 236.416 238.043Z" fill="#3F3D56"/>
<path d="M231.067 238.043H233.118C233.29 238.043 233.43 237.903 233.43 237.731V236.751C233.43 236.579 233.29 236.439 233.118 236.439H231.067C230.895 236.439 230.755 236.579 230.755 236.751V237.731C230.755 237.903 230.895 238.043 231.067 238.043Z" fill="#3F3D56"/>
<path d="M225.718 238.043H227.769C227.941 238.043 228.081 237.903 228.081 237.731V236.751C228.081 236.579 227.941 236.439 227.769 236.439H225.718C225.546 236.439 225.407 236.579 225.407 236.751V237.731C225.407 237.903 225.546 238.043 225.718 238.043Z" fill="#3F3D56"/>
<path d="M220.37 238.043H222.421C222.593 238.043 222.732 237.903 222.732 237.731V236.751C222.732 236.579 222.593 236.439 222.421 236.439H220.37C220.198 236.439 220.058 236.579 220.058 236.751V237.731C220.058 237.903 220.198 238.043 220.37 238.043Z" fill="#3F3D56"/>
<path d="M215.021 238.043H217.072C217.244 238.043 217.384 237.903 217.384 237.731V236.751C217.384 236.579 217.244 236.439 217.072 236.439H215.021C214.849 236.439 214.71 236.579 214.71 236.751V237.731C214.71 237.903 214.849 238.043 215.021 238.043Z" fill="#3F3D56"/>
<path d="M209.673 238.043H211.723C211.896 238.043 212.035 237.903 212.035 237.731V236.751C212.035 236.579 211.896 236.439 211.723 236.439H209.673C209.5 236.439 209.361 236.579 209.361 236.751V237.731C209.361 237.903 209.5 238.043 209.673 238.043Z" fill="#3F3D56"/>
<path d="M204.324 238.043H206.375C206.547 238.043 206.687 237.903 206.687 237.731V236.751C206.687 236.579 206.547 236.439 206.375 236.439H204.324C204.152 236.439 204.012 236.579 204.012 236.751V237.731C204.012 237.903 204.152 238.043 204.324 238.043Z" fill="#3F3D56"/>
<path d="M198.976 238.043H201.027C201.199 238.043 201.338 237.903 201.338 237.731V236.751C201.338 236.579 201.199 236.439 201.027 236.439H198.976C198.804 236.439 198.664 236.579 198.664 236.751V237.731C198.664 237.903 198.804 238.043 198.976 238.043Z" fill="#3F3D56"/>
<path d="M193.627 238.043H195.678C195.85 238.043 195.99 237.903 195.99 237.731V236.751C195.99 236.579 195.85 236.439 195.678 236.439H193.627C193.455 236.439 193.315 236.579 193.315 236.751V237.731C193.315 237.903 193.455 238.043 193.627 238.043Z" fill="#3F3D56"/>
<path d="M188.279 238.043H190.329C190.502 238.043 190.641 237.903 190.641 237.731V236.751C190.641 236.579 190.502 236.439 190.329 236.439H188.279C188.106 236.439 187.967 236.579 187.967 236.751V237.731C187.967 237.903 188.106 238.043 188.279 238.043Z" fill="#3F3D56"/>
<path d="M182.93 238.043H184.981C185.153 238.043 185.292 237.903 185.292 237.731V236.751C185.292 236.579 185.153 236.439 184.981 236.439H182.93C182.758 236.439 182.618 236.579 182.618 236.751V237.731C182.618 237.903 182.758 238.043 182.93 238.043Z" fill="#3F3D56"/>
<path d="M177.581 238.043H179.632C179.804 238.043 179.944 237.903 179.944 237.731V236.751C179.944 236.579 179.804 236.439 179.632 236.439H177.581C177.409 236.439 177.27 236.579 177.27 236.751V237.731C177.27 237.903 177.409 238.043 177.581 238.043Z" fill="#3F3D56"/>
<path d="M172.233 238.043H174.284C174.456 238.043 174.595 237.903 174.595 237.731V236.751C174.595 236.579 174.456 236.439 174.284 236.439H172.233C172.06 236.439 171.921 236.579 171.921 236.751V237.731C171.921 237.903 172.06 238.043 172.233 238.043Z" fill="#3F3D56"/>
<path d="M166.884 238.043H168.935C169.107 238.043 169.247 237.903 169.247 237.731V236.751C169.247 236.579 169.107 236.439 168.935 236.439H166.884C166.712 236.439 166.572 236.579 166.572 236.751V237.731C166.572 237.903 166.712 238.043 166.884 238.043Z" fill="#3F3D56"/>
<path d="M202.72 241.25H223.491C223.663 241.25 223.802 241.111 223.802 240.939V239.958C223.802 239.786 223.663 239.646 223.491 239.646H202.72C202.547 239.646 202.408 239.786 202.408 239.958V240.939C202.408 241.111 202.547 241.25 202.72 241.25Z" fill="#3F3D56"/>
</g>
<defs>
<clipPath id="clip0_304_141">
<rect width="532" height="404" fill="white"/>
</clipPath>
</defs>
</svg>
