<svg width="640" height="480" viewBox="0 0 640 480" fill="none" xmlns="http://www.w3.org/2000/svg">
<path d="M0 0H640V160H0V0Z" fill="#FF9933"/>
<path d="M0 160H640V320H0V160Z" fill="white"/>
<path d="M0 320H640V480H0V320Z" fill="#128807"/>
<path d="M320 304C355.346 304 384 275.346 384 240C384 204.654 355.346 176 320 176C284.654 176 256 204.654 256 240C256 275.346 284.654 304 320 304Z" fill="#000088"/>
<path d="M320 296C350.928 296 376 270.928 376 240C376 209.072 350.928 184 320 184C289.072 184 264 209.072 264 240C264 270.928 289.072 296 320 296Z" fill="white"/>
<path d="M320 251.2C326.185 251.2 331.2 246.186 331.2 240C331.2 233.814 326.185 228.8 320 228.8C313.814 228.8 308.8 233.814 308.8 240C308.8 246.186 313.814 251.2 320 251.2Z" fill="#000088"/>
<path d="M375.155 250.086C376.689 250.287 378.095 249.208 378.297 247.675C378.499 246.142 377.42 244.735 375.886 244.533C374.353 244.332 372.947 245.411 372.745 246.944C372.543 248.477 373.622 249.884 375.155 250.086Z" fill="#000088"/>
<path d="M320 296L321.92 262.4L320 246.4L318.08 262.4L320 296Z" fill="#000088"/>
<path d="M370.666 264.017C372.094 264.609 373.732 263.931 374.324 262.502C374.916 261.073 374.237 259.435 372.809 258.843C371.38 258.252 369.742 258.93 369.15 260.359C368.558 261.788 369.237 263.425 370.666 264.017Z" fill="#000088"/>
<path d="M305.505 294.092L316.056 262.134L318.343 246.182L312.347 261.14L305.505 294.092Z" fill="#000088"/>
<path d="M362.723 276.312C363.95 277.254 365.708 277.022 366.649 275.795C367.591 274.569 367.359 272.811 366.133 271.87C364.906 270.928 363.148 271.16 362.207 272.386C361.265 273.613 361.497 275.371 362.723 276.312Z" fill="#000088"/>
<path d="M291.999 288.498L310.462 260.359L316.799 245.543L307.137 258.439L291.999 288.498Z" fill="#000088"/>
<path d="M351.869 286.133C352.811 287.359 354.568 287.591 355.795 286.65C357.022 285.708 357.253 283.95 356.312 282.724C355.371 281.497 353.613 281.265 352.386 282.207C351.159 283.148 350.928 284.906 351.869 286.133Z" fill="#000088"/>
<path d="M280.402 279.598L305.519 257.197L315.475 244.526L302.803 254.482L280.402 279.598Z" fill="#000088"/>
<path d="M338.844 292.809C339.436 294.238 341.074 294.916 342.502 294.325C343.931 293.733 344.61 292.095 344.018 290.666C343.426 289.238 341.788 288.559 340.359 289.151C338.931 289.743 338.252 291.381 338.844 292.809Z" fill="#000088"/>
<path d="M271.503 268L301.562 252.863L314.458 243.2L299.642 249.537L271.503 268Z" fill="#000088"/>
<path d="M324.534 295.887C324.736 297.42 326.142 298.499 327.676 298.297C329.209 298.096 330.288 296.689 330.086 295.156C329.884 293.623 328.478 292.544 326.945 292.745C325.411 292.947 324.332 294.354 324.534 295.887Z" fill="#000088"/>
<path d="M265.908 254.494L298.86 247.652L313.818 241.657L297.866 243.943L265.908 254.494Z" fill="#000088"/>
<path d="M309.914 295.156C309.713 296.689 310.792 298.096 312.325 298.297C313.858 298.499 315.265 297.42 315.467 295.887C315.668 294.354 314.589 292.947 313.056 292.745C311.523 292.544 310.116 293.623 309.914 295.156Z" fill="#000088"/>
<path d="M264 240L297.6 241.92L313.6 240L297.6 238.08L264 240Z" fill="#000088"/>
<path d="M295.982 290.666C295.391 292.095 296.069 293.733 297.498 294.324C298.926 294.916 300.564 294.238 301.156 292.809C301.748 291.38 301.069 289.742 299.641 289.151C298.212 288.559 296.574 289.237 295.982 290.666Z" fill="#000088"/>
<path d="M265.908 225.506L297.866 236.057L313.818 238.344L298.86 232.348L265.908 225.506Z" fill="#000088"/>
<path d="M283.688 282.724C282.746 283.951 282.978 285.708 284.205 286.65C285.431 287.591 287.189 287.36 288.13 286.133C289.072 284.906 288.84 283.148 287.614 282.207C286.387 281.265 284.629 281.497 283.688 282.724Z" fill="#000088"/>
<path d="M271.503 212L299.642 230.463L314.458 236.8L301.562 227.137L271.503 212Z" fill="#000088"/>
<path d="M273.868 271.87C272.641 272.811 272.409 274.569 273.351 275.796C274.292 277.022 276.05 277.254 277.277 276.312C278.503 275.371 278.735 273.613 277.794 272.387C276.852 271.16 275.094 270.928 273.868 271.87Z" fill="#000088"/>
<path d="M280.402 200.402L302.803 225.519L315.474 235.475L305.518 222.803L280.402 200.402Z" fill="#000088"/>
<path d="M267.191 258.844C265.762 259.435 265.084 261.073 265.676 262.502C266.267 263.931 267.905 264.609 269.334 264.017C270.763 263.426 271.441 261.788 270.849 260.359C270.258 258.93 268.62 258.252 267.191 258.844Z" fill="#000088"/>
<path d="M292 191.502L307.137 221.561L316.8 234.457L310.463 219.641L292 191.502Z" fill="#000088"/>
<path d="M264.113 244.533C262.58 244.735 261.501 246.142 261.703 247.675C261.904 249.208 263.311 250.287 264.844 250.085C266.377 249.884 267.456 248.477 267.255 246.944C267.053 245.411 265.646 244.332 264.113 244.533Z" fill="#000088"/>
<path d="M305.505 185.908L312.347 218.86L318.343 233.818L316.056 217.866L305.505 185.908Z" fill="#000088"/>
<path d="M264.844 229.914C263.31 229.713 261.904 230.792 261.702 232.325C261.5 233.858 262.579 235.265 264.113 235.467C265.646 235.668 267.052 234.589 267.254 233.056C267.456 231.523 266.377 230.116 264.844 229.914Z" fill="#000088"/>
<path d="M319.999 184L318.079 217.6L319.999 233.6L321.919 217.6L319.999 184Z" fill="#000088"/>
<path d="M269.334 215.983C267.905 215.391 266.267 216.069 265.675 217.498C265.083 218.927 265.762 220.565 267.19 221.157C268.619 221.748 270.257 221.07 270.849 219.641C271.441 218.212 270.762 216.575 269.334 215.983Z" fill="#000088"/>
<path d="M334.494 185.908L323.943 217.866L321.656 233.818L327.652 218.86L334.494 185.908Z" fill="#000088"/>
<path d="M277.276 203.688C276.049 202.746 274.291 202.978 273.35 204.205C272.408 205.431 272.64 207.189 273.867 208.13C275.093 209.072 276.851 208.84 277.792 207.614C278.734 206.387 278.502 204.629 277.276 203.688Z" fill="#000088"/>
<path d="M348 191.502L329.537 219.641L323.2 234.457L332.862 221.561L348 191.502Z" fill="#000088"/>
<path d="M288.13 193.867C287.188 192.641 285.431 192.409 284.204 193.35C282.977 194.292 282.746 196.05 283.687 197.276C284.628 198.503 286.386 198.735 287.613 197.793C288.84 196.852 289.071 195.094 288.13 193.867Z" fill="#000088"/>
<path d="M359.597 200.402L334.48 222.803L324.524 235.474L337.196 225.518L359.597 200.402Z" fill="#000088"/>
<path d="M301.155 187.191C300.563 185.762 298.925 185.084 297.497 185.676C296.068 186.267 295.389 187.905 295.981 189.334C296.573 190.763 298.211 191.441 299.64 190.849C301.068 190.258 301.747 188.62 301.155 187.191Z" fill="#000088"/>
<path d="M368.496 212L338.437 227.137L325.541 236.8L340.357 230.463L368.496 212Z" fill="#000088"/>
<path d="M315.465 184.113C315.263 182.58 313.857 181.501 312.323 181.703C310.79 181.905 309.711 183.311 309.913 184.844C310.115 186.377 311.521 187.457 313.054 187.255C314.588 187.053 315.667 185.647 315.465 184.113Z" fill="#000088"/>
<path d="M374.091 225.506L341.139 232.348L326.181 238.344L342.133 236.057L374.091 225.506Z" fill="#000088"/>
<path d="M330.085 184.844C330.286 183.311 329.207 181.905 327.674 181.703C326.141 181.501 324.734 182.58 324.532 184.113C324.331 185.647 325.41 187.053 326.943 187.255C328.476 187.457 329.883 186.377 330.085 184.844Z" fill="#000088"/>
<path d="M375.999 240L342.399 238.08L326.399 240L342.399 241.92L375.999 240Z" fill="#000088"/>
<path d="M344.017 189.334C344.609 187.906 343.93 186.268 342.501 185.676C341.073 185.084 339.435 185.763 338.843 187.191C338.251 188.62 338.93 190.258 340.358 190.85C341.787 191.441 343.425 190.763 344.017 189.334Z" fill="#000088"/>
<path d="M374.091 254.494L342.133 243.943L326.182 241.657L341.139 247.652L374.091 254.494Z" fill="#000088"/>
<path d="M356.311 197.277C357.253 196.05 357.021 194.292 355.795 193.351C354.568 192.409 352.81 192.641 351.869 193.867C350.927 195.094 351.159 196.852 352.385 197.793C353.612 198.735 355.37 198.503 356.311 197.277Z" fill="#000088"/>
<path d="M368.496 268L340.357 249.537L325.541 243.2L338.437 252.863L368.496 268Z" fill="#000088"/>
<path d="M366.131 208.131C367.358 207.189 367.59 205.431 366.648 204.205C365.707 202.978 363.949 202.746 362.722 203.688C361.496 204.629 361.264 206.387 362.206 207.614C363.147 208.841 364.905 209.072 366.131 208.131Z" fill="#000088"/>
<path d="M359.597 279.598L337.196 254.482L324.525 244.526L334.481 257.197L359.597 279.598Z" fill="#000088"/>
<path d="M372.808 221.157C374.237 220.565 374.915 218.927 374.323 217.498C373.732 216.07 372.094 215.391 370.665 215.983C369.236 216.575 368.558 218.213 369.15 219.641C369.741 221.07 371.379 221.748 372.808 221.157Z" fill="#000088"/>
<path d="M347.999 288.498L332.862 258.439L323.199 245.543L329.536 260.359L347.999 288.498Z" fill="#000088"/>
<path d="M375.886 235.467C377.419 235.265 378.498 233.859 378.296 232.325C378.095 230.792 376.688 229.713 375.155 229.915C373.622 230.117 372.543 231.523 372.744 233.056C372.946 234.589 374.353 235.669 375.886 235.467Z" fill="#000088"/>
<path d="M334.494 294.092L327.652 261.14L321.656 246.182L323.943 262.134L334.494 294.092Z" fill="#000088"/>
</svg>
