<svg width="720" height="480" viewBox="0 0 720 480" fill="none" xmlns="http://www.w3.org/2000/svg">
<path d="M0 0H719.992V480H0V0Z" fill="#F0F0F0"/>
<path d="M0 59.9944H719.992V119.989H0V59.9944ZM0 179.998H719.992V239.992H0V179.998ZM0 299.987H719.992V359.981H0V299.987ZM0 419.99H719.992V479.985H0V419.99Z" fill="#D80027"/>
<path d="M0 0H359.996V258.462H0V0Z" fill="#2E52B2"/>
<path d="M140.373 105.88L134.575 123.716H115.822L130.996 134.734L125.198 152.57L140.373 141.552L155.538 152.57L149.741 134.734L164.916 123.716H146.161L140.373 105.88ZM146.161 188.083L140.373 170.247L134.575 188.083H115.822L130.996 199.102L125.198 216.937L140.373 205.918L155.538 216.937L149.741 199.102L164.916 188.083H146.161ZM66.9044 188.083L61.1149 170.247L55.317 188.083H36.5635L51.7382 199.102L45.9402 216.937L61.1149 205.918L76.2812 216.937L70.4847 199.102L85.6565 188.083H66.9044ZM61.1149 105.88L55.317 123.716H36.5635L51.7382 134.734L45.9402 152.57L61.1149 141.552L76.2812 152.57L70.4847 134.734L85.6565 123.716H66.9044L61.1149 105.88ZM140.373 41.5107L134.575 59.3488H115.822L130.996 70.3681L125.198 88.2034L140.373 77.1841L155.538 88.2034L149.741 70.3681L164.916 59.3488H146.161L140.373 41.5107ZM61.1149 41.5107L55.317 59.3488H36.5635L51.7382 70.3681L45.9402 88.2034L61.1149 77.1841L76.2812 88.2034L70.4847 70.3681L85.6565 59.3488H66.9044L61.1149 41.5107ZM219.63 105.88L213.833 123.716H195.08L210.253 134.734L204.458 152.57L219.63 141.552L234.798 152.57L229 134.734L244.174 123.716H225.421L219.63 105.88ZM225.421 188.083L219.63 170.247L213.833 188.083H195.08L210.253 199.102L204.458 216.937L219.63 205.918L234.798 216.937L229 199.102L244.174 188.083H225.421ZM304.679 188.083L298.89 170.247L293.092 188.083H274.34L289.511 199.102L283.715 216.937L298.89 205.918L314.056 216.937L308.258 199.102L323.433 188.083H304.679ZM298.89 105.88L293.092 123.716H274.34L289.511 134.734L283.715 152.57L298.89 141.552L314.056 152.57L308.258 134.734L323.433 123.716H304.679L298.89 105.88ZM219.63 41.5107L213.833 59.3488H195.08L210.253 70.3681L204.458 88.2034L219.63 77.1841L234.798 88.2034L229 70.3681L244.174 59.3488H225.421L219.63 41.5107ZM298.89 41.5107L293.092 59.3488H274.34L289.511 70.3681L283.715 88.2034L298.89 77.1841L314.056 88.2034L308.258 70.3681L323.433 59.3488H304.679L298.89 41.5107Z" fill="#F0F0F0"/>
</svg>
