<svg width="720" height="480" viewBox="0 0 720 480" fill="none" xmlns="http://www.w3.org/2000/svg">
<path d="M0 0.00415039H719.986V480H0V0.00415039Z" fill="#0052B4"/>
<path d="M314.146 239.994C314.53 239.567 314.909 239.138 315.289 238.706C314.909 239.139 314.521 239.564 314.136 239.994H314.146ZM266.081 298.953L281.49 331.174L316.29 323.133L300.705 355.269L328.689 377.461L293.848 385.315L293.945 421.03L266.081 398.685L238.218 421.03L238.315 385.315L203.475 377.461L231.458 355.269L215.873 323.133L250.672 331.174L266.081 298.953ZM544.315 338.98L551.665 354.348L568.263 350.512L560.829 365.84L574.177 376.426L557.559 380.171L557.604 397.206L544.315 386.549L531.026 397.206L531.071 380.171L514.454 376.426L527.8 365.84L520.368 350.512L536.966 354.348L544.315 338.98ZM475.94 175.944L483.29 191.314L499.888 187.476L492.455 202.805L505.801 213.391L489.184 217.136L489.229 234.173L475.94 223.513L462.65 234.173L462.696 217.136L446.078 213.391L459.424 202.805L451.993 187.476L468.59 191.314L475.94 175.944ZM544.315 82.7815L551.665 98.1515L568.263 94.3125L560.829 109.643L574.176 120.228L557.559 123.974L557.604 141.009L544.315 130.35L531.026 141.009L531.071 123.974L514.454 120.228L527.8 109.643L520.368 94.3125L536.966 98.1515L544.315 82.7815ZM604.038 152.654L611.389 168.022L627.985 164.186L620.555 179.514L633.901 190.099L617.282 193.845L617.329 210.88L604.038 200.224L590.75 210.88L590.795 193.845L574.177 190.099L587.524 179.514L580.09 164.186L596.688 168.022L604.038 152.654ZM561.334 234.173L567.114 251.964H585.822L570.687 262.961L576.469 280.752L561.334 269.757L546.196 280.752L551.979 262.961L536.844 251.964H555.552L561.334 234.173Z" fill="#F0F0F0"/>
<path d="M359.993 0.00415039V42.9685L296.478 78.2632H359.993V161.735H276.881L359.993 207.909V239.994H322.475L219.126 182.584V239.994H140.867V171.69L17.9209 239.994H0V197.03L63.5148 161.735H0V78.2632H83.112L0 32.0745V0.00415039H37.518L140.867 57.416V0.00415039H219.126V68.3086L342.072 0.00415039H359.993Z" fill="#F0F0F0"/>
<path d="M202.496 0H157.497V97.4962H0V142.495H157.497V239.994H202.496V142.495H359.993V97.4962H202.496V0Z" fill="#D80027"/>
<path d="M219.126 161.735L359.993 239.994V217.865L258.96 161.735H219.126Z" fill="#0052B4"/>
<path d="M219.126 161.735L359.993 239.994V217.865L258.96 161.735H219.126Z" fill="#F0F0F0"/>
<path d="M219.126 161.735L359.993 239.994V217.865L258.96 161.735H219.126ZM101.031 161.735L0 217.865V239.994L140.867 161.735H101.031Z" fill="#D80027"/>
<path d="M140.867 78.2591L0 0V22.1297L101.033 78.2591H140.867Z" fill="#0052B4"/>
<path d="M140.867 78.2591L0 0V22.1297L101.033 78.2591H140.867Z" fill="#F0F0F0"/>
<path d="M140.867 78.2591L0 0V22.1297L101.033 78.2591H140.867ZM258.962 78.2591L359.993 22.1297V0L219.126 78.2591H258.962Z" fill="#D80027"/>
</svg>
