<svg width="640" height="480" viewBox="0 0 640 480" fill="none" xmlns="http://www.w3.org/2000/svg">
<mask id="mask0_308_592" style="mask-type:luminance" maskUnits="userSpaceOnUse" x="0" y="0" width="640" height="480">
<path d="M0 0H639.999V479.999H0V0Z" fill="white"/>
</mask>
<g mask="url(#mask0_308_592)">
<path fill-rule="evenodd" clip-rule="evenodd" d="M-0.00488281 382.35V97.9104L211.708 240.058L-0.00488281 382.361V382.35Z" fill="black"/>
<path fill-rule="evenodd" clip-rule="evenodd" d="M144.456 480.114L382.143 320.139H719.984V480.114H144.456Z" fill="#0000CC"/>
<path fill-rule="evenodd" clip-rule="evenodd" d="M129.175 0.0694084L719.965 0.0815956V160.083H382.124C382.124 160.083 132.342 -1.51306 129.175 0.0694084Z" fill="#FF0000"/>
<path fill-rule="evenodd" clip-rule="evenodd" d="M-0.00488281 60.0803V97.888L211.708 240.034L-0.00488281 382.337V420.143L266.652 240.034L-0.00488281 60.0803Z" fill="#FFCC00"/>
<path fill-rule="evenodd" clip-rule="evenodd" d="M-0.00488281 60.0802V0.0693359H88.9535L371.428 191.203H719.963V288.945H371.428L88.9535 480.051H-0.00394585V420.143L266.652 240.034L-0.00488281 60.0802Z" fill="#009933"/>
<path fill-rule="evenodd" clip-rule="evenodd" d="M88.9531 0.0693359H144.446L382.133 160.072H719.975V191.203H371.44L88.9644 0.0693359H88.9531ZM88.9531 480.114H144.446L382.133 320.139H719.975V289.009H371.44L88.9644 480.113L88.9531 480.114Z" fill="white"/>
</g>
</svg>
