<svg width="720" height="480" viewBox="0 0 720 480" fill="none" xmlns="http://www.w3.org/2000/svg">
<path d="M0 0.00390625H719.986V480H0V0.00390625Z" fill="#F0F0F0"/>
<path d="M404.992 0H314.994V194.995H0V284.994H314.994V479.989H404.992V284.994H719.986V194.995H404.992V0Z" fill="#D80027"/>
<path d="M553.75 323.471L719.987 415.826V323.471H553.75ZM438.253 323.471L719.987 479.989V435.729L517.922 323.471H438.253ZM644.942 479.989L438.253 365.151V479.989H644.942Z" fill="#0052B4"/>
<path d="M438.253 323.471L719.987 479.989V435.729L517.922 323.471H438.253Z" fill="#F0F0F0"/>
<path d="M438.253 323.471L719.987 479.989V435.729L517.922 323.471H438.253Z" fill="#D80027"/>
<path d="M127.04 323.468L0 394.046V323.468H127.04ZM281.734 343.371V479.987H35.846L281.734 343.371Z" fill="#0052B4"/>
<path d="M202.064 323.471L0 435.729V479.989L281.734 323.471H202.064Z" fill="#D80027"/>
<path d="M166.237 156.518L0 64.1631V156.518H166.237ZM281.734 156.518L0 0V44.2595L202.064 156.518H281.734ZM75.0445 0L281.734 114.838V0H75.0445Z" fill="#0052B4"/>
<path d="M281.734 156.518L0 0V44.2595L202.064 156.518H281.734Z" fill="#F0F0F0"/>
<path d="M281.734 156.518L0 0V44.2595L202.064 156.518H281.734Z" fill="#D80027"/>
<path d="M592.947 156.521L719.987 85.9425V156.521H592.947ZM438.253 136.617V0.0012207H684.141L438.253 136.617Z" fill="#0052B4"/>
<path d="M517.922 156.518L719.987 44.2595V0L438.253 156.518H517.922Z" fill="#D80027"/>
</svg>
