<svg width="721" height="480" viewBox="0 0 721 480" fill="none" xmlns="http://www.w3.org/2000/svg">
<path d="M0 0H720.016V480H0V0Z" fill="#F0F0F0"/>
<path d="M0 0H720.016V240H0V0Z" fill="#D80027"/>
<path d="M117.393 119.996C117.393 85.029 141.969 55.8178 174.786 48.65C169.645 47.5227 164.397 46.9532 159.134 46.9512C118.791 46.9512 86.0889 79.6528 86.0889 119.995C86.0889 160.337 118.792 193.04 159.134 193.04C164.509 193.04 169.741 192.442 174.786 191.341C141.969 184.176 117.393 154.965 117.393 119.996ZM211.308 52.1699L216.489 68.1129H233.253L219.69 77.9667L224.87 93.9097L211.308 84.0573L197.745 93.9097L202.927 77.9667L189.363 68.1129H206.128L211.308 52.1699Z" fill="#F0F0F0"/>
<path d="M170.643 83.4753L175.823 99.4183H192.587L179.023 109.272L184.204 125.215L170.643 115.363L157.08 125.215L162.262 109.272L148.698 99.4183H165.463L170.643 83.4753ZM251.974 83.4753L257.155 99.4183H273.919L260.355 109.272L265.536 125.215L251.974 115.363L238.412 125.215L243.594 109.272L230.03 99.4183H246.795L251.974 83.4753ZM236.321 130.432L241.501 146.375H258.266L244.704 156.229L249.884 172.172L236.321 162.32L222.76 172.172L227.941 156.229L214.379 146.375H231.141L236.321 130.432ZM186.295 130.432L191.474 146.375H208.239L194.677 156.229L199.857 172.172L186.295 162.32L172.733 172.172L177.914 156.229L164.352 146.375H181.114L186.295 130.432Z" fill="#F0F0F0"/>
</svg>
