<svg width="578" height="340" viewBox="0 0 578 340" fill="none" xmlns="http://www.w3.org/2000/svg">
<g clip-path="url(#clip0_304_241)">
<path d="M559.584 287.981C554.049 307.192 537.886 320.64 521.026 332.063C518.672 333.659 516.317 335.217 513.962 336.739C513.946 336.746 513.929 336.761 513.913 336.768C513.8 336.841 513.686 336.914 513.581 336.987C513.095 337.301 512.608 337.615 512.126 337.925L512.391 338.044C512.391 338.044 512.651 338.182 512.367 338.066C512.282 338.03 512.193 337.998 512.109 337.963C502.314 334.011 492.346 329.768 484.84 322.365C477.054 314.677 472.503 302.62 476.719 292.52C477.274 291.197 477.974 289.94 478.806 288.773C479.148 288.283 479.517 287.815 479.9 287.355C482.226 284.515 485.266 282.346 488.707 281.072C492.148 279.797 495.867 279.462 499.48 280.102C503.094 280.741 506.472 282.332 509.267 284.711C512.062 287.089 514.173 290.17 515.384 293.635C516.623 282.098 507.113 272.434 497.961 265.303C488.806 258.176 478.403 250.414 476.633 238.941C475.644 232.557 477.863 226.371 481.905 221.405C482.03 221.254 482.155 221.103 482.284 220.957C487.204 215.172 494.125 211.458 501.663 210.556C515.702 209.096 529.339 216.53 539.538 226.295C555.953 242.006 565.877 266.139 559.584 287.981Z" fill="#F2F2F2"/>
<path d="M533.196 262.854C535.89 267.047 537.959 271.612 539.337 276.403C540.502 280.685 541.02 285.117 540.875 289.552C540.499 298.679 537.938 307.583 533.407 315.513C529.993 321.53 525.834 327.09 521.026 332.063C518.672 333.659 516.318 335.217 513.962 336.739C513.946 336.746 513.93 336.761 513.913 336.768C513.8 336.841 513.687 336.914 513.581 336.987C513.095 337.301 512.608 337.615 512.126 337.925C512.126 337.925 512.651 338.182 512.367 338.066C512.282 338.03 512.193 337.999 512.109 337.963C512.987 330.763 512.127 323.457 509.601 316.658C507.075 309.859 502.957 303.765 497.592 298.886C492.214 294.081 485.778 290.616 478.807 288.773C479.149 288.283 479.517 287.815 479.9 287.355C482.593 288.11 485.213 289.102 487.731 290.319C496.731 294.643 504.1 301.75 508.748 310.59C512.918 318.616 514.713 327.667 513.922 336.678C514.324 336.314 514.727 335.941 515.118 335.572C522.561 328.63 529.171 320.662 533.645 311.466C537.526 303.679 539.434 295.056 539.2 286.357C538.835 276.873 535.057 268.087 529.588 260.439C523.593 252.279 516.512 244.978 508.54 238.738C500.506 232.3 491.714 226.871 482.362 222.57C482.151 222.471 481.986 222.295 481.901 222.079C481.816 221.862 481.817 221.621 481.905 221.405C481.968 221.211 482.104 221.05 482.284 220.957C482.377 220.917 482.478 220.898 482.579 220.902C482.68 220.907 482.778 220.934 482.868 220.981C484.022 221.513 485.169 222.052 486.306 222.615C495.781 227.299 504.637 233.143 512.671 240.013C520.431 246.632 527.737 254.194 533.196 262.854Z" fill="white"/>
<path d="M335.212 174.073C336.358 173.658 337.399 172.996 338.261 172.135C339.123 171.273 339.786 170.233 340.203 169.088C340.62 167.942 340.781 166.719 340.675 165.505C340.568 164.29 340.197 163.114 339.587 162.059L358.95 139.632L343.685 137.645L327.638 159.246C325.934 160.389 324.708 162.117 324.193 164.104C323.677 166.091 323.908 168.197 324.842 170.025C325.775 171.853 327.347 173.274 329.258 174.02C331.169 174.767 333.288 174.785 335.212 174.073Z" fill="#FFB8B8"/>
<path d="M444.354 178.812C445.157 177.895 445.75 176.814 446.09 175.643C446.43 174.473 446.51 173.242 446.323 172.037C446.137 170.832 445.688 169.683 445.009 168.67C444.331 167.658 443.438 166.807 442.395 166.176L448.55 137.189L434.219 142.811L430.572 169.475C429.63 171.299 429.389 173.404 429.895 175.394C430.401 177.383 431.619 179.117 433.317 180.268C435.016 181.419 437.078 181.906 439.112 181.638C441.146 181.37 443.011 180.364 444.354 178.812Z" fill="#FFB8B8"/>
<path d="M375.001 329.882L364.838 329.881L360.004 290.667L375.003 290.668L375.001 329.882Z" fill="#FFB8B8"/>
<path d="M377.593 339.737L344.825 339.736V339.321C344.825 337.645 345.155 335.986 345.796 334.438C346.437 332.89 347.376 331.484 348.561 330.299C349.745 329.114 351.151 328.174 352.699 327.533C354.246 326.892 355.905 326.562 357.58 326.562L377.594 326.563L377.593 339.737Z" fill="#2F2E41"/>
<path d="M424.737 329.882L414.575 329.881L409.74 290.667L424.739 290.668L424.737 329.882Z" fill="#FFB8B8"/>
<path d="M427.329 339.737L394.561 339.736V339.321C394.561 337.645 394.89 335.986 395.531 334.438C396.172 332.89 397.112 331.484 398.296 330.299C399.481 329.114 400.887 328.174 402.434 327.533C403.981 326.892 405.64 326.562 407.315 326.562L427.329 326.563L427.329 339.737Z" fill="#2F2E41"/>
<path d="M376.06 309.405L361.674 308.83C360.693 308.787 359.768 308.36 359.098 307.642C358.428 306.923 358.068 305.969 358.095 304.987L362.148 171.99L362.413 171.894C387.626 162.77 408.484 163.46 426.18 174.001L426.378 174.119L428.805 303.652C428.815 304.148 428.725 304.641 428.542 305.102C428.359 305.563 428.086 305.982 427.738 306.337C427.391 306.691 426.977 306.972 426.52 307.164C426.063 307.356 425.572 307.454 425.076 307.454H412.945C412.081 307.453 411.244 307.152 410.577 306.603C409.91 306.054 409.453 305.291 409.285 304.443L392.76 220.347C392.703 220.057 392.544 219.796 392.312 219.612C392.08 219.428 391.79 219.333 391.494 219.344C391.198 219.355 390.916 219.471 390.698 219.672C390.48 219.872 390.341 220.144 390.306 220.438L379.912 306.126C379.798 307.03 379.359 307.861 378.678 308.465C377.996 309.068 377.118 309.404 376.208 309.408C376.159 309.408 376.11 309.407 376.06 309.405Z" fill="#2F2E41"/>
<path d="M390.056 55.3552C401.3 55.3552 410.415 46.2363 410.415 34.9876C410.415 23.7388 401.3 14.6199 390.056 14.6199C378.812 14.6199 369.696 23.7388 369.696 34.9876C369.696 46.2363 378.812 55.3552 390.056 55.3552Z" fill="#FFB8B8"/>
<path d="M342.093 157.884C341.386 157.605 340.782 157.118 340.36 156.486L336.426 150.597C336.001 149.959 335.783 149.205 335.801 148.438C335.818 147.672 336.071 146.929 336.524 146.311L352.384 124.776L362.319 77.0843C362.89 75.6114 363.746 74.2656 364.838 73.1238C365.929 71.9821 367.235 71.0668 368.681 70.4302C370.126 69.7937 371.683 69.4484 373.262 69.4142C374.84 69.38 376.411 69.6574 377.882 70.2307C379.354 70.8039 380.698 71.6618 381.838 72.7551C382.978 73.8485 383.891 75.1559 384.526 76.6027C385.161 78.0494 385.504 79.6071 385.536 81.1867C385.568 82.7662 385.289 84.3367 384.715 85.8082L380.019 116.161C378.595 125.373 373.875 133.754 366.736 139.746L345.859 157.272C345.458 157.609 344.99 157.857 344.486 158.001C343.982 158.145 343.453 158.181 342.935 158.107C342.646 158.067 342.364 157.992 342.093 157.884Z" fill="#625CF9"/>
<path d="M443.484 160.045C442.77 160.303 441.994 160.336 441.26 160.141L434.418 158.321C433.677 158.122 433.016 157.701 432.523 157.114C432.03 156.527 431.729 155.802 431.66 155.038L429.342 128.391L405.302 86.0249C404.758 84.5418 404.512 82.9661 404.578 81.3878C404.643 79.8095 405.019 78.2596 405.684 76.8268C406.348 75.3939 407.289 74.1061 408.451 73.037C409.614 71.9679 410.975 71.1385 412.458 70.5962C413.941 70.0539 415.517 69.8092 417.094 69.8763C418.672 69.9434 420.221 70.3208 421.652 70.9871C423.084 71.6533 424.371 72.5954 425.438 73.7592C426.506 74.9231 427.333 76.2861 427.874 77.7702L444.396 103.658C449.411 111.514 451.404 120.925 450.002 130.141L445.907 157.096C445.828 157.614 445.641 158.11 445.357 158.551C445.074 158.992 444.702 159.369 444.263 159.656C444.02 159.816 443.758 159.947 443.484 160.045Z" fill="#625CF9"/>
<path d="M367.786 71.158C371.283 67.3215 375.597 64.3194 380.408 62.3733C385.22 60.4271 390.407 59.5865 395.586 59.9135C395.927 59.9345 396.266 59.9583 396.603 59.9847C401.513 60.373 406.283 61.8054 410.594 64.186C414.906 66.5666 418.659 69.8406 421.604 73.7891C424.598 77.7928 426.704 82.3898 427.779 87.2728C428.855 92.1558 428.876 97.2122 427.842 102.104C423.894 120.799 424.893 140.201 430.74 158.392L436.202 175.358C436.377 175.901 436.425 176.478 436.342 177.043C436.26 177.608 436.048 178.147 435.725 178.617C435.401 179.088 434.973 179.477 434.475 179.757C433.977 180.036 433.422 180.197 432.852 180.227L404.929 181.729L397.783 169.381V182.113L363.846 183.938C363.778 183.943 363.711 183.944 363.644 183.944C363.129 183.944 362.62 183.837 362.148 183.63C361.677 183.423 361.253 183.121 360.904 182.743C360.554 182.364 360.288 181.917 360.119 181.43C359.951 180.943 359.886 180.426 359.927 179.913L363.763 132.328L358.952 100.009C358.173 94.8452 358.563 89.5724 360.092 84.5791C361.62 79.5859 364.25 74.9995 367.786 71.158Z" fill="#625CF9"/>
<path d="M404.205 54.4314C402.32 55.5164 394.869 56.2359 394.338 54.126L394.327 54.0796C393.958 52.5338 394.264 50.9196 394.371 49.3337C394.477 47.7478 394.321 46.0056 393.242 44.8396C391.229 42.6659 387.648 43.8182 384.738 43.2686C383.033 42.888 381.526 41.8989 380.497 40.4866C379.469 39.0742 378.99 37.3354 379.151 35.5954C379.192 35.2658 379.257 34.9358 379.33 34.606C379.512 33.7704 379.498 32.9039 379.289 32.0747C379.08 31.2454 378.682 30.4759 378.126 29.8266C377.569 29.1772 376.87 28.6657 376.083 28.3322C375.296 27.9987 374.442 27.8523 373.589 27.9044C370.647 28.0727 367.473 28.9641 365.039 26.7848C363.157 25.0996 362.698 20.7126 363.525 18.3252C364.915 14.3129 373.815 12.2124 377.701 11.0578C382.508 9.66847 387.563 9.36812 392.5 10.1785C397.437 10.9889 402.132 12.8897 406.242 15.7427C408.697 17.4736 410.989 19.6485 412.035 22.4646C413.081 25.2807 412.577 28.8336 410.218 30.6926C412.046 32.6295 413.334 35.0132 413.952 37.6048C414.569 40.1964 414.496 42.9049 413.737 45.4589C412.572 49.2151 407.011 52.8162 404.205 54.4314Z" fill="#2F2E41"/>
<path d="M220.497 114.439H37.3026C37.0827 114.439 36.8719 114.352 36.7164 114.196C36.561 114.041 36.4736 113.83 36.4736 113.61C36.4736 113.39 36.561 113.179 36.7164 113.023C36.8719 112.868 37.0827 112.781 37.3026 112.781H220.497C220.717 112.781 220.928 112.868 221.084 113.023C221.239 113.179 221.326 113.39 221.326 113.61C221.326 113.83 221.239 114.041 221.084 114.196C220.928 114.352 220.717 114.439 220.497 114.439Z" fill="#E6E6E6"/>
<path d="M180.376 114.439H76.2625C76.0427 114.439 75.8319 114.352 75.6764 114.196C75.5209 114.041 75.4336 113.83 75.4336 113.61C75.4336 113.39 75.5209 113.179 75.6764 113.023C75.8319 112.868 76.0427 112.781 76.2625 112.781H180.376C180.595 112.781 180.806 112.868 180.962 113.023C181.117 113.179 181.204 113.39 181.204 113.61C181.204 113.83 181.117 114.041 180.962 114.196C180.806 114.352 180.595 114.439 180.376 114.439Z" fill="#3F3D56"/>
<path d="M129.314 114.439C129.094 114.439 128.884 114.352 128.728 114.196C128.573 114.041 128.485 113.83 128.485 113.61V61.3659C128.485 61.146 128.573 60.935 128.728 60.7795C128.884 60.624 129.094 60.5366 129.314 60.5366C129.534 60.5366 129.745 60.624 129.9 60.7795C130.056 60.935 130.143 61.146 130.143 61.3659V113.61C130.143 113.83 130.056 114.041 129.9 114.196C129.745 114.352 129.534 114.439 129.314 114.439Z" fill="#3F3D56"/>
<path d="M181.537 114.439C181.317 114.439 181.106 114.352 180.951 114.196C180.795 114.041 180.708 113.83 180.708 113.61V9.12199C180.708 8.90206 180.795 8.69113 180.951 8.53561C181.106 8.38009 181.317 8.29272 181.537 8.29272C181.757 8.29272 181.968 8.38009 182.123 8.53561C182.279 8.69113 182.366 8.90206 182.366 9.12199V113.61C182.366 113.83 182.279 114.041 182.123 114.196C181.968 114.352 181.757 114.439 181.537 114.439Z" fill="#3F3D56"/>
<path d="M9.11829 18.2439C14.1542 18.2439 18.2366 14.1599 18.2366 9.12195C18.2366 4.08404 14.1542 0 9.11829 0C4.0824 0 0 4.08404 0 9.12195C0 14.1599 4.0824 18.2439 9.11829 18.2439Z" fill="#E6E6E6"/>
<path d="M9.11829 70.4878C14.1542 70.4878 18.2366 66.4038 18.2366 61.3658C18.2366 56.3279 14.1542 52.2439 9.11829 52.2439C4.0824 52.2439 0 56.3279 0 61.3658C0 66.4038 4.0824 70.4878 9.11829 70.4878Z" fill="#E6E6E6"/>
<path d="M9.11829 122.732C14.1542 122.732 18.2366 118.648 18.2366 113.61C18.2366 108.572 14.1542 104.488 9.11829 104.488C4.0824 104.488 0 108.572 0 113.61C0 118.648 4.0824 122.732 9.11829 122.732Z" fill="#E6E6E6"/>
<path d="M220.497 9.95126H37.3026C37.0827 9.95126 36.8719 9.86388 36.7164 9.70836C36.561 9.55284 36.4736 9.34193 36.4736 9.12199C36.4736 8.90206 36.561 8.69113 36.7164 8.53561C36.8719 8.38009 37.0827 8.29272 37.3026 8.29272H220.497C220.717 8.29272 220.928 8.38009 221.084 8.53561C221.239 8.69113 221.326 8.90206 221.326 9.12199C221.326 9.34193 221.239 9.55284 221.084 9.70836C220.928 9.86388 220.717 9.95126 220.497 9.95126Z" fill="#E6E6E6"/>
<path d="M220.497 62.1952H37.3026C37.0827 62.1952 36.8719 62.1078 36.7164 61.9523C36.561 61.7967 36.4736 61.5858 36.4736 61.3659C36.4736 61.146 36.561 60.935 36.7164 60.7795C36.8719 60.624 37.0827 60.5366 37.3026 60.5366H220.497C220.717 60.5366 220.928 60.624 221.084 60.7795C221.239 60.935 221.326 61.146 221.326 61.3659C221.326 61.5858 221.239 61.7967 221.084 61.9523C220.928 62.1078 220.717 62.1952 220.497 62.1952Z" fill="#E6E6E6"/>
<path d="M76.6769 122.732C81.7128 122.732 85.7952 118.648 85.7952 113.61C85.7952 108.572 81.7128 104.488 76.6769 104.488C71.641 104.488 67.5586 108.572 67.5586 113.61C67.5586 118.648 71.641 122.732 76.6769 122.732Z" fill="#625CF9"/>
<path d="M129.314 70.4878C134.35 70.4878 138.432 66.4038 138.432 61.3658C138.432 56.3279 134.35 52.2439 129.314 52.2439C124.278 52.2439 120.195 56.3279 120.195 61.3658C120.195 66.4038 124.278 70.4878 129.314 70.4878Z" fill="#625CF9"/>
<path d="M129.314 122.732C134.35 122.732 138.432 118.648 138.432 113.61C138.432 108.572 134.35 104.488 129.314 104.488C124.278 104.488 120.195 108.572 120.195 113.61C120.195 118.648 124.278 122.732 129.314 122.732Z" fill="#625CF9"/>
<path d="M181.537 18.2439C186.573 18.2439 190.656 14.1599 190.656 9.12195C190.656 4.08404 186.573 0 181.537 0C176.501 0 172.419 4.08404 172.419 9.12195C172.419 14.1599 176.501 18.2439 181.537 18.2439Z" fill="#625CF9"/>
<path d="M181.537 70.4878C186.573 70.4878 190.656 66.4038 190.656 61.3658C190.656 56.3279 186.573 52.2439 181.537 52.2439C176.501 52.2439 172.419 56.3279 172.419 61.3658C172.419 66.4038 176.501 70.4878 181.537 70.4878Z" fill="#625CF9"/>
<path d="M181.537 122.732C186.573 122.732 190.656 118.648 190.656 113.61C190.656 108.572 186.573 104.488 181.537 104.488C176.501 104.488 172.419 108.572 172.419 113.61C172.419 118.648 176.501 122.732 181.537 122.732Z" fill="#625CF9"/>
<path d="M577.171 340H213.268C213.049 340 212.838 339.913 212.682 339.757C212.527 339.602 212.439 339.391 212.439 339.171C212.439 338.951 212.527 338.74 212.682 338.584C212.838 338.429 213.049 338.341 213.268 338.341H577.171C577.391 338.341 577.602 338.429 577.757 338.584C577.913 338.74 578 338.951 578 339.171C578 339.391 577.913 339.602 577.757 339.757C577.602 339.913 577.391 340 577.171 340Z" fill="#3F3D56"/>
<path d="M269.405 266.239C268.855 266.21 268.303 266.196 267.747 266.195C259.392 266.195 251.38 269.515 245.473 275.425C239.566 281.334 236.247 289.35 236.247 297.707H269.405V266.239Z" fill="#625CF9"/>
<path d="M276.036 340C267.464 339.99 259.247 336.58 253.187 330.517C247.126 324.454 243.717 316.233 243.707 307.658C243.707 307.439 243.794 307.228 243.95 307.072C244.105 306.917 244.316 306.829 244.536 306.829H276.864V276.19C276.864 276.078 276.887 275.966 276.932 275.863C276.976 275.759 277.041 275.666 277.123 275.589C277.204 275.51 277.3 275.45 277.406 275.411C277.511 275.372 277.624 275.355 277.736 275.362C286.151 275.805 294.061 279.518 299.78 285.71C305.498 291.902 308.575 300.082 308.353 308.51C308.131 316.937 304.629 324.944 298.593 330.826C292.556 336.708 284.462 340 276.036 340ZM245.376 308.488C245.536 314.413 247.409 320.165 250.767 325.048C254.125 329.931 258.825 333.737 264.298 336.005C269.772 338.273 275.786 338.907 281.612 337.829C287.438 336.752 292.827 334.009 297.128 329.933C301.43 325.856 304.459 320.621 305.849 314.86C307.24 309.098 306.933 303.057 304.965 297.466C302.997 291.875 299.452 286.975 294.76 283.356C290.067 279.738 284.428 277.556 278.522 277.076V307.658C278.522 307.878 278.435 308.089 278.28 308.245C278.124 308.4 277.913 308.488 277.693 308.488H245.376Z" fill="#3F3D56"/>
</g>
<defs>
<clipPath id="clip0_304_241">
<rect width="578" height="340" fill="white"/>
</clipPath>
</defs>
</svg>
