<svg width="487" height="480" viewBox="0 0 487 480" fill="none" xmlns="http://www.w3.org/2000/svg">
<g clip-path="url(#clip0_304_274)">
<path d="M354.7 89.1857C354.641 107.82 353.382 126.431 350.933 144.902C350.847 145.551 350.754 146.2 350.668 146.848H176.535C176.02 146.208 175.513 145.559 175.022 144.902C173.384 142.73 171.848 140.494 170.436 138.181C163.651 127.036 160.5 113.961 163.534 104.91L163.588 104.77C164.243 102.788 165.282 100.955 166.646 99.3771C173.633 91.4052 187.859 92.6479 200.797 98.9785C189.153 86.3486 179.849 70.3815 179.069 56.087C178.305 42.1441 185.526 32.1403 193.372 23.6292C193.63 23.3478 193.887 23.0743 194.144 22.8007C194.269 22.6601 194.402 22.5272 194.526 22.3865C200.649 15.8997 207.792 9.49877 218.188 10.21C229.59 10.9916 242.279 20.4874 251.201 31.5854C260.123 42.6756 266.081 55.2977 272.118 67.6149C278.162 79.9243 284.697 92.5464 294.344 103.043C281.266 86.6535 270.69 67.9822 266.721 49.7877C262.751 31.5932 266.058 14.0787 277.584 5.43474C281.084 2.89082 285.141 1.2239 289.416 0.573498C289.914 0.487528 290.421 0.417189 290.936 0.354665C301.644 -0.927039 314.458 2.71495 325.392 11.5308C337.433 21.2377 345.824 35.6807 350.036 49.4126C354.247 63.1444 354.762 76.3839 354.7 89.1857Z" fill="#F2F2F2"/>
<path d="M241.094 146.848H237.764C236.703 146.192 235.637 145.543 234.567 144.902C233.904 144.488 233.233 144.09 232.562 143.683C221.48 136.985 210.33 130.564 199.113 124.418C187.906 118.267 176.644 112.403 165.328 106.825C165.028 106.696 164.783 106.466 164.635 106.175C164.486 105.884 164.445 105.55 164.517 105.231C164.529 105.189 164.547 105.149 164.572 105.114C164.728 104.817 165.079 104.692 165.593 104.942C166.981 105.629 168.377 106.317 169.766 107.021C181.113 112.695 192.414 118.655 203.667 124.902C214.913 131.147 226.097 137.67 237.218 144.473C237.452 144.613 237.686 144.762 237.92 144.902C238.98 145.551 240.033 146.2 241.094 146.848Z" fill="white"/>
<path d="M284.027 146.848H281.968C281.5 146.2 281.04 145.551 280.572 144.902C269.576 129.631 258.582 114.359 247.59 99.0879C229.59 74.0861 211.596 49.0843 193.607 24.0825C193.5 23.9479 193.421 23.794 193.373 23.6292C193.217 23.0743 193.622 22.746 194.145 22.8007C194.365 22.831 194.576 22.908 194.765 23.0266C194.953 23.1452 195.114 23.3027 195.237 23.4885C205.328 37.5095 215.417 51.5253 225.504 65.5359C243.41 90.4127 261.314 115.287 279.215 140.158C280.354 141.737 281.492 143.324 282.631 144.902C283.099 145.551 283.567 146.2 284.027 146.848Z" fill="white"/>
<path d="M329.829 134.609C329.744 138.087 329.533 141.51 329.252 144.902C329.198 145.551 329.143 146.2 329.088 146.848H326.928C326.991 146.2 327.053 145.551 327.108 144.902C327.537 140.002 327.833 135.047 327.849 129.959C327.827 115.853 326.377 101.786 323.52 87.9742C320.483 73.1021 316.159 58.5233 310.597 44.4028C304.76 29.5099 297.742 15.1094 289.611 1.33934C289.458 1.11502 289.389 0.843778 289.416 0.573427C289.502 -0.0439976 290.32 -0.231569 290.936 0.354594C291.058 0.469595 291.163 0.601136 291.248 0.745369C292.254 2.45697 293.242 4.17377 294.212 5.89578C302.047 19.7442 308.767 34.1966 314.31 49.1155C319.589 63.284 323.626 77.8865 326.374 92.7573C328.949 106.553 330.106 120.577 329.829 134.609Z" fill="white"/>
<path d="M480.192 144.902H6.8004C4.99729 144.904 3.2685 145.623 1.99353 146.9C0.718561 148.178 0.00158385 149.911 0 151.717V473.185C0.00158179 474.992 0.718561 476.724 1.99353 478.002C3.26851 479.28 4.99729 479.998 6.8004 480H480.192C481.175 480 482.146 479.786 483.039 479.373C483.932 478.96 484.725 478.358 485.363 477.608C485.417 477.55 485.466 477.487 485.511 477.421C485.917 476.923 486.245 476.367 486.486 475.772C486.828 474.952 487.003 474.073 487 473.185V151.718C486.998 149.909 486.28 148.176 485.003 146.898C483.727 145.62 481.996 144.902 480.192 144.902ZM485.058 473.185C485.059 474.136 484.78 475.066 484.255 475.858C483.789 476.555 483.156 477.125 482.414 477.515C481.727 477.87 480.965 478.055 480.192 478.054H6.8004C5.51227 478.052 4.27734 477.539 3.3665 476.626C2.45566 475.713 1.94326 474.476 1.9417 473.185V151.718C1.94325 150.427 2.45565 149.189 3.3665 148.276C4.27734 147.363 5.51227 146.85 6.8004 146.848H480.192C481.481 146.848 482.718 147.361 483.63 148.274C484.543 149.187 485.056 150.425 485.058 151.718V473.185Z" fill="#3F3D56"/>
<path d="M486.025 172.217H0.96875V174.165H486.025V172.217Z" fill="#3F3D56"/>
<path d="M17.4944 165.359C20.7156 165.359 23.3268 162.742 23.3268 159.514C23.3268 156.286 20.7156 153.67 17.4944 153.67C14.2733 153.67 11.6621 156.286 11.6621 159.514C11.6621 162.742 14.2733 165.359 17.4944 165.359Z" fill="#3F3D56"/>
<path d="M34.262 165.359C37.4831 165.359 40.0944 162.742 40.0944 159.514C40.0944 156.286 37.4831 153.67 34.262 153.67C31.0409 153.67 28.4297 156.286 28.4297 159.514C28.4297 162.742 31.0409 165.359 34.262 165.359Z" fill="#3F3D56"/>
<path d="M51.0296 165.359C54.2507 165.359 56.8619 162.742 56.8619 159.514C56.8619 156.286 54.2507 153.67 51.0296 153.67C47.8085 153.67 45.1973 156.286 45.1973 159.514C45.1973 162.742 47.8085 165.359 51.0296 165.359Z" fill="#3F3D56"/>
<path d="M216.011 337.844C210.178 334.039 207.277 325.195 208.706 317.108C210.135 309.021 215.518 302.055 221.97 299.051C225.109 297.633 228.55 297.019 231.984 297.263C235.418 297.508 238.738 298.604 241.645 300.452C247.562 304.078 255.93 306.064 258.74 313.318C260.899 318.893 258.161 330.214 255.254 335.628C252.743 340.308 247.969 342.449 243.485 343.379C238.524 344.393 233.403 344.328 228.469 343.187C223.535 342.046 218.904 339.857 214.887 336.767L216.011 337.844Z" fill="#2F2E41"/>
<path d="M212.968 380.798L208.304 388.856L207.688 389.919L206.791 391.482H193.042L193.97 389.919L196.372 385.862L201.972 376.39L208.312 378.93L212.968 380.798Z" fill="#FFB8B8"/>
<path d="M192.013 391.482L189.501 389.918L189.189 389.723L204.951 360.939C205.629 359.693 206.546 358.594 207.651 357.706C208.755 356.818 210.025 356.158 211.385 355.765C213.103 355.252 214.922 355.185 216.673 355.569C217.694 355.785 218.677 356.154 219.589 356.663C219.965 356.87 220.327 357.099 220.673 357.351C222.006 358.288 223.102 359.524 223.871 360.962C224.787 362.645 225.239 364.542 225.182 366.458C225.124 368.374 224.559 370.24 223.543 371.865L217.468 381.595L212.274 389.918L211.299 391.482H192.013Z" fill="#2F2E41"/>
<path d="M232.507 348.06C243.086 348.06 251.662 339.466 251.662 328.864C251.662 318.263 243.086 309.668 232.507 309.668C221.928 309.668 213.353 318.263 213.353 328.864C213.353 339.466 221.928 348.06 232.507 348.06Z" fill="#FFB8B8"/>
<path d="M251.737 391.481H208.679L208.874 390.927C208.765 390.591 208.664 390.254 208.57 389.918C208.469 389.567 208.383 389.207 208.305 388.855C207.605 385.584 207.608 382.2 208.313 378.93C210.692 367.222 220.183 357.711 220.183 357.711C220.347 357.586 220.51 357.468 220.674 357.351C222.086 356.315 223.618 355.454 225.236 354.788C232.287 351.857 239.68 353.037 244.647 354.553C246.378 355.078 248.069 355.723 249.709 356.484C250.286 356.757 250.598 356.929 250.598 356.929L251.09 371.943L251.682 389.918L251.737 391.481Z" fill="#625CF9"/>
<path d="M271.655 389.918L268.364 373.146L265.042 356.234C264.903 355.535 264.557 354.895 264.049 354.397C263.541 353.899 262.895 353.567 262.195 353.444L255.238 352.24L248.765 351.122C248.141 351.01 247.498 351.07 246.905 351.297C246.313 351.525 245.794 351.91 245.404 352.412C244.918 353.02 244.651 353.774 244.647 354.553C244.648 355.034 244.746 355.511 244.936 355.952C248.313 363.846 248.376 376.343 247.518 389.918C247.479 390.434 247.448 390.958 247.408 391.482H271.967L271.655 389.918Z" fill="#2F2E41"/>
<path d="M225.236 354.788C225.093 354.219 224.811 353.695 224.415 353.262C224.02 352.83 223.523 352.503 222.97 352.311C222.417 352.119 221.825 352.067 221.247 352.161C220.669 352.255 220.124 352.492 219.66 352.85L216.673 355.569L204.444 366.73C204.063 367.073 203.764 367.497 203.571 367.972C202.19 371.278 199.5 377.804 196.372 385.862C195.865 387.175 195.343 388.527 194.805 389.918C194.617 390.434 194.415 390.958 194.212 391.482H214.364C214.528 390.958 214.692 390.434 214.856 389.918C215.752 387.081 216.626 384.299 217.468 381.595C219.933 373.74 222.155 366.605 223.871 360.962C224.347 359.399 224.781 357.956 225.174 356.632C225.357 356.034 225.378 355.397 225.236 354.788Z" fill="#2F2E41"/>
<path d="M276.179 391.482H277.481L277.302 391.044L276.826 389.919L269.487 372.467L268.364 373.147L259.349 378.61L263.973 389.919L264.613 391.482H271.967H276.179Z" fill="#FFB8B8"/>
<path d="M268.738 358.625C267.745 356.021 265.785 353.902 263.269 352.712C260.753 351.521 257.875 351.352 255.238 352.24C254.901 352.352 254.57 352.482 254.247 352.631C252.4 353.457 250.825 354.793 249.709 356.484C249.253 357.159 248.878 357.885 248.593 358.649C248.087 359.973 247.848 361.385 247.889 362.803C247.931 364.221 248.252 365.617 248.835 366.91L251.089 371.943L259.153 389.918L259.855 391.482H276.178L277.301 391.044L280.218 389.918L280.623 389.762L268.738 358.625Z" fill="#2F2E41"/>
<path d="M247.552 306.818C248.22 307.018 248.935 306.993 249.586 306.745C250.238 306.497 250.79 306.041 251.157 305.447C251.504 304.841 251.708 304.164 251.754 303.467C251.8 302.771 251.686 302.073 251.42 301.427C250.877 300.138 250.02 299.006 248.928 298.133C247.689 297.009 246.179 296.226 244.548 295.86C243.732 295.684 242.889 295.686 242.074 295.866C241.26 296.045 240.494 296.398 239.827 296.9C239.173 297.419 238.687 298.122 238.434 298.918C238.18 299.715 238.169 300.569 238.403 301.372C238.899 302.814 240.242 303.78 241.584 304.499C244.246 305.923 247.181 306.759 250.193 306.951L247.552 306.818Z" fill="#2F2E41"/>
<path d="M251.278 328.291C248.199 328.716 248.594 327.145 247.361 324.286C246.128 321.426 244.477 318.032 241.381 317.742C238.845 317.504 236.755 319.537 234.7 321.046C231.037 323.735 226.101 325.052 221.856 323.438C217.61 321.825 214.66 316.754 216.271 312.5C216.772 311.325 217.509 310.266 218.436 309.388C219.362 308.51 220.459 307.832 221.657 307.397C224.062 306.54 226.615 306.184 229.162 306.352C234.825 306.533 240.379 307.958 245.433 310.526C248.921 312.302 252.316 314.843 253.639 318.532C254.963 322.222 255.833 327.407 252.05 328.405L251.278 328.291Z" fill="#2F2E41"/>
<path d="M245.978 296.67C244.456 294.014 245.712 290.371 248.203 288.597C250.693 286.823 254.034 286.649 257.007 287.36C259.946 288.102 262.639 289.606 264.815 291.72C266.992 293.834 268.575 296.484 269.407 299.405C270.668 304.049 269.918 309.036 270.986 313.728C271.556 316.229 272.63 318.586 274.143 320.656C275.656 322.725 277.575 324.462 279.783 325.76C281.991 327.057 284.441 327.889 286.982 328.202C289.523 328.515 292.1 328.304 294.556 327.581C297.755 326.639 301.006 324.351 301.321 321.024C301.652 324.844 300.783 328.672 298.835 331.972C296.888 335.272 293.959 337.88 290.459 339.429C286.337 341.152 281.74 341.264 277.275 341.149C274.366 341.075 271.39 340.899 268.706 339.771C266.849 338.922 265.179 337.711 263.795 336.207C262.412 334.703 261.341 332.938 260.647 331.015C259.28 327.148 258.911 322.999 259.574 318.951C260.013 315.803 260.887 312.717 261.132 309.548C261.376 306.378 260.912 302.994 258.963 300.486C257.013 297.979 253.288 296.698 250.516 298.243C249.402 298.864 248.503 299.879 247.293 300.28C246.082 300.68 244.367 299.976 244.477 298.703L245.978 296.67Z" fill="#2F2E41"/>
<path d="M376.689 391.482L376.838 389.918L381.236 344.057C382.678 342.926 384.227 341.939 385.861 341.111C394.916 336.539 403.65 338.727 408.376 340.618C409.629 341.11 410.839 341.703 411.995 342.392L414.569 389.918L414.655 391.482H376.689Z" fill="#625CF9"/>
<path d="M397.289 331.851C407.868 331.851 416.443 323.257 416.443 312.656C416.443 302.054 407.868 293.46 397.289 293.46C386.71 293.46 378.134 302.054 378.134 312.656C378.134 323.257 386.71 331.851 397.289 331.851Z" fill="#FFB8B8"/>
<path d="M412.831 324.36C414.255 322.856 415.2 320.962 415.547 318.918C415.893 316.875 415.625 314.774 414.777 312.883C413.929 310.993 412.538 309.398 410.783 308.301C409.028 307.204 406.986 306.656 404.919 306.725C402.27 306.814 399.774 307.9 397.246 308.697C393.415 310.003 389.328 310.372 385.326 309.773C381.3 309.147 377.667 306.997 375.175 303.766C372.805 300.502 372.066 295.975 373.74 292.303C375.673 288.064 380.188 285.729 384.435 283.831C386.148 282.972 387.977 282.37 389.865 282.043C390.81 281.886 391.778 281.926 392.708 282.161C393.637 282.396 394.509 282.82 395.267 283.408C396.46 284.437 397.16 285.983 398.459 286.875C399.921 287.878 401.82 287.852 403.583 288.029C407.555 288.427 411.312 290.028 414.353 292.618C417.395 295.208 419.578 298.665 420.612 302.529C421.645 306.393 421.48 310.48 420.139 314.248C418.798 318.015 416.344 321.285 413.104 323.621L412.831 324.36Z" fill="#2F2E41"/>
<path d="M388.716 349.051L385.862 341.111L385.683 340.616C385.599 340.381 385.462 340.169 385.284 339.995C385.105 339.821 384.89 339.69 384.653 339.612C384.417 339.534 384.166 339.511 383.919 339.544C383.672 339.578 383.437 339.667 383.229 339.805L379.989 341.97C379.989 341.97 359.205 341.97 357.536 354.467C357.513 354.663 357.481 354.882 357.458 355.116C357.457 355.127 357.454 355.137 357.45 355.147C357.24 355.968 353.317 371.161 349.948 389.918C349.854 390.434 349.761 390.958 349.667 391.482H394.83C396.3 372.639 395.478 355.12 388.716 349.051Z" fill="#2F2E41"/>
<path d="M442.591 389.918C440.127 370.677 436.601 355.116 436.601 355.116C436.57 354.882 436.539 354.663 436.515 354.467C434.854 341.97 414.07 341.97 414.07 341.97L410.832 339.807C410.624 339.668 410.388 339.579 410.142 339.545C409.895 339.512 409.644 339.535 409.407 339.613C409.17 339.691 408.955 339.823 408.776 339.997C408.598 340.171 408.461 340.383 408.377 340.618L405.343 349.051C398.582 355.12 397.759 372.639 399.229 391.481L442.786 391.482C442.723 390.958 442.653 390.434 442.591 389.918Z" fill="#2F2E41"/>
<path d="M76.7615 346.105L72.129 389.918L71.9652 391.481H59.4326C59.5807 390.973 59.7289 390.45 59.885 389.918C63.4413 377.695 68.2844 359.852 67.7616 355.124C66.9428 347.746 72.6751 345.284 72.6751 345.284L73.0338 345.354L76.7615 346.105Z" fill="#625CF9"/>
<path d="M96.9732 332.581C107.552 332.581 116.128 323.987 116.128 313.385C116.128 302.784 107.552 294.19 96.9732 294.19C86.3943 294.19 77.8184 302.784 77.8184 313.385C77.8184 323.987 86.3943 332.581 96.9732 332.581Z" fill="#A0616A"/>
<path d="M121.768 382.181C120.802 383.966 120.011 385.84 119.405 387.777C119.179 388.465 118.961 389.184 118.758 389.918C118.61 390.426 118.477 390.95 118.345 391.482H67.8232C67.8937 390.966 67.9558 390.442 68.0262 389.918C70.6077 369.481 72.6975 348.739 73.033 345.354C73.0642 345.034 73.0799 344.87 73.0799 344.87C103.355 328.879 125.449 349.794 125.449 349.794C125.449 349.794 125.48 349.942 125.527 350.231C126.011 353.154 128.475 370.223 121.768 382.181Z" fill="#625CF9"/>
<path d="M119.405 387.777L116.036 380.54L116.855 351.841L125.527 350.231L125.832 350.177C130.314 352.788 133.783 356.843 135.673 361.681C137.358 365.901 140.563 378.594 143.27 389.918C143.395 390.442 143.519 390.966 143.644 391.482H121.129L120.403 389.918L119.405 387.777Z" fill="#625CF9"/>
<path d="M150.219 262.526H39.4591C37.0834 262.529 34.8058 263.476 33.1259 265.159C31.446 266.842 30.5009 269.125 30.498 271.506V382.502C30.5009 384.882 31.446 387.165 33.1259 388.848C34.8058 390.532 37.0834 391.479 39.4591 391.482H150.219C152.595 391.48 154.873 390.533 156.553 388.85C158.233 387.166 159.178 384.883 159.179 382.502V271.506C159.178 269.125 158.233 266.841 156.553 265.158C154.873 263.474 152.595 262.527 150.219 262.526ZM157.62 382.502C157.618 384.468 156.838 386.354 155.45 387.744C154.063 389.135 152.181 389.917 150.219 389.918H39.4591C37.4971 389.915 35.6163 389.133 34.229 387.743C32.8416 386.353 32.0608 384.468 32.0578 382.502V271.506C32.0608 269.54 32.8416 267.655 34.229 266.264C35.6163 264.874 37.4971 264.092 39.4591 264.089H150.219C152.181 264.09 154.063 264.872 155.45 266.263C156.838 267.654 157.618 269.539 157.62 271.506V382.502ZM72.1283 389.918L71.9645 391.482H118.345C118.477 390.95 118.61 390.426 118.758 389.918H72.1283Z" fill="#3F3D56"/>
<path d="M298.873 262.526H188.113C185.738 262.529 183.46 263.476 181.78 265.159C180.1 266.842 179.155 269.125 179.152 271.506V382.502C179.155 384.882 180.1 387.165 181.78 388.848C183.46 390.532 185.738 391.479 188.113 391.482H298.873C301.249 391.48 303.527 390.533 305.207 388.85C306.888 387.166 307.832 384.883 307.834 382.502V271.506C307.832 269.125 306.888 266.841 305.207 265.158C303.527 263.474 301.249 262.527 298.873 262.526ZM306.274 382.502C306.272 384.468 305.492 386.354 304.104 387.744C302.717 389.135 300.835 389.917 298.873 389.918H188.113C186.151 389.915 184.271 389.133 182.883 387.743C181.496 386.353 180.715 384.468 180.712 382.502V271.506C180.715 269.54 181.496 267.655 182.883 266.264C184.271 264.874 186.151 264.092 188.113 264.089H298.873C300.835 264.09 302.717 264.872 304.104 266.263C305.492 267.654 306.272 269.539 306.274 271.506V382.502ZM208.57 389.918C208.663 390.255 208.765 390.591 208.874 390.927L208.679 391.482H247.408C247.447 390.958 247.478 390.434 247.517 389.918H208.57Z" fill="#3F3D56"/>
<path d="M447.535 262.526H336.776C334.399 262.527 332.121 263.474 330.441 265.158C328.761 266.841 327.816 269.125 327.814 271.506V382.502C327.816 384.883 328.761 387.166 330.441 388.85C332.121 390.533 334.399 391.48 336.776 391.482H447.535C449.911 391.479 452.188 390.532 453.868 388.848C455.548 387.165 456.493 384.882 456.496 382.502V271.506C456.493 269.125 455.548 266.843 453.868 265.159C452.188 263.476 449.911 262.529 447.535 262.526ZM454.936 382.502C454.933 384.468 454.152 386.352 452.765 387.743C451.378 389.133 449.497 389.915 447.535 389.918H336.776C334.813 389.917 332.932 389.135 331.544 387.744C330.156 386.354 329.376 384.468 329.374 382.502V271.506C329.376 269.539 330.156 267.654 331.544 266.263C332.932 264.872 334.813 264.09 336.776 264.089H447.535C449.497 264.092 451.378 264.874 452.765 266.264C454.152 267.655 454.933 269.54 454.936 271.506V382.502ZM394.947 389.918C394.908 390.434 394.869 390.958 394.83 391.482H428.435C428.498 390.966 428.568 390.442 428.63 389.918H394.947Z" fill="#3F3D56"/>
<path d="M372.178 436.811H114.815C113.161 436.811 111.574 436.153 110.404 434.98C109.234 433.808 108.576 432.217 108.576 430.559C108.576 428.901 109.234 427.31 110.404 426.138C111.574 424.965 113.161 424.307 114.815 424.307H372.178C373.833 424.307 375.42 424.965 376.59 426.138C377.76 427.31 378.417 428.901 378.417 430.559C378.417 432.217 377.76 433.808 376.59 434.98C375.42 436.153 373.833 436.811 372.178 436.811Z" fill="#CCCCCC"/>
<path d="M300.038 229.701H186.955C185.3 229.701 183.713 229.042 182.543 227.869C181.373 226.697 180.716 225.106 180.716 223.448C180.716 221.79 181.373 220.2 182.543 219.027C183.713 217.855 185.3 217.196 186.955 217.196H300.038C301.693 217.196 303.28 217.855 304.45 219.027C305.62 220.2 306.278 221.79 306.278 223.448C306.278 225.106 305.62 226.697 304.45 227.869C303.28 229.042 301.693 229.701 300.038 229.701Z" fill="#625CF9"/>
<path d="M106.135 330.11C106.784 330.751 107.641 331.136 108.55 331.194C109.459 331.252 110.359 330.98 111.084 330.427C115.598 327.074 119.562 322.899 121.907 317.808C124.595 311.974 124.894 304.814 121.654 299.269C118.915 294.582 114.078 291.557 109.257 289.073C107.385 288.014 105.369 287.236 103.272 286.762C101.153 286.293 98.9357 286.652 97.0711 287.764C96.159 288.337 95.4403 289.173 95.009 290.161C94.5776 291.15 94.4536 292.246 94.653 293.306C92.3374 290.658 89.3716 288.663 86.0494 287.518C83.9575 286.698 81.6667 286.532 79.4786 287.041C76.4195 287.91 74.1861 290.634 72.9646 293.576C71.9767 295.814 71.6356 298.285 71.98 300.708C72.1613 301.914 72.593 303.068 73.2474 304.095C73.9017 305.123 74.764 306.002 75.7785 306.675C78.3078 308.243 81.5346 308.13 84.4393 307.489C87.344 306.849 90.1557 305.734 93.1166 305.452C96.0775 305.171 99.3747 305.91 101.177 308.282C102.446 309.952 102.772 312.134 103.056 314.213L104.538 325.029C104.659 326.594 105.058 328.124 105.716 329.548C105.829 329.753 105.971 329.942 106.135 330.11Z" fill="#2F2E41"/>
</g>
<defs>
<clipPath id="clip0_304_274">
<rect width="487" height="480" fill="white"/>
</clipPath>
</defs>
</svg>
