<svg width="619" height="465" viewBox="0 0 619 465" fill="none" xmlns="http://www.w3.org/2000/svg">
<g clip-path="url(#clip0_304_458)">
<path d="M531.837 345.411V399.761H87.1631V65.2393H531.837V345.411Z" fill="white"/>
<path d="M87.1631 399.254V400.268H531.837V399.254H87.1631ZM87.1631 64.7323V65.7463H531.837V64.7323H87.1631Z" fill="#F2F2F2"/>
<path d="M474.243 363.288C474.37 363.247 474.483 363.197 474.611 363.156C475.12 362.974 475.658 362.811 476.209 362.669H476.223C476.221 362.618 476.226 362.567 476.238 362.517C475.573 362.771 474.908 363.034 474.243 363.288ZM467.805 367.912C467.833 367.881 467.847 367.851 467.876 367.82C468.017 367.628 468.187 367.425 468.357 367.232C469.704 365.732 471.359 364.539 473.21 363.734C473.343 363.665 473.48 363.604 473.62 363.552C473.786 363.472 473.956 363.401 474.129 363.339C474.172 363.318 474.2 363.308 474.243 363.288C470.097 364.88 465.909 366.431 461.664 367.912H467.805ZM0 64.2253L3.156 116.607L619 66.2533V64.2253H0ZM619 345.411V400.775H0V398.747L36.6979 344.752L276.116 398.747C325.716 398.864 375.119 392.507 423.066 379.836C424.028 379.593 424.976 379.329 425.924 379.065C430.084 377.93 434.173 376.754 438.262 375.516H438.304C446.228 373.154 454.014 370.619 461.664 367.912C465.867 366.441 470.022 364.917 474.129 363.339C474.165 363.318 474.203 363.301 474.243 363.288C474.908 363.034 475.573 362.771 476.238 362.517L478.742 361.544H478.784C487.727 358.015 496.414 354.264 504.932 350.299C505.554 350.015 506.163 349.731 506.771 349.437C511.709 347.115 516.571 344.719 521.358 342.248C527.358 339.165 533.229 335.975 538.974 332.676C550.746 325.923 561.975 318.737 572.662 311.119C583.664 303.31 594.226 294.901 604.299 285.932C608.374 282.302 612.331 278.601 616.17 274.829C617.118 273.896 618.066 272.963 619 272.02V345.411Z" fill="#F2F2F2"/>
<path d="M173.142 341.994H87.1631V346.628H173.142C173.758 346.628 174.349 346.384 174.784 345.95C175.22 345.515 175.465 344.926 175.465 344.311C175.465 343.697 175.22 343.108 174.784 342.673C174.349 342.238 173.758 341.994 173.142 341.994Z" fill="#F2F2F2"/>
<path d="M173.142 325.771H87.1631V330.405H173.142C173.758 330.405 174.349 330.161 174.784 329.726C175.22 329.292 175.465 328.702 175.465 328.088C175.465 327.473 175.22 326.884 174.784 326.449C174.349 326.015 173.758 325.771 173.142 325.771Z" fill="#F2F2F2"/>
<path d="M173.833 309.649C173.723 309.617 173.611 309.593 173.498 309.578C173.38 309.557 173.261 309.547 173.142 309.547H87.1631V314.181H173.142C173.689 314.178 174.217 313.984 174.636 313.633C174.954 313.365 175.193 313.017 175.33 312.625C175.467 312.233 175.496 311.811 175.414 311.404C175.332 310.998 175.142 310.62 174.864 310.311C174.586 310.002 174.23 309.773 173.833 309.649Z" fill="#F2F2F2"/>
<path d="M204.57 303.331L196.998 269.809L194.528 258.889C194.323 257.988 193.768 257.205 192.984 256.713C192.201 256.22 191.253 256.058 190.35 256.263L186.62 257.104L156.707 263.837C156.26 263.937 155.838 264.125 155.464 264.388C155.09 264.651 154.771 264.985 154.527 265.371C154.282 265.758 154.117 266.188 154.039 266.638C153.961 267.088 153.973 267.549 154.074 267.994C152.468 282.91 155.639 296.67 162.521 309.547C163.029 310.51 163.568 311.474 164.127 312.437C164.274 313.103 164.618 313.71 165.112 314.181C165.529 314.578 166.037 314.866 166.592 315.02C167.147 315.174 167.732 315.189 168.294 315.063L172.217 314.181L174.636 313.633L201.937 307.489C202.839 307.286 203.623 306.733 204.117 305.954C204.61 305.174 204.773 304.231 204.57 303.331Z" fill="#E6E6E6"/>
<path d="M201.439 301.466L194.223 269.576L192.495 261.921C192.304 261.078 191.786 260.345 191.055 259.883C190.323 259.421 189.437 259.267 188.592 259.457L186.295 259.974L159.675 265.966C158.83 266.156 158.095 266.673 157.632 267.403C157.169 268.133 157.015 269.017 157.205 269.86C157.439 281.47 158.658 292.005 163.669 298.434C164.24 300.934 165.464 303.24 167.217 305.115C168.97 306.991 171.19 308.369 173.65 309.111C173.711 309.131 173.762 309.152 173.823 309.172C173.864 309.182 173.915 309.202 173.955 309.213C176.271 309.863 178.714 309.925 181.06 309.395L198.969 305.359C199.814 305.169 200.549 304.653 201.012 303.922C201.475 303.192 201.629 302.309 201.439 301.466Z" fill="white"/>
<path d="M174.918 276.599C175.507 275.921 176.3 275.452 177.179 275.261C178.058 275.069 178.975 275.167 179.793 275.539C180.612 275.973 181.267 276.659 181.66 277.496C182.054 278.333 182.164 279.275 181.975 280.18C181.658 282.272 180.563 284.176 180.463 286.318C180.374 287.256 180.538 288.201 180.939 289.054C181.339 289.908 181.962 290.639 182.742 291.171C183.936 291.894 185.165 290.103 183.965 289.376C181.991 288.18 182.654 285.55 183.227 283.757C183.942 281.517 184.687 279.234 183.802 276.927C183.411 275.961 182.783 275.108 181.975 274.447C181.168 273.786 180.208 273.337 179.182 273.141C178.155 272.946 177.097 273.01 176.102 273.329C175.107 273.647 174.209 274.209 173.488 274.964C172.546 275.977 173.964 277.625 174.918 276.599Z" fill="#625CF9"/>
<path d="M184.501 297.426C185.702 297.426 186.676 296.454 186.676 295.255C186.676 294.057 185.702 293.085 184.501 293.085C183.299 293.085 182.325 294.057 182.325 295.255C182.325 296.454 183.299 297.426 184.501 297.426Z" fill="#625CF9"/>
<path d="M443.908 212.768C441.708 211.339 439.198 210.453 436.586 210.185C433.974 209.916 431.335 210.274 428.889 211.226C426.443 212.179 424.26 213.7 422.521 215.663C420.782 217.626 419.538 219.974 418.891 222.513L388.593 301.268L336.514 271.772C336.285 268.382 334.986 265.151 332.803 262.543C330.62 259.934 327.665 258.083 324.361 257.254C321.058 256.424 317.577 256.66 314.416 257.927C311.255 259.194 308.578 261.426 306.768 264.305C304.958 267.183 304.108 270.56 304.341 273.95C304.573 277.34 305.876 280.569 308.062 283.175C310.248 285.781 313.206 287.629 316.51 288.455C319.814 289.28 323.295 289.041 326.454 287.77C337.422 299.448 384.969 347.324 404.654 328.618C421.2 312.894 445.077 251.954 450.825 230.91C451.746 227.545 451.572 223.976 450.329 220.715C449.086 217.455 446.838 214.673 443.908 212.768Z" fill="#A0616A"/>
<path d="M387.017 331.918L396.577 375.029L466.492 381.338L472.917 343.799L387.017 331.918Z" fill="#A0616A"/>
<path d="M484.893 399.255H385.64L390.793 383.812L392.48 360.896L393.446 360.917L469.779 362.184L471.161 362.204L473.509 381.876C477.986 387.195 481.807 393.03 484.893 399.255Z" fill="#2F2E41"/>
<path d="M430.652 191.875L465.452 190.087L481.615 215.566C481.615 215.566 497.211 218.757 495.103 254.508C492.995 290.259 472.917 323.512 472.917 323.512L474.409 318.41L471.818 325.795L472.15 329.941L475.684 334.332L476.048 338.873L472.917 346.059L477.175 352.938L387.652 344.286L384.378 332.389L389.154 326.001L386.486 317.668L390.497 309.654L392.588 307.915C392.588 307.915 369.711 273.628 395.973 247.804L406.513 229.929L418.307 215.574L430.652 191.875Z" fill="#3F3D56"/>
<path d="M316.455 241.992C307.041 238.637 294.849 239.945 288.242 248.124C282.325 255.449 281.615 267.113 289.144 273.65C298.31 281.608 311.004 278.681 321.012 274.191C330.169 270.083 340.249 263.459 340.108 252.217C340.086 249.328 339.375 246.485 338.032 243.925C336.69 241.365 334.756 239.16 332.389 237.494C329.988 235.875 327.238 234.842 324.362 234.479C321.486 234.116 318.565 234.432 315.835 235.404C313.418 236.285 314.462 240.172 316.907 239.281C318.875 238.534 320.985 238.235 323.085 238.404C325.184 238.574 327.218 239.208 329.041 240.261C330.863 241.314 332.427 242.759 333.619 244.491C334.811 246.223 335.601 248.198 335.931 250.273C337.345 259.606 329.351 265.651 321.923 269.334C313.773 273.374 303.4 277.24 294.675 272.598C287.212 268.628 285.847 259.572 289.985 252.617C295.114 243.995 306.663 242.761 315.383 245.869C317.83 246.741 318.884 242.857 316.455 241.992Z" fill="#3F3D56"/>
<path d="M136.276 163.942C129.514 161.532 120.758 162.472 116.012 168.346C111.762 173.608 111.252 181.985 116.66 186.68C123.243 192.396 132.361 190.294 139.549 187.069C146.126 184.118 153.366 179.36 153.264 171.286C153.249 169.211 152.738 167.17 151.774 165.331C150.81 163.492 149.42 161.908 147.721 160.712C145.996 159.549 144.021 158.807 141.955 158.546C139.89 158.285 137.792 158.513 135.831 159.21C134.095 159.843 134.845 162.635 136.6 161.995C138.014 161.459 139.53 161.244 141.038 161.365C142.545 161.487 144.007 161.943 145.316 162.699C146.624 163.455 147.748 164.493 148.604 165.737C149.46 166.981 150.027 168.4 150.265 169.89C151.28 176.594 145.539 180.935 140.203 183.58C134.349 186.482 126.899 189.259 120.633 185.925C115.272 183.073 114.292 176.569 117.264 171.574C120.948 165.381 129.243 164.495 135.506 166.727C137.264 167.353 138.02 164.564 136.276 163.942Z" fill="#F2F2F2"/>
<path d="M218.44 183.069C228.181 180.426 234.623 172.944 232.828 166.358C231.032 159.773 221.679 156.577 211.937 159.221C202.195 161.864 195.753 169.346 197.549 175.931C199.345 182.517 208.698 185.712 218.44 183.069Z" fill="#F2F2F2"/>
<path d="M173.144 160.108L173.18 182.815C173.194 183.209 173.36 183.583 173.645 183.857C173.929 184.131 174.309 184.284 174.705 184.284C175.1 184.284 175.48 184.131 175.764 183.857C176.049 183.583 176.215 183.209 176.229 182.815L176.193 160.108C176.18 159.714 176.013 159.34 175.729 159.066C175.444 158.792 175.064 158.639 174.669 158.639C174.273 158.639 173.893 158.792 173.609 159.066C173.324 159.34 173.158 159.714 173.144 160.108Z" fill="#F2F2F2"/>
<path d="M162.51 172.322L184.695 172.377C185.09 172.363 185.465 172.197 185.739 171.913C186.014 171.629 186.168 171.25 186.168 170.856C186.168 170.461 186.014 170.082 185.739 169.798C185.465 169.514 185.09 169.348 184.695 169.335L162.51 169.28C162.115 169.294 161.74 169.46 161.465 169.744C161.191 170.028 161.037 170.407 161.037 170.801C161.037 171.196 161.191 171.575 161.465 171.859C161.74 172.142 162.115 172.309 162.51 172.322Z" fill="#F2F2F2"/>
<path d="M88.3523 183.398C88.3801 183.742 88.2708 184.083 88.0481 184.347C87.8255 184.611 87.5074 184.776 87.1631 184.808V181.826C87.5134 181.91 87.8237 182.112 88.0407 182.399C88.2577 182.686 88.3678 183.039 88.3523 183.398Z" fill="#F2F2F2"/>
<path d="M93.8048 185.397C94.9275 185.397 95.8377 184.489 95.8377 183.369C95.8377 182.249 94.9275 181.341 93.8048 181.341C92.6821 181.341 91.772 182.249 91.772 183.369C91.772 184.489 92.6821 185.397 93.8048 185.397Z" fill="#F2F2F2"/>
<path d="M161.758 367.912C158.058 367.912 155.04 370.416 155.04 373.488C155.04 376.561 158.058 379.065 161.758 379.065H531.837V367.912H161.758Z" fill="white"/>
<path d="M443.266 367.912V379.065H161.758C158.058 379.065 155.04 376.561 155.04 373.488C155.04 370.416 158.058 367.912 161.758 367.912H443.266Z" fill="#625CF9"/>
<path d="M433.102 384.298C439.276 384.298 444.282 379.304 444.282 373.144C444.282 366.984 439.276 361.99 433.102 361.99C426.927 361.99 421.921 366.984 421.921 373.144C421.921 379.304 426.927 384.298 433.102 384.298Z" fill="#625CF9"/>
<path d="M148.961 208.565H87.1631V213.209H148.961C149.579 213.209 150.171 212.964 150.607 212.529C151.044 212.094 151.289 211.503 151.289 210.887C151.289 210.271 151.044 209.681 150.607 209.245C150.171 208.81 149.579 208.565 148.961 208.565Z" fill="white"/>
<path d="M303.828 171.636C305.844 166.468 313.307 164.765 317.437 168.355C319.902 170.498 321.739 173.441 324.998 174.492C328.514 175.627 331.851 173.753 334.855 172.13C336.402 171.182 338.109 170.523 339.892 170.185C341.507 170.007 343.141 170.146 344.701 170.595C348.17 171.506 351.355 173.244 354.651 174.612C358.194 176.116 362.017 176.855 365.867 176.782C370.447 176.713 375.028 176.532 379.607 176.404C384.735 176.26 389.863 176.116 394.991 175.972C400.047 175.945 405.092 175.514 410.079 174.683C412.004 174.317 411.189 171.385 409.268 171.75C404.709 172.505 400.096 172.895 395.475 172.917C390.774 173.051 386.074 173.183 381.373 173.312C376.592 173.446 371.81 173.591 367.029 173.714C364.899 173.849 362.762 173.738 360.658 173.381C358.876 172.98 357.136 172.41 355.461 171.679C352.058 170.254 348.76 168.446 345.152 167.571C341.713 166.693 338.073 167.086 334.903 168.678C331.995 170.094 328.416 173.022 325.066 171.238C322.155 169.688 320.558 166.447 317.678 164.796C311.651 161.339 303.368 164.469 300.887 170.827C300.175 172.653 303.123 173.444 303.828 171.636Z" fill="#F2F2F2"/>
<path d="M311.645 195.956C313.807 192.761 316.243 189.088 320.19 188.002C321.044 187.728 321.948 187.646 322.837 187.76C323.727 187.875 324.58 188.183 325.337 188.663C326.736 189.602 327.805 190.973 329.144 191.995C331.97 194.153 335.094 193.818 338.133 192.326C340.701 191.065 343.596 188.574 346.643 189.572C348.77 190.269 350.429 191.973 352.489 192.842C353.441 193.314 354.492 193.553 355.555 193.539C356.619 193.525 357.663 193.258 358.602 192.76C358.937 192.549 359.176 192.217 359.27 191.833C359.364 191.45 359.305 191.045 359.105 190.705C358.905 190.364 358.581 190.114 358.2 190.007C357.819 189.9 357.412 189.946 357.063 190.133C355.305 191.159 353.253 189.947 351.75 188.976C350.185 187.769 348.389 186.895 346.472 186.408C343.069 185.835 340.177 187.802 337.32 189.324C336.067 190.156 334.588 190.583 333.084 190.548C331.421 190.325 330.214 188.938 329.067 187.851C327.846 186.562 326.331 185.587 324.65 185.01C322.723 184.496 320.684 184.579 318.805 185.248C314.329 186.778 311.55 190.671 309.012 194.421C307.911 196.048 310.551 197.572 311.645 195.956Z" fill="#F2F2F2"/>
<path d="M273.743 161.975C273.252 162.234 272.693 162.338 272.141 162.275C271.589 162.212 271.069 161.984 270.649 161.621C270.228 161.257 269.928 160.776 269.787 160.24C269.645 159.704 269.669 159.138 269.856 158.615C270.743 156.374 273.97 156.893 275.192 158.468C276.937 160.717 276.131 163.835 274.533 165.903C272.554 168.464 269.507 169.919 266.675 171.328C266.422 171.483 266.219 171.708 266.091 171.975C265.963 172.243 265.916 172.542 265.954 172.835C265.993 173.129 266.116 173.406 266.308 173.632C266.501 173.857 266.754 174.023 267.039 174.108L278.236 176.532C280.149 176.947 280.967 174.015 279.047 173.599L267.85 171.175L268.214 173.954C271.398 172.371 274.641 170.676 276.871 167.822C277.932 166.583 278.66 165.094 278.983 163.497C279.307 161.9 279.217 160.246 278.721 158.694C278.237 157.227 277.26 155.973 275.955 155.143C274.651 154.313 273.099 153.958 271.562 154.138C270.794 154.227 270.053 154.474 269.386 154.864C268.719 155.254 268.141 155.779 267.689 156.404C267.237 157.03 266.92 157.743 266.76 158.497C266.599 159.252 266.598 160.031 266.757 160.786C267.505 164.674 271.924 166.278 275.282 164.602C277.037 163.726 275.495 161.101 273.743 161.975Z" fill="#F2F2F2"/>
<path d="M284.383 177.792C285.506 177.792 286.416 176.884 286.416 175.764C286.416 174.644 285.506 173.736 284.383 173.736C283.261 173.736 282.351 174.644 282.351 175.764C282.351 176.884 283.261 177.792 284.383 177.792Z" fill="#F2F2F2"/>
<path d="M333.95 208.737H266.714C266.098 208.737 265.507 208.982 265.071 209.416C264.636 209.851 264.391 210.44 264.391 211.054C264.391 211.669 264.636 212.258 265.071 212.693C265.507 213.127 266.098 213.371 266.714 213.371H333.95C334.566 213.371 335.157 213.127 335.592 212.693C336.028 212.258 336.272 211.669 336.272 211.054C336.272 210.44 336.028 209.851 335.592 209.416C335.157 208.982 334.566 208.737 333.95 208.737Z" fill="#F2F2F2"/>
<path d="M284.961 256.642H202.19C201.921 256.642 201.662 256.535 201.472 256.345C201.281 256.155 201.174 255.897 201.174 255.628C201.174 255.359 201.281 255.101 201.472 254.911C201.662 254.721 201.921 254.614 202.19 254.614H284.961C285.23 254.614 285.489 254.721 285.679 254.911C285.87 255.101 285.977 255.359 285.977 255.628C285.977 255.897 285.87 256.155 285.679 256.345C285.489 256.535 285.23 256.642 284.961 256.642Z" fill="#3F3D56"/>
<path d="M196.446 269.823C202.059 269.823 206.61 265.284 206.61 259.684C206.61 254.084 202.059 249.544 196.446 249.544C190.832 249.544 186.282 254.084 186.282 259.684C186.282 265.284 190.832 269.823 196.446 269.823Z" fill="#625CF9"/>
<path d="M131.53 112.207C129.7 114.813 126.722 116.324 123.856 117.743C114.444 122.407 105.028 127.068 95.6095 131.726L96.1177 132.334L96.4735 132.77L96.9715 133.358C94.3797 136.826 91.7878 140.291 89.1959 143.752C88.5149 144.654 87.8441 145.567 87.1631 146.469V89.9499C87.8441 89.6762 88.5149 89.4024 89.1959 89.1387C95.6705 86.543 102.142 83.9539 108.61 81.3717C111.974 80.0332 115.552 78.6643 119.109 79.2829C126.275 80.5199 129.609 88.6622 131.682 95.6181C133.319 101.114 134.823 107.502 131.53 112.207Z" fill="white"/>
<path d="M97.5916 133.815C94.7964 137.556 91.9979 141.301 89.1959 145.049C88.5149 145.952 87.8441 146.865 87.1631 147.767V145.181C87.8441 144.279 88.5251 143.366 89.1959 142.464C91.5845 139.28 93.9663 136.096 96.3414 132.912C96.38 132.86 96.4243 132.812 96.4735 132.77C97.1037 132.243 98.1506 133.064 97.5916 133.815Z" fill="#CCCCCC"/>
<path d="M132.76 111.679C131.194 114.519 128.409 116.273 125.604 117.723C122.402 119.376 119.14 120.937 115.907 122.539C109.301 125.804 102.704 129.069 96.1177 132.334C96.0568 132.365 95.9856 132.395 95.9246 132.425C95.0302 132.872 94.1154 129.992 95.1013 128.603C99.0145 123.087 112.299 122.61 118.499 119.538C120.065 118.757 121.63 117.986 123.205 117.206C124.648 116.535 126.049 115.78 127.403 114.945C129.85 113.517 131.635 111.186 132.373 108.455C132.88 105.894 132.822 103.254 132.201 100.718C131.631 97.9706 130.867 95.2666 129.914 92.6269C128.125 87.5773 125.228 81.4225 119.455 80.1246C116.731 79.5162 113.946 80.2158 111.384 81.1284C108.396 82.2032 105.459 83.4605 102.511 84.6367C98.0693 86.4112 93.6309 88.1857 89.1959 89.9601C88.5149 90.2339 87.8441 90.4976 87.1631 90.7713V89.1185C87.8441 88.8448 88.5149 88.571 89.1959 88.2972C94.8472 86.0461 100.502 83.7883 106.16 81.5238C108.944 80.2487 111.853 79.2633 114.84 78.5832C117.691 78.0274 120.648 78.5286 123.155 79.9927C125.659 81.6588 127.675 83.9575 128.999 86.6545C130.449 89.4725 131.603 92.432 132.445 95.4863C133.969 100.617 135.514 106.681 132.76 111.679Z" fill="#CCCCCC"/>
<path d="M95.8968 98.9862C95.8885 99.0052 95.8815 99.0245 95.8734 99.0435C94.4334 98.4455 92.8157 98.4352 91.3682 99.0147C89.9207 99.5942 88.759 100.717 88.133 102.142C87.505 103.573 87.4669 105.192 88.0269 106.65C88.5868 108.108 89.6998 109.287 91.1249 109.933L91.1241 109.935L91.1974 109.967L102.032 114.702L106.81 103.821L106.779 103.807C106.787 103.789 106.796 103.772 106.804 103.753C107.438 102.311 107.471 100.676 106.897 99.2082C106.322 97.7408 105.186 96.5613 103.74 95.9291C103.024 95.6161 102.253 95.4469 101.471 95.4311C100.689 95.4153 99.9121 95.5533 99.1838 95.8372C98.4555 96.121 97.7903 96.5452 97.2263 97.0855C96.6624 97.6259 96.2106 98.2717 95.8968 98.9862Z" fill="#625CF9"/>
<path d="M531.837 306.029C531.186 304.65 530.515 303.25 529.804 301.841C527.253 296.7 524.356 291.326 521.276 285.932C512.809 271.026 502.981 255.918 495.246 245.048V245.038C492.125 240.647 489.34 236.967 487.125 234.249C485.75 232.56 484.054 231.16 482.134 230.129C480.214 229.098 478.108 228.456 475.938 228.241C473.769 228.026 471.578 228.242 469.492 228.876C467.406 229.511 465.467 230.551 463.786 231.937C462.106 233.323 460.717 235.027 459.7 236.952C458.683 238.876 458.059 240.982 457.862 243.148C457.666 245.315 457.901 247.499 458.556 249.574C459.21 251.649 460.269 253.574 461.673 255.238L486.748 293.232L498.549 311.119L508.164 325.7L475.171 340.879L469.774 343.363L453.867 350.684L453.776 350.725C453.745 350.704 453.705 350.684 453.674 350.664C452.89 350.187 452.067 349.776 451.214 349.437C449.111 348.609 446.856 348.232 444.597 348.332C442.926 348.401 441.276 348.733 439.708 349.315C437.081 350.283 434.752 351.917 432.95 354.056C431.148 356.195 429.936 358.765 429.432 361.513C429.361 361.838 429.321 362.173 429.28 362.517C429.272 362.567 429.268 362.618 429.27 362.669H429.26C428.915 365.925 429.57 369.208 431.138 372.084C432.706 374.96 435.114 377.292 438.042 378.771C438.245 378.873 438.448 378.974 438.662 379.065C439.677 379.528 440.741 379.878 441.833 380.11C443.197 380.408 444.595 380.527 445.99 380.465C447.288 380.408 448.574 380.197 449.822 379.836H449.832C450.546 379.626 451.246 379.369 451.926 379.065C454.156 378.054 456.126 376.551 457.69 374.67C459.253 372.789 460.368 370.579 460.952 368.206C461.602 368.125 462.334 368.023 463.137 367.912C464.784 367.678 466.735 367.384 468.941 367.029C469.815 366.887 470.73 366.735 471.675 366.573C488.202 363.734 515.208 357.691 529.804 347.003C530.515 346.476 531.196 345.949 531.837 345.411V306.029Z" fill="#A0616A"/>
<path d="M503.631 -3.05176e-05H115.369C107.891 0.00888117 100.722 2.97626 95.4342 8.25121C90.1465 13.5262 87.172 20.678 87.1631 28.1378V436.872C87.1724 444.331 90.1474 451.482 95.4352 456.755C100.723 462.028 107.892 464.993 115.369 465H503.631C511.108 464.993 518.277 462.028 523.565 456.755C528.852 451.482 531.827 444.331 531.837 436.872V28.1378C531.828 20.678 528.853 13.5262 523.566 8.25121C518.278 2.97627 511.109 0.00889188 503.631 -3.05176e-05ZM529.804 436.872C529.794 443.793 527.034 450.428 522.127 455.321C517.22 460.214 510.569 462.965 503.631 462.972H115.369C108.431 462.965 101.779 460.214 96.8728 455.321C91.9662 450.428 89.2054 443.793 89.1959 436.872V28.1378C89.2033 21.2153 91.9631 14.5784 96.8699 9.68344C101.777 4.78847 108.43 2.03526 115.369 2.02792H503.631C510.57 2.03526 517.223 4.78847 522.13 9.68344C527.037 14.5784 529.797 21.2153 529.804 28.1378V436.872ZM87.1631 65.7463V398.747H89.1959V65.7463H87.1631Z" fill="#3F3D56"/>
<path d="M124.11 388.353C133.092 388.353 140.373 381.09 140.373 372.13C140.373 363.17 133.092 355.906 124.11 355.906C115.128 355.906 107.847 363.17 107.847 372.13C107.847 381.09 115.128 388.353 124.11 388.353Z" fill="#625CF9"/>
<path d="M121.642 380.871C121.5 380.871 121.36 380.843 121.229 380.788C121.034 380.71 120.867 380.575 120.751 380.4C120.634 380.226 120.573 380.02 120.575 379.811V364.877C120.575 364.667 120.637 364.463 120.753 364.289C120.87 364.115 121.036 363.979 121.229 363.899C121.423 363.819 121.637 363.798 121.842 363.839C122.048 363.88 122.237 363.98 122.385 364.128L129.87 371.596C130.069 371.794 130.181 372.063 130.181 372.344C130.181 372.624 130.069 372.893 129.87 373.092L122.385 380.559C122.288 380.657 122.173 380.736 122.045 380.79C121.918 380.843 121.781 380.871 121.642 380.871Z" fill="white"/>
<path d="M455.563 130.851C465.668 130.851 473.859 122.679 473.859 112.599C473.859 102.519 465.668 94.3475 455.563 94.3475C445.459 94.3475 437.268 102.519 437.268 112.599C437.268 122.679 445.459 130.851 455.563 130.851Z" fill="#2F2E41"/>
<path d="M455.712 139.04C446.976 133.974 444.581 122.409 449.958 113.875C451.236 111.845 452.903 110.087 454.862 108.701C456.822 107.314 459.036 106.326 461.379 105.793C463.721 105.26 466.146 105.192 468.515 105.594C470.883 105.996 473.149 106.859 475.183 108.134C483.738 113.498 477.315 123.89 480.938 133.3C486.062 146.611 467.493 145.872 455.712 139.04Z" fill="#2F2E41"/>
<path d="M413.231 133.391C412.595 134.869 392.99 134.711 392.093 136.027C385.17 146.189 410.125 189.424 403.202 199.599L402.238 200.746C404.497 199.708 406.666 198.486 408.725 197.095C408.91 192.93 409.095 188.752 409.293 184.587C411.367 187.234 413.04 190.169 414.261 193.299C415.872 192.166 417.195 190.065 424.103 185.932C426.9 182.867 430.125 180.219 433.677 178.07L413.231 133.391Z" fill="#2F2E41"/>
<path d="M422.95 181.338C440.871 181.338 455.399 166.845 455.399 148.967C455.399 131.089 440.871 116.596 422.95 116.596C405.029 116.596 390.501 131.089 390.501 148.967C390.501 166.845 405.029 181.338 422.95 181.338Z" fill="#A0616A"/>
<path d="M447.596 195.6C444.953 193.397 443.114 190.386 442.364 187.033C441.764 191.104 441.92 195.25 442.826 199.264C441.069 200.582 439.365 201.834 437.753 202.968C436.533 199.837 434.859 196.902 432.785 194.256C432.587 198.421 432.402 202.599 432.217 206.763C430.158 208.155 427.989 209.376 425.73 210.414L426.695 209.268C433.618 199.093 415.703 180.364 422.626 170.202C424.568 167.356 415.795 144.858 409.11 143.843C403.165 142.946 403.416 144.66 397.656 145.912C397.057 143.423 396.129 141.025 394.894 138.782C395.223 141.282 395.147 143.818 394.67 146.294C392.622 146.373 391.011 145.072 388.83 144.739C374.918 142.617 376.332 127.605 380.203 122.847C384.087 118.102 396.982 116.679 402.927 115.137C403.469 114.61 404.697 114.939 405.239 114.438C416.633 104.036 431.871 102.313 445.584 106.924C460.208 111.841 469.326 121.357 474.006 136.027L475.348 147.767C476.552 151.542 475.037 169.105 474.006 172.931C469.996 187.8 461.456 180.377 447.596 195.6Z" fill="#2F2E41"/>
</g>
<defs>
<clipPath id="clip0_304_458">
<rect width="619" height="465" fill="white"/>
</clipPath>
</defs>
</svg>
