<svg width="599" height="444" viewBox="0 0 599 444" fill="none" xmlns="http://www.w3.org/2000/svg">
<g clip-path="url(#clip0_304_108)">
<path d="M551.838 107.93C483.853 13.5244 340.237 -24.7707 198.995 16.474C124.325 38.2788 52.3294 81.9681 16.6501 166.564C-47.1306 317.79 86.785 366.087 174.351 381.48C216.694 388.924 256.573 401.427 293.015 418.45C358.577 449.075 474.627 476.213 562.137 348.643C625.564 256.18 597.123 170.814 551.838 107.93Z" fill="#F2F2F2"/>
<path d="M157.681 126.608C157.491 125.107 157.107 123.638 156.537 122.237C156.465 121.972 156.337 121.724 156.164 121.511C155.99 121.298 155.774 121.123 155.529 120.998C155.202 120.913 154.858 120.909 154.529 120.986L149.394 121.771C148.964 121.79 148.552 121.95 148.222 122.225C147.553 122.927 148.212 124.057 148.191 125.025C148.168 126.114 147.199 126.998 146.147 127.291C145.074 127.507 143.967 127.493 142.899 127.251L135.719 126.137C137.833 125.463 139.716 124.21 141.151 122.52C142.096 121.402 142.599 119.317 141.233 118.788C140.827 118.677 140.404 118.643 139.986 118.688C136.732 118.713 134.172 116.003 131.126 114.861C129.177 114.177 127.061 114.127 125.081 114.716C123.101 115.305 121.358 116.503 120.102 118.14L123.928 118.324C124.287 118.305 124.644 118.4 124.946 118.596C125.785 119.283 124.743 120.603 124.861 121.679C125.014 123.078 126.875 123.376 128.277 123.518C129.68 123.659 131.459 124.796 130.784 126.031C123.735 128.454 116.562 121.295 109.159 122.176C107.285 122.399 105.516 123.134 103.686 123.596C92.5114 126.417 80.9585 118.889 69.5427 120.483C67.0048 120.915 64.5105 121.572 62.0893 122.445C60.5356 122.954 58.915 123.504 57.7861 124.685C56.6572 125.866 56.2275 127.885 57.297 129.119C54.3493 129.361 51.3818 129.08 48.5326 128.288C49.3031 128.715 49.9441 129.342 50.3882 130.102C50.8324 130.861 51.0634 131.727 51.057 132.606C46.4545 133.355 41.9738 134.718 37.7355 136.66C38.5265 137.972 39.4504 139.2 40.4927 140.325L34.666 144.06C36.6346 144.555 37.6523 147.234 36.5076 148.907C38.5487 148.001 39.8137 145.657 41.9964 145.181C43.4264 144.87 44.8814 145.454 46.2379 146.002C47.5944 146.55 49.0854 147.082 50.4896 146.671C51.8939 146.259 52.9297 144.442 52.0374 143.284C58.0397 141.537 64.2429 140.57 70.4933 140.407C70.9755 140.347 71.4646 140.439 71.8911 140.672C72.7047 141.235 72.4907 142.452 72.4468 143.439C72.403 144.426 73.1741 145.724 74.0583 145.279C73.018 146.179 73.9073 147.873 74.9053 148.82C75.9034 149.767 77.1063 151.073 76.4953 152.304C76.3358 152.625 76.0653 152.883 75.9119 153.207C75.459 154.164 76.1781 155.28 77.0263 155.916C77.8745 156.551 78.9135 156.996 79.5027 157.876C80.0919 158.756 79.8243 160.297 78.7707 160.42L75.776 156.625C74.7529 157.684 74.0515 159.011 73.7531 160.451C76.9287 163.041 77.4063 168.314 74.7478 171.431C73.3892 173.024 71.4571 173.992 69.7709 175.234C68.0846 176.476 66.5243 178.245 66.5286 180.337C66.5359 183.951 66.24 187.308 67.597 190.658C70.0992 196.836 72.9881 202.85 76.2467 208.666C77.1024 210.193 78.2083 211.867 79.9417 212.13C77.751 206.808 75.7788 201.403 74.0254 195.915C75.1674 195.92 76.4873 196.01 77.1568 196.934C77.7112 197.698 77.5921 198.738 77.7644 199.666C77.9835 200.565 78.3488 201.422 78.8459 202.203L89.3075 220.799C90.1747 222.341 91.1695 223.995 92.827 224.62C93.8867 225.019 95.1127 224.944 96.0881 225.518C96.8527 225.969 97.3676 226.768 98.147 227.193C100.351 228.392 103.415 226.091 105.475 227.524C106.064 227.933 106.438 228.584 106.981 229.053C108.883 230.697 112.003 229.597 114.199 230.823C115.614 231.614 116.348 233.194 117.103 234.626C118.993 238.214 122.053 241.729 126.105 242.015C127.377 242.104 128.677 241.863 129.922 242.146C131.166 242.428 132.391 243.512 132.191 244.77C131.848 246.926 132.916 249.286 132.629 251.451C132.107 255.393 126.504 257.125 126.023 261.072C125.917 261.936 126.082 262.828 125.876 263.674C125.623 264.711 124.843 265.555 124.566 266.586C124.04 268.539 125.442 270.482 126.983 271.796C128.523 273.11 130.36 274.243 131.202 276.082C132.092 278.026 131.655 280.293 131.945 282.411C132.577 287.034 136.578 290.461 140.696 292.671C141.951 293.344 143.298 293.996 144.11 295.164C145.17 296.689 145.065 298.699 145.419 300.52C146.286 304.981 150.049 308.657 150.156 313.2C150.232 316.429 148.433 319.359 147.359 322.405C146.351 325.325 145.987 328.426 146.29 331.499C146.593 334.571 147.557 337.542 149.115 340.209C149.919 341.564 150.881 342.841 151.449 344.309C152.464 346.929 152.135 349.908 153.07 352.557C154.307 356.06 157.706 358.953 157.38 362.652C158.923 365.85 162.331 367.421 165.757 368.372L171.897 370.078C173.073 370.405 174.302 370.734 175.499 370.497C176.696 370.261 177.839 369.269 177.808 368.051C174.797 367.374 171.689 366.653 169.207 364.822C166.724 362.991 165.024 359.73 165.966 356.797C166.402 355.437 167.331 353.866 166.448 352.742C165.942 352.098 165.018 351.93 164.447 351.343C163.557 350.427 163.863 348.889 164.503 347.785C165.142 346.68 166.067 345.693 166.325 344.444C166.455 343.745 166.368 343.023 166.076 342.375C165.783 341.727 165.299 341.183 164.688 340.818C165.826 340.389 166.862 339.726 167.727 338.872C168.526 337.961 168.896 336.557 168.267 335.521C170.134 335.758 172.338 335.873 173.564 334.448C174.543 333.31 174.475 331.608 174.089 330.159C173.702 328.71 173.048 327.302 173.028 325.803C177.335 326.006 181.652 325.86 185.935 325.366C185.316 323.284 183.908 321.525 182.011 320.462C183.951 320.134 185.718 317.816 186.331 315.951C186.944 314.085 186.788 312.053 186.409 310.126C186.263 309.63 186.243 309.106 186.351 308.6C186.569 307.906 187.253 307.482 187.886 307.119L197.515 301.601C198.09 301.313 198.61 300.93 199.055 300.466C200.064 299.284 199.914 297.499 199.398 296.034C198.881 294.569 198.054 293.191 197.855 291.651C197.259 287.044 202.201 283.739 203.869 279.403C204.523 277.701 204.657 275.851 204.783 274.033C204.919 272.08 204.929 269.812 203.427 268.553C201.986 267.347 199.736 267.616 198.228 266.494C196.846 265.465 196.37 263.467 194.86 262.636C193.489 261.881 191.77 262.361 190.245 262.006C187.56 261.381 185.871 258.293 183.129 258.007C181.582 257.846 179.831 258.601 178.563 257.702C177.446 256.91 177.401 255.317 177.188 253.966C176.816 251.866 175.807 249.931 174.298 248.42C172.79 246.91 170.853 245.897 168.75 245.519C167.155 245.263 165.419 245.36 164.062 244.486C162.688 243.6 162.058 241.942 160.979 240.715C159.239 238.738 156.499 238.036 153.933 237.434L143.494 234.985C141.641 234.55 139.252 234.319 138.257 235.939C137.963 236.556 137.755 237.21 137.638 237.883C137.265 239.101 136.516 240.169 135.496 240.935C134.477 241.701 133.24 242.124 131.965 242.145C131.09 240.655 129.672 239.561 128.008 239.09C126.95 238.795 125.817 238.763 124.807 238.33C124.257 238.062 123.768 237.685 123.369 237.222C122.97 236.759 122.67 236.219 122.488 235.637C122.305 235.054 122.244 234.44 122.307 233.833C122.37 233.226 122.557 232.638 122.856 232.105C123.458 231.036 123.69 229.798 123.517 228.584C123.344 227.37 122.776 226.246 121.899 225.386C120.124 223.796 117.556 223.412 115.176 223.571C114.552 222.213 115.595 220.682 116.718 219.695C117.841 218.709 119.205 217.739 119.45 216.266C119.835 213.948 116.872 212.188 114.622 212.879C112.372 213.57 110.936 215.751 109.987 217.9C109.443 219.133 108.98 220.432 108.121 221.472C107.262 222.512 105.878 223.257 104.57 222.923C102.717 222.45 102.002 220.254 101.592 218.39C101.042 215.89 100.488 213.355 100.604 210.798C100.719 208.24 101.583 205.615 103.473 203.883C106.552 201.062 111.276 201.339 115.432 201.789C114.45 200.685 114.693 198.824 115.743 197.785C116.298 197.294 116.964 196.944 117.685 196.768C118.405 196.591 119.158 196.593 119.877 196.772C121.13 197.032 122.258 197.705 123.08 198.683C124.261 200.12 124.597 202.06 125.49 203.691C126.382 205.321 128.39 206.712 130.032 205.838C131.451 205.082 131.677 203.118 131.324 201.552C130.97 199.986 130.22 198.464 130.348 196.864C130.592 193.811 133.764 191.973 136.562 190.716C139.361 189.458 142.566 187.767 143.009 184.737C143.024 184.143 143.136 183.556 143.341 182.999C143.651 182.507 144.083 182.102 144.594 181.823C152.762 176.437 161.066 170.984 170.401 168.041C170.887 167.888 170.944 168.058 171.439 167.938C172.131 167.539 171.672 166.433 171.008 165.988C170.344 165.543 169.456 165.201 169.288 164.421C169.164 163.847 169.503 163.284 169.591 162.703C169.807 161.277 168.097 159.961 166.77 160.531C166.02 159.54 167.504 158.388 168.704 158.059C172.306 157.069 176.005 156.466 179.736 156.26C180.166 156.192 180.607 156.267 180.991 156.473C181.618 156.907 181.538 157.9 181.094 158.518C180.65 159.137 179.959 159.525 179.405 160.048C178.801 160.636 178.369 161.378 178.159 162.194C177.948 163.01 177.965 163.867 178.21 164.674C180.158 165.662 182.275 166.68 184.432 166.332C186.59 165.983 188.504 163.565 187.49 161.633C186.546 159.834 183.71 159.428 183.222 157.457C182.651 155.148 185.926 153.095 185.188 150.835C184.865 149.844 183.876 149.261 183.117 148.546C182.221 147.67 181.611 146.543 181.368 145.315C181.125 144.086 181.26 142.813 181.755 141.662C180.519 141.879 179.249 141.797 178.051 141.423C176.853 141.049 175.763 140.394 174.871 139.512C173.224 137.854 171.911 135.238 169.572 135.312C167.427 135.38 165.579 137.878 163.572 137.116C163.079 136.929 162.558 136.547 162.08 136.771C161.923 136.872 161.792 137.008 161.695 137.168C161.599 137.327 161.54 137.507 161.523 137.693C161.013 140.125 161.89 142.897 160.562 144.999C159.116 147.286 155.772 147.604 154.019 149.666C153.068 150.786 152.699 152.295 151.825 153.475C150.95 154.656 149.094 155.406 148.044 154.378C148.56 153.319 148.701 152.118 148.444 150.97C148.187 149.821 147.547 148.794 146.629 148.055C145.654 147.421 144.604 146.911 143.502 146.538C142.271 146.018 141.1 145.366 140.01 144.595C139.463 144.266 139.019 143.792 138.727 143.226C138.497 142.517 138.528 141.749 138.815 141.061C139.347 139.538 140.286 138.19 141.53 137.161C142.774 136.132 144.277 135.461 145.875 135.222C147.272 135.032 148.899 135.099 149.823 134.037C150.313 133.475 150.569 132.625 151.28 132.396C151.734 132.305 152.206 132.363 152.624 132.561L157.84 134.393C158.422 134.656 159.062 134.761 159.698 134.7C160.013 134.658 160.301 134.498 160.503 134.253C160.705 134.008 160.806 133.696 160.787 133.379C160.621 132.515 159.288 132.1 159.409 131.228C159.477 130.946 159.629 130.69 159.846 130.496C161.728 128.497 164.03 126.937 166.587 125.93C169.144 124.922 171.892 124.491 174.635 124.668C175.294 125.747 174.253 127.024 173.386 127.945C172.52 128.866 171.824 130.512 172.871 131.221C173.301 131.44 173.778 131.547 174.26 131.533C175.544 131.707 176.792 132.084 177.957 132.652C179.759 133.435 181.527 134.291 183.26 135.221C183.107 134.081 182.961 132.879 183.394 131.813C183.827 130.747 185.058 129.911 186.133 130.326C187.17 130.726 187.701 132.095 188.805 132.221C190.278 132.388 190.859 130.217 190.244 128.871C189.628 127.526 188.411 126.399 188.309 124.923C188.24 123.928 188.62 122.693 187.823 122.09C187.54 121.909 187.218 121.797 186.883 121.761L166.986 118.107C165.804 117.89 164.097 118.057 164.045 119.254C164.015 119.923 164.614 120.584 164.349 121.199C164.066 121.855 163.137 121.795 162.46 122.027C161.409 122.387 160.882 123.632 160.983 124.735C161.168 125.832 161.594 126.874 162.229 127.787C160.935 127.247 158.976 127.148 157.681 126.608Z" fill="#3F3D56"/>
<path d="M141.805 109.753C140.551 109.339 139.199 109.319 137.933 109.698C136.667 110.076 135.548 110.834 134.728 111.868C134.4 112.299 134.125 112.892 134.399 113.358C134.792 114.026 135.794 113.763 136.533 113.523C137.619 113.136 138.801 113.108 139.904 113.443C140.597 113.681 141.218 114.101 141.915 114.33C142.254 114.471 142.625 114.518 142.989 114.465C143.352 114.412 143.695 114.261 143.979 114.028C144.457 113.542 144.487 112.785 144.488 112.104C144.521 111.876 144.503 111.643 144.435 111.423C144.366 111.203 144.25 111.001 144.093 110.832C143.814 110.67 143.501 110.578 143.179 110.562C142.458 110.429 141.806 110.049 141.336 109.487" fill="#3F3D56"/>
<path d="M148.98 107.76C148.699 107.744 148.419 107.801 148.167 107.925C147.915 108.049 147.699 108.236 147.54 108.467C147.38 108.699 147.284 108.967 147.259 109.247C147.233 109.526 147.281 109.807 147.396 110.063C148.258 110.298 149.159 110.356 150.045 110.236C150.486 110.167 150.898 109.97 151.227 109.668C151.557 109.367 151.79 108.975 151.896 108.542C150.854 108.731 149.778 108.526 148.878 107.967" fill="#3F3D56"/>
<path d="M173.052 104.431C170.705 104.929 168.425 105.701 166.26 106.733C167.281 107.125 168.148 107.833 168.735 108.754C169.322 109.675 169.597 110.759 169.519 111.848C169.428 112.266 169.438 112.7 169.55 113.113C169.8 113.716 170.522 113.943 171.158 114.098C172.3 114.444 173.492 114.596 174.684 114.547C175.281 114.516 175.86 114.336 176.37 114.026C176.88 113.715 177.304 113.282 177.603 112.767C177.776 112.277 177.979 111.799 178.21 111.335C179.734 109.02 184.259 111.819 185.895 109.581C186.471 108.793 186.418 107.607 187.169 106.982C187.558 106.71 188.008 106.539 188.479 106.483C191.768 105.831 195.09 105.359 198.431 105.069C200.014 104.931 202.077 104.364 202.09 102.779C196.128 101.61 189.946 102.44 184.506 105.139C182.546 106.119 179.953 108.18 178.065 106.881C177.358 106.395 177.393 105.085 176.42 104.538C175.425 103.979 174.108 104.207 173.052 104.431Z" fill="#3F3D56"/>
<path d="M192.55 108.069L195.349 108.606C194.833 108.583 194.319 108.67 193.841 108.861C193.362 109.052 192.929 109.343 192.572 109.714C192.215 110.086 191.941 110.528 191.769 111.014C191.597 111.499 191.531 112.015 191.575 112.528C194.195 113.401 197.053 112.551 199.814 112.667C202.574 112.783 205.786 114.751 205.315 117.468C205.173 118.29 204.697 119.111 204.944 119.907C205.118 120.465 205.611 120.861 205.89 121.376C206.47 122.447 206.006 123.802 205.273 124.776C204.541 125.749 203.556 126.526 202.913 127.561C201.313 130.135 202.222 133.463 203.175 136.338C203.45 137.425 203.959 138.439 204.666 139.31C206.078 140.807 208.378 140.938 210.438 140.968C211.938 140.99 213.655 140.916 214.604 139.756C215.842 138.243 214.976 135.881 215.791 134.105C216.531 132.491 218.417 131.799 220.126 131.308C223.257 130.409 226.447 129.644 229.406 128.286C233.081 126.599 236.516 123.971 240.555 123.753C241.688 123.692 242.85 123.826 243.941 123.516C245.033 123.206 246.07 122.265 245.987 121.135C245.916 120.17 245.098 119.461 244.459 118.734C243.819 118.006 243.317 116.888 243.905 116.118L254.492 114.145C253.742 112.104 253.157 109.416 254.882 108.087C255.504 107.608 256.337 107.416 256.867 106.837C257.77 105.849 257.316 104.148 256.273 103.308C255.231 102.468 253.822 102.273 252.487 102.162C247.844 101.778 243.175 102.032 238.524 102.286C229.432 102.784 220.339 103.281 211.247 103.778C209.417 103.878 207.304 103.726 205.625 104.349C204.204 104.876 203.193 105.845 201.568 106.185C198.567 106.813 195.265 106.388 192.55 108.069Z" fill="#3F3D56"/>
<path d="M242.687 130.144C242.402 130.099 242.11 130.165 241.872 130.329C241.715 130.501 241.622 130.722 241.607 130.955C241.427 131.984 241.642 133.042 242.21 133.918C242.499 134.348 242.899 134.693 243.367 134.917C243.835 135.141 244.354 135.236 244.871 135.192C246.132 135.031 247.06 133.959 248.219 133.435C250.004 132.629 257.588 131.372 252.342 128.544C250.534 127.57 249.366 128.43 247.941 129.072C246.32 129.899 244.504 130.27 242.687 130.144Z" fill="#3F3D56"/>
<path d="M288.632 106.472C288.02 106.722 287.507 107.167 287.175 107.738C287.022 108.028 286.986 108.366 287.076 108.681C287.165 108.996 287.372 109.265 287.655 109.432C287.884 109.515 288.126 109.554 288.369 109.546L290.86 109.62C291.918 109.651 293.24 109.876 293.524 110.894C293.735 111.649 293.263 112.62 293.833 113.16C294.077 113.349 294.372 113.464 294.68 113.49C295.5 113.7 296.357 113.728 297.189 113.571C299.002 113.085 298.049 111.982 298.62 110.999C299.493 109.495 299.342 110.406 300.881 109.544C302.017 108.907 303.486 107.753 302.537 106.131C300.888 103.31 291.066 105.261 288.632 106.472Z" fill="#3F3D56"/>
<path d="M337.79 105.054L336.344 105.247C333.083 105.681 329.803 106.12 326.662 107.097C328.022 107.633 329.448 107.983 330.902 108.135C331.703 108.174 332.498 108.287 333.277 108.472C334.665 108.884 336.063 109.948 337.403 109.403C338.234 109.065 338.505 108.202 339.194 107.744C339.669 107.428 341.472 106.917 341.673 106.598C343.303 104.019 339.043 104.888 337.79 105.054Z" fill="#3F3D56"/>
<path d="M344.14 111.613C342.208 112.691 340.416 114.001 338.803 115.514C338.124 116.151 337.429 116.944 337.491 117.872C337.573 119.107 338.89 119.822 340.032 120.305L344.655 122.258C345.216 121.469 344.703 120.38 344.123 119.605C343.543 118.83 342.854 117.933 343.111 117C343.403 115.936 344.704 115.573 345.794 115.389C347.571 115.091 352.365 115.115 351.789 112.257C351.111 108.889 345.924 110.618 344.14 111.613Z" fill="#3F3D56"/>
<path d="M343.211 302.186C342.771 303.458 342.729 304.955 343.49 306.066C344.345 307.311 346.054 307.776 347.533 307.46C349.006 307.069 350.319 306.226 351.287 305.051C352.172 304.067 352.901 302.953 353.446 301.747C354.208 299.869 354.745 297.908 355.047 295.904L356.482 288.383C356.803 286.702 356.791 281.549 353.695 283.228C352.849 283.687 350.891 287.308 350.004 288.335C348.407 290.186 348.196 291.982 347.355 294.224C346.301 297.032 344.185 299.373 343.211 302.186Z" fill="#3F3D56"/>
<path d="M506.721 340.672C505.708 340.278 504.725 339.811 503.779 339.275C502.831 341.876 502.327 344.618 502.288 347.386L509.22 343.471C510.263 342.883 511.444 342.064 511.422 340.869C511.431 340.721 511.401 340.574 511.333 340.442C511.266 340.31 511.164 340.199 511.039 340.12C510.885 340.059 510.717 340.039 510.553 340.064C509.525 340.149 508.588 340.654 507.618 341.005C506.649 341.356 505.515 341.541 504.625 341.02" fill="#3F3D56"/>
<path d="M543.288 342.996C542.527 343.203 541.784 343.469 541.065 343.792C539.474 344.6 538.392 346.134 536.961 347.198C535.591 348.216 533.942 348.775 532.323 349.318C531.847 349.738 532.066 350.584 532.583 350.953C533.138 351.269 533.776 351.412 534.413 351.364C536.095 351.401 537.867 351.417 539.34 350.606C540.17 350.069 540.947 349.454 541.659 348.769C543.382 347.335 545.45 346.389 547.497 345.475C548.243 345.194 548.932 344.783 549.532 344.261C550.819 342.996 550.909 341.045 549.054 340.614C547.555 340.266 544.715 342.536 543.288 342.996Z" fill="#3F3D56"/>
<path d="M559.444 332.465C559.528 331.594 559.412 330.717 559.105 329.898C558.799 329.079 558.31 328.34 557.675 327.737C557.656 329.478 557.603 331.333 556.622 332.773C555.922 333.799 554.826 334.492 554.06 335.469C553.294 336.447 552.954 337.996 553.852 338.853C554.427 339.289 555.126 339.53 555.848 339.539C557.637 339.749 559.708 339.867 560.962 338.577C561.647 337.873 561.98 336.83 562.815 336.313C563.126 336.183 563.404 335.984 563.628 335.732C563.973 335.185 563.425 334.464 562.808 334.267C562.192 334.07 561.512 334.163 560.892 333.976C560.272 333.788 559.703 333.093 560.021 332.53" fill="#3F3D56"/>
<path d="M530.729 268.621C529.791 268.849 528.819 268.906 527.86 268.79C526.267 268.498 525.028 267.3 523.742 266.318C520.686 263.996 516.97 262.7 513.13 262.618C509.636 262.552 506.11 263.497 502.679 262.838C502.903 264.082 503.97 265.015 505.108 265.57C506.247 266.124 507.503 266.404 508.647 266.947C510.479 267.826 511.932 269.334 512.74 271.196C513.108 272.054 513.34 272.988 513.898 273.737C515.039 275.269 517.201 275.605 519.109 275.48C521.597 275.317 524.195 274.603 526.51 275.528C528.28 276.235 529.547 277.782 531.026 278.984C532.504 280.186 534.586 281.079 536.284 280.211C534.521 279.642 532.986 278.524 531.904 277.023C530.822 275.521 530.249 273.714 530.269 271.865C531.934 272.017 536.73 271.958 536.472 269.135C536.253 266.743 532.159 268.363 530.729 268.621Z" fill="#3F3D56"/>
<path d="M508.949 288.087C509.244 286.469 510.861 285.04 510.358 283.474C510.009 282.391 508.751 281.857 507.612 281.83C506.472 281.803 505.353 282.142 504.213 282.174C503.472 282.135 502.729 282.145 501.988 282.205C499.727 282.576 498.333 284.942 496.201 285.783C494.905 286.294 493.449 286.197 492.102 286.55C489.042 287.353 487.106 290.238 484.967 292.564C481.512 296.306 477.01 298.926 472.045 300.085C470.305 300.486 468.435 300.744 467.052 301.871C465.221 303.364 464.77 305.924 464.363 308.248C463.237 314.667 461.517 320.969 459.225 327.071L466.49 327.996C467.871 328.172 469.302 328.344 470.633 327.936C471.6 327.572 472.516 327.085 473.358 326.488C476.594 324.483 480.215 323.179 483.988 322.659C485.89 322.398 487.885 322.35 489.67 323.056C491.456 323.762 492.987 325.362 493.137 327.272C493.909 327.033 494.732 327.007 495.517 327.198C496.303 327.388 497.022 327.788 497.598 328.355C498.735 329.512 499.48 330.996 499.727 332.598C499.919 333.589 500.11 334.778 501.032 335.194C501.785 335.533 502.648 335.168 503.471 335.102C506.264 334.879 508.582 338.129 511.327 337.569C514.272 336.969 514.995 332.569 517.867 331.687C519.517 331.181 521.831 331.797 522.621 330.265C523.317 328.916 521.928 327.358 522.071 325.847C522.248 323.986 524.447 323.196 526.143 322.402C531.989 319.664 534.764 311.812 531.931 306.021C530.252 302.59 526.949 299.889 526.339 296.119C525.87 293.219 527.016 289.837 525.163 287.554C524.22 286.393 522.624 285.752 522.063 284.366C521.71 283.494 521.852 282.504 521.662 281.583C521.472 280.662 520.667 279.698 519.755 279.937C517.108 280.63 516.264 288.789 514.847 290.771C512.693 293.785 508.27 291.8 508.949 288.087Z" fill="#3F3D56"/>
<path d="M460.028 271.704C459.123 271.451 458.136 271.202 457.269 271.563C456.402 271.925 455.896 273.195 456.592 273.825C462.033 273.613 467.508 273.403 472.903 274.14C479.119 274.99 485.271 277.095 491.514 276.475C487.948 275.425 484.323 274.586 480.658 273.961L474.545 272.796C472.906 272.454 471.249 272.198 469.582 272.031C466.095 271.744 463.456 272.663 460.028 271.704Z" fill="#3F3D56"/>
<path d="M465.475 252.792C465.024 252.755 464.464 252.722 464.23 253.11C464.007 253.48 464.263 253.969 464.143 254.385C463.979 254.952 463.234 255.097 462.648 255.02C462.061 254.942 461.427 254.757 460.907 255.04C460.643 255.219 460.445 255.479 460.342 255.781C460.24 256.083 460.237 256.409 460.336 256.712C460.549 257.313 460.893 257.86 461.343 258.312C462.111 259.279 462.987 260.156 463.953 260.925C465.823 262.303 468.357 262.967 469.535 264.967C469.701 265.354 469.956 265.697 470.28 265.968C470.846 266.325 471.583 266.053 472.192 265.776L474.326 264.803C474.71 264.664 475.054 264.432 475.324 264.126C475.811 263.465 475.512 262.527 475.103 261.816C474.693 261.104 474.17 260.368 474.257 259.553C474.414 258.099 476.287 257.543 477.057 256.299C477.834 255.045 477.328 253.43 477.418 251.959C477.523 250.238 478.606 248 476.863 246.715C475.381 245.622 473.965 246.632 472.902 247.838C470.659 250.381 469.598 253.136 465.475 252.792Z" fill="#3F3D56"/>
<path d="M478.429 227.085C479.158 228.477 480.677 229.308 481.471 230.663C482.332 232.133 482.234 234.032 483.168 235.456C484.127 236.917 486.056 237.693 486.593 239.355C487.18 241.17 485.849 243.375 486.91 244.961C487.108 245.22 487.358 245.435 487.644 245.593C487.929 245.751 488.245 245.848 488.57 245.878C488.895 245.908 489.223 245.87 489.533 245.766C489.842 245.663 490.127 245.497 490.369 245.278C490.817 244.792 491.056 244.15 491.037 243.49C491.017 242.831 490.74 242.204 490.264 241.745C489.636 241.174 488.734 240.927 488.209 240.259C487.936 239.873 487.754 239.431 487.677 238.965C487.39 237.621 487.436 236.229 487.81 234.906C487.95 234.571 487.986 234.201 487.912 233.845C487.676 233.16 486.746 233.111 486.094 232.793C484.612 232.071 484.648 229.984 484.907 228.359C484.734 229.441 480.872 227.6 480.467 226.987C479.664 225.77 480.101 223.421 479.942 222.075C478.207 222.91 477.538 225.383 478.429 227.085Z" fill="#3F3D56"/>
<path d="M439.516 248.504C438.803 247.708 437.73 246.874 436.774 247.355C436.045 247.721 435.844 248.728 436.13 249.491C436.478 250.233 437.014 250.87 437.685 251.341C439.677 252.981 441.822 254.46 443.559 256.366C446.669 259.776 448.316 264.378 451.698 267.519C452.378 268.248 453.278 268.734 454.261 268.903C455.246 268.995 456.353 268.365 456.466 267.384C456.559 266.576 455.995 265.853 455.443 265.254C454.13 263.828 452.691 262.516 451.451 261.026C450.878 260.453 450.518 259.703 450.431 258.899C450.424 258.097 451.157 257.257 451.936 257.456C450.989 257.214 450.286 255.639 448.896 255.343C447.734 255.096 447.453 255.813 446.07 255.222C443.433 254.093 441.363 250.567 439.516 248.504Z" fill="#3F3D56"/>
<path d="M501.489 170.956C500.733 170.732 499.989 170.467 499.261 170.162C497.303 169.575 494.712 171.012 494.973 173.035C495.146 174.38 496.4 175.286 497.093 176.453C498.12 178.182 497.846 180.376 497.306 182.313C497.174 182.912 496.922 183.479 496.565 183.98C496.067 184.508 495.471 184.936 494.81 185.24C492.166 186.719 489.834 188.697 487.943 191.062C487.737 191.28 487.594 191.549 487.528 191.842C487.435 192.525 488.123 193.023 488.512 193.593C489.376 194.858 488.752 196.562 488.837 198.091C488.824 198.307 488.866 198.523 488.96 198.719C489.054 198.914 489.197 199.082 489.374 199.207C489.895 199.471 490.512 199.023 490.795 198.512C491.732 196.818 491.026 194.099 492.784 193.282C493.116 193.127 493.519 193.062 493.741 192.771C494.093 192.308 493.754 191.624 493.932 191.071C494.2 190.241 495.337 190.204 496.21 190.241C497.714 190.303 499.217 190.104 500.651 189.651C501.214 189.517 501.725 189.222 502.122 188.801C502.647 188.147 502.601 187.216 502.496 186.384C501.97 182.236 500.653 178.227 498.617 174.573C500.161 174.77 501.841 174.94 503.173 174.137C503.919 173.687 504.814 172.343 504.444 171.427C503.859 169.98 502.802 171.198 501.489 170.956Z" fill="#3F3D56"/>
<path d="M303.529 193.77C303.714 194.759 303.895 195.8 303.571 196.753C303.246 197.705 302.224 198.501 301.259 198.209C300.51 197.983 300.078 197.231 299.546 196.658C296.589 193.473 289.918 195.317 288.092 191.376C287.346 189.768 287.853 187.841 287.344 186.143C287.023 185.162 286.385 184.315 285.53 183.735C284.674 183.155 283.65 182.875 282.617 182.939C281.676 183.074 280.759 183.347 279.897 183.749C274.122 186.057 268.059 187.57 261.875 188.247C260.699 188.319 259.537 188.53 258.412 188.876C255.872 189.795 254.137 192.144 252.903 194.541C251.668 196.938 250.756 199.533 249.101 201.663C247.361 203.901 244.923 205.469 242.649 207.164C241.773 207.727 241.044 208.49 240.521 209.39C240.028 210.4 240.056 211.575 240.094 212.698L240.559 226.335C240.619 228.089 240.694 229.906 241.48 231.475C242.463 233.436 244.403 234.719 245.75 236.451C247.124 238.23 247.839 240.429 247.776 242.675C247.747 243.577 247.657 244.645 248.362 245.212C248.79 245.489 249.292 245.633 249.803 245.626L268.289 247.135C271.54 247.401 275.144 247.838 277.267 250.31C278.269 251.477 279.074 253.155 280.609 253.28C281.267 253.334 281.908 253.064 282.566 253.012C284.227 252.881 285.687 254.139 286.608 255.525C288.002 257.637 288.634 260.159 288.402 262.678C288.251 264.259 287.76 265.795 287.654 267.38C287.251 273.409 292.373 278.647 292.472 284.689C292.53 288.243 290.84 291.563 289.192 294.714C291.852 298.735 289.674 304.09 290.733 308.792C291.737 313.252 295.464 316.744 296.393 321.22C296.818 323.27 296.842 325.792 298.653 326.847C299.448 327.234 300.329 327.41 301.211 327.358C306.535 327.421 311.797 326.226 316.568 323.869C318.808 322.761 321.128 321.105 321.519 318.641C321.835 316.654 320.825 314.432 321.853 312.701C323.064 310.661 326.166 310.823 327.948 309.255C330.839 306.71 328.585 301.858 329.756 298.193C330.809 294.899 334.433 293.149 336.23 290.193C336.937 288.921 337.444 287.549 337.734 286.124C338.557 282.718 339.07 279.245 339.265 275.747C339.313 273.622 339.47 271.5 339.736 269.391C341.672 257.382 353.569 249.341 357.432 237.805C357.801 236.703 357.974 235.236 356.992 234.613C356.409 234.335 355.749 234.266 355.121 234.417L346.599 235.489C345.541 235.623 344.419 235.747 343.447 235.308C342.475 234.87 341.778 233.642 342.294 232.71C343.741 230.094 340.764 226.788 339.441 224.107C335.879 216.888 331.637 210.023 326.773 203.605C326.461 203.275 326.266 202.853 326.217 202.402L328.636 202.482C327.82 199.559 326.472 196.36 323.626 195.29C322.022 194.688 320.246 194.896 318.535 194.99C313.634 195.257 308.38 194.518 303.529 193.77Z" fill="#3F3D56"/>
<path d="M318.539 127.892C319.822 129.251 321.259 130.692 323.114 130.929C326.392 131.347 328.749 127.965 330.249 125.027C330.304 125.776 330.651 126.474 331.214 126.972C331.777 127.47 332.512 127.73 333.264 127.695C334.073 127.559 334.845 127.258 335.532 126.81C342.026 123.269 349.3 121.392 356.7 121.35C356.629 120.79 356.768 120.224 357.09 119.761C357.412 119.298 357.895 118.971 358.445 118.842C359.95 118.544 361.305 119.842 362.031 121.191C362.757 122.539 363.209 124.102 364.363 125.111C365.516 126.121 367.748 126.077 368.204 124.615C368.641 123.212 367.176 122.015 365.959 121.188C364.742 120.361 363.459 118.83 364.279 117.609C370.497 116.235 376.753 114.857 383.115 114.584C384.198 114.621 385.278 114.436 386.286 114.039C387.256 113.563 388.027 112.485 387.766 111.438C386.378 111.764 384.924 111.67 383.589 111.167C382.255 110.665 381.1 109.778 380.273 108.618C389.102 107.891 398.491 107.271 406.315 111.417C407.254 113.428 402.469 115.101 403.749 116.915C404.157 117.494 404.976 117.562 405.685 117.575C411.121 117.676 416.59 117.774 421.965 116.955C423.93 116.656 425.914 116.233 427.886 116.476C431.171 116.88 433.981 119.068 437.213 119.781C438.528 120.071 440.003 120.081 441.112 119.317C442.221 118.554 442.697 116.815 441.788 115.823C444.831 112.847 449.882 113.584 453.896 115.009C457.91 116.434 461.713 118.732 465.962 119.049C469.009 119.277 472.098 118.459 475.109 118.979C477 119.306 478.761 120.146 480.61 120.662C484.107 121.638 487.807 121.432 491.438 121.478C500.702 121.603 509.865 123.42 518.474 126.839C519.593 127.203 520.619 127.808 521.479 128.611C522.28 129.467 522.688 130.797 522.15 131.838L513.255 130.541C514.093 132.187 516.261 132.468 518.022 133.036C519.783 133.604 521.609 135.544 520.55 137.059C518.642 136.453 516.914 138.357 515.95 140.108C514.986 141.859 513.812 143.957 511.812 144.063C510.022 144.159 507.857 142.638 506.69 143.996C508.302 146.026 509.682 148.228 510.806 150.563C511.959 152.96 512.78 155.98 511.222 158.137C510.977 158.522 510.605 158.809 510.17 158.95C508.897 159.272 508.07 157.718 507.158 156.777C506.008 155.59 504.268 155.254 502.711 154.697C501.153 154.141 499.513 153.046 499.391 151.4C499.315 150.375 499.857 149.423 500.256 148.476C500.927 146.881 501.22 145.152 501.114 143.425C501.026 142.035 500.636 140.59 499.636 139.619C498.636 138.648 496.909 138.34 495.836 139.229C495.335 139.644 494.933 140.308 494.283 140.333C493.133 140.377 492.251 138.377 491.326 139.059C491.434 139.787 491.283 140.529 490.899 141.157C488.139 143.552 483.9 142.538 480.342 143.384C478.65 143.867 477.031 144.573 475.526 145.483C474.963 145.723 474.484 146.125 474.149 146.636C473.705 147.498 474.195 148.6 474.978 149.173C475.808 149.681 476.74 149.999 477.709 150.103C482.046 150.923 486.446 152.192 489.87 154.972C493.295 157.752 495.54 162.347 494.457 166.618L485.903 158.462C486.228 161.886 486.413 165.32 486.457 168.763C486.512 169.436 486.419 170.112 486.185 170.745C485.576 172.089 483.923 172.541 482.475 172.838C482.072 172.914 481.69 173.075 481.354 173.309C481.018 173.543 480.735 173.845 480.524 174.196C480.313 174.547 480.179 174.939 480.131 175.345C480.083 175.751 480.121 176.163 480.244 176.554C480.758 178.227 482.041 179.532 483.216 180.832C484.39 182.132 485.546 183.61 485.7 185.354C485.854 187.098 484.536 189.063 482.786 188.942C481.459 188.85 480.475 187.665 479.909 186.464C479.343 185.263 479.006 183.925 478.156 182.905C475.583 179.816 469.802 181.14 467.497 177.847C466.909 178.512 466.502 179.316 466.313 180.183C466.124 181.049 466.161 181.95 466.419 182.798C467.491 182.128 468.96 182.751 469.765 183.724C470.571 184.698 470.951 185.946 471.584 187.039C472.438 188.515 473.797 189.823 473.916 191.522C473.885 192.165 473.895 192.809 473.949 193.451C474.16 194.48 475.033 195.22 475.638 196.081C477.045 198.084 476.975 200.835 476.068 203.108C475.161 205.381 473.532 207.28 471.917 209.121C469.098 212.336 466.222 215.533 462.879 218.204C461.926 218.966 460.908 219.715 460.314 220.781C459.72 221.846 459.689 223.341 460.602 224.152C459.949 224.184 458.778 224.505 458.125 224.538C457.895 221.923 457.845 219.296 457.975 216.675C455.398 215.44 452.623 218.747 452.955 221.581C453.288 224.414 455.342 226.688 456.804 229.14C457.874 230.933 458.668 233.023 458.311 235.079C457.954 237.135 456.115 239.031 454.033 238.85C450.719 238.561 449.334 233.815 446.053 233.272C445.764 233.204 445.46 233.234 445.19 233.358C444.703 233.624 444.618 234.275 444.591 234.828C444.456 237.546 444.34 240.371 445.403 242.877C446.958 246.542 450.976 249.621 450.133 253.511C445.593 251.405 443.233 246.325 442.161 241.444C441.089 236.564 440.911 231.441 438.989 226.827C437.531 228.693 434.464 227.151 433.132 225.193C431.868 223.338 431.09 221.191 429.864 219.31C428.638 217.43 426.76 215.745 424.514 215.642C422.159 215.534 420.117 217.146 418.321 218.67C416.844 219.923 415.328 221.225 414.465 222.957C413.208 225.477 413.537 228.448 413.476 231.262C413.411 234.305 412.765 237.514 410.687 239.742C408.609 241.969 404.774 242.745 402.482 240.737C401.285 239.689 400.706 238.124 400.19 236.621C397.702 229.376 395.631 221.996 393.985 214.516C393.6 216.224 392.098 218.424 390.662 217.418C390.34 217.148 390.08 216.813 389.897 216.434C387.22 211.907 382.263 209.191 377.254 207.563C372.245 205.934 366.975 205.175 362.022 203.385C359.246 202.382 356.594 201.064 354.12 199.457C353.489 200.382 353.121 201.46 353.054 202.577C352.987 203.694 353.224 204.808 353.74 205.801C354.839 207.742 357.325 208.866 359.454 208.187C360.553 207.836 361.482 207.074 362.574 206.698C363.665 206.322 365.13 206.507 365.607 207.556C366.064 208.56 365.373 209.775 365.716 210.824C366.237 212.421 368.651 212.544 369.495 213.997C370.123 215.078 369.607 216.514 368.71 217.387C367.813 218.259 366.617 218.738 365.522 219.345C361.971 221.316 359.445 224.68 356.341 227.298C353.238 229.915 348.858 231.826 345.159 230.147C346.041 225.692 340.723 222.421 339.744 217.985C339.422 216.526 339.589 214.975 339.129 213.552C338.464 211.493 336.632 210.076 335.13 208.515C333.308 206.602 331.888 204.343 330.955 201.873C330.022 199.403 329.594 196.771 329.697 194.133C329.778 192.3 330.115 190.437 329.697 188.651C329.278 186.864 327.796 185.135 325.959 185.216C321.764 185.401 316.478 185.712 314.277 182.143C313.492 180.869 313.15 179.004 314.285 178.028C315.087 177.339 316.269 177.404 317.322 177.507L326.775 178.435C328.986 178.652 331.376 178.832 333.273 177.678C335.17 176.525 335.992 173.463 334.235 172.106C332.952 171.115 330.652 171.168 330.279 169.592C329.968 168.279 331.424 166.789 330.638 165.692C330.074 164.905 328.806 165.124 328.038 165.713C327.269 166.303 326.712 167.166 325.852 167.612C324.344 168.396 322.541 167.65 320.918 167.143C319.296 166.637 317.12 166.594 316.333 168.098C315.453 169.78 317.114 171.984 316.24 173.67C315.085 175.898 311.173 174.63 309.551 176.547C307.69 178.746 310.818 182.026 310.19 184.836C309.389 185.232 308.498 185.414 307.605 185.364C306.712 185.314 305.847 185.034 305.095 184.551C304.356 184.049 303.766 183.356 303.39 182.546C303.013 181.737 302.864 180.84 302.957 179.953C303.112 178.689 303.773 177.398 303.33 176.204C302.972 175.238 302.001 174.663 301.097 174.165L291.911 169.099C291.058 170.678 292.137 172.635 293.485 173.821C294.834 175.007 296.523 175.9 297.408 177.461C297.969 178.542 298.094 179.796 297.76 180.966C297.425 182.137 296.655 183.136 295.607 183.759C295.476 183.85 295.326 183.91 295.169 183.938C295.012 183.965 294.851 183.958 294.696 183.918C294.55 183.832 294.422 183.717 294.321 183.581C294.219 183.445 294.146 183.29 294.106 183.125C292.485 178.986 290.052 174.905 286.161 172.743C282.27 170.581 276.68 171.025 274.129 174.668C273.523 175.533 273.116 176.519 272.588 177.434C269.784 182.293 263.771 184.594 258.154 184.444C257.604 184.474 257.058 184.346 256.579 184.074C255.671 183.449 255.712 182.121 255.851 181.029L256.441 176.393C256.559 175.463 256.731 174.434 257.469 173.853C258.51 173.034 260.011 173.551 261.336 173.531C262.34 173.485 263.306 173.131 264.101 172.518C264.897 171.905 265.485 171.063 265.785 170.106C266.052 169.139 266.051 168.117 265.78 167.152C265.509 166.186 264.979 165.312 264.247 164.624C263.639 164.055 262.824 163.34 263.145 162.572C263.273 162.36 263.446 162.178 263.652 162.04C263.858 161.902 264.092 161.81 264.337 161.771C266.718 161.082 269.233 160.901 271.574 160.087C273.915 159.273 276.185 157.607 276.739 155.196C276.909 154.458 276.986 153.562 277.652 153.196C277.985 153.056 278.344 152.982 278.706 152.981C279.975 152.801 281.131 152.153 281.945 151.166C282.759 150.178 283.174 148.921 283.107 147.644C284.228 146.862 285.8 147.437 286.886 148.269C287.971 149.101 288.929 150.2 290.25 150.559C292.711 151.228 295.089 149.053 297.639 149.043C298.712 149.039 299.822 149.417 300.831 149.054C301.854 148.687 302.465 147.67 303.25 146.92C304.035 146.169 305.413 145.711 306.138 146.52L305.521 141.957C306.764 142.27 308.06 142.315 309.322 142.087C310.583 141.859 311.782 141.365 312.836 140.637L304.858 137.947C304.58 137.877 304.324 137.741 304.112 137.549C303.532 136.925 304.108 135.954 304.58 135.246C305.708 133.551 305.897 130.759 304.042 129.915C302.775 129.339 301.322 130.03 300.106 130.706L294.283 133.947C294.098 135.051 295.451 135.677 296.29 136.421C296.797 136.871 297.157 137.464 297.32 138.122C297.484 138.779 297.444 139.471 297.207 140.106C296.97 140.741 296.545 141.289 295.99 141.679C295.435 142.068 294.774 142.281 294.095 142.29C294.479 142.787 294.745 143.364 294.875 143.979C295.004 144.593 294.994 145.228 294.844 145.838L290.926 146.119C290.486 146.207 290.029 146.118 289.655 145.871C289.236 145.5 289.293 144.849 289.196 144.298C288.961 142.969 287.657 142.037 286.326 141.798C284.994 141.559 283.632 141.866 282.314 142.168C281.754 142.369 281.139 142.355 280.589 142.128C280.274 141.924 280.035 141.622 279.907 141.269C279.329 139.871 279.869 138.227 280.798 137.031C281.726 135.835 282.997 134.961 284.138 133.965C286.867 131.575 288.873 128.472 289.927 125.005C292.084 124.103 294.317 122.878 296.474 121.976C299.799 120.296 303.528 119.575 307.242 119.894L314.546 120.033C316.709 120.074 318.93 120.127 320.93 120.95C322.93 121.773 324.687 123.552 324.825 125.706C324.866 125.95 324.845 126.201 324.763 126.434C324.681 126.667 324.541 126.876 324.356 127.041C324.074 127.195 323.754 127.267 323.433 127.249C321.416 127.319 320.556 127.821 318.539 127.892Z" fill="#3F3D56"/>
<path d="M260.318 150.736C260.604 150.467 260.809 150.124 260.912 149.745C261.015 149.367 261.011 148.967 260.901 148.591C260.207 148.323 259.451 148.255 258.72 148.393C257.988 148.53 257.31 148.869 256.761 149.371C256.328 149.808 255.956 150.3 255.652 150.834C254.692 152.397 253.843 154.263 254.4 156.01C254.445 156.201 254.528 156.38 254.644 156.538C254.759 156.696 254.906 156.83 255.074 156.931C255.323 157.03 255.592 157.072 255.86 157.053C256.917 157.052 257.974 156.987 259.023 156.859C259.668 156.781 260.416 156.599 260.666 156C260.993 155.214 260.2 154.324 260.431 153.504C260.583 153.137 260.814 152.808 261.106 152.539C261.252 152.404 261.363 152.237 261.432 152.051C261.501 151.865 261.526 151.666 261.504 151.469C261.411 151.084 260.821 150.865 260.608 151.2" fill="#3F3D56"/>
<path d="M265.802 143.642C264.862 143.427 263.894 143.367 262.935 143.463C262.723 143.457 262.513 143.504 262.324 143.601C262.141 143.736 262.009 143.927 261.948 144.145C261.745 144.794 261.795 145.495 262.087 146.109C262.379 146.722 262.892 147.204 263.524 147.457C263.869 147.536 264.199 147.668 264.502 147.849C265.313 148.477 264.796 149.76 264.949 150.772C265.122 151.909 266.225 152.863 266.022 153.995C265.863 154.887 264.909 155.593 265.062 156.486C265.223 157.421 266.412 157.702 267.36 157.777C267.909 157.873 268.475 157.808 268.988 157.591C269.503 157.24 269.869 156.711 270.015 156.107C270.403 154.954 270.566 153.738 270.496 152.524C270.491 151.972 270.353 151.429 270.091 150.943C269.805 150.557 269.489 150.196 269.145 149.862C267.329 147.754 269.241 144.61 265.802 143.642Z" fill="#3F3D56"/>
<path opacity="0.8" d="M504.597 308.767C504.597 308.767 365.512 229.098 305.635 244.193C305.635 244.193 178.736 257.821 164.029 287.802C164.029 287.802 123.69 162.008 108.983 157.815" stroke="#625CF9" stroke-width="2" stroke-miterlimit="10"/>
<path opacity="0.8" d="M164.029 287.802C187.35 225.744 397.447 156.977 397.447 156.977C367.613 164.524 305.635 244.193 305.635 244.193C305.635 244.193 174.534 149.01 108.983 157.815C108.983 157.815 397.657 167.25 504.597 308.767" stroke="#625CF9" stroke-width="2" stroke-miterlimit="10"/>
<path d="M108.983 163.895C112.348 163.895 115.076 161.173 115.076 157.815C115.076 154.457 112.348 151.735 108.983 151.735C105.618 151.735 102.891 154.457 102.891 157.815C102.891 161.173 105.618 163.895 108.983 163.895Z" fill="#625CF9"/>
<path d="M164.028 293.882C167.393 293.882 170.121 291.16 170.121 287.802C170.121 284.444 167.393 281.722 164.028 281.722C160.663 281.722 157.936 284.444 157.936 287.802C157.936 291.16 160.663 293.882 164.028 293.882Z" fill="#625CF9"/>
<path d="M397.446 163.057C400.811 163.057 403.539 160.335 403.539 156.977C403.539 153.619 400.811 150.897 397.446 150.897C394.081 150.897 391.354 153.619 391.354 156.977C391.354 160.335 394.081 163.057 397.446 163.057Z" fill="#625CF9"/>
<path d="M504.597 314.848C507.962 314.848 510.69 312.125 510.69 308.768C510.69 305.41 507.962 302.688 504.597 302.688C501.232 302.688 498.504 305.41 498.504 308.768C498.504 312.125 501.232 314.848 504.597 314.848Z" fill="#625CF9"/>
<path d="M305.634 250.273C308.999 250.273 311.727 247.551 311.727 244.193C311.727 240.836 308.999 238.113 305.634 238.113C302.269 238.113 299.541 240.836 299.541 244.193C299.541 247.551 302.269 250.273 305.634 250.273Z" fill="#625CF9"/>
</g>
<defs>
<clipPath id="clip0_304_108">
<rect width="599" height="444" fill="white"/>
</clipPath>
</defs>
</svg>
