<svg width="615" height="402" viewBox="0 0 615 402" fill="none" xmlns="http://www.w3.org/2000/svg">
<g clip-path="url(#clip0_304_207)">
<path d="M88.1239 402C136.793 402 176.248 398.996 176.248 395.29C176.248 391.585 136.793 388.581 88.1239 388.581C39.4544 388.581 0 391.585 0 395.29C0 398.996 39.4544 402 88.1239 402Z" fill="#E6E6E6"/>
<path d="M116.666 100.987L81.5088 91.4151C90.8966 82.572 94.9805 74.2413 93.7604 66.4231H116.666V100.987Z" fill="#9F616A"/>
<path d="M120.395 370.05L109.039 371.645L95.3586 246.153L73.5188 371.113L61.7998 371.645V213.185H134.244L120.395 370.05Z" fill="#2F2E41"/>
<path d="M67.6977 395.348C69.4802 395.399 71.2285 394.853 72.664 393.797C74.0996 392.741 75.1399 391.235 75.6192 389.521L76.4487 377.164L74.7766 368.401C70.3647 364.782 65.9046 364.857 61.3993 368.401L59.9627 386.757C59.8785 387.834 60.0143 388.916 60.3619 389.939C60.7096 390.962 61.2619 391.904 61.9853 392.708C62.7086 393.511 63.5879 394.159 64.5699 394.613C65.5519 395.067 66.616 395.317 67.6977 395.348Z" fill="#2F2E41"/>
<path d="M114.573 395.348C116.355 395.399 118.103 394.853 119.539 393.797C120.975 392.741 122.015 391.235 122.494 389.521L123.324 377.164L121.652 368.401C117.24 364.782 112.78 364.857 108.274 368.401L106.838 386.757C106.753 387.834 106.889 388.916 107.237 389.939C107.585 390.962 108.137 391.904 108.86 392.708C109.584 393.511 110.463 394.159 111.445 394.613C112.427 395.067 113.491 395.317 114.573 395.348Z" fill="#2F2E41"/>
<path d="M111.872 82.9072C123.051 82.9072 132.113 73.8605 132.113 62.7008C132.113 51.5412 123.051 42.4945 111.872 42.4945C100.692 42.4945 91.6299 51.5412 91.6299 62.7008C91.6299 73.8605 100.692 82.9072 111.872 82.9072Z" fill="#9F616A"/>
<path d="M137.44 215.844H60.2012C70.2121 169.53 70.1841 132.229 62.2099 102.063C61.7019 100.142 61.9223 98.1021 62.8285 96.3337C63.7348 94.5654 65.2632 93.1933 67.1206 92.4807L87.9005 84.5024C94.139 92.5449 102.943 96.0577 116.665 90.8834L127.554 93.1131C130.206 93.6528 132.571 95.1333 134.213 97.2806C135.855 99.4279 136.662 102.096 136.484 104.792C135.682 116.59 135.998 128.478 135.309 138.741C133.174 170.52 132.252 195.295 137.44 215.844Z" fill="#E6E6E6"/>
<path d="M101.217 36.1136C101.217 36.1136 112.936 22.82 126.786 35.5819L130.515 36.6454L127.851 38.7723C127.851 38.7723 141.701 45.1533 140.636 58.4469C140.636 58.4469 138.505 57.9152 137.44 58.4469C136.374 58.9787 135.842 64.8279 135.842 64.8279C135.842 64.8279 134.244 60.5739 133.711 60.0422C133.178 59.5104 125.721 65.8914 113.469 56.3199C113.469 56.3199 109.74 65.8914 105.479 64.8279C101.218 63.7644 95.3581 64.2961 92.6947 71.2088C92.6947 71.2088 78.3123 40.3676 101.217 36.1136Z" fill="#2F2E41"/>
<path d="M141.169 204.145L134.331 213.294C133.619 214.247 133.103 215.332 132.815 216.485C132.527 217.639 132.471 218.838 132.651 220.013C132.832 221.188 133.244 222.316 133.865 223.33C134.486 224.345 135.303 225.226 136.268 225.923C137.511 226.819 138.964 227.384 140.487 227.561C142.01 227.739 143.554 227.524 144.971 226.938C146.387 226.351 147.63 225.412 148.58 224.211C149.53 223.009 150.156 221.584 150.399 220.072L152.355 207.867L156.084 155.225L153.42 128.637L136.375 135.018L141.169 157.883V204.145Z" fill="#9F616A"/>
<path d="M134.244 141.399L155.018 131.828L153.953 124.294C153.953 118.056 152.064 111.965 148.533 106.818C145.003 101.672 139.996 97.7113 134.17 95.4563L127.852 93.0104L134.244 141.399Z" fill="#E6E6E6"/>
<path d="M58.6035 202.018L65.4414 211.167C66.1536 212.12 66.6689 213.205 66.9572 214.358C67.2455 215.512 67.3011 216.711 67.1208 217.886C66.9405 219.061 66.5279 220.189 65.907 221.203C65.2861 222.218 64.4692 223.099 63.504 223.796C62.261 224.692 60.8086 225.257 59.2853 225.434C57.7619 225.612 56.2183 225.397 54.8016 224.811C53.3849 224.224 52.1423 223.286 51.1921 222.084C50.2419 220.882 49.6158 219.457 49.3735 217.945L47.4172 205.741L43.6885 153.098L46.3519 126.51L63.3976 132.891L58.6035 155.756V202.018Z" fill="#9F616A"/>
<path d="M65.5284 139.272L44.7539 129.701L45.8193 122.167C45.8193 115.929 47.7085 109.838 51.2389 104.691C54.7693 99.545 59.7759 95.5843 65.6017 93.3293L71.9205 90.8834L65.5284 139.272Z" fill="#E6E6E6"/>
<path d="M609.399 342.732H253.917C252.432 342.731 251.008 342.141 249.958 341.093C248.908 340.045 248.317 338.624 248.315 337.141V182.822C248.317 181.339 248.908 179.918 249.958 178.87C251.008 177.822 252.432 177.232 253.917 177.231H609.399C610.884 177.232 612.308 177.822 613.358 178.87C614.408 179.918 614.999 181.339 615 182.822V337.141C614.999 338.624 614.408 340.045 613.358 341.093C612.308 342.141 610.884 342.731 609.399 342.732ZM253.917 179.467C253.026 179.468 252.171 179.822 251.541 180.451C250.911 181.08 250.557 181.932 250.556 182.822V337.141C250.557 338.031 250.911 338.883 251.541 339.512C252.171 340.141 253.026 340.495 253.917 340.496H609.399C610.29 340.495 611.144 340.141 611.775 339.512C612.405 338.883 612.759 338.031 612.76 337.141V182.822C612.759 181.932 612.405 181.08 611.775 180.451C611.144 179.822 610.29 179.468 609.399 179.467H253.917Z" fill="#E6E6E6"/>
<path d="M268.479 196.241C267.588 196.241 266.733 196.594 266.102 197.224C265.472 197.853 265.118 198.706 265.118 199.596C265.118 200.485 265.472 201.339 266.102 201.968C266.733 202.597 267.588 202.951 268.479 202.951H315.528C316.419 202.951 317.274 202.597 317.904 201.968C318.535 201.339 318.889 200.485 318.889 199.596C318.889 198.706 318.535 197.853 317.904 197.224C317.274 196.594 316.419 196.241 315.528 196.241H268.479Z" fill="#E6E6E6"/>
<path d="M590.572 219.572V281.784H273.303V249.028C275.5 247.619 277.71 246.218 279.94 244.862C289.465 239.044 299.66 233.602 310.771 231.585C316.026 230.607 321.41 230.54 326.688 231.387C332.263 232.306 337.599 234.224 342.883 236.148C348.093 238.052 353.317 240.016 358.766 241.12C364.076 242.161 369.528 242.268 374.875 241.437C385.077 239.91 394.661 235.817 404.206 232.114C413.81 228.392 423.707 224.874 434.101 224.411C444.362 223.949 454.498 226.369 464.235 229.37C484.087 235.487 504.358 244.558 525.379 238.336C546.725 232.028 566.358 213.819 590.014 219.221C590.238 219.262 590.437 219.388 590.572 219.572Z" fill="#E6E6E6"/>
<path d="M590.572 220.656C590.471 220.846 590.308 220.996 590.111 221.082C589.914 221.168 589.694 221.186 589.485 221.132C586.667 220.487 583.779 220.189 580.888 220.246C557.619 220.656 539.729 239.355 516.977 242.151C496.464 244.671 477.156 234.713 457.869 229.509C447.847 226.805 437.514 225.37 427.201 227.208C416.968 229.027 407.364 233.205 397.72 236.915C388.434 240.485 378.783 243.804 368.729 243.97C357.674 244.155 347.719 239.606 337.465 236.141C332.133 234.336 326.662 232.908 321.012 232.769C315.506 232.703 310.027 233.55 304.798 235.275C293.902 238.733 284.086 244.895 274.528 251.018C274.364 251.133 274.165 251.187 273.965 251.17C273.759 251.143 273.566 251.053 273.412 250.913C273.258 250.774 273.15 250.591 273.102 250.388C273.055 250.186 273.07 249.974 273.146 249.781C273.222 249.587 273.355 249.422 273.528 249.306L273.965 249.028C276.158 247.619 278.363 246.218 280.589 244.862C290.094 239.044 300.267 233.602 311.355 231.585C316.599 230.607 321.972 230.54 327.239 231.387C332.802 232.306 338.128 234.224 343.4 236.148C348.599 238.052 353.812 240.016 359.25 241.12C364.549 242.161 369.99 242.268 375.326 241.437C385.506 239.91 395.07 235.817 404.595 232.114C414.179 228.392 424.055 224.874 434.428 224.411C444.668 223.949 454.782 226.369 464.499 229.37C484.31 235.487 504.538 244.558 525.515 238.336C546.816 232.028 566.409 213.819 590.015 219.221C590.239 219.263 590.438 219.388 590.572 219.571C590.674 219.734 590.728 219.922 590.728 220.114C590.728 220.306 590.674 220.493 590.572 220.656Z" fill="#625CF9"/>
<path d="M317.018 236.822C319.579 236.822 321.655 234.75 321.655 232.194C321.655 229.638 319.579 227.565 317.018 227.565C314.458 227.565 312.382 229.638 312.382 232.194C312.382 234.75 314.458 236.822 317.018 236.822Z" fill="#625CF9"/>
<path d="M434.256 230.871C436.816 230.871 438.892 228.799 438.892 226.243C438.892 223.687 436.816 221.615 434.256 221.615C431.695 221.615 429.619 223.687 429.619 226.243C429.619 228.799 431.695 230.871 434.256 230.871Z" fill="#625CF9"/>
<path d="M577.325 224.921C579.886 224.921 581.961 222.848 581.961 220.292C581.961 217.736 579.886 215.664 577.325 215.664C574.764 215.664 572.688 217.736 572.688 220.292C572.688 222.848 574.764 224.921 577.325 224.921Z" fill="#625CF9"/>
<path d="M314.408 308.067C313.516 308.067 312.661 308.42 312.031 309.049C311.401 309.678 311.047 310.532 311.047 311.421C311.047 312.311 311.401 313.164 312.031 313.793C312.661 314.423 313.516 314.776 314.408 314.776H361.457C362.348 314.776 363.203 314.423 363.833 313.793C364.463 313.164 364.817 312.311 364.817 311.421C364.817 310.532 364.463 309.678 363.833 309.049C363.203 308.42 362.348 308.067 361.457 308.067H314.408Z" fill="#E6E6E6"/>
<path d="M284.163 323.722C291.174 323.722 296.858 318.048 296.858 311.049C296.858 304.049 291.174 298.375 284.163 298.375C277.151 298.375 271.467 304.049 271.467 311.049C271.467 318.048 277.151 323.722 284.163 323.722Z" fill="#625CF9"/>
<path d="M427.923 308.067C427.032 308.067 426.177 308.42 425.547 309.049C424.917 309.678 424.562 310.532 424.562 311.421C424.562 312.311 424.917 313.164 425.547 313.793C426.177 314.423 427.032 314.776 427.923 314.776H474.972C475.864 314.776 476.718 314.423 477.349 313.793C477.979 313.164 478.333 312.311 478.333 311.421C478.333 310.532 477.979 309.678 477.349 309.049C476.718 308.42 475.864 308.067 474.972 308.067H427.923Z" fill="#E6E6E6"/>
<path d="M397.677 323.722C404.689 323.722 410.373 318.048 410.373 311.049C410.373 304.049 404.689 298.375 397.677 298.375C390.666 298.375 384.981 304.049 384.981 311.049C384.981 318.048 390.666 323.722 397.677 323.722Z" fill="#625CF9"/>
<path d="M541.439 308.067C540.547 308.067 539.693 308.42 539.062 309.049C538.432 309.678 538.078 310.532 538.078 311.421C538.078 312.311 538.432 313.164 539.062 313.793C539.693 314.423 540.547 314.776 541.439 314.776H588.488C589.379 314.776 590.234 314.423 590.864 313.793C591.495 313.164 591.849 312.311 591.849 311.421C591.849 310.532 591.495 309.678 590.864 309.049C590.234 308.42 589.379 308.067 588.488 308.067H541.439Z" fill="#E6E6E6"/>
<path d="M511.193 323.722C518.205 323.722 523.889 318.048 523.889 311.049C523.889 304.049 518.205 298.375 511.193 298.375C504.181 298.375 498.497 304.049 498.497 311.049C498.497 318.048 504.181 323.722 511.193 323.722Z" fill="#625CF9"/>
<path d="M585.067 135.564H409.687C406.269 135.564 403.498 133.594 403.494 131.165V93.1134C403.498 90.6853 406.269 88.715 409.687 88.715H585.067C588.486 88.715 591.257 90.6853 591.261 93.1134V131.165C591.258 133.593 588.486 135.561 585.067 135.564ZM409.687 90.4729C407.636 90.4729 405.974 91.6552 405.971 93.112V131.163C405.971 132.62 407.636 133.801 409.687 133.802H585.067C587.119 133.802 588.781 132.62 588.784 131.163V93.1134C588.784 91.6567 587.119 90.4759 585.067 90.4744L409.687 90.4729Z" fill="#E6E6E6"/>
<path d="M449.341 110.34C448.352 110.341 447.402 110.734 446.702 111.433C446.002 112.132 445.609 113.079 445.607 114.067V140.16C445.609 141.148 446.002 142.096 446.702 142.795C447.402 143.493 448.352 143.886 449.341 143.888H583.021C584.011 143.886 584.96 143.493 585.66 142.795C586.36 142.096 586.754 141.148 586.755 140.16V114.067C586.754 113.079 586.36 112.132 585.66 111.433C584.96 110.734 584.011 110.341 583.021 110.34H449.341Z" fill="#625CF9"/>
<path d="M468.012 135.687C472.549 135.687 476.227 132.016 476.227 127.487C476.227 122.958 472.549 119.286 468.012 119.286C463.475 119.286 459.797 122.958 459.797 127.487C459.797 132.016 463.475 135.687 468.012 135.687Z" fill="white"/>
<path d="M505.45 123.927C504.559 123.927 503.704 124.28 503.074 124.91C502.444 125.539 502.09 126.392 502.09 127.282C502.09 128.172 502.444 129.025 503.074 129.654C503.704 130.283 504.559 130.637 505.45 130.637H552.5C553.391 130.637 554.246 130.283 554.876 129.654C555.506 129.025 555.86 128.172 555.86 127.282C555.86 126.392 555.506 125.539 554.876 124.91C554.246 124.28 553.391 123.927 552.5 123.927H505.45Z" fill="white"/>
<path d="M453.628 46.849H278.248C274.829 46.849 272.058 44.8786 272.055 42.4505V4.39848C272.058 1.97037 274.829 0 278.248 0H453.628C457.047 0 459.817 1.97037 459.821 4.39848V42.4497C459.818 44.8779 457.047 46.846 453.628 46.849ZM278.248 1.7579C276.196 1.7579 274.534 2.94026 274.532 4.39698V42.4482C274.532 43.905 276.196 45.0858 278.248 45.0873H453.628C455.679 45.0873 457.342 43.905 457.344 42.4482V4.39848C457.344 2.94177 455.679 1.76088 453.628 1.75939L278.248 1.7579Z" fill="#E6E6E6"/>
<path d="M317.902 21.625C316.912 21.6262 315.963 22.0193 315.263 22.718C314.563 23.4168 314.169 24.3643 314.168 25.3525V51.4452C314.169 52.4334 314.563 53.3808 315.263 54.0796C315.963 54.7784 316.912 55.1715 317.902 55.1727H451.581C452.571 55.1715 453.521 54.7784 454.221 54.0796C454.921 53.3808 455.314 52.4334 455.316 51.4452V25.3525C455.314 24.3643 454.921 23.4168 454.221 22.718C453.521 22.0193 452.571 21.6262 451.581 21.625H317.902Z" fill="#625CF9"/>
<path d="M336.572 46.9721C341.109 46.9721 344.787 43.3006 344.787 38.7716C344.787 34.2426 341.109 30.571 336.572 30.571C332.035 30.571 328.357 34.2426 328.357 38.7716C328.357 43.3006 332.035 46.9721 336.572 46.9721Z" fill="white"/>
<path d="M374.012 35.212C373.121 35.212 372.266 35.5655 371.636 36.1946C371.005 36.8238 370.651 37.6771 370.651 38.5668C370.651 39.4565 371.005 40.3098 371.636 40.939C372.266 41.5681 373.121 41.9216 374.012 41.9216H421.061C421.953 41.9216 422.807 41.5681 423.438 40.939C424.068 40.3098 424.422 39.4565 424.422 38.5668C424.422 37.6771 424.068 36.8238 423.438 36.1946C422.807 35.5655 421.953 35.212 421.061 35.212H374.012Z" fill="white"/>
</g>
<defs>
<clipPath id="clip0_304_207">
<rect width="615" height="402" fill="white"/>
</clipPath>
</defs>
</svg>
