<svg width="499" height="416" viewBox="0 0 499 416" fill="none" xmlns="http://www.w3.org/2000/svg">
<g clip-path="url(#clip0_304_504)">
<path d="M23.1867 396.404C30.1083 409.223 44.7985 414.726 44.7985 414.726C44.7985 414.726 48.2665 399.445 41.3449 386.626C34.4232 373.807 19.7331 368.304 19.7331 368.304C19.7331 368.304 16.2651 383.585 23.1867 396.404Z" fill="#2F2E41"/>
<path d="M27.9443 392.187C40.4407 399.695 45.2534 414.608 45.2534 414.608C45.2534 414.608 29.8055 417.348 17.3091 409.84C4.81276 402.332 0 387.419 0 387.419C0 387.419 15.4479 384.679 27.9443 392.187Z" fill="#625CF9"/>
<path d="M308.115 19.9709H230.146V21.0832H308.115V19.9709Z" fill="#F2F2F2"/>
<path d="M286.952 20.8051H285.838V31.0943H286.952V20.8051Z" fill="#F2F2F2"/>
<path d="M252.98 20.8051H251.866V31.0943H252.98V20.8051Z" fill="#F2F2F2"/>
<path d="M347.656 73.3633H269.688V74.4756H347.656V73.3633Z" fill="#F2F2F2"/>
<path d="M291.964 63.3522H290.851V73.6414H291.964V63.3522Z" fill="#F2F2F2"/>
<path d="M325.936 63.3522H324.822V73.6414H325.936V63.3522Z" fill="#F2F2F2"/>
<path d="M451.243 98.391H373.274V99.5033H451.243V98.391Z" fill="#F2F2F2"/>
<path d="M395.551 88.3799H394.438V98.669H395.551V88.3799Z" fill="#F2F2F2"/>
<path d="M429.523 88.3799H428.409V98.669H429.523V88.3799Z" fill="#F2F2F2"/>
<path d="M443.446 356.454H365.478V357.567H443.446V356.454Z" fill="#F2F2F2"/>
<path d="M387.754 346.443H386.641V356.732H387.754V346.443Z" fill="#F2F2F2"/>
<path d="M421.726 346.443H420.612V356.732H421.726V346.443Z" fill="#F2F2F2"/>
<path d="M310.343 177.923H232.374V179.036H310.343V177.923Z" fill="#F2F2F2"/>
<path d="M254.651 167.912H253.537V178.202H254.651V167.912Z" fill="#F2F2F2"/>
<path d="M288.623 167.912H287.509V178.202H288.623V167.912Z" fill="#F2F2F2"/>
<path d="M334.847 311.961H256.878V313.073H334.847V311.961Z" fill="#F2F2F2"/>
<path d="M279.155 301.95H278.041V312.239H279.155V301.95Z" fill="#F2F2F2"/>
<path d="M313.128 301.95H312.014V312.239H313.128V301.95Z" fill="#F2F2F2"/>
<path d="M459.597 271.36H381.628V272.472H459.597V271.36Z" fill="#F2F2F2"/>
<path d="M403.905 261.349H402.791V271.638H403.905V261.349Z" fill="#F2F2F2"/>
<path d="M437.878 261.349H436.764V271.638H437.878V261.349Z" fill="#F2F2F2"/>
<path d="M201.638 390.534H69.7676V389.587H200.689V343.636H80.8536L75.0321 331.525L75.8876 331.115L81.4506 342.689H201.638V390.534Z" fill="#2F2E41"/>
<path d="M87.3189 413.747C92.8205 413.747 97.2804 409.293 97.2804 403.798C97.2804 398.304 92.8205 393.85 87.3189 393.85C81.8173 393.85 77.3574 398.304 77.3574 403.798C77.3574 409.293 81.8173 413.747 87.3189 413.747Z" fill="#3F3D56"/>
<path d="M185.51 413.747C191.012 413.747 195.472 409.293 195.472 403.798C195.472 398.304 191.012 393.85 185.51 393.85C180.009 393.85 175.549 398.304 175.549 403.798C175.549 409.293 180.009 413.747 185.51 413.747Z" fill="#3F3D56"/>
<path d="M301.253 198.679C304.658 198.679 307.419 195.921 307.419 192.52C307.419 189.119 304.658 186.362 301.253 186.362C297.847 186.362 295.086 189.119 295.086 192.52C295.086 195.921 297.847 198.679 301.253 198.679Z" fill="#3F3D56"/>
<path d="M215.743 328.004H67.5193L35.4473 223.312H248.772L248.578 223.928L215.743 328.004ZM68.2211 327.056H215.047L247.479 224.259H36.7295L68.2211 327.056Z" fill="#2F2E41"/>
<path d="M204.173 322.556H73.9826L45.8125 229.707H233.183L233.013 230.254L204.173 322.556Z" fill="#F2F2F2"/>
<path d="M251.43 213.959L250.513 213.716L256.773 190.151H293.189V191.099H257.503L251.43 213.959Z" fill="#2F2E41"/>
<path d="M238.112 255.051H45.8115V255.998H238.112V255.051Z" fill="#2F2E41"/>
<path d="M227.1 289.956H56.5049V290.904H227.1V289.956Z" fill="#2F2E41"/>
<path d="M142.582 223.786H141.633V327.53H142.582V223.786Z" fill="#2F2E41"/>
<path d="M185.056 223.756L178.246 327.498L179.193 327.56L186.003 223.818L185.056 223.756Z" fill="#2F2E41"/>
<path d="M99.1764 223.755L98.2295 223.816L105 327.561L105.947 327.499L99.1764 223.755Z" fill="#2F2E41"/>
<path d="M499 414.347H0V415.46H499V414.347Z" fill="#2F2E41"/>
<path d="M331.596 34.4136C331.596 34.4136 339.737 57.5538 334.727 61.1138C329.717 64.6739 351.636 93.7474 351.636 93.7474L377.938 86.6274L363.535 62.3005C363.535 62.3005 361.656 37.9736 361.656 34.4136C361.656 30.8536 331.596 34.4136 331.596 34.4136Z" fill="#A0616A"/>
<path opacity="0.1" d="M331.596 34.4136C331.596 34.4136 339.737 57.5538 334.727 61.1138C329.717 64.6739 351.636 93.7474 351.636 93.7474L377.938 86.6274L363.535 62.3005C363.535 62.3005 361.656 37.9736 361.656 34.4136C361.656 30.8536 331.596 34.4136 331.596 34.4136Z" fill="black"/>
<path d="M317.93 199.362C317.93 199.362 315.554 229.029 317.93 244.455C320.307 259.882 323.872 302.603 323.872 302.603C323.872 302.603 323.872 383.297 336.943 384.483C350.014 385.67 359.52 386.857 360.708 382.11C361.896 377.363 354.767 374.99 358.332 372.617C361.896 370.243 363.085 361.936 358.332 352.443C353.578 342.95 358.332 246.829 358.332 246.829L380.909 307.349C380.909 307.349 383.285 357.19 385.662 364.31C388.038 371.43 383.285 384.483 391.603 385.67C399.921 386.857 409.427 379.737 414.18 377.363C418.934 374.99 407.051 374.99 409.427 373.803C411.804 372.617 418.934 369.057 416.557 367.87C414.18 366.683 411.804 309.723 411.804 309.723C411.804 309.723 405.268 188.088 396.951 183.342C388.633 178.595 383.285 186.771 383.285 186.771L317.93 199.362Z" fill="#2F2E41"/>
<path d="M339.32 379.737V389.23C339.32 389.23 328.625 415.036 339.32 415.036C350.014 415.036 358.332 417.71 358.332 414.15V382.11L339.32 379.737Z" fill="#2F2E41"/>
<path d="M409.427 379.72V389.213C409.427 389.213 420.122 415.019 409.427 415.019C398.733 415.019 390.415 417.693 390.415 414.133V382.093L409.427 379.72Z" fill="#2F2E41"/>
<path d="M348.232 51.6205C360.045 51.6205 369.621 42.0572 369.621 30.2603C369.621 18.4634 360.045 8.90009 348.232 8.90009C336.419 8.90009 326.843 18.4634 326.843 30.2603C326.843 42.0572 336.419 51.6205 348.232 51.6205Z" fill="#A0616A"/>
<path d="M341.696 70.0139C341.696 70.0139 347.637 87.8141 357.143 84.254L366.65 80.694L383.285 194.615C383.285 194.615 370.214 213.602 351.202 201.735C332.19 189.868 341.696 70.0139 341.696 70.0139Z" fill="#625CF9"/>
<path d="M358.332 66.4539L363.679 55.1805C363.679 55.1805 395.169 70.0139 399.922 74.7607C404.675 79.5074 404.675 86.6274 404.675 86.6274L396.357 116.294C396.357 116.294 398.733 181.562 398.733 183.935C398.733 186.308 407.051 199.362 401.11 194.615C395.169 189.868 393.98 185.122 389.227 192.242C384.474 199.362 373.78 207.668 373.78 207.668L358.332 66.4539Z" fill="#3F3D56"/>
<path d="M399.922 151.895L396.357 185.122C396.357 185.122 374.968 204.108 379.721 205.295C384.475 206.482 386.851 201.735 386.851 201.735C386.851 201.735 395.169 210.042 399.922 205.295C404.675 200.548 416.558 155.455 416.558 155.455L399.922 151.895Z" fill="#A0616A"/>
<path d="M348.688 0.0722305C343.946 -0.0970512 338.872 -0.180789 334.874 2.371C333.034 3.65164 331.421 5.22886 330.1 7.03813C326.206 11.9538 322.842 18.1389 324.288 24.2379L325.968 23.5836C325.968 25.2117 325.605 26.8193 324.907 28.2903C325.143 27.6034 325.936 28.7138 325.723 29.4087L323.873 35.4713C326.915 34.3576 330.699 36.6125 331.162 39.8148C331.374 32.773 332.105 24.6983 337.825 20.575C340.71 18.4957 344.36 17.8609 347.873 17.2973C351.113 16.7772 354.51 16.2814 357.614 17.3467C360.717 18.412 363.36 21.5819 362.657 24.7832C364.088 24.2909 365.688 25.2869 366.396 26.6233C367.103 27.9597 367.14 29.5363 367.161 31.0477C368.687 32.1243 370.423 29.9864 371.045 28.2273C372.504 24.0981 373.801 19.7026 373.015 15.3947C372.229 11.0869 368.714 6.97002 364.329 6.95541C364.861 6.37162 365.145 5.60398 365.121 4.81485L361.507 4.5099C362.424 4.38017 363.268 3.93591 363.894 3.25321C362.443 4.84771 351.034 0.155995 348.688 0.0722305Z" fill="#2F2E41"/>
<path d="M347.637 62.8939C347.637 62.8939 337.964 53.4274 334.483 54.0073C331.001 54.5872 326.248 62.8939 326.248 62.8939C326.248 62.8939 297.73 72.3873 298.918 81.8807C300.106 91.3742 313.177 137.655 313.177 137.655C313.177 137.655 323.872 193.428 314.366 199.362C304.859 205.295 359.52 220.722 360.708 213.602C361.896 206.482 364.273 135.281 360.708 124.601C357.143 113.921 347.637 62.8939 347.637 62.8939Z" fill="#3F3D56"/>
<path d="M389.228 81.8807H403.921C403.921 81.8807 414.181 126.974 415.37 131.721C416.558 136.468 418.934 159.015 417.746 159.015C416.558 159.015 392.792 154.268 392.792 157.828L389.228 81.8807Z" fill="#3F3D56"/>
<path d="M388.73 193.547H332.481C326.992 168.331 326.533 143.967 332.481 120.689H388.73C379.652 143.548 379.085 167.745 388.73 193.547Z" fill="#F2F2F2"/>
<path d="M309.613 162.575L326.249 169.695C326.249 169.695 358.333 174.442 358.333 161.388C358.333 148.335 326.249 155.455 326.249 155.455L315.554 152.04L309.613 162.575Z" fill="#A0616A"/>
<path d="M313.177 74.7606L298.918 78.3207L288.224 141.215C288.224 141.215 284.659 157.828 290.6 159.015C296.542 160.201 313.177 169.695 313.177 169.695C313.177 169.695 315.554 151.895 320.307 151.895L308.424 142.401L315.554 100.868L313.177 74.7606Z" fill="#3F3D56"/>
<path d="M111.522 196.277H33.5537V197.389H111.522V196.277Z" fill="#F2F2F2"/>
<path d="M55.8306 186.266H54.7168V196.555H55.8306V186.266Z" fill="#F2F2F2"/>
<path d="M89.8023 186.266H88.6885V196.555H89.8023V186.266Z" fill="#F2F2F2"/>
<path d="M138.812 31.6505H60.8428V32.7628H138.812V31.6505Z" fill="#F2F2F2"/>
<path d="M117.648 32.4847H116.534V42.7739H117.648V32.4847Z" fill="#F2F2F2"/>
<path d="M83.6763 32.4847H82.5625V42.7739H83.6763V32.4847Z" fill="#F2F2F2"/>
<path d="M217.337 141.216H139.368V142.328H217.337V141.216Z" fill="#F2F2F2"/>
<path d="M196.174 142.05H195.061V152.34H196.174V142.05Z" fill="#F2F2F2"/>
<path d="M162.202 142.05H161.088V152.34H162.202V142.05Z" fill="#F2F2F2"/>
<path d="M84.79 140.66H6.82129V141.772H84.79V140.66Z" fill="#F2F2F2"/>
<path d="M63.6275 141.494H62.5137V151.783H63.6275V141.494Z" fill="#F2F2F2"/>
<path d="M29.6549 141.494H28.541V151.783H29.6549V141.494Z" fill="#F2F2F2"/>
<path d="M178.353 85.0428H100.384V86.1552H178.353V85.0428Z" fill="#F2F2F2"/>
<path d="M122.661 75.0318H121.547V85.321H122.661V75.0318Z" fill="#F2F2F2"/>
<path d="M156.632 75.0318H155.519V85.321H156.632V75.0318Z" fill="#F2F2F2"/>
</g>
<defs>
<clipPath id="clip0_304_504">
<rect width="499" height="416" fill="white"/>
</clipPath>
</defs>
</svg>
