<svg width="764" height="380" viewBox="0 0 764 380" fill="none" xmlns="http://www.w3.org/2000/svg">
<g clip-path="url(#clip0_304_430)">
<path d="M208.597 310.795C229.338 310.795 246.151 294.014 246.151 273.314C246.151 252.613 229.338 235.832 208.597 235.832C187.856 235.832 171.042 252.613 171.042 273.314C171.042 294.014 187.856 310.795 208.597 310.795Z" fill="#E4E4E4"/>
<path opacity="0.2" d="M180.868 248.279C177.365 256.457 176.889 265.612 179.527 274.108C182.164 282.604 187.743 289.886 195.265 294.655C202.788 299.424 211.764 301.367 220.59 300.139C229.416 298.91 237.517 294.589 243.445 287.948C241.305 292.945 238.102 297.417 234.058 301.056C230.015 304.695 225.227 307.412 220.026 309.021C214.826 310.629 209.337 311.09 203.94 310.371C198.544 309.652 193.368 307.77 188.773 304.857C184.177 301.944 180.271 298.068 177.325 293.498C174.379 288.928 172.463 283.774 171.711 278.392C170.96 273.011 171.389 267.53 172.97 262.33C174.551 257.13 177.246 252.336 180.868 248.279Z" fill="black"/>
<path d="M208.701 273.314H208.804L210.661 379.581H206.74L208.701 273.314Z" fill="#3F3D56"/>
<path d="M132.613 240.897C174.43 240.897 208.33 207.063 208.33 165.327C208.33 123.591 174.43 89.7572 132.613 89.7572C90.7952 89.7572 56.8955 123.591 56.8955 165.327C56.8955 207.063 90.7952 240.897 132.613 240.897Z" fill="#E4E4E4"/>
<path opacity="0.2" d="M76.7056 114.852C69.6429 131.341 68.6848 149.799 74.0025 166.928C79.3202 184.057 90.5672 198.741 105.734 208.355C120.9 217.97 138.998 221.889 156.793 219.412C174.588 216.935 190.921 208.223 202.873 194.833C198.558 204.907 192.101 213.925 183.948 221.261C175.795 228.597 166.142 234.076 155.657 237.319C145.171 240.562 134.105 241.49 123.225 240.041C112.344 238.592 101.91 234.798 92.6436 228.924C83.3777 223.051 75.5021 215.236 69.5625 206.023C63.6229 196.81 59.7613 186.417 58.2452 175.567C56.7292 164.716 57.5949 153.666 60.7825 143.182C63.9701 132.699 69.4033 123.032 76.7056 114.852Z" fill="black"/>
<path d="M132.821 165.327H133.03L136.774 379.581H128.869L132.821 165.327Z" fill="#3F3D56"/>
<path d="M631.818 268.684H284.764V371.366H631.818V268.684Z" fill="#F0F0F0"/>
<path d="M478.524 289.905H438.058V371.366H478.524V289.905Z" fill="#CACACA"/>
<path d="M611.584 147.52H304.997V241.987H611.584V147.52Z" fill="#F0F0F0"/>
<path d="M642.667 153.338H273.915C273.299 153.338 272.697 153.154 272.187 152.811C271.677 152.467 271.281 151.978 271.052 151.408C270.822 150.839 270.768 150.213 270.897 149.612C271.026 149.011 271.332 148.463 271.776 148.037L372.556 51.3543V9.24137C372.557 8.42467 372.882 7.64168 373.461 7.06418C374.04 6.48668 374.824 6.16184 375.642 6.16092H395.533C396.351 6.16181 397.136 6.48665 397.714 7.06416C398.293 7.64166 398.618 8.42466 398.619 9.24137V26.351L406.231 19.0483C418.688 7.0981 435.215 0.296161 452.49 0.00944567C469.766 -0.27727 486.51 5.97248 499.357 17.5027L644.73 147.967C645.195 148.384 645.521 148.931 645.667 149.537C645.814 150.143 645.772 150.779 645.549 151.36C645.325 151.942 644.93 152.443 644.415 152.796C643.901 153.149 643.291 153.338 642.667 153.338Z" fill="#CACACA"/>
<path d="M385.93 171.479C388.497 171.479 391.039 171.983 393.411 172.964C395.782 173.944 397.937 175.381 399.752 177.193C401.568 179.005 403.007 181.155 403.99 183.522C404.972 185.889 405.478 188.426 405.478 190.988V217.343H366.383V190.988C366.383 188.426 366.888 185.889 367.871 183.522C368.853 181.155 370.293 179.005 372.108 177.193C373.923 175.381 376.078 173.944 378.45 172.964C380.821 171.983 383.363 171.479 385.93 171.479Z" fill="white"/>
<path d="M458.291 171.821C463.475 171.821 468.447 173.876 472.113 177.535C475.779 181.194 477.838 186.156 477.838 191.331V217.686H438.743V191.331C438.743 186.156 440.803 181.194 444.469 177.535C448.134 173.876 453.106 171.821 458.291 171.821Z" fill="white"/>
<path d="M530.651 172.163C535.835 172.163 540.807 174.219 544.473 177.877C548.139 181.536 550.198 186.499 550.198 191.673V218.028H511.104V191.673C511.104 186.499 513.163 181.536 516.829 177.877C520.495 174.219 525.467 172.163 530.651 172.163Z" fill="white"/>
<path d="M559.458 288.878C564.642 288.878 569.614 290.934 573.28 294.592C576.946 298.251 579.005 303.214 579.005 308.388V334.743H539.91V308.388C539.91 303.214 541.97 298.251 545.635 294.592C549.301 290.934 554.273 288.878 559.458 288.878Z" fill="white"/>
<path d="M366.04 288.878C371.224 288.878 376.196 290.934 379.862 294.592C383.528 298.251 385.587 303.214 385.587 308.388V334.743H346.492V308.388C346.492 305.826 346.998 303.289 347.98 300.922C348.963 298.555 350.402 296.404 352.218 294.592C354.033 292.781 356.188 291.344 358.559 290.363C360.931 289.383 363.473 288.878 366.04 288.878Z" fill="white"/>
<path d="M682.521 270.287L617.417 241.537C617.068 241.382 616.69 241.302 616.307 241.302H306.035C305.681 241.302 305.33 241.371 305.002 241.504L234.137 270.255C233.548 270.494 233.06 270.93 232.757 271.489C232.454 272.047 232.356 272.694 232.478 273.317C232.6 273.94 232.935 274.502 233.426 274.905C233.917 275.309 234.534 275.53 235.17 275.53H253.556V369.997H251.499V379.581H665.083V369.997H661.653V275.53H681.411C682.04 275.53 682.65 275.314 683.139 274.918C683.627 274.523 683.965 273.972 684.095 273.358C684.225 272.743 684.14 272.103 683.853 271.544C683.567 270.985 683.096 270.541 682.521 270.287ZM656.166 369.997H259.043V275.53H656.166V369.997Z" fill="#CACACA"/>
<path d="M410.279 213.578H360.21V221.793H410.279V213.578Z" fill="#CACACA"/>
<path d="M483.668 213.578H433.599V221.793H483.668V213.578Z" fill="#CACACA"/>
<path d="M557.057 213.578H506.988V221.793H557.057V213.578Z" fill="#CACACA"/>
<path d="M584.492 332.005H534.423V340.219H584.492V332.005Z" fill="#CACACA"/>
<path d="M390.388 332.005H340.319V340.219H390.388V332.005Z" fill="#CACACA"/>
<path d="M763.159 380H0.840484C0.617574 380 0.403793 379.912 0.246171 379.754C0.0885501 379.597 0 379.384 0 379.161C0 378.939 0.0885501 378.725 0.246171 378.568C0.403793 378.411 0.617574 378.322 0.840484 378.322H763.159C763.382 378.322 763.596 378.411 763.754 378.568C763.911 378.725 764 378.939 764 379.161C764 379.384 763.911 379.597 763.754 379.754C763.596 379.912 763.382 380 763.159 380Z" fill="#3F3D56"/>
<path d="M571.417 146.111C571.417 146.648 571.408 147.193 571.4 147.73C571.391 148.376 571.375 149.014 571.349 149.66C571.324 150.222 571.299 150.775 571.265 151.329C571.164 153.183 571.005 155.028 570.786 156.882C570.736 157.352 570.677 157.813 570.61 158.283C570.559 158.644 570.509 159.013 570.45 159.382C570.391 159.793 570.332 160.204 570.265 160.615C570.131 161.487 569.979 162.36 569.811 163.232C569.727 163.668 569.643 164.105 569.551 164.541C569.374 165.405 569.181 166.277 568.979 167.141C568.962 167.208 568.946 167.284 568.929 167.351C568.828 167.779 568.727 168.198 568.618 168.626C568.584 168.752 568.559 168.869 568.517 168.995C568.441 169.314 568.357 169.633 568.273 169.951C568.156 170.396 568.038 170.832 567.912 171.277C567.71 171.965 567.508 172.644 567.298 173.332C567.272 173.403 567.25 173.476 567.231 173.55C566.828 174.85 566.399 176.134 565.928 177.409C565.684 178.08 565.424 178.759 565.163 179.43C564.903 180.101 564.634 180.773 564.357 181.435C564.088 182.081 563.81 182.727 563.533 183.365C563.466 183.516 563.398 183.667 563.323 183.818C563.029 184.48 562.726 185.126 562.415 185.772C562.407 185.781 562.407 185.797 562.398 185.806C562.154 186.326 561.894 186.846 561.633 187.358C561.633 187.373 561.627 187.388 561.616 187.399C561.364 187.903 561.104 188.406 560.835 188.901L560.406 189.715L560.356 189.807C559.818 190.805 559.263 191.795 558.675 192.777C558.549 192.995 558.423 193.213 558.297 193.422C558.171 193.641 558.036 193.859 557.902 194.068C557.818 194.219 557.725 194.37 557.624 194.521C557.448 194.807 557.271 195.1 557.086 195.385C557.053 195.444 557.011 195.503 556.977 195.562C556.658 196.056 556.338 196.543 556.019 197.038C555.624 197.633 555.22 198.221 554.809 198.808L545.681 213.387L545.286 213.06L545.177 212.959H545.168L544.807 212.657L543.815 211.818C543.513 212.112 543.218 212.406 542.916 212.691C542.798 212.808 542.672 212.917 542.554 213.035C542.462 213.119 542.378 213.202 542.285 213.286C526.505 228.667 505.514 237.573 483.468 238.242H483.443C466.754 238.7 450.233 234.808 435.51 226.951C435.182 226.783 434.863 226.616 434.544 226.423C432.628 225.383 430.753 224.284 428.912 223.109C428.904 223.101 428.896 223.101 428.887 223.092C426.752 221.582 424.668 219.972 422.634 218.261C411.722 209.081 403.089 197.503 397.413 184.435C391.736 171.367 389.169 157.164 389.914 142.94C389.939 142.378 389.973 141.825 390.015 141.262C390.149 139.232 390.357 137.211 390.637 135.198C390.712 134.635 390.797 134.073 390.881 133.52H570.559C570.912 136.087 571.156 138.668 571.291 141.262C571.374 142.882 571.417 144.492 571.417 146.111Z" fill="#F0F0F0"/>
<path d="M570.56 133.52C567.325 112.05 556.479 92.4511 539.992 78.2862C523.506 64.1213 502.474 56.3307 480.721 56.3307C458.967 56.3307 437.935 64.1213 421.449 78.2862C404.963 92.4511 394.116 112.05 390.881 133.52C390.797 134.074 390.713 134.636 390.638 135.198C390.36 137.211 390.153 139.233 390.016 141.263H571.291C571.157 138.671 570.913 136.09 570.56 133.52Z" fill="#625CF9"/>
<path d="M486.605 226.949H434.548V185.387C435.508 166.392 451.774 164.859 467.058 165.878C469.625 165.878 472.167 166.382 474.539 167.363C476.91 168.343 479.065 169.78 480.88 171.591C482.695 173.403 484.135 175.554 485.118 177.921C486.1 180.288 486.606 182.825 486.605 185.387V226.949Z" fill="#625CF9"/>
<path d="M434.544 197.399V197.407C434.544 197.415 434.552 197.415 434.56 197.415L434.544 197.399ZM413.607 133.52C413.574 133.73 413.532 133.94 413.498 134.149C413.532 133.94 413.574 133.73 413.616 133.52H413.607ZM412.565 141.263C412.54 141.581 412.515 141.9 412.498 142.219C412.515 141.9 412.54 141.581 412.573 141.263C412.572 141.204 412.575 141.145 412.582 141.087C412.574 141.145 412.573 141.204 412.565 141.263ZM434.544 197.407C434.544 197.415 434.552 197.415 434.56 197.415L434.544 197.399V197.407ZM413.607 133.52C413.574 133.73 413.532 133.94 413.498 134.149C413.532 133.94 413.574 133.73 413.616 133.52H413.607ZM412.498 142.219C412.515 141.9 412.54 141.581 412.573 141.263C412.572 141.204 412.575 141.145 412.582 141.087C412.574 141.145 412.573 141.204 412.565 141.263C412.54 141.581 412.515 141.9 412.498 142.219ZM672.157 296.534C671.994 296.361 671.82 296.199 671.636 296.048L671.628 296.039L630.007 260.984L628.931 260.078L624.838 256.63L623.812 255.766L617.979 250.85L616.382 249.508L613.079 246.723L611.39 245.297L595.454 231.884L586.318 224.192L585.091 223.16L558.171 200.486C558.582 199.898 558.986 199.311 559.381 198.716C559.7 198.221 560.02 197.734 560.339 197.239C560.372 197.181 560.415 197.122 560.448 197.063C560.633 196.778 560.81 196.484 560.986 196.199C561.087 196.048 561.179 195.897 561.263 195.746C561.398 195.536 561.532 195.318 561.659 195.1C561.785 194.891 561.911 194.673 562.037 194.454C562.625 193.473 563.18 192.483 563.718 191.485L563.768 191.393L564.197 190.579C564.466 190.084 564.726 189.581 564.978 189.077C564.989 189.066 564.995 189.051 564.995 189.035C565.256 188.524 565.516 188.004 565.76 187.484C565.769 187.475 565.768 187.458 565.777 187.45C566.088 186.804 566.39 186.158 566.685 185.495C566.76 185.344 566.827 185.193 566.895 185.042C567.172 184.405 567.449 183.759 567.719 183.113C567.996 182.45 568.265 181.779 568.525 181.108C568.786 180.437 569.046 179.758 569.29 179.087C569.752 177.803 570.187 176.517 570.593 175.228C570.611 175.154 570.634 175.081 570.66 175.01C570.87 174.322 571.072 173.642 571.274 172.955C571.4 172.51 571.517 172.074 571.635 171.629C571.719 171.31 571.803 170.992 571.879 170.673C571.921 170.547 571.946 170.43 571.98 170.304C572.089 169.876 572.19 169.457 572.291 169.029C572.307 168.962 572.324 168.886 572.341 168.819C572.543 167.955 572.736 167.083 572.913 166.219C573.005 165.782 573.089 165.346 573.173 164.91C573.333 164.038 573.493 163.165 573.627 162.293C573.694 161.882 573.753 161.471 573.812 161.06C573.871 160.691 573.921 160.322 573.972 159.961C574.039 159.491 574.098 159.03 574.148 158.56C574.367 156.706 574.526 154.861 574.627 153.007C574.661 152.453 574.686 151.899 574.711 151.337C574.736 150.691 574.753 150.054 574.762 149.408C574.77 148.871 574.778 148.326 574.778 147.789C574.778 146.17 574.736 144.559 574.652 142.94C574.518 140.348 574.274 137.768 573.921 135.198C570.91 113.232 560.079 93.0817 543.408 78.4297C526.737 63.7776 505.34 55.6027 483.127 55.3991C460.915 55.1955 439.371 62.9769 422.433 77.3209C405.495 91.6648 394.296 111.613 390.881 133.52C390.797 134.074 390.712 134.636 390.637 135.198C390.36 137.211 390.152 139.233 390.015 141.263C389.973 141.825 389.939 142.378 389.914 142.94C389.169 157.164 391.736 171.367 397.413 184.435C403.089 197.503 411.722 209.081 422.634 218.261C424.668 219.972 426.752 221.583 428.887 223.093C428.896 223.101 428.904 223.101 428.912 223.11C429.627 223.613 430.341 224.108 431.064 224.594C432.215 225.349 433.375 226.087 434.544 226.792C434.636 226.842 434.729 226.901 434.821 226.952C435.83 227.555 436.847 228.134 437.864 228.696H437.872C441.658 230.774 445.587 232.579 449.63 234.099C461.493 238.553 474.145 240.534 486.805 239.92H486.83C501.606 239.207 515.994 234.957 528.779 227.53C530.636 226.457 532.468 225.307 534.259 224.083C534.704 223.781 535.158 223.47 535.595 223.16C536.133 222.782 536.671 222.388 537.209 221.994C537.217 221.994 537.217 221.985 537.226 221.985C537.266 221.952 537.308 221.921 537.352 221.893C537.713 221.616 538.083 221.34 538.436 221.071C538.528 221.004 538.621 220.937 538.713 220.861C538.738 220.844 538.76 220.825 538.78 220.803C538.991 220.652 539.192 220.484 539.402 220.324C539.613 220.165 539.814 219.997 540.024 219.83C540.06 219.807 540.094 219.782 540.125 219.754C540.361 219.561 540.596 219.377 540.831 219.184C541.075 218.991 541.31 218.789 541.537 218.596C541.773 218.404 542 218.211 542.235 218.009C542.437 217.841 542.647 217.665 542.848 217.481C542.916 217.43 542.974 217.372 543.042 217.313C543.068 217.288 543.096 217.266 543.126 217.246C543.403 217.011 543.672 216.768 543.941 216.524C544.008 216.466 544.067 216.407 544.134 216.348C544.546 215.979 544.958 215.61 545.362 215.224C545.454 215.14 545.555 215.048 545.647 214.964C545.74 214.88 545.824 214.796 545.916 214.712C546.034 214.595 546.16 214.486 546.278 214.369C546.58 214.083 546.874 213.79 547.177 213.496L548.169 214.335L548.53 214.637H548.539L548.648 214.738L549.043 215.065L554.909 220.014L555.036 220.123L555.136 220.199L555.8 220.761L557.128 221.885L558.456 223L558.65 223.16L564.827 228.361L565.684 229.082L571.644 234.099L602.489 260.078L603.565 260.984L645.783 296.534L656.608 305.653L660.634 309.042C661.488 309.763 662.477 310.31 663.543 310.65C664.61 310.99 665.733 311.117 666.848 311.023C667.964 310.93 669.05 310.618 670.044 310.105C671.039 309.592 671.922 308.889 672.644 308.035C673.249 307.326 673.729 306.521 674.065 305.653C674.675 304.113 674.82 302.429 674.481 300.808C674.141 299.187 673.334 297.701 672.157 296.534ZM428.694 102.08C437.126 92.1072 448.213 84.7187 460.673 80.7681C473.134 76.8174 486.461 76.4657 499.113 79.7536C511.766 83.0415 523.228 89.8349 532.176 99.349C541.125 108.863 547.193 120.71 549.682 133.52C549.791 134.082 549.892 134.636 549.984 135.198C550.329 137.203 550.581 139.233 550.732 141.263C550.774 141.825 550.816 142.378 550.842 142.94C550.917 144.199 550.951 145.465 550.951 146.724C550.956 154.356 549.689 161.937 547.202 169.155V169.163C544.423 177.256 540.156 184.761 534.62 191.292C534.503 191.426 534.385 191.569 534.259 191.703C533.149 193.012 531.981 194.27 530.779 195.469C530.771 195.478 530.762 195.495 530.754 195.503C530.342 195.914 529.922 196.333 529.501 196.719C528.644 197.55 527.77 198.338 526.879 199.093C525.543 200.259 524.173 201.353 522.769 202.373C522.299 202.717 521.828 203.053 521.349 203.388C520.878 203.724 520.399 204.042 519.92 204.361C518.962 204.999 517.987 205.611 517.004 206.19C516.516 206.483 516.012 206.769 515.516 207.046C515.02 207.331 514.516 207.599 514.011 207.859C513.507 208.128 513.003 208.388 512.49 208.639C511.473 209.151 510.448 209.629 509.406 210.074C508.885 210.309 508.363 210.527 507.842 210.728C507.514 210.862 507.195 210.997 506.867 211.114C506.739 211.173 506.607 211.224 506.472 211.265C506.296 211.34 506.119 211.408 505.943 211.466C505.885 211.492 505.827 211.515 505.766 211.533C505.405 211.676 505.052 211.802 504.682 211.928C504.153 212.121 503.623 212.297 503.085 212.465C502.547 212.641 502.018 212.808 501.48 212.96C500.942 213.127 500.396 213.278 499.858 213.421C499.311 213.572 498.773 213.714 498.227 213.84C497.647 213.991 497.067 214.126 496.479 214.251C495.966 214.369 495.462 214.469 494.949 214.562C494.47 214.662 493.983 214.746 493.504 214.83C492.831 214.948 492.159 215.057 491.478 215.149C491.108 215.208 490.747 215.258 490.377 215.291C490.217 215.317 490.066 215.333 489.915 215.35C489.444 215.417 488.973 215.468 488.511 215.51C488.385 215.518 488.267 215.535 488.15 215.543C487.637 215.594 487.116 215.636 486.603 215.677C485.502 215.753 484.41 215.803 483.309 215.828C482.754 215.837 482.191 215.845 481.636 215.845C481.081 215.845 480.526 215.837 479.972 215.82C479.972 215.82 479.972 215.828 479.963 215.82C479.955 215.828 479.955 215.828 479.947 215.82C479.945 215.821 479.944 215.822 479.943 215.823C479.941 215.823 479.94 215.824 479.938 215.824C479.937 215.824 479.935 215.823 479.934 215.823C479.932 215.822 479.931 215.821 479.93 215.82C479.902 215.828 479.873 215.828 479.846 215.82C479.451 215.82 479.056 215.803 478.669 215.778C478.383 215.77 478.089 215.761 477.795 215.736C477.4 215.719 477.005 215.694 476.61 215.661C476.484 215.661 476.358 215.644 476.232 215.635C476.173 215.634 476.114 215.628 476.055 215.619C475.652 215.585 475.24 215.552 474.836 215.51C474.635 215.493 474.425 215.476 474.223 215.451C473.609 215.384 472.996 215.308 472.391 215.224C471.701 215.141 471.012 215.04 470.331 214.914C470.012 214.872 469.701 214.813 469.39 214.755C468.978 214.688 468.567 214.612 468.155 214.528C467.726 214.444 467.297 214.36 466.869 214.26C466.524 214.184 466.171 214.109 465.827 214.025C465.658 213.991 465.49 213.949 465.331 213.907C464.448 213.698 463.574 213.471 462.708 213.22C462.162 213.069 461.616 212.909 461.078 212.741C460.338 212.515 459.607 212.272 458.876 212.012C458.59 211.919 458.312 211.819 458.027 211.71C457.741 211.617 457.464 211.508 457.178 211.399C456.917 211.307 456.657 211.206 456.405 211.106C455.984 210.946 455.572 210.779 455.161 210.611C454.312 210.267 453.48 209.906 452.648 209.52C452.177 209.294 451.706 209.076 451.244 208.849C449.42 207.968 447.624 206.99 445.856 205.913C445.419 205.653 444.982 205.376 444.545 205.1C443.999 204.764 443.47 204.412 442.94 204.059C442.646 203.858 442.36 203.665 442.074 203.464C441.545 203.095 441.024 202.717 440.511 202.34C440.242 202.147 439.973 201.945 439.713 201.744C438.78 201.039 437.864 200.301 436.964 199.546C436.536 199.186 436.107 198.816 435.687 198.439C435.51 198.288 435.334 198.129 435.157 197.969C434.956 197.785 434.754 197.608 434.56 197.415L434.544 197.399C434.25 197.139 433.955 196.862 433.669 196.585C433.224 196.166 432.787 195.738 432.367 195.302C431.93 194.874 431.509 194.429 431.098 193.993C430.677 193.557 430.274 193.112 429.879 192.659C429.476 192.215 429.08 191.762 428.694 191.3C428.316 190.864 427.946 190.411 427.593 189.967C426.735 188.91 425.917 187.833 425.139 186.737C424.777 186.234 424.433 185.73 424.096 185.219C423.735 184.699 423.39 184.17 423.063 183.642C422.718 183.113 422.39 182.576 422.071 182.031C422.063 182.012 422.051 181.995 422.037 181.981C421.407 180.915 420.802 179.842 420.238 178.751C419.659 177.644 419.112 176.525 418.6 175.396C418.339 174.834 418.087 174.263 417.852 173.693C417.364 172.544 416.91 171.394 416.49 170.228C416.28 169.666 416.086 169.104 415.893 168.534C415.887 168.496 415.876 168.459 415.86 168.425C415.473 167.267 415.12 166.101 414.809 164.927C414.801 164.91 414.801 164.893 414.792 164.877C414.632 164.298 414.481 163.719 414.347 163.132C414.212 162.62 414.095 162.108 413.985 161.588C413.859 161.009 413.733 160.431 413.624 159.843C413.565 159.541 413.506 159.239 413.456 158.937C413.405 158.686 413.363 158.426 413.321 158.174C413.279 157.923 413.237 157.662 413.195 157.402C413.111 156.891 413.035 156.379 412.968 155.867C412.884 155.263 412.817 154.659 412.75 154.047C412.674 153.317 412.607 152.587 412.548 151.849C412.506 151.354 412.481 150.851 412.456 150.348C412.43 149.886 412.405 149.425 412.397 148.964C412.388 148.939 412.388 148.912 412.397 148.888C412.396 148.887 412.395 148.886 412.394 148.884C412.394 148.883 412.393 148.881 412.393 148.88C412.393 148.878 412.394 148.876 412.394 148.875C412.395 148.874 412.396 148.872 412.397 148.871C412.388 148.863 412.388 148.863 412.397 148.854C412.396 148.853 412.395 148.852 412.394 148.851C412.394 148.849 412.393 148.848 412.393 148.846C412.393 148.845 412.394 148.843 412.394 148.842C412.395 148.84 412.396 148.839 412.397 148.838C412.388 148.653 412.38 148.469 412.38 148.284C412.363 147.739 412.355 147.194 412.355 146.648C412.355 146.153 412.363 145.667 412.372 145.172C412.388 144.484 412.414 143.796 412.447 143.108C412.447 142.957 412.464 142.815 412.473 142.664C412.481 142.513 412.489 142.37 412.498 142.219C412.515 141.9 412.54 141.581 412.573 141.263C412.572 141.204 412.575 141.145 412.582 141.087C412.607 140.726 412.64 140.365 412.674 140.005C412.741 139.283 412.826 138.553 412.918 137.832C412.968 137.471 413.01 137.111 413.069 136.75C413.103 136.498 413.145 136.238 413.187 135.978C413.22 135.718 413.263 135.458 413.313 135.198C413.372 134.854 413.431 134.502 413.498 134.149C413.532 133.94 413.574 133.73 413.616 133.52C413.775 132.681 413.952 131.843 414.145 131.004C414.338 130.156 414.557 129.318 414.792 128.479C415.019 127.632 415.271 126.784 415.54 125.937C415.666 125.509 415.801 125.09 415.952 124.67C416.229 123.823 416.524 122.984 416.851 122.154C417.003 121.743 417.162 121.323 417.339 120.912C417.675 120.082 418.028 119.251 418.389 118.438C418.574 118.027 418.759 117.616 418.961 117.205C419.339 116.391 419.734 115.577 420.163 114.78C420.575 113.967 421.02 113.17 421.474 112.381C421.928 111.593 422.398 110.804 422.894 110.024C423.121 109.638 423.373 109.244 423.634 108.866C424.138 108.095 424.668 107.323 425.206 106.568C426.29 105.041 427.458 103.54 428.694 102.08ZM412.565 141.263C412.54 141.581 412.515 141.9 412.498 142.219C412.515 141.9 412.54 141.581 412.573 141.263C412.572 141.204 412.575 141.145 412.582 141.087C412.574 141.145 412.573 141.204 412.565 141.263ZM413.607 133.52C413.574 133.73 413.532 133.94 413.498 134.149C413.532 133.94 413.574 133.73 413.616 133.52H413.607ZM434.544 197.399V197.407C434.544 197.415 434.552 197.415 434.56 197.415L434.544 197.399Z" fill="#3F3D56"/>
<path opacity="0.3" d="M436.966 199.545C423.672 188.349 415.083 172.571 412.904 155.347C410.726 138.122 415.117 120.71 425.206 106.567C423.881 107.899 422.6 109.293 421.364 110.751C415.495 117.693 411.054 125.72 408.293 134.375C405.533 143.03 404.507 152.142 405.276 161.193C406.044 170.243 408.591 179.054 412.771 187.122C416.95 195.19 422.682 202.357 429.637 208.214C443.683 220.044 461.863 225.819 480.176 224.271C498.49 222.722 515.437 213.977 527.289 199.957C528.523 198.498 529.686 197.003 530.776 195.473C518.505 207.778 502.046 215.028 484.667 215.782C467.288 216.537 450.261 210.741 436.966 199.545Z" fill="black"/>
</g>
<defs>
<clipPath id="clip0_304_430">
<rect width="764" height="380" fill="white"/>
</clipPath>
</defs>
</svg>
