<svg width="553" height="403" viewBox="0 0 553 403" fill="none" xmlns="http://www.w3.org/2000/svg">
<g clip-path="url(#clip0_304_381)">
<path d="M520.585 2.66737H98.599C98.5871 1.95612 98.2969 1.27802 97.7909 0.779105C97.2848 0.280193 96.6035 0.000401576 95.8935 0H79.2735C78.5635 0.000303029 77.8821 0.280056 77.376 0.778988C76.87 1.27792 76.5798 1.95609 76.568 2.66737H72.4979C72.486 1.95612 72.1958 1.27802 71.6898 0.779105C71.1837 0.280193 70.5024 0.000401576 69.7924 0H53.1724C52.4624 0.000401576 51.7811 0.280193 51.275 0.779105C50.769 1.27802 50.4788 1.95612 50.4669 2.66737H35.6577C27.0635 2.67704 18.824 6.10217 12.7469 12.1913C6.66987 18.2805 3.25145 26.5364 3.24166 35.1478V35.4676C3.19085 35.4647 3.14214 35.4523 3.09026 35.4523H2.71021C2.3543 35.4523 2.00187 35.5225 1.67305 35.659C1.34423 35.7955 1.04545 35.9955 0.79378 36.2477C0.542113 36.4998 0.342479 36.7992 0.206282 37.1287C0.0700855 37.4582 -1.00216e-05 37.8113 1.07467e-09 38.1679V69.9325C-1.00216e-05 70.2892 0.0700855 70.6423 0.206282 70.9718C0.342479 71.3013 0.542113 71.6007 0.79378 71.8528C1.04545 72.105 1.34423 72.305 1.67305 72.4415C2.00187 72.578 2.3543 72.6482 2.71021 72.6482H3.09026C3.14216 72.6482 3.19085 72.6358 3.24166 72.6329V370.52C3.25145 379.131 6.66987 387.387 12.7469 393.476C18.824 399.565 27.0635 402.99 35.6577 403H520.585C529.179 402.99 537.418 399.565 543.495 393.476C549.572 387.387 552.99 379.131 553 370.52V35.1478C552.99 26.5365 549.572 18.2806 543.495 12.1915C537.418 6.10233 529.179 2.67715 520.585 2.66737ZM543.243 370.52C543.236 376.539 540.847 382.31 536.599 386.566C532.351 390.823 526.592 393.217 520.585 393.224H35.6577C29.6502 393.217 23.8907 390.823 19.6428 386.566C15.3948 382.31 13.0053 376.539 12.9984 370.52V35.1478C13.0053 29.1283 15.3948 23.3574 19.6428 19.101C23.8907 14.8446 29.6502 12.4504 35.6577 12.4437H520.585C526.592 12.4505 532.351 14.8448 536.599 19.1012C540.847 23.3575 543.236 29.1284 543.243 35.1478V370.52Z" fill="#CCCCCC"/>
<path d="M520.584 398.655H35.6574C28.2129 398.647 21.0757 395.68 15.8117 390.405C10.5476 385.13 7.58653 377.979 7.57812 370.52V35.1478C7.58652 27.6884 10.5476 20.5369 15.8117 15.2623C21.0757 9.98771 28.2129 7.02075 35.6574 7.01236H520.584C528.029 7.02072 535.166 9.98766 540.43 15.2623C545.694 20.5369 548.655 27.6884 548.664 35.1478V370.52C548.655 377.979 545.694 385.131 540.43 390.405C535.166 395.68 528.029 398.647 520.584 398.655Z" fill="#E6E6E6"/>
<path d="M520.733 375.989H35.5093C33.8707 375.987 32.2998 375.334 31.1412 374.173C29.9826 373.012 29.3309 371.438 29.3291 369.796V35.8708C29.3309 34.229 29.9827 32.655 31.1413 31.4941C32.2999 30.3332 33.8708 29.6802 35.5093 29.6784H520.733C522.371 29.6802 523.942 30.3331 525.101 31.494C526.259 32.6549 526.911 34.229 526.913 35.8708V369.796C526.911 371.438 526.259 373.012 525.101 374.173C523.942 375.334 522.371 375.987 520.733 375.989Z" fill="white"/>
<path d="M18.5603 204.577C19.8417 204.577 20.8804 203.536 20.8804 202.252C20.8804 200.969 19.8417 199.928 18.5603 199.928C17.279 199.928 16.2402 200.969 16.2402 202.252C16.2402 203.536 17.279 204.577 18.5603 204.577Z" fill="white"/>
<path d="M211.751 73.8642H108.672C100.586 73.8734 92.8339 77.096 87.1162 82.8251C81.3986 88.5543 78.1824 96.322 78.1732 104.424V113.76C77.9616 113.702 77.7394 113.693 77.5241 113.736C77.3088 113.778 77.1063 113.87 76.9326 114.005C76.7589 114.139 76.6187 114.312 76.5232 114.51C76.4276 114.708 76.3792 114.925 76.3819 115.145V122.324C76.3792 122.544 76.4276 122.762 76.5232 122.96C76.6187 123.158 76.7589 123.331 76.9326 123.465C77.1063 123.599 77.3088 123.691 77.5241 123.734C77.7394 123.776 77.9616 123.768 78.1732 123.71V134.58C77.9616 134.522 77.7394 134.513 77.5241 134.556C77.3088 134.598 77.1063 134.69 76.9326 134.825C76.7589 134.959 76.6187 135.132 76.5231 135.33C76.4276 135.528 76.3792 135.745 76.3819 135.965V153.913C76.3792 154.133 76.4276 154.351 76.5231 154.549C76.6187 154.747 76.7589 154.92 76.9326 155.054C77.1063 155.188 77.3088 155.28 77.5241 155.323C77.7394 155.365 77.9616 155.357 78.1732 155.298V161.861C77.9616 161.803 77.7394 161.795 77.5241 161.837C77.3088 161.88 77.1063 161.972 76.9326 162.106C76.7589 162.24 76.6187 162.413 76.5231 162.611C76.4276 162.809 76.3792 163.027 76.3819 163.246V181.195C76.3792 181.415 76.4275 181.632 76.5231 181.83C76.6187 182.028 76.7589 182.201 76.9326 182.335C77.1063 182.469 77.3088 182.562 77.5241 182.604C77.7394 182.646 77.9616 182.638 78.1732 182.58V372.116C78.1824 380.218 81.3985 387.986 87.1162 393.715C92.8339 399.444 100.586 402.667 108.672 402.676H211.751C219.837 402.667 227.59 399.444 233.307 393.715C239.025 387.986 242.241 380.218 242.25 372.116V104.424C242.241 96.322 239.025 88.5543 233.307 82.8251C227.59 77.096 219.837 73.8734 211.751 73.8642ZM235.802 372.116C235.795 378.505 233.258 384.631 228.75 389.148C224.241 393.666 218.128 396.207 211.751 396.215H108.672C102.296 396.207 96.1826 393.666 91.6738 389.148C87.1651 384.631 84.6289 378.505 84.6216 372.116V104.424C84.6289 98.0351 87.1651 91.9097 91.6738 87.3919C96.1826 82.8741 102.296 80.3328 108.672 80.3255H211.751C218.128 80.3328 224.241 82.8741 228.75 87.3919C233.258 91.9097 235.795 98.0351 235.802 104.424V372.116Z" fill="#CCCCCC"/>
<path d="M211.751 399.804H108.672C101.346 399.796 94.3221 396.876 89.1418 391.685C83.9614 386.495 81.0474 379.457 81.0391 372.116V104.424C81.0474 97.0833 83.9614 90.0456 89.1417 84.8548C94.3221 79.664 101.346 76.7442 108.672 76.7359H211.751C219.077 76.7442 226.101 79.664 231.282 84.8548C236.462 90.0456 239.376 97.0833 239.384 104.424V372.116C239.376 379.457 236.462 386.495 231.282 391.685C226.101 396.876 219.077 399.796 211.751 399.804Z" fill="#E6E6E6"/>
<path d="M214.298 395.497H106.125C101.183 395.491 96.4462 393.522 92.9523 390.021C89.4583 386.52 87.4929 381.773 87.4873 376.822V99.7181C87.4929 94.767 89.4583 90.0203 92.9522 86.5193C96.4462 83.0184 101.183 81.0491 106.125 81.0435H120.232C121.048 81.0444 121.831 81.3699 122.409 81.9485C122.986 82.5272 123.311 83.3117 123.312 84.1301C123.315 86.5475 124.274 88.8652 125.98 90.5746C127.686 92.284 129.999 93.2456 132.412 93.2483H186.578C188.991 93.2456 191.304 92.2841 193.01 90.5746C194.716 88.8652 195.675 86.5475 195.678 84.1301C195.679 83.3117 196.004 82.5272 196.581 81.9485C197.159 81.3699 197.942 81.0444 198.758 81.0435H214.298C219.239 81.0491 223.977 83.0184 227.471 86.5193C230.965 90.0203 232.93 94.767 232.936 99.7181V376.822C232.93 381.773 230.965 386.52 227.471 390.021C223.977 393.522 219.24 395.491 214.298 395.497Z" fill="white"/>
<path d="M164.869 87.3254H151.972C151.592 87.3254 151.228 87.1741 150.959 86.9048C150.69 86.6355 150.539 86.2703 150.539 85.8895C150.539 85.5087 150.69 85.1435 150.959 84.8742C151.228 84.6049 151.592 84.4536 151.972 84.4536H164.869C165.248 84.4545 165.612 84.6062 165.88 84.8754C166.148 85.1445 166.299 85.5092 166.299 85.8895C166.299 86.2697 166.148 86.6345 165.88 86.9036C165.612 87.1728 165.248 87.3245 164.869 87.3254Z" fill="white"/>
<path d="M173.825 86.9664C174.221 86.9664 174.541 86.6449 174.541 86.2484C174.541 85.8519 174.221 85.5305 173.825 85.5305C173.429 85.5305 173.108 85.8519 173.108 86.2484C173.108 86.6449 173.429 86.9664 173.825 86.9664Z" fill="white"/>
<path d="M174.551 154.803L174.7 158.143C191.742 157.378 211.475 158.866 232.477 162.378V158.991C211.443 155.506 191.665 154.035 174.551 154.803Z" fill="#CCCCCC"/>
<path d="M153.362 220.224C153.229 221.502 153.121 222.788 153.038 224.082C152.862 226.626 152.774 229.191 152.774 231.775C152.788 255.839 160.552 279.255 174.912 298.542C189.272 317.829 209.462 331.957 232.478 338.825V124.706C211.341 131.002 192.543 143.437 178.46 160.44C164.377 177.442 155.643 198.247 153.362 220.224Z" fill="#625CF9"/>
<path d="M97.7439 155.493C98.9573 155.493 99.9409 154.507 99.9409 153.291C99.9409 152.075 98.9573 151.09 97.7439 151.09C96.5305 151.09 95.5469 152.075 95.5469 153.291C95.5469 154.507 96.5305 155.493 97.7439 155.493Z" fill="#CCCCCC"/>
<path d="M93.0618 243.802C95.4588 243.802 97.402 241.855 97.402 239.453C97.402 237.051 95.4588 235.104 93.0618 235.104C90.6648 235.104 88.7217 237.051 88.7217 239.453C88.7217 241.855 90.6648 243.802 93.0618 243.802Z" fill="#CCCCCC"/>
<path d="M174.795 128.708C176.531 128.708 177.938 127.297 177.938 125.558C177.938 123.818 176.531 122.408 174.795 122.408C173.059 122.408 171.651 123.818 171.651 125.558C171.651 127.297 173.059 128.708 174.795 128.708Z" fill="#CCCCCC"/>
<path d="M103.278 303.388C104.664 303.388 105.786 302.263 105.786 300.875C105.786 299.488 104.664 298.363 103.278 298.363C101.893 298.363 100.771 299.488 100.771 300.875C100.771 302.263 101.893 303.388 103.278 303.388Z" fill="#CCCCCC"/>
<path d="M153.936 338.573C155.436 338.573 156.652 337.355 156.652 335.852C156.652 334.349 155.436 333.131 153.936 333.131C152.436 333.131 151.22 334.349 151.22 335.852C151.22 337.355 152.436 338.573 153.936 338.573Z" fill="#CCCCCC"/>
<path d="M232.889 61.841H227.529V56.4705H224.653V61.841H219.291V64.7239H224.653V70.0945H227.529V64.7239H232.889V61.841Z" fill="#CCCCCC"/>
<path opacity="0.1" d="M193.95 222.391C199.122 222.391 203.315 218.19 203.315 213.007C203.315 207.825 199.122 203.623 193.95 203.623C188.778 203.623 184.585 207.825 184.585 213.007C184.585 218.19 188.778 222.391 193.95 222.391Z" fill="black"/>
<path opacity="0.1" d="M198.633 288.506C203.805 288.506 207.998 284.304 207.998 279.122C207.998 273.939 203.805 269.738 198.633 269.738C193.461 269.738 189.268 273.939 189.268 279.122C189.268 284.304 193.461 288.506 198.633 288.506Z" fill="black"/>
<path d="M157.317 220.29C145.825 212.558 137.266 204.93 131.876 197.618C126.5 190.323 124.583 183.733 126.178 178.03C127.773 172.328 132.829 167.696 141.206 164.264C149.603 160.823 160.873 158.764 174.701 158.143L174.552 154.803C144.941 156.133 126.62 164.061 122.965 177.128C119.31 190.195 130.849 206.509 155.457 223.066C175.525 236.568 202.402 249.038 232.478 258.913V255.394C203.112 245.67 176.909 233.473 157.317 220.29Z" fill="#CCCCCC"/>
<path opacity="0.1" d="M157.316 222.965C155.958 222.05 154.64 221.137 153.362 220.224C153.229 221.502 153.121 222.788 153.038 224.082C153.83 224.636 154.636 225.189 155.457 225.74C175.525 239.243 202.402 251.712 232.478 261.588V258.068C203.113 248.344 176.91 236.147 157.316 222.965Z" fill="black"/>
<path d="M281.594 169.114C268.47 165.428 255.461 162.426 242.84 160.115V163.513C255.169 165.791 267.872 168.733 280.694 172.333C321.512 183.797 358.448 200.504 382.03 218.169L384.028 215.491C360.129 197.588 322.793 180.685 281.594 169.114Z" fill="#CCCCCC"/>
<path d="M379.582 231.775C379.572 214.958 375.774 198.361 368.471 183.219C361.168 168.078 350.548 154.783 337.404 144.327C324.26 133.87 308.929 126.521 292.556 122.827C276.183 119.133 259.188 119.19 242.84 122.993V340.55C267.42 346.283 293.215 343.491 316.007 332.631C338.798 321.77 357.239 303.483 368.314 280.76C368.889 279.585 369.442 278.399 369.972 277.202C376.329 262.906 379.603 247.426 379.582 231.775Z" fill="#625CF9"/>
<path d="M271.084 99.9652C271.789 99.9652 272.361 99.3923 272.361 98.6856C272.361 97.9788 271.789 97.4059 271.084 97.4059C270.378 97.4059 269.807 97.9788 269.807 98.6856C269.807 99.3923 270.378 99.9652 271.084 99.9652Z" fill="#F2F2F2"/>
<path d="M357.499 109.262C359.097 109.262 360.392 107.964 360.392 106.363C360.392 104.763 359.097 103.465 357.499 103.465C355.902 103.465 354.606 104.763 354.606 106.363C354.606 107.964 355.902 109.262 357.499 109.262Z" fill="#CCCCCC"/>
<path d="M460.091 231.363C462.685 231.363 464.787 229.256 464.787 226.657C464.787 224.058 462.685 221.951 460.091 221.951C457.497 221.951 455.395 224.058 455.395 226.657C455.395 229.256 457.497 231.363 460.091 231.363Z" fill="#CCCCCC"/>
<path d="M423.367 153.515C424.479 153.515 425.382 152.612 425.382 151.496C425.382 150.381 424.479 149.477 423.367 149.477C422.254 149.477 421.352 150.381 421.352 151.496C421.352 152.612 422.254 153.515 423.367 153.515Z" fill="#CCCCCC"/>
<path d="M416.314 219.134C417.427 219.134 418.329 218.23 418.329 217.115C418.329 216 417.427 215.096 416.314 215.096C415.201 215.096 414.299 216 414.299 217.115C414.299 218.23 415.201 219.134 416.314 219.134Z" fill="#CCCCCC"/>
<path d="M361.129 352.428H357.762V349.056H355.957V352.428H352.592V354.237H355.957V357.609H357.762V354.237H361.129V352.428Z" fill="#CCCCCC"/>
<path d="M438.804 335.168H436.289V332.647H434.937V335.168H432.422V336.521H434.937V339.042H436.289V336.521H438.804V335.168Z" fill="#CCCCCC"/>
<path opacity="0.1" d="M269.807 153.718C274.979 153.718 279.172 149.516 279.172 144.334C279.172 139.151 274.979 134.95 269.807 134.95C264.634 134.95 260.441 139.151 260.441 144.334C260.441 149.516 264.634 153.718 269.807 153.718Z" fill="black"/>
<path opacity="0.1" d="M269.807 236.894C274.979 236.894 279.172 232.693 279.172 227.51C279.172 222.327 274.979 218.126 269.807 218.126C264.634 218.126 260.441 222.327 260.441 227.51C260.441 232.693 264.634 236.894 269.807 236.894Z" fill="black"/>
<path opacity="0.1" d="M320.038 186.562C325.21 186.562 329.403 182.36 329.403 177.178C329.403 171.995 325.21 167.794 320.038 167.794C314.866 167.794 310.673 171.995 310.673 177.178C310.673 182.36 314.866 186.562 320.038 186.562Z" fill="black"/>
<path opacity="0.1" d="M351.113 250.117C356.286 250.117 360.478 245.915 360.478 240.733C360.478 235.55 356.286 231.349 351.113 231.349C345.941 231.349 341.748 235.55 341.748 240.733C341.748 245.915 345.941 250.117 351.113 250.117Z" fill="black"/>
<path d="M405.065 236.475C400.668 229.714 393.59 222.654 384.028 215.491L382.03 218.169C400.611 232.088 409.266 245.392 406.402 255.631C404.807 261.334 399.751 265.965 391.374 269.397C382.976 272.838 371.707 274.897 357.879 275.518C354.941 275.65 351.926 275.716 348.835 275.716C321.778 275.715 289.154 270.696 255.8 261.328C251.426 260.1 247.106 258.815 242.84 257.474V260.975C246.813 262.212 250.833 263.403 254.899 264.547C288.545 273.997 321.484 279.059 348.851 279.059C351.984 279.059 355.049 278.992 358.029 278.859C387.64 277.529 405.96 269.6 409.615 256.534C411.311 250.473 409.78 243.724 405.065 236.475Z" fill="#CCCCCC"/>
<path opacity="0.1" d="M357.88 278.192C354.943 278.324 351.927 278.389 348.834 278.389C321.78 278.389 289.153 273.371 255.799 264.003C251.426 262.774 247.106 261.489 242.84 260.148V263.65C246.813 264.887 250.832 266.078 254.898 267.222C288.546 276.671 321.483 281.733 348.851 281.733C351.984 281.733 355.051 281.666 358.03 281.532C361.629 281.372 365.057 281.114 368.314 280.76C368.889 279.585 369.442 278.399 369.972 277.202C366.188 277.668 362.158 277.998 357.88 278.192Z" fill="black"/>
<path d="M320.001 150.265C326.745 150.265 332.212 144.787 332.212 138.029C332.212 131.272 326.745 125.794 320.001 125.794C313.257 125.794 307.79 131.272 307.79 138.029C307.79 144.787 313.257 150.265 320.001 150.265Z" fill="white"/>
<path d="M320.038 120.021C315.409 120.021 310.97 121.863 307.697 125.143C304.424 128.423 302.585 132.871 302.585 137.509C302.585 147.168 320.038 178.884 320.038 178.884C320.038 178.884 337.492 147.168 337.492 137.509C337.492 132.871 335.653 128.423 332.38 125.143C329.106 121.863 324.667 120.021 320.038 120.021ZM320.038 146.04C318.439 146.04 316.875 145.565 315.545 144.674C314.215 143.784 313.178 142.518 312.566 141.037C311.954 139.556 311.793 137.927 312.106 136.355C312.418 134.782 313.188 133.338 314.319 132.205C315.45 131.072 316.891 130.3 318.46 129.987C320.029 129.674 321.656 129.835 323.133 130.448C324.611 131.062 325.875 132.1 326.763 133.433C327.652 134.766 328.126 136.333 328.126 137.936C328.126 140.085 327.274 142.146 325.757 143.666C324.241 145.186 322.183 146.04 320.038 146.04Z" fill="#3F3D56"/>
<path d="M269.632 194.618C276.376 194.618 281.843 189.14 281.843 182.382C281.843 175.625 276.376 170.147 269.632 170.147C262.888 170.147 257.421 175.625 257.421 182.382C257.421 189.14 262.888 194.618 269.632 194.618Z" fill="white"/>
<path d="M269.668 164.374C265.039 164.374 260.6 166.216 257.327 169.496C254.054 172.776 252.215 177.224 252.215 181.862C252.215 191.521 269.668 223.237 269.668 223.237C269.668 223.237 287.121 191.521 287.121 181.862C287.121 177.224 285.283 172.776 282.009 169.496C278.736 166.216 274.297 164.374 269.668 164.374ZM269.668 190.393C268.068 190.393 266.505 189.918 265.175 189.027C263.845 188.137 262.808 186.871 262.196 185.39C261.583 183.909 261.423 182.28 261.735 180.708C262.047 179.135 262.818 177.691 263.949 176.558C265.08 175.425 266.521 174.653 268.09 174.34C269.659 174.027 271.285 174.188 272.763 174.801C274.241 175.415 275.504 176.453 276.393 177.786C277.282 179.119 277.756 180.686 277.756 182.289C277.756 184.438 276.904 186.499 275.387 188.019C273.87 189.539 271.813 190.393 269.668 190.393Z" fill="#3F3D56"/>
<path d="M269.632 115.853C276.376 115.853 281.843 110.375 281.843 103.618C281.843 96.8603 276.376 91.3824 269.632 91.3824C262.888 91.3824 257.421 96.8603 257.421 103.618C257.421 110.375 262.888 115.853 269.632 115.853Z" fill="white"/>
<path d="M269.668 85.6091C265.039 85.6091 260.6 87.4516 257.327 90.7313C254.054 94.011 252.215 98.4592 252.215 103.097C252.215 112.756 269.668 144.472 269.668 144.472C269.668 144.472 287.121 112.756 287.121 103.097C287.121 98.4592 285.283 94.011 282.009 90.7313C278.736 87.4516 274.297 85.6091 269.668 85.6091ZM269.668 111.628C268.068 111.628 266.505 111.153 265.175 110.262C263.845 109.372 262.808 108.106 262.196 106.625C261.583 105.144 261.423 103.515 261.735 101.943C262.047 100.371 262.818 98.9267 263.949 97.7933C265.08 96.6598 266.521 95.888 268.09 95.5753C269.659 95.2626 271.285 95.423 272.763 96.0364C274.241 96.6498 275.504 97.6886 276.393 99.0214C277.282 100.354 277.756 101.921 277.756 103.524C277.756 104.588 277.547 105.642 277.141 106.625C276.734 107.609 276.138 108.502 275.387 109.255C274.636 110.007 273.745 110.604 272.763 111.011C271.782 111.419 270.73 111.628 269.668 111.628Z" fill="#CCCCCC"/>
<path d="M351.291 210.676C358.035 210.676 363.502 205.199 363.502 198.441C363.502 191.684 358.035 186.206 351.291 186.206C344.547 186.206 339.08 191.684 339.08 198.441C339.08 205.199 344.547 210.676 351.291 210.676Z" fill="white"/>
<path d="M351.328 180.433C346.699 180.433 342.26 182.275 338.987 185.555C335.714 188.834 333.875 193.283 333.875 197.921C333.875 207.579 351.328 239.296 351.328 239.296C351.328 239.296 368.782 207.579 368.782 197.921C368.782 193.283 366.943 188.834 363.67 185.555C360.397 182.275 355.957 180.433 351.328 180.433ZM351.328 206.452C349.729 206.452 348.165 205.976 346.835 205.086C345.505 204.195 344.468 202.93 343.856 201.449C343.244 199.968 343.083 198.338 343.396 196.766C343.708 195.194 344.478 193.75 345.609 192.617C346.74 191.483 348.181 190.711 349.75 190.399C351.319 190.086 352.946 190.247 354.423 190.86C355.901 191.473 357.165 192.512 358.053 193.845C358.942 195.178 359.416 196.745 359.416 198.347C359.416 200.497 358.564 202.558 357.047 204.078C355.531 205.598 353.473 206.452 351.328 206.452Z" fill="#CCCCCC"/>
<path d="M194.077 183.147C200.821 183.147 206.288 177.669 206.288 170.912C206.288 164.154 200.821 158.676 194.077 158.676C187.333 158.676 181.866 164.154 181.866 170.912C181.866 177.669 187.333 183.147 194.077 183.147Z" fill="white"/>
<path d="M194.114 152.903C189.486 152.903 185.046 154.746 181.773 158.025C178.5 161.305 176.661 165.753 176.661 170.391C176.661 180.05 194.114 211.766 194.114 211.766C194.114 211.766 211.568 180.05 211.568 170.391C211.568 165.753 209.729 161.305 206.456 158.025C203.183 154.746 198.743 152.903 194.114 152.903ZM194.114 178.922C192.515 178.922 190.951 178.447 189.621 177.557C188.291 176.666 187.254 175.4 186.642 173.919C186.03 172.439 185.87 170.809 186.182 169.237C186.494 167.665 187.264 166.221 188.395 165.087C189.526 163.954 190.968 163.182 192.537 162.869C194.105 162.557 195.732 162.717 197.21 163.331C198.688 163.944 199.951 164.983 200.839 166.315C201.728 167.648 202.203 169.215 202.203 170.818C202.203 172.967 201.35 175.029 199.834 176.549C198.317 178.069 196.26 178.922 194.114 178.922Z" fill="#CCCCCC"/>
<path d="M198.656 249.676C205.4 249.676 210.867 244.199 210.867 237.441C210.867 230.684 205.4 225.206 198.656 225.206C191.912 225.206 186.445 230.684 186.445 237.441C186.445 244.199 191.912 249.676 198.656 249.676Z" fill="white"/>
<path d="M198.694 219.433C194.065 219.433 189.625 221.275 186.352 224.555C183.079 227.834 181.24 232.283 181.24 236.921C181.24 246.579 198.694 278.296 198.694 278.296C198.694 278.296 216.147 246.579 216.147 236.921C216.147 232.283 214.308 227.834 211.035 224.555C207.762 221.275 203.322 219.433 198.694 219.433ZM198.694 245.452C197.094 245.452 195.53 244.976 194.2 244.086C192.87 243.195 191.833 241.93 191.221 240.449C190.609 238.968 190.449 237.338 190.761 235.766C191.073 234.194 191.843 232.75 192.974 231.617C194.105 230.483 195.547 229.712 197.116 229.399C198.685 229.086 200.311 229.247 201.789 229.86C203.267 230.473 204.53 231.512 205.419 232.845C206.307 234.178 206.782 235.745 206.782 237.347C206.782 239.497 205.93 241.558 204.413 243.078C202.896 244.598 200.839 245.452 198.694 245.452Z" fill="#3F3D56"/>
</g>
<defs>
<clipPath id="clip0_304_381">
<rect width="553" height="403" fill="white"/>
</clipPath>
</defs>
</svg>
