<svg width="649" height="411" viewBox="0 0 649 411" fill="none" xmlns="http://www.w3.org/2000/svg">
<g clip-path="url(#clip0_304_353)">
<path d="M644.127 269.188H393.576C392.285 269.187 391.046 268.673 390.133 267.76C389.219 266.846 388.706 265.608 388.704 264.317V4.87114C388.706 3.57967 389.219 2.34152 390.133 1.42832C391.046 0.515112 392.285 0.00144296 393.576 0H644.127C645.419 0.00144072 646.658 0.515112 647.571 1.42832C648.484 2.34152 648.998 3.57967 649 4.87114V264.317C648.998 265.608 648.484 266.846 647.571 267.76C646.658 268.673 645.419 269.187 644.127 269.188ZM393.576 1.69835C392.735 1.69931 391.928 2.03389 391.333 2.6287C390.738 3.2235 390.404 4.02996 390.403 4.87114V264.317C390.404 265.158 390.738 265.965 391.333 266.559C391.928 267.154 392.735 267.489 393.576 267.49H644.127C644.969 267.489 645.775 267.154 646.37 266.559C646.965 265.965 647.3 265.158 647.301 264.317V4.87114C647.3 4.02996 646.965 3.2235 646.37 2.6287C645.775 2.03389 644.969 1.69931 644.127 1.69835H393.576Z" fill="#3F3D56"/>
<path d="M566.079 109.039C571.677 119.376 573.727 131.264 571.914 142.879C570.101 154.493 564.526 165.191 556.044 173.331C547.562 181.472 536.642 186.603 524.96 187.939C513.279 189.274 501.483 186.74 491.381 180.724C481.28 174.709 473.433 165.545 469.044 154.64C464.656 143.735 463.968 131.691 467.088 120.357C470.207 109.024 476.961 99.0268 486.312 91.9018C495.664 84.7767 507.095 80.9171 518.853 80.9156C519.279 80.9156 519.703 80.9218 520.127 80.9317L519.559 57.9993C519.323 57.9972 519.089 57.9904 518.853 57.9904C501.936 57.9952 485.497 63.5988 472.101 73.9266C458.705 84.2543 449.105 98.7253 444.8 115.081C440.494 131.437 441.726 148.758 448.301 164.341C454.877 179.924 466.428 192.892 481.15 201.222C495.873 209.551 512.939 212.774 529.686 210.387C546.433 208 561.919 200.137 573.726 188.025C585.534 175.914 592.999 160.235 594.957 143.436C596.915 126.637 593.256 109.662 584.55 95.1606L566.079 109.039Z" fill="#625CF9"/>
<path d="M566.079 109.039L584.55 95.1607C577.804 83.9226 568.286 74.604 556.907 68.0973C545.527 61.5906 532.667 58.1136 519.559 57.9994L520.126 80.9317C529.584 81.1533 538.815 83.8695 546.884 88.8054C554.954 93.7413 561.575 100.722 566.079 109.039Z" fill="#E6E6E6"/>
<path d="M557.854 200.349L556.906 201.287L583.812 228.442L584.76 227.503L557.854 200.349Z" fill="#3F3D56"/>
<path d="M575.128 34.1281L556.426 67.4655L557.59 68.1182L576.292 34.7808L575.128 34.1281Z" fill="#3F3D56"/>
<path d="M604.419 238.461H564.712C564.007 238.46 563.33 238.18 562.831 237.681C562.332 237.182 562.051 236.506 562.05 235.8V230.209C562.051 229.503 562.332 228.827 562.831 228.328C563.33 227.829 564.007 227.549 564.712 227.548H604.419C605.125 227.549 605.802 227.829 606.301 228.328C606.8 228.827 607.081 229.503 607.082 230.209V235.8C607.081 236.506 606.8 237.182 606.301 237.681C605.802 238.18 605.125 238.46 604.419 238.461Z" fill="#625CF9"/>
<path d="M594.353 34.9306H554.645C553.939 34.9297 553.263 34.6491 552.764 34.1502C552.265 33.6513 551.984 32.975 551.983 32.2695V26.6781C551.984 25.9726 552.265 25.2962 552.764 24.7973C553.263 24.2985 553.939 24.0178 554.645 24.017H594.353C595.059 24.0178 595.735 24.2985 596.234 24.7973C596.733 25.2962 597.014 25.9726 597.015 26.6781V32.2695C597.014 32.975 596.733 33.6514 596.234 34.1502C595.735 34.6491 595.059 34.9297 594.353 34.9306Z" fill="#E6E6E6"/>
<path d="M348.653 123.871H65.5058C64.2752 123.87 63.0955 123.38 62.2253 122.51C61.3551 121.64 60.8657 120.461 60.8643 119.23V5.48972C60.8657 4.25939 61.3551 3.07984 62.2253 2.20986C63.0955 1.33989 64.2752 0.850517 65.5058 0.849121H348.653C349.883 0.85056 351.063 1.33994 351.933 2.20992C352.803 3.07989 353.293 4.25942 353.294 5.48972V119.23C353.293 120.461 352.803 121.64 351.933 122.51C351.063 123.38 349.883 123.87 348.653 123.871ZM65.5058 2.54747C64.7256 2.54831 63.9775 2.85857 63.4258 3.41017C62.8741 3.96177 62.5638 4.70965 62.563 5.48972V119.23C62.5638 120.011 62.8741 120.758 63.4258 121.31C63.9775 121.862 64.7256 122.172 65.5058 122.173H348.653C349.433 122.172 350.181 121.862 350.733 121.31C351.284 120.758 351.595 120.011 351.595 119.23V5.48972C351.595 4.70968 351.284 3.96183 350.733 3.41023C350.181 2.85864 349.433 2.54836 348.653 2.54747H65.5058Z" fill="#3F3D56"/>
<path d="M175.88 95.6431H148.447C147.746 95.6418 147.068 95.3918 146.534 94.9376C146 94.4833 145.645 93.8544 145.532 93.1628C143.742 81.5427 143.742 69.7172 145.532 58.0971C145.645 57.4054 146 56.7765 146.534 56.3223C147.068 55.8681 147.746 55.618 148.447 55.6167H175.88C176.325 55.6153 176.764 55.7153 177.164 55.9091C177.564 56.1029 177.915 56.3853 178.189 56.735C178.469 57.0896 178.665 57.5035 178.762 57.9452C178.858 58.3868 178.852 58.8446 178.745 59.2838C176.179 70.0302 176.178 81.2296 178.745 91.9761C178.852 92.4152 178.858 92.873 178.761 93.3147C178.665 93.7563 178.469 94.1702 178.189 94.5248C177.915 94.8745 177.564 95.157 177.164 95.3507C176.764 95.5445 176.325 95.6445 175.88 95.6431Z" fill="#E6E6E6"/>
<path d="M267.733 95.6431H240.299C239.598 95.6417 238.921 95.3917 238.387 94.9375C237.853 94.4832 237.498 93.8544 237.384 93.1628C235.595 81.5427 235.595 69.7172 237.384 58.0971C237.498 57.4055 237.853 56.7766 238.387 56.3224C238.921 55.8682 239.598 55.6181 240.299 55.6167H267.733C268.178 55.6153 268.617 55.7154 269.017 55.9092C269.417 56.1031 269.767 56.3856 270.042 56.7354C270.322 57.09 270.518 57.5038 270.614 57.9454C270.71 58.387 270.705 58.8448 270.597 59.2838C268.031 70.0302 268.031 81.2297 270.597 91.9761C270.705 92.4151 270.71 92.8729 270.614 93.3145C270.518 93.7561 270.322 94.1699 270.042 94.5245C269.767 94.8742 269.417 95.1568 269.017 95.3507C268.617 95.5445 268.178 95.6446 267.733 95.6431Z" fill="#E6E6E6"/>
<path d="M129.218 69.1036H101.785C101.084 69.1023 100.406 68.8522 99.8721 68.398C99.3382 67.9438 98.9829 67.3149 98.8695 66.6232C97.08 55.0031 97.08 43.1776 98.8695 31.5575C98.9829 30.8659 99.3382 30.237 99.8721 29.7827C100.406 29.3285 101.084 29.0785 101.785 29.0772H129.218C129.663 29.0758 130.102 29.1758 130.502 29.3695C130.902 29.5633 131.253 29.8458 131.527 30.1954C131.807 30.5501 132.003 30.9639 132.099 31.4056C132.196 31.8473 132.19 32.3051 132.083 32.7442C129.516 43.4906 129.516 54.6901 132.082 65.4365C132.19 65.8756 132.196 66.3334 132.099 66.7751C132.003 67.2168 131.807 67.6307 131.527 67.9853C131.253 68.3349 130.902 68.6174 130.502 68.8112C130.102 69.005 129.663 69.105 129.218 69.1036Z" fill="#625CF9"/>
<path d="M221.995 69.1036H194.561C194.117 69.105 193.678 69.005 193.278 68.8111C192.878 68.6173 192.527 68.3347 192.253 67.9849C191.972 67.6304 191.777 67.2165 191.681 66.7749C191.584 66.3333 191.59 65.8756 191.698 65.4365C194.264 54.6901 194.264 43.4906 191.697 32.7442C191.59 32.3052 191.584 31.8474 191.68 31.4058C191.777 30.9642 191.972 30.5504 192.253 30.1958C192.527 29.8461 192.878 29.5635 193.278 29.3696C193.678 29.1758 194.117 29.0758 194.561 29.0772H221.995C222.696 29.0785 223.374 29.3285 223.908 29.7827C224.442 30.237 224.797 30.8659 224.91 31.5575C226.7 43.1776 226.7 55.0031 224.91 66.6232C224.797 67.3148 224.442 67.9438 223.908 68.398C223.374 68.8522 222.696 69.1023 221.995 69.1036Z" fill="#625CF9"/>
<path d="M312.374 69.1036H284.94C284.496 69.105 284.057 69.005 283.657 68.8111C283.257 68.6173 282.906 68.3347 282.632 67.9849C282.351 67.6304 282.156 67.2165 282.059 66.7749C281.963 66.3333 281.969 65.8756 282.076 65.4365C284.643 54.6901 284.643 43.4906 282.076 32.7442C281.969 32.3052 281.963 31.8474 282.059 31.4058C282.156 30.9642 282.351 30.5504 282.632 30.1958C282.906 29.8461 283.257 29.5635 283.657 29.3696C284.057 29.1758 284.496 29.0758 284.94 29.0772H312.374C313.075 29.0786 313.753 29.3286 314.287 29.7828C314.821 30.2371 315.176 30.8659 315.289 31.5575C317.079 43.1776 317.079 55.0031 315.289 66.6232C315.176 67.3148 314.821 67.9437 314.287 68.3979C313.753 68.8521 313.075 69.1022 312.374 69.1036Z" fill="#FF6584"/>
<path d="M159.624 271.282C158.317 271.016 157.084 270.466 156.012 269.672C154.941 268.878 154.056 267.859 153.421 266.686C152.786 265.513 152.416 264.215 152.337 262.884C152.258 261.553 152.472 260.22 152.963 258.981L115.308 178.147L134.41 172.779L165.451 254.023C167.479 254.987 169.084 256.661 169.96 258.728C170.836 260.796 170.923 263.113 170.205 265.24C169.487 267.367 168.013 269.157 166.063 270.271C164.112 271.385 161.822 271.744 159.624 271.282Z" fill="#A0616A"/>
<path d="M86.7009 400.27H97.1139L102.067 360.114H86.6992L86.7009 400.27Z" fill="#A0616A"/>
<path d="M117.195 409.936L84.4693 409.937L84.4687 397.296L104.551 397.295C107.904 397.295 111.12 398.626 113.492 400.997C115.863 403.368 117.195 406.583 117.195 409.936Z" fill="#2F2E41"/>
<path d="M32.5762 389.047L42.1475 393.146L62.5166 358.185L48.3894 352.135L32.5762 389.047Z" fill="#A0616A"/>
<path d="M56.8008 409.937L26.718 397.055L31.6963 385.435L50.1562 393.34C53.2387 394.66 55.6706 397.15 56.9167 400.263C58.1628 403.375 58.1211 406.855 56.8008 409.937Z" fill="#2F2E41"/>
<path d="M112.446 140.225C123.967 140.225 133.307 130.887 133.307 119.368C133.307 107.849 123.967 98.5114 112.446 98.5114C100.925 98.5114 91.585 107.849 91.585 119.368C91.585 130.887 100.925 140.225 112.446 140.225Z" fill="#A0616A"/>
<path d="M97.3744 390.452L85.9115 388.269C84.9692 388.095 84.1276 387.571 83.5551 386.803C82.9827 386.035 82.7217 385.078 82.8245 384.126L90.4257 310.028C90.4983 309.321 90.3151 308.612 89.9093 308.028C89.5035 307.445 88.9021 307.026 88.214 306.848C87.5259 306.669 86.7967 306.744 86.1586 307.057C85.5205 307.37 85.0158 307.901 84.7359 308.554L51.5507 385.971C51.3512 386.436 51.0613 386.857 50.6978 387.209C50.3344 387.561 49.9045 387.838 49.4333 388.023C48.962 388.207 48.4588 388.297 47.9527 388.286C47.4466 388.274 46.9479 388.163 46.4853 387.957L37.1622 383.814C36.2918 383.431 35.5963 382.736 35.2125 381.867C34.8287 380.997 34.7844 380.015 35.0884 379.114L57.7848 311.038C57.8487 310.847 57.8929 310.649 57.9167 310.448L65.284 248.249C65.3643 247.57 65.6254 246.925 66.04 246.381C66.4546 245.837 67.0075 245.415 67.6411 245.158L90.9034 235.71C91.5916 235.43 92.3464 235.357 93.0754 235.499C93.8045 235.642 94.4762 235.994 95.0086 236.511L124.371 265.096C124.828 265.539 125.167 266.09 125.356 266.699C125.546 267.307 125.579 267.953 125.453 268.578L101.838 387.443C101.664 388.31 101.195 389.089 100.511 389.65C99.8273 390.21 98.971 390.518 98.0868 390.52C97.8478 390.52 97.6092 390.497 97.3744 390.452Z" fill="#2F2E41"/>
<path d="M84.3069 251.679C80.243 246.974 77.2771 244.839 75.2487 245.176C73.2361 245.501 72.0751 248.312 70.8456 251.288C69.1677 255.351 67.2657 259.956 62.5777 260.316C61.8479 260.441 61.0975 260.359 60.4122 260.078C59.727 259.797 59.1346 259.329 58.7028 258.728C55.0153 253.245 63.86 235.1 64.6681 233.47L64.2534 147.652C64.2477 146.959 64.4307 146.279 64.7828 145.682C65.1349 145.086 65.6428 144.597 66.2519 144.267C90.5575 131.163 123.377 153.953 129.709 158.656C130.215 159.031 130.621 159.526 130.889 160.097C131.158 160.667 131.28 161.295 131.246 161.924C130.482 176.297 126.671 248.812 126.671 264.988C126.671 269.466 125.126 272.311 122.079 273.444C121.05 273.809 119.965 273.987 118.873 273.97C109.577 273.97 94.3501 263.305 84.3069 251.679Z" fill="#CCCCCC"/>
<path d="M118.226 210.008C117.718 209.678 117.297 209.23 116.998 208.703C116.699 208.176 116.531 207.585 116.508 206.979L114.862 168.541C114.76 166.175 115.504 163.849 116.961 161.981C118.418 160.113 120.492 158.824 122.812 158.345C125.132 157.866 127.547 158.227 129.625 159.366C131.702 160.504 133.307 162.344 134.152 164.557L146.474 196.84C146.834 197.787 146.804 198.838 146.39 199.763C145.976 200.687 145.212 201.41 144.266 201.772L121.689 210.386C121.124 210.605 120.514 210.685 119.912 210.619C119.309 210.553 118.731 210.344 118.226 210.008Z" fill="#CCCCCC"/>
<path d="M60.8551 270.068C59.7483 269.324 58.8181 268.346 58.1302 267.204C57.4423 266.061 57.0134 264.781 56.8736 263.455C56.7338 262.129 56.8866 260.788 57.3212 259.527C57.7557 258.266 58.4616 257.116 59.3889 256.157L55.4053 167.075L75.1117 169.395L72.8241 256.335C74.3316 257.999 75.1762 260.158 75.1978 262.403C75.2194 264.649 74.4164 266.824 72.941 268.517C71.4657 270.21 69.4205 271.303 67.193 271.589C64.9654 271.875 62.7104 271.334 60.8551 270.068Z" fill="#A0616A"/>
<path d="M47.1705 190.796C46.8133 190.307 46.5791 189.738 46.4876 189.139C46.3962 188.54 46.4501 187.928 46.645 187.354L58.8142 150.854C59.5633 148.607 61.0878 146.7 63.1149 145.474C65.142 144.247 67.5394 143.782 69.8781 144.162C72.2167 144.541 74.344 145.74 75.8792 147.544C77.4145 149.349 78.2575 151.64 78.2574 154.009V188.562C78.2562 189.575 77.8532 190.547 77.1366 191.263C76.4201 191.979 75.4486 192.382 74.4353 192.383H50.2711C49.6649 192.387 49.0668 192.244 48.5272 191.968C47.9875 191.692 47.5222 191.29 47.1705 190.796Z" fill="#CCCCCC"/>
<path d="M98.974 133.396C98.1931 134.008 97.2176 134.318 96.2267 134.268C95.2358 134.219 94.296 133.814 93.5798 133.127C89.1089 128.949 85.3356 123.953 83.426 118.167C81.2379 111.536 81.7968 103.771 85.9872 98.1854C89.5295 93.4639 95.1363 90.7965 100.659 88.7113C102.815 87.7998 105.093 87.2084 107.42 86.9558C109.771 86.7121 112.126 87.3733 114.006 88.8049C114.922 89.5364 115.597 90.527 115.942 91.6475C116.286 92.7679 116.285 93.9663 115.939 95.0862C118.771 92.5144 122.226 90.7272 125.962 89.9019C128.327 89.2752 130.826 89.3787 133.131 90.199C136.334 91.5158 138.414 94.7323 139.373 98.0593C140.166 100.597 140.23 103.307 139.558 105.879C139.213 107.158 138.604 108.351 137.769 109.38C136.934 110.408 135.893 111.25 134.712 111.851C131.782 113.231 128.304 112.71 125.24 111.66C122.176 110.609 119.272 109.058 116.103 108.388C112.934 107.718 109.275 108.109 107.032 110.446C105.453 112.092 104.831 114.407 104.266 116.616L101.329 128.109C101.005 129.783 100.384 131.386 99.497 132.842C99.3484 133.049 99.1725 133.236 98.974 133.396Z" fill="#2F2E41"/>
<path d="M183.577 299.23H156.143C155.442 299.228 154.764 298.978 154.23 298.524C153.697 298.07 153.341 297.441 153.228 296.749C151.438 285.129 151.438 273.304 153.228 261.683C153.341 260.992 153.697 260.363 154.23 259.909C154.764 259.455 155.442 259.205 156.143 259.203H183.577C184.021 259.202 184.461 259.302 184.861 259.496C185.261 259.689 185.611 259.972 185.886 260.322C186.166 260.676 186.362 261.09 186.458 261.532C186.554 261.973 186.548 262.431 186.441 262.87C183.875 273.617 183.875 284.816 186.441 295.563C186.548 296.002 186.554 296.459 186.458 296.901C186.362 297.342 186.166 297.756 185.886 298.111C185.611 298.461 185.261 298.743 184.861 298.937C184.461 299.131 184.021 299.231 183.577 299.23Z" fill="#625CF9"/>
<path d="M137.595 411H0.849349C0.624088 411 0.408052 410.911 0.248768 410.751C0.0894841 410.592 0 410.376 0 410.151C0 409.926 0.0894841 409.71 0.248768 409.55C0.408052 409.391 0.624088 409.302 0.849349 409.302H137.595C137.82 409.302 138.036 409.391 138.195 409.55C138.354 409.71 138.444 409.926 138.444 410.151C138.444 410.376 138.354 410.592 138.195 410.751C138.036 410.911 137.82 411 137.595 411Z" fill="#3F3D56"/>
</g>
<defs>
<clipPath id="clip0_304_353">
<rect width="649" height="411" fill="white"/>
</clipPath>
</defs>
</svg>
