<svg width="594" height="410" viewBox="0 0 594 410" fill="none" xmlns="http://www.w3.org/2000/svg">
<ellipse cx="297" cy="391" rx="297" ry="19" fill="#9893FA" fill-opacity="0.8"/>
<path d="M441.489 111.473H388.15C386.512 111.473 385.172 109.588 385.172 107.265V55.6086C385.172 53.2781 386.504 51.4004 388.15 51.4004H441.489C443.134 51.4004 444.467 53.2781 444.467 55.6086V107.265C444.467 109.625 443.134 111.473 441.489 111.473Z" fill="url(#paint0_linear_149_2)"/>
<path d="M428.454 110.991H437.968V122.866L428.454 110.991Z" fill="#625CF9"/>
<path d="M58.5918 63.1566H68.7237V75.8035L58.5918 63.1566Z" fill="url(#paint1_linear_149_2)"/>
<path d="M75.0671 10.0457H8.09686C6.03702 10.0457 4.36719 11.7104 4.36719 13.764V59.4457C4.36719 61.4993 6.03702 63.164 8.09686 63.164H75.0671C77.1269 63.164 78.7968 61.4993 78.7968 59.4457V13.764C78.7968 11.7104 77.1269 10.0457 75.0671 10.0457Z" fill="url(#paint2_linear_149_2)"/>
<path d="M57.9297 22.9301L61.7636 25.4684L57.7882 31.4355L45.1327 25.3942L36.2143 39.1766L25.7697 34.2039L15.0273 50.7992L18.2433 52.8699L27.1618 39.0949L37.6064 44.075V44.0676L46.5174 30.2926L59.1431 36.3043L64.9572 27.5762L68.7911 30.1145L69.6026 17.1484L57.9297 22.9301Z" fill="#F2F2FB"/>
<path d="M335.807 9.38515C328.306 7.95395 320.541 9.05006 313.734 12.5009C306.927 15.9518 301.464 21.5616 298.205 28.4472C294.946 35.3328 294.076 43.1034 295.733 50.5358C297.389 57.9682 301.477 64.6404 307.354 69.5023L302.642 94.0391L322.854 76.8055C327.298 77.6649 331.869 77.6418 336.305 76.7374C340.741 75.833 344.954 74.0651 348.703 71.535C352.453 69.0049 355.664 65.7623 358.155 61.9928C360.645 58.2233 362.366 54.0011 363.217 49.5679C364.068 45.1347 364.034 40.5775 363.116 36.1575C362.199 31.7375 360.415 27.5414 357.868 23.8095C355.322 20.0776 352.061 16.8833 348.274 14.4094C344.488 11.9355 340.248 10.2307 335.8 9.39258L335.807 9.38515Z" fill="url(#paint3_linear_149_2)"/>
<path d="M122.8 372.478C123.125 370.925 123.625 369.414 124.289 367.973C124.445 367.55 125.733 363.461 125.778 363C126.12 356.261 125.145 337.64 125.145 337.64H143.816C143.816 337.64 140.957 353.723 143.466 363.23C151.655 367.899 166.321 374.178 166.321 374.178C166.321 374.178 182.951 377.08 183.815 377.466C185.855 378.172 187.722 379.3 189.294 380.776C189.294 380.776 191.185 385.088 170.34 388.116C170.34 388.116 161.318 389.994 146.92 387.559L137.555 386.639C134.354 386.32 124.721 385.897 123.47 384.954C123.057 384.657 122.71 384.278 122.45 383.841C120.686 380.865 122.316 375.647 122.8 372.478Z" fill="url(#paint4_linear_149_2)"/>
<path d="M124.222 367.973C124.312 367.728 124.781 366.259 125.16 364.967C125.905 365.368 126.575 365.709 127.26 366.088C135.166 370.162 143.779 369.858 152.303 368.159C152.459 368.128 152.613 368.088 152.764 368.04C159.591 371.32 166.209 374.155 166.209 374.155C166.209 374.155 182.84 377.057 183.703 377.443C185.743 378.15 187.61 379.278 189.183 380.754C189.183 380.754 191.073 385.066 170.229 388.094C170.229 388.094 161.206 389.971 146.809 387.537L137.444 386.617C134.243 386.298 124.609 385.875 123.359 384.932C122.946 384.634 122.599 384.256 122.339 383.819C120.686 380.85 122.339 375.655 122.763 372.478C123.079 370.927 123.568 369.415 124.222 367.973Z" fill="url(#paint5_linear_149_2)"/>
<path d="M144.554 237.14C144.554 237.14 148.939 236.947 148.648 248.57C148.358 260.193 142.626 354.302 142.626 354.302L125.28 356.098C125.28 356.098 110.979 287.498 123.851 247.301C123.851 247.301 128.705 229.429 144.554 237.14Z" fill="url(#paint6_linear_149_2)"/>
<path d="M111.411 160.472C112.417 159.772 113.498 159.184 114.634 158.721C119.451 156.739 124.677 158.639 129.873 159.018C143.787 160.034 147.412 190.568 147.784 207.312C148.186 225.265 151.507 239.768 144.866 256.452C142.901 261.38 139.558 266.553 134.31 267.399C130.268 268.06 126.181 265.811 123.575 262.657C120.97 259.502 119.585 255.546 118.319 251.657C112.959 235.166 109.036 218.259 104.919 201.404C103.036 193.641 101.093 185.692 101.986 177.758C102.753 171.048 105.962 164.257 111.411 160.472Z" fill="url(#paint7_linear_149_2)"/>
<path d="M186.196 112.49C186.234 114.427 159.27 114.182 157.163 114.182C147.88 114.182 100.66 105.276 118.303 85.6226C121.02 82.6093 124.824 81.5702 128.219 81.4069C143.525 80.6647 179.139 89.712 179.139 89.712L186.196 112.49Z" fill="url(#paint8_linear_149_2)"/>
<path d="M180.978 110.954C177.316 109.877 176.973 105.573 176.199 102.181C174.383 94.1949 190.731 55.7867 190.731 55.7867L190.202 48.6543L188.051 41.7149L186.688 37.2618C186.139 36.0502 185.384 34.9428 184.455 33.9887C183.924 33.5829 183.44 33.1199 183.011 32.6082C182.863 32.4054 182.783 32.1612 182.783 31.9106C182.783 31.66 182.863 31.4157 183.011 31.2129C183.281 30.9645 183.633 30.8244 184.001 30.8196C184.701 30.7629 185.403 30.8859 186.042 31.177C186.681 31.468 187.234 31.9173 187.649 32.4821C187.927 32.9281 188.175 33.3917 188.393 33.8699C188.627 34.3471 188.956 34.7714 189.361 35.1168C189.564 35.2868 189.805 35.4075 190.063 35.4693C190.322 35.5311 190.591 35.5324 190.85 35.4731C191.542 35.2653 191.639 34.7309 191.594 34.1446C191.563 33.4003 191.603 32.6547 191.713 31.918L191.825 30.5598C191.825 30.1516 191.87 29.7285 191.929 29.2758C191.974 28.6746 192.026 28.0735 192.078 27.4649C192.301 21.9578 189.956 20.1469 191.058 16.7328C191.706 14.7289 193.001 17.193 194.892 15.8942C195.979 15.152 199.314 21.5125 199.746 19.709C200.178 17.9055 203.907 20.1321 206.907 25.5871C209.535 30.3446 209.327 33.9739 209.081 37.5586C209.116 37.8069 209.099 38.0598 209.029 38.3008C209.029 38.3379 202.515 58.5403 202.515 58.5403C201.503 61.2493 199.634 75.7442 199.374 78.5348C199.165 81.6594 196.79 115.563 180.978 110.954Z" fill="url(#paint9_linear_149_2)"/>
<path d="M203.052 59.5496C201.987 65.398 200.774 74.9945 200.558 77.2953C200.223 80.6797 197.64 117.789 180.346 112.705C176.341 111.532 175.961 106.827 175.135 103.116C173.542 96.1098 184.724 67.7137 189.213 56.7441C193.758 57.9858 198.381 58.923 203.052 59.5496Z" fill="url(#paint10_linear_149_2)"/>
<path d="M81.3347 375.707C81.8199 374.196 82.4689 372.742 83.2703 371.372C83.4713 370.979 85.1835 367.045 85.2505 366.585C86.3076 359.905 87.3127 341.306 87.3127 341.306L105.887 343.251C105.887 343.251 101.331 358.948 102.819 368.663C110.48 374.163 124.408 381.956 124.408 381.956C124.408 381.956 140.63 386.602 141.456 387.077C143.407 387.996 145.142 389.313 146.548 390.944C146.548 390.944 147.977 395.434 126.925 396.243C126.925 396.243 117.753 397.156 103.69 393.222L94.4817 391.307C91.3252 390.654 81.8261 389.222 80.6573 388.153C80.2764 387.813 79.9698 387.399 79.7565 386.936C78.3793 383.826 80.5605 378.809 81.3347 375.707Z" fill="url(#paint11_linear_149_2)"/>
<path d="M83.2694 371.372C83.3811 371.142 84.0138 369.732 84.5201 368.493C85.1826 368.96 85.8451 369.405 86.4854 369.829C93.9298 374.712 102.513 375.321 111.171 374.527C111.335 374.527 111.484 374.527 111.64 374.46C118.087 378.438 124.363 381.956 124.363 381.956C124.363 381.956 140.584 386.602 141.41 387.077C143.361 387.996 145.096 389.313 146.503 390.944C146.503 390.944 147.932 395.434 126.879 396.243C126.879 396.243 117.707 397.156 103.645 393.222L94.4361 391.307C91.2796 390.654 81.7805 389.222 80.6117 388.153C80.2308 387.813 79.9242 387.399 79.7109 386.936C78.3784 383.826 80.5596 378.809 81.3338 375.707C81.819 374.196 82.468 372.743 83.2694 371.372Z" fill="url(#paint12_linear_149_2)"/>
<path d="M117.38 243.434C117.38 243.434 121.765 243.701 120.239 255.227C118.713 266.753 103.02 359.742 103.02 359.742L85.5774 359.683C85.5774 359.683 78.6466 289.977 95.7167 251.383C95.7167 251.383 102.447 234.09 117.38 243.434Z" fill="url(#paint13_linear_149_2)"/>
<path d="M92.6879 164.465C99.1347 160.584 106.832 161.4 113.034 165.393C121.327 170.729 126.285 179.955 127.223 189.692C128.481 202.807 127.535 217.287 125.845 230.32C124.898 237.538 123.36 244.667 121.245 251.635C119.458 257.491 118.461 265.299 112.974 269.21C108.961 272.075 101.934 272.32 97.9808 269.062C93.8715 265.67 92.6134 259.77 91.7052 254.804C90.663 249.149 89.4272 243.501 88.3775 237.83C86.5834 228.13 85.1913 218.363 83.3376 208.677C81.551 199.363 80.2333 189.306 82.1838 179.895C83.5759 173.149 87.5214 167.568 92.6879 164.465Z" fill="url(#paint14_linear_149_2)"/>
<path d="M77.4701 181.365C78.7357 170.7 81.1105 160.821 79.7556 149.978C78.4007 139.134 77.1054 128.053 75.5346 117.136C74.8646 112.497 73.6437 107.74 73.197 103.094C72.6015 96.8668 75.4974 91.6937 79.3015 87.2703C82.6068 83.4183 86.798 78.98 90.7361 76.0261L91.2051 75.6699C92.694 74.5343 94.0042 74.8164 95.6718 74.0074C102.684 70.5859 112.37 70.3929 119.36 74.0668L132.76 81.1101C137.51 83.6039 140.659 89.0367 140.83 95.0558C141.217 108.126 141.522 121.203 141.619 134.28C141.671 141.116 140.874 147.751 141.991 154.557C143.435 163.463 150.552 174.596 150.396 187.488C150.344 192.045 148.527 190.969 145.006 191.978C135.902 194.583 120.052 194.947 110.762 196.565C101.687 198.168 85.9568 199.764 77.0309 197.144C71.3731 195.489 76.748 187.488 77.4701 181.365Z" fill="url(#paint15_linear_149_2)"/>
<path style="mix-blend-mode:multiply" opacity="0.24" d="M80.9177 160.524C80.9583 160.199 81.0281 159.879 81.1262 159.567C80.7912 158.29 80.4562 156.91 80.1212 155.492C80.0946 153.649 79.9728 151.808 79.7564 149.978C78.5281 140.151 77.3593 130.31 76.0342 120.505C77.0094 104.593 81.8036 86.1941 97.0275 95.13C100.534 97.1858 102.306 100.704 103.132 103.992C106.288 116.527 105.44 144.634 105.097 152.976C116.949 154.364 132.002 157.555 139.565 159.248C139.565 159.678 139.52 160.116 139.498 160.546L143.965 161.6C145.357 165.616 147.144 169.98 148.484 174.655L145.327 174.225C143.383 174.033 141.428 173.973 139.476 174.047C139.476 174.217 139.476 174.388 139.476 174.551C133.327 174.551 123.336 175.078 120.954 175.294C117.463 175.613 79.2725 179.94 80.9177 160.524Z" fill="url(#paint16_linear_149_2)"/>
<path d="M118.021 93.4453L106.318 82.5871L117.88 80.3754L118.021 93.4453Z" fill="url(#paint17_linear_149_2)"/>
<path d="M122.554 88.3835L120.5 103.977L111.03 90.6917L116.085 89.5339L117.961 92.7179L117.723 89.3558L122.554 88.3835Z" fill="url(#paint18_linear_149_2)"/>
<path d="M120.627 99.5831L117.939 100.036L125.131 163.396L133.96 169.505L139.074 160.116L120.627 99.5831Z" fill="url(#paint19_linear_149_2)"/>
<path d="M95.6279 59.4829L96.0672 73.525C96.0672 73.525 99.7894 90.343 117.567 80.8207L116.323 58.9114L95.6279 59.4829Z" fill="url(#paint20_linear_149_2)"/>
<path d="M96.5728 36.7867L97.7266 61.9023L97.548 65.3609C106.064 78.1859 119.07 78.8984 123.03 74.2672C126.991 69.6359 129.581 35.9183 129.581 35.9183L96.5728 36.7867Z" fill="url(#paint21_linear_149_2)"/>
<path d="M123.426 54.3914L121.521 65.0269L127.61 66.1179L123.426 54.3914Z" fill="#FFB9B5"/>
<path d="M97.3029 23.9543C100.802 17.0891 112.601 21.9949 120.135 22.5367C127.669 23.0785 133.639 19.7164 138.389 24.934C144.836 32.0145 135.083 41.3067 129.12 43.1399C112.743 48.1645 107.115 38.4418 107.115 38.4418C107.115 38.4418 109.028 41.9301 105.499 47.4594C103.556 50.5023 102.752 55.0742 102.425 58.5922C102.391 58.9255 102.256 59.2403 102.036 59.4938C101.816 59.7472 101.524 59.9268 101.198 60.0081C100.872 60.0893 100.529 60.0682 100.215 59.9476C99.902 59.827 99.6336 59.6128 99.4469 59.3344L95.0175 52.4766L95.8811 70.6527C92.3101 63.1931 89.4199 55.4282 87.2455 47.452C79.0194 21.7277 97.3029 23.9543 97.3029 23.9543Z" fill="url(#paint22_linear_149_2)"/>
<path d="M92.9172 49.5894C90.3712 52.3578 91.54 59.0598 97.7264 61.9023L98.3145 50.5172C97.7487 48.8621 94.5922 47.7637 92.9172 49.5894Z" fill="url(#paint23_linear_149_2)"/>
<path d="M117.961 92.718L122.875 88.2648L117.396 77.5699C117.396 77.5699 117.701 92.4805 117.961 92.718Z" fill="url(#paint24_linear_149_2)"/>
<path d="M117.395 77.5699L122.874 88.2648L131.696 89.3188L117.32 76.568L117.395 77.5699Z" fill="url(#paint25_linear_149_2)"/>
<path d="M90.9678 75.1727L106.512 95.7758L114.924 87.5672L95.2186 71.343L90.9678 75.1727Z" fill="url(#paint26_linear_149_2)"/>
<path d="M114.923 87.5671L117.96 92.7179L112.303 90.0089L114.923 87.5671Z" fill="url(#paint27_linear_149_2)"/>
<path d="M81.8563 156.932C79.9654 157.355 74.8957 130.956 74.4862 128.885C72.6847 119.808 72.1189 71.9071 94.9138 85.2887C98.4127 87.3446 100.184 90.8551 101.011 94.1505C104.733 108.994 102.872 145.554 102.872 145.554L81.8563 156.932Z" fill="url(#paint28_linear_149_2)"/>
<path d="M79.3176 151.187C79.7344 147.402 84.618 144.834 87.834 143.484C95.405 140.307 143.913 152.249 143.913 152.249L150.866 150.475L157.35 147.157L161.482 145.042C162.582 144.307 163.546 143.388 164.333 142.326C164.638 141.733 165.008 141.175 165.435 140.663C165.614 140.488 165.844 140.372 166.092 140.332C166.34 140.292 166.594 140.33 166.82 140.441C167.113 140.66 167.314 140.98 167.385 141.339C167.562 142.017 167.562 142.729 167.385 143.407C167.208 144.085 166.859 144.707 166.373 145.213C165.986 145.575 165.575 145.912 165.145 146.222C164.713 146.536 164.351 146.936 164.08 147.395C163.947 147.625 163.87 147.883 163.855 148.149C163.839 148.414 163.886 148.679 163.991 148.924C164.318 149.569 164.862 149.569 165.427 149.399C166.161 149.237 166.909 149.148 167.661 149.132L169.023 148.998C169.425 148.946 169.857 148.901 170.311 148.879L172.12 148.708C177.599 147.966 178.984 145.354 182.542 145.836C184.642 146.126 182.431 147.825 184.031 149.451C184.962 150.386 179.252 154.772 181.113 154.883C182.974 154.995 181.411 159.04 176.557 162.944C172.314 166.35 168.696 166.781 165.107 167.167C164.866 167.238 164.614 167.266 164.363 167.248L143.243 164.376C140.392 163.864 125.741 164.554 122.942 164.784C119.823 165.059 77.5011 167.516 79.3176 151.187Z" fill="url(#paint29_linear_149_2)"/>
<path d="M137.405 164.732C131.256 164.732 121.266 165.252 118.884 165.475C115.392 165.786 77.1948 170.106 78.8475 150.69C79.2346 146.193 83.932 144.894 87.5277 143.268C94.3245 140.225 125.412 146.727 137.458 149.421C137.116 154.519 137.099 159.633 137.405 164.732Z" fill="url(#paint30_linear_149_2)"/>
<path d="M129.613 166.372L138.632 167.376L140.851 147.556L131.832 146.552L129.613 166.372Z" fill="url(#paint31_linear_149_2)"/>
<path d="M204.837 66.3661L206.353 57.446L186.631 54.1134L185.115 63.0334L204.837 66.3661Z" fill="url(#paint32_linear_149_2)"/>
<path d="M497.353 148.746C507.559 139.194 524.555 164.992 524.786 184.371C524.786 184.371 518.905 188.557 513.619 187.495C508.334 186.434 502.207 188.312 502.207 188.312C502.207 188.312 492.663 153.132 497.353 148.746Z" fill="url(#paint33_linear_149_2)"/>
<path d="M273.199 155.655H300.364V147.358H273.199V155.655Z" fill="url(#paint34_linear_149_2)"/>
<path d="M245.359 313.177H329.734V306.268H245.359V313.177Z" fill="#2B2844"/>
<path d="M280.831 323.189H294.253V319.004H280.831V323.189Z" fill="#2B2844"/>
<path d="M284.88 348.572H290.218V323.182H284.88V348.572Z" fill="#2B2844"/>
<path d="M284.128 377.993H290.969V348.572H284.128V377.993Z" fill="#2B2844"/>
<path d="M284.055 313.177H291.038H299.659L296.152 319.004H291.038H284.055H278.941L275.435 313.177H284.055Z" fill="#2B2844"/>
<path d="M291.73 282.369H291.618L290.77 282.325L289.281 282.273H288.938H288.097H287.055H286.214H285.834L284.345 282.325L283.497 282.369H283.385C269.516 283.059 241.517 286.711 246.795 306.268H328.342C333.598 286.711 305.599 283.059 291.73 282.369Z" fill="#625CF9"/>
<path d="M289.466 376.449L323.658 391.946C323.76 389.799 323.074 387.688 321.73 386.008C319.385 383.225 301.831 375.053 289.466 369.68V376.449Z" fill="#2B2844"/>
<path d="M318.119 396.458C320.451 396.458 322.34 394.574 322.34 392.25C322.34 389.926 320.451 388.042 318.119 388.042C315.788 388.042 313.898 389.926 313.898 392.25C313.898 394.574 315.788 396.458 318.119 396.458Z" fill="#2B2844"/>
<path d="M285.625 369.702C273.259 375.039 255.705 383.21 253.36 386.03C252.011 387.708 251.323 389.82 251.425 391.968L285.625 376.471V369.702Z" fill="#2B2844"/>
<path d="M256.971 396.458C259.302 396.458 261.192 394.574 261.192 392.25C261.192 389.926 259.302 388.042 256.971 388.042C254.64 388.042 252.75 389.926 252.75 392.25C252.75 394.574 254.64 396.458 256.971 396.458Z" fill="#2B2844"/>
<path d="M377.839 229.139L431.943 228.753L431.917 225.087L377.812 225.473L377.839 229.139Z" fill="#2B2844"/>
<path d="M340.303 181.265L377.926 229.154L380.821 226.893L343.198 179.004L340.303 181.265Z" fill="#2B2844"/>
<path d="M426.162 368.069C425.879 365.457 422.373 362.874 420.609 361.048C419.001 359.401 416.313 358.629 416.239 357.256C416.03 353.263 417.981 345.774 417.981 345.774L404.975 345.722C404.975 345.722 405.362 355.645 402.98 361.212C400.598 366.778 392.714 381.503 392.714 381.503C392.714 381.503 383.096 390.773 382.701 391.404C381.699 392.759 380.994 394.309 380.632 395.953C380.632 395.953 381.376 399.546 396.556 392.168C396.556 392.168 403.382 389.333 411.75 381.362L417.497 376.59C419.47 374.964 425.626 370.393 426.006 369.235C426.142 368.862 426.196 368.465 426.162 368.069Z" fill="url(#paint35_linear_149_2)"/>
<path d="M417.497 376.59L411.75 381.362C403.382 389.333 396.556 392.168 396.556 392.168C381.391 399.546 380.632 395.953 380.632 395.953C380.994 394.309 381.699 392.759 382.701 391.404C383.096 390.773 392.714 381.503 392.714 381.503V381.444C396.935 383.581 400.255 383.67 403.955 379.662C409.859 373.272 412.77 365.732 420.832 361.293C422.663 363.097 425.864 365.568 426.132 368.069C426.166 368.465 426.113 368.862 425.976 369.235C425.626 370.393 419.47 374.964 417.497 376.59Z" fill="url(#paint36_linear_149_2)"/>
<path d="M407.543 261.773C421.978 256.675 437.544 254.619 452.76 252.956C460.316 252.132 469.049 249.987 476.657 249.72C491.062 249.156 507.924 255.457 505.951 272.223C505.697 274.351 505.016 276.405 503.948 278.265C491.367 300.286 456.505 291.194 436.948 287.379C428.469 285.724 420.012 283.891 411.637 281.723C401.007 272.038 407.543 261.773 407.543 261.773Z" fill="url(#paint37_linear_149_2)"/>
<path d="M407.543 261.773C407.543 261.773 404.163 261.462 403.932 270.13C403.701 278.799 404.424 349.121 404.424 349.121L417.161 351.021C417.161 351.021 431.499 300.553 423.117 270.123C423.139 270.145 420.094 256.652 407.543 261.773Z" fill="url(#paint38_linear_149_2)"/>
<path d="M516.894 198.509C517.035 198.155 517.242 197.83 517.504 197.552C504.848 193.448 500.33 212.099 498.841 221.458C498.841 221.458 498.841 221.51 498.841 221.539C498.841 221.732 498.774 221.925 498.744 222.111C498.699 222.43 498.647 222.779 498.595 223.157V223.388C498.595 223.573 498.543 223.766 498.521 223.966C498.521 224.078 498.521 224.196 498.483 224.323C498.446 224.449 498.483 224.56 498.483 224.679C498.483 224.872 498.439 225.072 498.424 225.25V225.488C498.424 225.866 498.364 226.23 498.349 226.534C498.349 226.72 498.349 226.92 498.349 227.113C498.349 227.113 498.349 227.165 498.349 227.195C497.806 236.443 502.511 255.153 515.345 253.973C504.7 230.067 516.365 199.845 516.894 198.509Z" fill="white"/>
<path d="M522.865 254.797C510.597 232.947 522.917 201.018 523.044 200.691C523.191 200.303 523.258 199.888 523.24 199.473C523.222 199.058 523.12 198.651 522.94 198.276C522.76 197.902 522.505 197.567 522.191 197.294C521.878 197.02 521.512 196.812 521.116 196.684C520.495 196.462 519.822 196.426 519.18 196.58C518.539 196.735 517.957 197.072 517.505 197.552C517.243 197.83 517.036 198.155 516.895 198.509C516.366 199.845 504.686 230.067 515.212 253.973C515.778 255.242 516.381 256.496 517.073 257.729C526.081 273.775 526.416 297.606 522.91 304.034C522.351 305.043 521.183 306.772 519.56 306.965C519.143 307.005 518.737 307.127 518.368 307.324C517.998 307.521 517.671 307.789 517.406 308.113C517.141 308.436 516.943 308.809 516.823 309.21C516.703 309.61 516.664 310.031 516.709 310.446C516.827 311.217 517.223 311.918 517.821 312.421C518.419 312.923 519.18 313.192 519.962 313.177C520.101 313.185 520.24 313.185 520.379 313.177C523.788 312.777 526.759 310.55 528.739 306.928C533.153 298.816 533.049 272.906 522.865 254.797Z" fill="#2B2844"/>
<path d="M520.966 306.268H436.59V313.177H520.966V306.268Z" fill="#2B2844"/>
<path d="M485.494 318.996H472.071V323.182H485.494V318.996Z" fill="#2B2844"/>
<path d="M481.452 323.182H476.114V348.572H481.452V323.182Z" fill="#2B2844"/>
<path d="M482.204 348.572H475.362V377.993H482.204V348.572Z" fill="url(#paint39_linear_149_2)"/>
<path d="M482.271 313.177H475.288H466.667L470.173 319.004H475.288H482.271H487.385L490.891 313.177H482.271Z" fill="#2B2844"/>
<path d="M474.594 282.369H474.706L475.555 282.325L477.043 282.273H477.386H478.227H479.269H480.111H480.453L481.942 282.325L482.791 282.369H482.902C496.771 283.059 524.777 286.711 519.492 306.268H438.005C432.727 286.711 460.725 283.059 474.594 282.369Z" fill="#625CF9"/>
<path d="M476.857 369.702C464.492 375.039 446.938 383.21 444.601 386.03C443.251 387.708 442.563 389.82 442.665 391.968L476.857 376.471V369.702Z" fill="#2B2844"/>
<path d="M452.425 392.25C452.425 393.082 452.177 393.896 451.714 394.588C451.25 395.28 450.59 395.819 449.819 396.138C449.048 396.456 448.199 396.54 447.38 396.377C446.562 396.215 445.81 395.814 445.219 395.226C444.629 394.637 444.227 393.887 444.064 393.071C443.901 392.255 443.985 391.408 444.304 390.64C444.624 389.871 445.165 389.213 445.859 388.751C446.553 388.289 447.369 388.042 448.204 388.042C449.323 388.042 450.397 388.485 451.189 389.274C451.98 390.063 452.425 391.134 452.425 392.25Z" fill="#2B2844"/>
<path d="M480.699 376.449L514.898 391.946C515.001 389.797 514.312 387.686 512.963 386.008C510.618 383.225 493.064 375.053 480.699 369.68V376.449Z" fill="#2B2844"/>
<path d="M505.14 392.25C505.14 393.083 505.388 393.896 505.852 394.589C506.316 395.281 506.976 395.82 507.748 396.139C508.519 396.457 509.368 396.54 510.187 396.377C511.006 396.214 511.758 395.812 512.348 395.223C512.939 394.634 513.34 393.883 513.502 393.066C513.664 392.25 513.579 391.403 513.259 390.634C512.938 389.866 512.396 389.209 511.701 388.747C511.006 388.286 510.189 388.04 509.354 388.042C508.8 388.042 508.251 388.151 507.74 388.362C507.228 388.574 506.763 388.884 506.372 389.275C505.98 389.666 505.67 390.13 505.459 390.64C505.247 391.151 505.139 391.698 505.14 392.25Z" fill="#2B2844"/>
<path d="M467.082 118.487C471.445 114.212 478.577 113.544 484.078 113.922C491.872 114.457 500.277 117.997 504.178 125.389C511.295 138.815 495.781 159.248 482.15 158.787C480.459 158.83 478.803 158.308 477.445 157.303C475.83 155.96 475.681 153.963 474.869 152.108C474.425 151.153 473.873 150.252 473.224 149.421C470.991 146.4 468.482 143.639 466.42 140.515C464.358 137.39 462.75 133.731 462.631 129.805C462.542 127.714 462.892 125.627 463.659 123.678C464.425 121.729 465.591 119.961 467.082 118.487Z" fill="url(#paint40_linear_149_2)"/>
<path d="M480.877 153.867C482.046 152.961 483.178 151.997 484.287 151.009C485.66 155.934 487.361 160.761 489.379 165.46C489.61 166.64 490.332 167.286 490.324 168.146C490.324 168.146 487.347 179.725 475.778 177.12C475.778 177.12 478.093 167.085 475.674 159.144C477.267 157.251 479.007 155.487 480.877 153.867Z" fill="url(#paint41_linear_149_2)"/>
<path d="M466.734 124.023C466.734 124.023 455.456 149.154 462.357 159.522C462.357 159.522 476.784 164.636 486.7 152.301C496.616 139.966 491.554 116.609 466.734 124.023Z" fill="url(#paint42_linear_149_2)"/>
<path d="M463.436 136.589L461.136 147.491L455.925 146.393L463.436 136.589Z" fill="#FFB9B5"/>
<path d="M487.973 143.023C491.157 142.519 494.011 140.776 495.909 138.177C497.948 135.394 498.886 131.386 497.881 128.209C497.143 126.096 495.728 124.283 493.854 123.051C490.712 120.825 487.08 119.667 483.432 118.732C480.305 117.923 472.719 119.659 469.466 121.745C463.086 125.834 482.858 143.818 487.973 143.023Z" fill="url(#paint43_linear_149_2)"/>
<path d="M486.372 143.023C486.372 143.023 492.141 138.57 493.816 142.853C495.305 146.519 491.828 153.488 484.883 153.889L486.372 143.023Z" fill="url(#paint44_linear_149_2)"/>
<path d="M477.096 182.166C478.362 178.248 480.469 175.064 484.213 174.002C491.658 171.902 493.251 180.096 493.258 185.655C493.258 195.348 490.653 205.174 488.792 214.667C487.437 221.71 485.866 230.765 480.722 236.19C477.863 239.159 473.903 239.716 472.228 235.389C470.389 230.631 471.319 225.495 471.736 220.545C472.295 213.962 473.151 207.408 474.051 200.862C474.922 194.732 475.176 188.089 477.096 182.166Z" fill="url(#paint45_linear_149_2)"/>
<path d="M396.643 218.4C396.811 218.149 397.042 217.946 397.313 217.814L412.79 210.154C413.032 210.033 413.298 209.971 413.568 209.971C413.839 209.971 414.105 210.033 414.346 210.154L425.513 215.906C425.513 215.906 468.088 219.951 477.624 224.234C481.808 226.119 482.314 232.702 479.537 236.613C477.46 239.537 473.098 238.699 470.128 238.046C465.758 237.088 423.138 225.577 423.295 224.976C423.295 224.976 423.384 224.619 423.518 224.048C423.377 224.067 423.234 224.067 423.094 224.048C416.662 223.076 409.091 220.278 406.961 219.461C406.578 219.316 406.154 219.316 405.77 219.461L400.47 221.369C400.158 221.485 399.819 221.505 399.495 221.428L397.671 221.005C397.404 220.94 397.156 220.811 396.949 220.631C396.742 220.45 396.582 220.223 396.481 219.968C396.38 219.712 396.343 219.437 396.371 219.164C396.399 218.891 396.493 218.629 396.643 218.4Z" fill="url(#paint46_linear_149_2)"/>
<path d="M500.524 282.785C503.284 278.867 505.131 274.384 505.928 269.663C506.516 266.256 506.263 262.241 505.928 258.842C505.303 252.043 496.02 253.817 491.516 254.596C481.161 256.4 470.671 256.823 460.145 257.12C446.283 257.543 432.213 258.3 418.828 262.204C415.508 263.169 412.441 264.623 411.488 268.23C410.515 272.488 411.224 276.956 413.468 280.707C416.305 285.561 422.015 286.785 427.032 288.336C431.504 289.841 436.07 291.054 440.7 291.966C448.353 293.264 456.46 294.296 464.254 294.853C475.004 295.595 486.632 294.897 495.156 288.336C497.208 286.757 499.017 284.887 500.524 282.785Z" fill="url(#paint47_linear_149_2)"/>
<path d="M484.482 351.214C482.859 349.121 478.325 348.758 475.779 348.142C473.472 347.578 470.635 348.35 469.824 347.207C467.538 343.889 465.357 336.415 465.357 336.415L453.587 343.295C453.587 343.295 459.148 351.623 459.915 357.679C460.682 363.735 461.315 380.598 461.315 380.598C461.315 380.598 457.496 393.697 457.473 394.447C457.273 396.137 457.451 397.851 457.995 399.464C457.995 399.464 460.563 402.151 470.375 387.715C470.375 387.715 475.05 381.644 478.415 370.326C479.308 367.936 480.204 365.549 481.102 363.164C482.018 360.714 485.182 353.515 484.921 352.305C484.859 351.914 484.708 351.541 484.482 351.214Z" fill="url(#paint48_linear_149_2)"/>
<path d="M481.138 363.164C480.24 365.553 479.344 367.941 478.451 370.326C475.086 381.644 470.411 387.715 470.411 387.715C460.599 402.151 458.031 399.464 458.031 399.464C457.487 397.851 457.309 396.137 457.51 394.447C457.51 393.705 461.351 380.598 461.351 380.598V380.523C466.279 380.108 469.317 378.408 470.552 372.998C472.533 364.351 471.2 356.313 476.151 348.201C478.741 348.78 482.932 349.196 484.488 351.17C484.728 351.493 484.891 351.866 484.965 352.261C485.218 353.5 482.054 360.714 481.138 363.164Z" fill="url(#paint49_linear_149_2)"/>
<path d="M411.891 269.774C411.891 269.774 408.675 271.311 413.015 278.888C417.355 286.466 454.927 346.531 454.927 346.531L467.419 341.38C467.419 341.38 453.87 290.34 430.346 268.646C430.346 268.639 420.511 258.664 411.891 269.774Z" fill="url(#paint50_linear_149_2)"/>
<path d="M464.969 229.689C465.058 227.136 465.535 223.232 464.597 220.782C462.364 215.134 459.475 208.707 459.475 202.087C459.475 187.191 489.253 165.326 489.402 165.43C490.254 166.039 491.043 166.733 491.754 167.501C491.773 167.516 491.791 167.534 491.806 167.553C492.045 167.805 492.268 168.08 492.484 168.347C492.573 168.458 492.655 168.547 492.744 168.673C493.057 169.074 493.347 169.49 493.623 169.92L493.72 170.054V170.113C494.033 170.61 494.322 171.123 494.583 171.65C495.904 174.251 496.739 177.07 497.047 179.97C497.144 180.764 497.196 181.558 497.233 182.352C497.417 185.071 497.392 187.801 497.159 190.516C497.084 191.384 497.003 192.223 496.906 193.039C496.1 200.635 496.022 208.289 496.675 215.899C497.209 221.578 498.167 227.21 499.541 232.746C499.809 233.682 500.077 234.617 500.367 235.537C501.186 238.209 502.08 240.859 502.928 243.523C503.205 244.282 503.412 245.065 503.546 245.861C505.191 250.685 506.755 255.509 507.268 260.578C507.373 261.588 507.328 262.805 506.457 263.339C505.977 263.573 505.44 263.666 504.909 263.607L484.876 263.258C479.955 263.176 476.635 260.838 473.054 257.476C469.071 253.765 463.793 254.574 463.823 249.127C463.772 248.738 463.747 248.346 463.748 247.954C463.756 241.861 464.761 235.797 464.969 229.689Z" fill="url(#paint51_linear_149_2)"/>
<path style="mix-blend-mode:multiply" d="M481.465 233.422V231.581C481.465 224.597 481.822 217.613 482.209 210.637C482.44 206.295 482.403 201.73 482.76 197.322H496.547C496.148 203.522 496.195 209.743 496.689 215.936C496.972 218.905 497.381 221.918 497.895 224.887C497.15 232.234 496.145 241.215 491.694 247.086C490.205 249.075 488.254 250.225 486.482 250.017C484.705 250.049 482.931 249.837 481.212 249.386C479.537 249.008 472.219 247.026 463.866 244.696C464.09 239.946 464.685 235.218 464.894 230.461C470.909 231.344 476.82 232.368 481.465 233.422Z" fill="url(#paint52_linear_149_2)"/>
<path d="M480.021 186.812C480.974 182.56 482.827 178.99 486.475 177.498C493.741 174.529 495.989 182.99 496.443 188.831C497.188 199.021 495.401 209.612 494.344 219.803C493.555 227.351 492.714 237.044 488.001 243.256C485.396 246.7 481.48 247.709 479.462 243.256C477.229 238.439 477.758 232.939 477.78 227.714C477.817 220.73 478.145 213.746 478.524 206.77C478.874 200.216 478.584 193.203 480.021 186.812Z" fill="url(#paint53_linear_149_2)"/>
<path d="M434.536 224.018L433.278 223.165L433.107 223.061L421.94 217.227C421.7 217.107 421.435 217.044 421.166 217.044C420.897 217.044 420.632 217.107 420.392 217.227L404.855 224.775C404.587 224.91 404.357 225.109 404.185 225.354C404.028 225.583 403.928 225.847 403.896 226.122C403.864 226.398 403.9 226.677 404 226.936C404.101 227.195 404.263 227.425 404.473 227.607C404.683 227.79 404.934 227.918 405.205 227.982L407.029 228.42C407.351 228.502 407.691 228.486 408.004 228.375L413.312 226.497C413.696 226.352 414.119 226.352 414.503 226.497C416.632 227.328 424.181 230.208 430.605 231.195C431.001 231.254 431.405 231.171 431.745 230.962C432.086 230.753 432.341 230.431 432.467 230.052L434.536 224.018Z" fill="url(#paint54_linear_149_2)"/>
<path d="M486.961 244.154C484.862 247.056 480.507 246.195 477.544 245.519C473.181 244.532 430.644 232.709 430.8 232.116L433.108 223.061C433.108 223.061 475.653 227.403 485.137 231.759C489.306 233.674 489.76 240.25 486.961 244.154Z" fill="url(#paint55_linear_149_2)"/>
<path d="M227.119 209.509C228.161 206.54 229.352 203.682 230.662 200.84C230.662 200.84 243.906 163.612 253.509 160.109C253.747 160.027 263.745 157.763 264.393 157.815L258.318 200.862H249.824C246.958 206.948 244.04 213.012 240.891 218.89C239.313 221.807 237.868 225.013 235.166 226.95C232.464 228.887 228.034 229.065 225.987 226.208C224.878 224.671 224.647 222.623 224.692 220.693C224.91 216.862 225.729 213.088 227.119 209.509Z" fill="url(#paint56_linear_149_2)"/>
<path d="M309.483 157.815C310.131 157.763 320.136 160.042 320.367 160.109C329.971 163.612 344.629 204.091 344.629 204.091C345.373 205.872 346.118 207.675 346.735 209.509C348.127 213.088 348.951 216.861 349.177 220.693C349.229 222.623 348.991 224.671 347.882 226.208C345.835 229.043 341.509 228.924 338.703 226.95C335.896 224.976 334.928 221.577 332.978 218.89C327.32 211.082 324.372 205.835 322.556 201.641L315.58 200.862L309.483 157.815Z" fill="url(#paint57_linear_149_2)"/>
<path d="M245.581 376.961C245.536 376.582 245.484 376.219 245.402 375.825C245.493 376.198 245.553 376.578 245.581 376.961Z" fill="#FFCE8A"/>
<path d="M220.576 384.086C220.762 384.019 220.941 383.945 221.12 383.863L220.576 384.086Z" fill="#FFCE8A"/>
<path d="M218.833 271.555C218.937 271.225 219.063 270.903 219.213 270.591C221.305 266.137 227.067 264.341 231.057 262.545C237.802 259.517 244.8 257.187 251.619 254.381C259.942 250.923 269.128 247.835 278.18 249.297C281.543 249.851 284.745 251.13 287.56 253.045C290.376 251.129 293.577 249.85 296.94 249.297C305.993 247.813 315.179 250.923 323.502 254.381C330.321 257.216 337.319 259.576 344.064 262.545C348.054 264.341 353.816 266.175 355.908 270.591C356.054 270.904 356.181 271.226 356.288 271.555C357.628 275.682 355.804 280.217 353.786 283.727C352.573 285.85 349.037 291.966 346.587 292.478C336.515 294.704 326.071 294.459 315.894 293.22C309.715 292.478 303.588 291.298 297.484 290.021C294.127 289.442 290.812 288.643 287.56 287.631C284.31 288.628 280.998 289.411 277.644 289.977C271.547 291.253 265.421 292.403 259.242 293.175C249.058 294.452 238.621 294.734 228.541 292.433C226.092 291.921 222.585 285.805 221.35 283.683C219.302 280.217 217.478 275.682 218.833 271.555Z" fill="url(#paint58_linear_149_2)"/>
<path d="M286.817 152.137H287.04C303.418 152.293 320.369 162.343 320.369 162.343C320.287 163.879 320.212 165.415 320.131 166.959C319.51 178.789 318.89 190.622 318.269 202.458C317.897 209.682 317.52 216.906 317.138 224.13C316.736 231.848 315.962 238.528 317.786 246.061C318.344 248.355 319.021 250.923 318.217 253.09C317.585 254.812 316.185 255.732 314.882 256.526C312.414 258.1 309.859 259.535 307.229 260.823C294.574 266.716 280.63 264.534 267.402 261.432C263.188 260.452 258.662 259.161 255.811 254.849C255.305 254.115 254.932 253.299 254.709 252.437C254.21 250.359 254.835 248.147 255.334 246.076C255.782 244.23 256.134 242.362 256.391 240.48C257.567 231.997 256.652 223.046 256.205 214.503C255.778 206.344 255.352 198.18 254.925 190.011C254.428 180.778 253.947 171.546 253.48 162.313C253.48 162.313 270.417 152.301 286.817 152.137Z" fill="url(#paint59_linear_149_2)"/>
<path d="M286.853 171.843L275.15 152.13H298.548L286.853 171.843Z" fill="url(#paint60_linear_149_2)"/>
<path d="M289.273 167.768L293.978 165.378L299.933 148.13C299.933 148.13 289.198 167.456 289.273 167.768Z" fill="url(#paint61_linear_149_2)"/>
<path d="M299.94 148.13L293.984 165.378L302.196 170.447L303.967 154.067L300.364 147.35L299.94 148.13Z" fill="url(#paint62_linear_149_2)"/>
<path d="M284.575 167.768L279.237 165.608L273.922 148.13C273.922 148.13 284.649 167.456 284.575 167.768Z" fill="url(#paint63_linear_149_2)"/>
<path d="M286.726 177.29L282.029 166.647H286.726H286.868H291.558L286.868 177.29V177.609L286.793 177.446L286.726 177.609V177.29Z" fill="url(#paint64_linear_149_2)"/>
<path d="M286.771 234.439L280.629 220.864L284.902 172.986L286.86 173.505L288.818 172.986L294.417 220.864L286.942 234.439V234.587L286.86 234.513L286.771 234.587V234.439Z" fill="url(#paint65_linear_149_2)"/>
<path d="M273.907 148.13L279.237 165.601L271.651 170.447L270.207 155.069L273.483 147.35L273.907 148.13Z" fill="url(#paint66_linear_149_2)"/>
<path d="M200.847 388.888L200.966 388.739C201.42 388.176 201.934 387.663 202.5 387.21L201.867 387.582L202.515 387.196C203.722 386.252 205.033 385.447 206.423 384.798L207.74 384.16L212.081 381.681L212.311 381.518C213.13 380.627 227.617 364.9 228.347 363.55C229.62 357.671 228.637 349.062 228.637 349.062L240.6 348.075C240.6 348.075 238.903 358.74 240.6 366.756C241.361 367.634 242.027 368.589 242.588 369.606L242.737 369.918L242.551 369.969L242.7 370.007C244.404 370.697 245.432 375.855 245.677 377.495C245.868 378.4 245.837 379.336 245.588 380.226C245.126 381.577 243.883 382.453 242.67 383.084C240.191 384.405 237.503 385.229 234.965 386.416C230.29 388.643 225.689 391.567 220.761 393.378C215.312 395.382 209.483 395.412 203.817 396.295C202.328 396.532 199.954 396.428 199.224 394.736C198.494 393.044 199.857 390.172 200.847 388.888Z" fill="url(#paint67_linear_149_2)"/>
<path d="M199.032 394.054C199.06 394.291 199.12 394.523 199.211 394.744C199.709 395.909 200.99 396.317 202.188 396.384C202.718 396.415 203.25 396.388 203.774 396.302C206.603 395.864 209.476 395.634 212.328 395.263C213.392 395.122 214.457 394.966 215.514 394.773L216.638 394.543C217.315 394.395 217.993 394.239 218.655 394.046C219.005 393.95 219.348 393.846 219.69 393.734C220.033 393.623 220.375 393.512 220.718 393.386C221.953 392.933 223.159 392.406 224.358 391.842C225.847 391.1 227.336 390.357 228.825 389.615C230.872 388.524 232.904 387.389 234.951 386.461C235.584 386.164 236.224 385.889 236.872 385.622L238.822 384.843C240.131 384.343 241.411 383.771 242.656 383.129C243.443 382.743 244.158 382.226 244.771 381.6C244.888 381.473 244.997 381.339 245.098 381.199C245.302 380.915 245.463 380.602 245.575 380.271C245.684 379.945 245.749 379.605 245.768 379.262C245.768 379.15 245.768 379.039 245.768 378.92C245.762 378.458 245.722 377.997 245.649 377.54C245.575 377.028 245.418 376.174 245.187 375.217C245.143 375.024 245.098 374.831 245.046 374.63C244.952 374.264 244.847 373.901 244.733 373.539C244.651 373.265 244.562 373.005 244.465 372.745C244.369 372.486 244.205 372.07 244.063 371.766C243.981 371.595 243.9 371.432 243.818 371.283C243.311 370.378 242.589 369.636 242.024 368.782C241.715 368.416 241.438 368.023 241.197 367.609C236.82 371.795 228.095 372.805 224.008 368.404C219.541 373.599 212.945 380.85 212.298 381.563C212.26 381.579 212.225 381.602 212.194 381.629L212.067 381.718L207.727 384.197L206.409 384.836L205.471 385.318L205.308 385.407C205.002 385.57 204.69 385.741 204.392 385.927C203.731 386.316 203.099 386.752 202.501 387.233L201.853 387.619L202.486 387.248C202.278 387.418 202.069 387.604 201.868 387.789L201.623 388.027L201.421 388.235C201.258 388.413 201.101 388.591 200.952 388.777L200.833 388.925L200.64 389.185C200.551 389.311 200.454 389.459 200.364 389.608C200.038 390.136 199.759 390.693 199.531 391.27C199.471 391.404 199.426 391.538 199.374 391.679C199.285 391.946 199.203 392.22 199.136 392.495C199.077 392.762 199.035 393.032 199.01 393.304C198.987 393.551 198.987 393.799 199.01 394.046C199.01 394.046 199.024 394.046 199.032 394.054ZM212.074 381.689C211.096 382.405 210.054 383.031 208.963 383.559L208.873 383.604L207.816 384.123L212.074 381.689Z" fill="url(#paint68_linear_149_2)"/>
<path d="M220.881 270.546C220.881 270.546 217.755 270.62 218.521 279.348C219.288 288.076 227.931 358.592 227.931 358.592L241.555 359.037C241.555 359.037 248.999 306.728 237.832 277.137C237.862 277.137 231.795 263.941 220.881 270.546Z" fill="url(#paint69_linear_149_2)"/>
<path d="M374.244 388.888L374.125 388.739C373.667 388.179 373.153 387.667 372.591 387.21L373.217 387.582L372.576 387.196C371.369 386.252 370.058 385.447 368.668 384.798L367.35 384.16L363.01 381.681L362.779 381.518C361.961 380.627 347.474 364.9 346.737 363.55C345.471 357.671 346.454 349.062 346.454 349.062L334.491 348.075C334.491 348.075 336.188 358.74 334.491 366.756C333.73 367.634 333.063 368.589 332.503 369.606C332.458 369.702 332.399 369.814 332.347 369.918L332.54 369.969L332.391 370.007C330.686 370.697 329.652 375.855 329.413 377.495C329.223 378.4 329.253 379.336 329.503 380.226C329.964 381.577 331.2 382.453 332.421 383.084C334.9 384.405 337.588 385.229 340.126 386.416C344.801 388.643 349.402 391.567 354.33 393.378C359.779 395.382 365.608 395.412 371.274 396.295C372.762 396.532 375.137 396.428 375.867 394.736C376.596 393.044 375.227 390.172 374.244 388.888Z" fill="url(#paint70_linear_149_2)"/>
<path d="M329.51 376.961C329.544 376.579 329.603 376.199 329.689 375.825C329.594 376.198 329.534 376.578 329.51 376.961Z" fill="#FFCE8A"/>
<path d="M354.509 384.086C354.33 384.022 354.152 383.947 353.973 383.863L354.509 384.086Z" fill="#FFCE8A"/>
<path d="M361.022 383.114C361.127 383.039 361.223 382.958 361.32 382.876C361.246 382.958 361.149 383.039 361.022 383.114Z" fill="#FFCE8A"/>
<path d="M376.059 394.031C376.082 393.784 376.082 393.536 376.059 393.289C376.034 393.017 375.992 392.747 375.933 392.48C375.866 392.205 375.784 391.931 375.694 391.664L375.538 391.255C375.31 390.678 375.031 390.121 374.704 389.593C374.608 389.444 374.518 389.296 374.429 389.17L374.243 388.91L374.124 388.762C373.975 388.576 373.811 388.398 373.655 388.22L373.446 388.012L373.208 387.775C373.007 387.589 372.799 387.403 372.59 387.233L373.215 387.604L372.575 387.218C371.978 386.737 371.346 386.301 370.684 385.912C370.379 385.726 370.074 385.555 369.761 385.392L369.605 385.303L368.667 384.821L367.349 384.182L363.009 381.703L362.883 381.614C362.851 381.587 362.816 381.564 362.778 381.548C362.123 380.805 355.527 373.614 351.061 368.389C346.981 372.76 338.249 371.78 333.872 367.594C333.633 368.01 333.357 368.403 333.045 368.767C332.487 369.621 331.765 370.363 331.259 371.268C331.177 371.417 331.095 371.58 331.013 371.751C330.871 372.055 330.737 372.389 330.611 372.73C330.484 373.072 330.425 373.25 330.343 373.525C330.261 373.799 330.127 374.267 330.03 374.616C329.978 374.816 329.933 375.009 329.881 375.202C329.658 376.159 329.502 377.013 329.427 377.525C329.347 377.981 329.307 378.443 329.308 378.905C329.308 379.024 329.308 379.136 329.308 379.247C329.333 379.59 329.401 379.929 329.509 380.256C329.621 380.587 329.782 380.9 329.986 381.184C330.087 381.324 330.196 381.458 330.313 381.585C330.924 382.212 331.639 382.73 332.427 383.114C333.67 383.754 334.948 384.327 336.254 384.828C336.909 385.088 337.557 385.34 338.204 385.607C338.852 385.875 339.5 386.149 340.132 386.446C342.18 387.403 344.204 388.509 346.259 389.6C347.748 390.387 349.237 391.159 350.726 391.827C351.917 392.391 353.13 392.918 354.366 393.371C354.701 393.497 355.044 393.608 355.386 393.719L356.421 394.031C357.091 394.224 357.768 394.38 358.446 394.528L359.57 394.759C360.627 394.951 361.691 395.107 362.756 395.248C365.607 395.619 368.481 395.85 371.31 396.287C371.831 396.372 372.36 396.4 372.888 396.369C374.124 396.302 375.404 395.894 375.866 394.729C375.956 394.508 376.017 394.276 376.044 394.039L376.059 394.031ZM367.275 384.123L366.218 383.603L366.128 383.559C365.033 383.032 363.989 382.406 363.009 381.689L367.275 384.123Z" fill="url(#paint71_linear_149_2)"/>
<path d="M354.203 270.546C354.203 270.546 357.337 270.62 356.57 279.348C355.804 288.076 347.161 358.592 347.161 358.592L333.537 359.037C333.537 359.037 326.093 306.728 337.26 277.137C337.2 277.137 343.29 263.941 354.203 270.546Z" fill="url(#paint72_linear_149_2)"/>
<path d="M285.462 218.593C285.931 217.272 285.038 216.426 285.179 215.12C285.284 214.17 285.998 213.576 286.594 212.893C287.539 211.854 286.862 211.037 286.594 209.805C286.527 209.531 288.187 208.009 288.381 207.787C289.085 207.16 289.737 206.477 290.331 205.746C291.031 204.655 290.286 203.786 289.527 203.044L280.37 206.132C280.891 205.078 281.859 203.007 282.604 201.389C283.601 199.103 281.048 198.814 281.048 198.814C280.56 200.321 279.718 201.69 278.591 202.807L275.613 205.271L270.916 209.13L265.735 211.846C265.735 211.846 236.188 210.08 230.649 214.021C228.296 215.698 225.17 218.689 224.753 221.821C223.956 227.759 230.195 230.357 234.751 230.898C240.967 231.641 246.401 228.375 252.111 226.371C254.449 225.555 256.791 224.763 259.139 223.996C261.268 223.306 263.97 221.948 266.189 221.859L283.155 221.198C284.241 221.072 285.09 219.58 285.462 218.593Z" fill="url(#paint73_linear_149_2)"/>
<path d="M288.386 218.593C287.925 217.272 288.811 216.426 288.669 215.12C288.565 214.17 287.85 213.576 287.255 212.893C286.317 211.854 286.987 211.037 287.255 209.805C287.322 209.531 285.662 208.009 285.468 207.787C284.766 207.158 284.114 206.476 283.518 205.746C282.818 204.655 283.562 203.786 284.322 203.044L293.478 206.132C292.957 205.078 291.99 203.007 291.245 201.389C290.248 199.103 292.801 198.814 292.801 198.814C293.289 200.321 294.131 201.69 295.258 202.807L298.235 205.271L302.925 209.13L308.137 211.817C308.137 211.817 337.676 210.05 343.215 213.991C345.567 215.669 348.694 218.66 349.111 221.792C349.907 227.729 343.669 230.327 339.113 230.869C332.904 231.611 327.462 228.345 321.752 226.341C319.415 225.525 317.072 224.733 314.725 223.966C312.596 223.276 309.901 221.918 307.675 221.829L290.709 221.168C289.615 221.072 288.736 219.58 288.386 218.593Z" fill="url(#paint74_linear_149_2)"/>
<path d="M436.404 395.389L436.448 396.458H430.493L421.991 242.796H430.374L436.404 395.389Z" fill="#2B2844"/>
<path d="M185.236 242.796H193.611L185.117 396.458H179.161L185.236 242.796Z" fill="url(#paint75_linear_149_2)"/>
<path d="M175.261 246.581L440.343 246.581V229.273L175.261 229.273V246.581Z" fill="url(#paint76_linear_149_2)"/>
<path d="M299.158 135.839L297.863 152.167C297.863 152.167 292.079 161.719 276.125 152.167L274.636 140.248L299.158 135.839Z" fill="url(#paint77_linear_149_2)"/>
<path d="M302.45 116.913L296.747 139.424L296.695 139.75C296.423 141.681 295.434 143.439 293.926 144.678C284.412 152.33 274.071 150.482 271.592 145.925C268.875 140.997 272.783 110.026 272.783 110.026L302.45 116.913Z" fill="url(#paint78_linear_149_2)"/>
<path d="M277.302 124.528L277.056 134.503L273.2 134.407C273.011 134.403 272.826 134.349 272.664 134.251C272.502 134.153 272.368 134.015 272.277 133.849C272.186 133.684 272.14 133.497 272.144 133.309C272.148 133.12 272.201 132.935 272.299 132.774L277.302 124.528Z" fill="url(#paint79_linear_149_2)"/>
<path d="M289.392 117.789C289.751 117.703 290.124 117.693 290.486 117.761C290.849 117.829 291.193 117.973 291.496 118.183C291.798 118.394 292.053 118.666 292.242 118.982C292.431 119.298 292.551 119.65 292.593 120.016C292.833 121.917 293.308 123.782 294.008 125.567C295.199 128.677 295.698 132.722 295.899 135.735C295.908 135.897 295.975 136.051 296.087 136.169C296.199 136.287 296.349 136.362 296.51 136.38C296.672 136.399 296.835 136.36 296.971 136.271C297.107 136.181 297.207 136.047 297.253 135.891L299.323 128.907L298.281 146.838C303.755 139.389 308.172 131.222 311.405 122.569C313.4 117.373 313.869 110.226 307.854 107.629C306.447 107.02 303.462 106.144 303.462 106.144C303.462 106.144 302.971 105.454 302.718 105.172C301.735 104.051 301.973 100.437 295.43 100.837C277.503 101.928 285.662 93.052 279.119 93.5344C257.761 95.1301 271.816 116.646 271.816 116.646L272.858 112.119C272.858 112.119 280.757 120.097 289.392 117.789Z" fill="url(#paint80_linear_149_2)"/>
<path d="M303.381 129.167C305.167 132.136 302.867 137.999 296.748 139.424L298.326 129.033C299.145 127.623 302.212 127.207 303.381 129.167Z" fill="url(#paint81_linear_149_2)"/>
<path d="M248.701 229.295H323.086V187.577H248.701V229.295Z" fill="url(#paint82_linear_149_2)"/>
<path d="M310.4 37.7218C310.772 38.3081 311.144 38.8945 311.517 39.4882C312.723 41.455 313.914 43.4367 315.149 45.3886C315.514 45.8712 315.912 46.3276 316.341 46.7542C316.43 46.8625 316.487 46.9937 316.504 47.1327C316.504 47.5335 316.504 47.9417 316.504 48.3722L319.899 48.773C320.532 48.8472 321.165 48.9066 321.79 48.9956C322.487 49.0899 323.128 49.427 323.599 49.9473C324.071 50.4676 324.342 51.1375 324.366 51.8382C324.366 55.1632 324.366 58.5179 324.366 61.8132C324.37 61.8477 324.37 61.8826 324.366 61.9171H318.291V54.7031L315.693 54.3988C314.8 54.2948 313.891 54.2206 313.005 54.0796C312.44 54.0027 311.908 53.7653 311.474 53.3955C311.039 53.0257 310.721 52.5392 310.556 51.9941L310.407 51.571L310.4 37.7218Z" fill="white"/>
<path d="M349.521 37.8184V50.8734C349.552 51.2743 349.503 51.6773 349.377 52.059C349.25 52.4408 349.049 52.7936 348.784 53.0969C348.519 53.4002 348.197 53.6479 347.835 53.8255C347.473 54.0032 347.079 54.1072 346.677 54.1316C345.061 54.3469 343.439 54.5176 341.823 54.7106L341.644 54.7477V61.9172H335.533V52.2688C335.5 51.8456 335.555 51.4203 335.694 51.0194C335.834 50.6185 336.055 50.2505 336.343 49.9385C336.632 49.6265 336.982 49.3771 337.371 49.206C337.761 49.0348 338.182 48.9455 338.607 48.9437H338.838L343.401 48.4094C343.401 47.9937 343.401 47.5781 343.401 47.1625C343.428 47.0124 343.498 46.8733 343.602 46.7617C344.001 46.3748 344.369 45.958 344.704 45.5148C346.193 43.0953 347.682 40.6535 349.171 38.2191C349.253 38.0856 349.335 37.9594 349.409 37.8258L349.521 37.8184Z" fill="white"/>
<path d="M319.4 40.75L324.217 38.8352C324.581 38.6867 324.961 38.5309 325.318 38.4047C325.901 38.1818 326.549 38.1952 327.122 38.4421C327.695 38.689 328.149 39.1498 328.385 39.7258C328.508 40.0135 328.572 40.3226 328.574 40.6352C328.575 40.9478 328.514 41.2575 328.394 41.5464C328.274 41.8352 328.098 42.0973 327.875 42.3174C327.653 42.5375 327.388 42.7111 327.098 42.8282C325.207 43.6149 323.301 44.3571 321.395 45.1141C320.725 45.3813 320.055 45.6559 319.378 45.9157C318.831 46.1621 318.211 46.1943 317.641 46.0059C317.072 45.8175 316.594 45.4223 316.303 44.8989C314.68 42.2567 313.062 39.6145 311.449 36.9723C311.262 36.7036 311.133 36.3997 311.068 36.0793C311.004 35.7588 311.005 35.4286 311.073 35.1088C311.142 34.7891 311.275 34.4866 311.464 34.2199C311.654 33.9533 311.896 33.7282 312.176 33.5584C312.457 33.3885 312.769 33.2776 313.093 33.2325C313.418 33.1873 313.749 33.2088 314.065 33.2957C314.381 33.3826 314.676 33.533 314.931 33.7377C315.187 33.9424 315.398 34.197 315.551 34.486C316.787 36.4825 318.008 38.4938 319.273 40.4903L319.4 40.75Z" fill="white"/>
<path d="M333.99 47.1848C333.367 47.2076 332.758 46.9883 332.293 46.5731C331.828 46.1578 331.542 45.579 331.497 44.9582C331.45 44.3637 331.629 43.7733 331.998 43.3044C332.368 42.8355 332.901 42.5224 333.492 42.4273C335.477 42.1305 337.462 41.8509 339.447 41.5887C339.625 41.5785 339.798 41.5225 339.948 41.4263C340.098 41.3301 340.22 41.1968 340.303 41.0395C341.643 38.8129 342.998 36.5863 344.361 34.4043C344.575 34.0097 344.901 33.6866 345.298 33.4755C345.695 33.2643 346.146 33.1743 346.594 33.2168C347.02 33.2267 347.434 33.3577 347.787 33.5944C348.141 33.8311 348.419 34.1636 348.589 34.5527C348.779 34.9364 348.863 35.3637 348.832 35.7905C348.8 36.2173 348.655 36.6279 348.41 36.9797L344.487 43.3773L343.549 44.8988C343.362 45.2254 343.099 45.5031 342.784 45.7095C342.468 45.9158 342.108 46.045 341.733 46.0863L334.326 47.1402L333.99 47.1848Z" fill="white"/>
<path d="M329.614 23.5312H333.85C334.053 23.5012 334.259 23.5188 334.454 23.5828C334.648 23.6468 334.825 23.7552 334.969 23.8996C335.114 24.0439 335.223 24.22 335.287 24.4138C335.351 24.6076 335.369 24.8137 335.339 25.0156V29.7359C335.369 29.9378 335.351 30.1439 335.287 30.3377C335.223 30.5315 335.114 30.7076 334.969 30.8519C334.825 30.9962 334.648 31.1047 334.454 31.1687C334.259 31.2327 334.053 31.2503 333.85 31.2203C331.781 31.2203 329.704 31.2203 327.627 31.2203C327.392 31.2093 327.158 31.2458 326.938 31.3274C326.718 31.409 326.516 31.5342 326.346 31.6953C325.818 32.1851 325.267 32.6601 324.701 33.1203C324.625 33.1845 324.535 33.2312 324.438 33.2568C324.342 33.2825 324.241 33.2865 324.143 33.2687C324.063 33.2076 323.998 33.1289 323.954 33.0387C323.911 32.9485 323.888 32.8494 323.889 32.7492C323.889 30.1367 323.889 27.5168 323.889 24.9043C323.872 24.7176 323.896 24.5293 323.96 24.3532C324.025 24.177 324.128 24.0174 324.262 23.8859C324.396 23.7544 324.557 23.6543 324.735 23.593C324.913 23.5316 325.102 23.5105 325.289 23.5312C326.711 23.5312 328.163 23.5312 329.614 23.5312ZM329.666 25.5722H326.912C326.428 25.5722 326.167 25.8172 326.167 26.2031C326.167 26.589 326.465 26.8414 326.957 26.8488H332.458C332.949 26.8488 333.202 26.5964 333.202 26.1882C333.202 25.78 332.927 25.5797 332.458 25.5797C331.498 25.5945 330.582 25.6019 329.666 25.6019V25.5722ZM328.177 29.157H329.584C329.67 29.163 329.757 29.1517 329.838 29.1238C329.919 29.0958 329.994 29.0517 330.058 28.9942C330.122 28.9367 330.174 28.8669 330.21 28.789C330.246 28.7112 330.266 28.6268 330.269 28.541C330.272 28.4547 330.258 28.3687 330.226 28.2884C330.194 28.2081 330.146 28.1353 330.084 28.0746C330.022 28.0139 329.949 27.9666 329.868 27.9358C329.787 27.9049 329.701 27.8911 329.614 27.8953C328.676 27.8953 327.738 27.8953 326.793 27.8953C326.707 27.8931 326.621 27.9087 326.542 27.9409C326.462 27.9732 326.39 28.0215 326.33 28.0828C326.27 28.1441 326.223 28.217 326.193 28.2972C326.162 28.3773 326.148 28.4628 326.153 28.5484C326.156 28.6343 326.177 28.7185 326.214 28.796C326.252 28.8736 326.304 28.9428 326.369 28.9996C326.433 29.0565 326.509 29.0997 326.591 29.1267C326.672 29.1538 326.759 29.1641 326.845 29.157H328.177Z" fill="white"/>
<path d="M344.593 31.2574C343.828 31.2588 343.08 31.034 342.443 30.6113C341.807 30.1886 341.311 29.5871 341.017 28.8829C340.724 28.1788 340.647 27.4037 340.796 26.6558C340.944 25.9079 341.313 25.2208 341.853 24.6817C342.394 24.1425 343.083 23.7755 343.833 23.6271C344.584 23.4787 345.361 23.5556 346.067 23.8481C346.774 24.1406 347.377 24.6354 347.801 25.27C348.225 25.9046 348.45 26.6504 348.449 27.4128C348.45 27.918 348.351 28.4184 348.157 28.8852C347.964 29.3521 347.68 29.7763 347.322 30.1335C346.963 30.4907 346.538 30.7738 346.07 30.9667C345.601 31.1596 345.1 31.2583 344.593 31.2574Z" fill="white"/>
<path d="M315.313 31.2574C314.318 31.2139 313.379 30.7894 312.691 30.0725C312.003 29.3556 311.619 28.4015 311.619 27.4092C311.619 26.4169 312.003 25.4628 312.691 24.7459C313.379 24.029 314.318 23.6045 315.313 23.561C315.834 23.5381 316.354 23.6208 316.843 23.8039C317.331 23.987 317.777 24.2667 318.154 24.6263C318.531 24.9859 318.831 25.4179 319.035 25.8962C319.24 26.3744 319.346 26.8891 319.346 27.4092C319.346 27.9293 319.24 28.444 319.035 28.9223C318.831 29.4005 318.531 29.8325 318.154 30.1921C317.777 30.5517 317.331 30.8314 316.843 31.0145C316.354 31.1976 315.834 31.2803 315.313 31.2574Z" fill="white"/>
<path d="M434.327 73.2578V70.0145H431.074C431.072 68.7258 430.558 67.4904 429.644 66.5792C428.73 65.6679 427.49 65.1551 426.198 65.1531V61.9098H422.952V65.1531H419.699V61.9098H416.446V65.1531H413.2V61.9098H409.947V65.1531H406.693V61.9098H403.455V65.1531C402.162 65.1551 400.923 65.6679 400.009 66.5792C399.095 67.4904 398.581 68.7258 398.579 70.0145H395.326V73.2578H398.579V76.4938H395.326V79.7371H398.579V82.9805H395.326V86.2165H398.579V89.4598H395.326V92.7032H398.579V97.5645H403.455V100.8H406.701V97.5645H409.954V100.8H413.207V97.5645H416.453V100.8H419.706V97.5645H422.959V100.8H426.205V97.5645H431.081V92.7032H434.335V89.4598H431.081V86.2165H434.335V82.9805H431.081V79.7371H434.335V76.4938H431.081V73.2578H434.327ZM413.609 87.8418H408.033L407.661 89.4598H404.319L407.475 75.9075C407.658 75.1503 408.094 74.4779 408.712 74.0013C409.329 73.5247 410.092 73.2725 410.873 73.2864C411.654 73.3002 412.407 73.5792 413.007 74.0774C413.608 74.5756 414.02 75.263 414.175 76.0262L417.302 89.4598H413.967L413.587 87.8344L413.609 87.8418ZM419.699 73.2578H422.952V89.4598H419.699V73.2578ZM411.004 76.6422L412.857 84.5985H408.785L410.639 76.6422C410.647 76.6009 410.67 76.5637 410.702 76.5368C410.735 76.5098 410.775 76.4946 410.818 76.4938C410.861 76.4943 410.903 76.5091 410.936 76.536C410.97 76.5629 410.994 76.6003 411.004 76.6422Z" fill="white"/>
<path d="M17.9952 18.0207C17.2302 18.0207 16.596 17.7891 16.0926 17.3261C15.6094 16.8429 15.3678 16.2489 15.3678 15.5443C15.3678 14.8396 15.6094 14.2557 16.0926 13.7927C16.596 13.3095 17.2302 13.0679 17.9952 13.0679C18.7402 13.0679 19.3542 13.3095 19.8374 13.7927C20.3206 14.2557 20.5622 14.8396 20.5622 15.5443C20.5622 16.2489 20.3206 16.8429 19.8374 17.3261C19.3542 17.7891 18.7402 18.0207 17.9952 18.0207ZM25.6056 20.3763V24.0607H10.2036V20.3763H25.6056ZM17.9952 31.3389C17.2302 31.3389 16.596 31.1073 16.0926 30.6443C15.6094 30.1611 15.3678 29.5671 15.3678 28.8625C15.3678 28.1578 15.6094 27.5739 16.0926 27.1109C16.596 26.6277 17.2302 26.3861 17.9952 26.3861C18.7402 26.3861 19.3542 26.6277 19.8374 27.1109C20.3206 27.5739 20.5622 28.1578 20.5622 28.8625C20.5622 29.5671 20.3206 30.1611 19.8374 30.6443C19.3542 31.1073 18.7402 31.3389 17.9952 31.3389Z" fill="white"/>
<path d="M65.1974 55.5631L61.2155 51.4737L57.0055 55.5482L54.2245 52.6921L58.4345 48.6176L54.4526 44.5282L57.1001 41.9659L61.082 46.0553L65.292 41.9808L68.073 44.8369L63.863 48.9114L67.8449 53.0008L65.1974 55.5631Z" fill="white"/>
<defs>
<linearGradient id="paint0_linear_149_2" x1="385.179" y1="81.4367" x2="444.467" y2="81.4367" gradientUnits="userSpaceOnUse">
<stop stop-color="#A1A2FE"/>
<stop offset="1" stop-color="#625CF9"/>
</linearGradient>
<linearGradient id="paint1_linear_149_2" x1="58.5918" y1="69.48" x2="68.7237" y2="69.48" gradientUnits="userSpaceOnUse">
<stop stop-color="#A1A2FE"/>
<stop offset="1" stop-color="#C8CAFF"/>
</linearGradient>
<linearGradient id="paint2_linear_149_2" x1="41.582" y1="10.0457" x2="41.582" y2="63.164" gradientUnits="userSpaceOnUse">
<stop stop-color="#A1A2FE"/>
<stop offset="1" stop-color="#625CF9"/>
</linearGradient>
<linearGradient id="paint3_linear_149_2" x1="371.935" y1="-36.0516" x2="290.72" y2="115.746" gradientUnits="userSpaceOnUse">
<stop stop-color="white"/>
<stop offset="0.04" stop-color="#F4F3FF"/>
<stop offset="0.2" stop-color="#C8C6FD"/>
<stop offset="0.37" stop-color="#A39FFB"/>
<stop offset="0.53" stop-color="#8782FA"/>
<stop offset="0.69" stop-color="#726DFA"/>
<stop offset="0.85" stop-color="#6660F9"/>
<stop offset="1" stop-color="#625CF9"/>
</linearGradient>
<linearGradient id="paint4_linear_149_2" x1="172.157" y1="351.348" x2="120.772" y2="381.104" gradientUnits="userSpaceOnUse">
<stop stop-color="#F4F3F1"/>
<stop offset="1" stop-color="#FFB5B2"/>
</linearGradient>
<linearGradient id="paint5_linear_149_2" x1="134.444" y1="396.05" x2="169.378" y2="361.009" gradientUnits="userSpaceOnUse">
<stop stop-color="#090786"/>
<stop offset="0.15" stop-color="#07066B"/>
<stop offset="0.32" stop-color="#050655"/>
<stop offset="0.51" stop-color="#030545"/>
<stop offset="0.72" stop-color="#02053B"/>
<stop offset="1" stop-color="#020538"/>
</linearGradient>
<linearGradient id="paint6_linear_149_2" x1="137.08" y1="254.04" x2="125.676" y2="364.195" gradientUnits="userSpaceOnUse">
<stop stop-color="#090786"/>
<stop offset="0.09" stop-color="#110E77"/>
<stop offset="0.28" stop-color="#1C1A61"/>
<stop offset="0.48" stop-color="#252251"/>
<stop offset="0.7" stop-color="#292647"/>
<stop offset="1" stop-color="#2B2844"/>
</linearGradient>
<linearGradient id="paint7_linear_149_2" x1="171.525" y1="248.644" x2="111.799" y2="196.385" gradientUnits="userSpaceOnUse">
<stop stop-color="#090786"/>
<stop offset="0.12" stop-color="#0D0B7F"/>
<stop offset="0.3" stop-color="#17156B"/>
<stop offset="0.51" stop-color="#28254B"/>
<stop offset="0.54" stop-color="#2B2844"/>
</linearGradient>
<linearGradient id="paint8_linear_149_2" x1="168.29" y1="120.108" x2="122.505" y2="72.3714" gradientUnits="userSpaceOnUse">
<stop stop-color="#625CF9"/>
<stop offset="1" stop-color="#6E23ED"/>
</linearGradient>
<linearGradient id="paint9_linear_149_2" x1="192.54" y1="78.2156" x2="193.324" y2="19.3601" gradientUnits="userSpaceOnUse">
<stop stop-color="#F4F3F1"/>
<stop offset="1" stop-color="#FFB5B2"/>
</linearGradient>
<linearGradient id="paint10_linear_149_2" x1="173.847" y1="102.545" x2="196.227" y2="75.6773" gradientUnits="userSpaceOnUse">
<stop stop-color="#625CF9"/>
<stop offset="1" stop-color="#6E23ED"/>
</linearGradient>
<linearGradient id="paint11_linear_149_2" x1="128.6" y1="360.024" x2="80.3065" y2="387.991" gradientUnits="userSpaceOnUse">
<stop stop-color="#F4F3F1"/>
<stop offset="1" stop-color="#FFB5B2"/>
</linearGradient>
<linearGradient id="paint12_linear_149_2" x1="94.034" y1="401.542" x2="125.525" y2="369.956" gradientUnits="userSpaceOnUse">
<stop stop-color="#090786"/>
<stop offset="0.15" stop-color="#07066B"/>
<stop offset="0.32" stop-color="#050655"/>
<stop offset="0.51" stop-color="#030545"/>
<stop offset="0.72" stop-color="#02053B"/>
<stop offset="1" stop-color="#020538"/>
</linearGradient>
<linearGradient id="paint13_linear_149_2" x1="103.392" y1="271.244" x2="92.3141" y2="362.437" gradientUnits="userSpaceOnUse">
<stop stop-color="#090786"/>
<stop offset="0.09" stop-color="#110E77"/>
<stop offset="0.28" stop-color="#1C1A61"/>
<stop offset="0.48" stop-color="#252251"/>
<stop offset="0.7" stop-color="#292647"/>
<stop offset="1" stop-color="#2B2844"/>
</linearGradient>
<linearGradient id="paint14_linear_149_2" x1="104.51" y1="271.437" x2="104.51" y2="161.942" gradientUnits="userSpaceOnUse">
<stop stop-color="#090786"/>
<stop offset="0.09" stop-color="#110E77"/>
<stop offset="0.28" stop-color="#1C1A61"/>
<stop offset="0.48" stop-color="#252251"/>
<stop offset="0.7" stop-color="#292647"/>
<stop offset="1" stop-color="#2B2844"/>
</linearGradient>
<linearGradient id="paint15_linear_149_2" x1="58.9613" y1="174.498" x2="153.847" y2="114.3" gradientUnits="userSpaceOnUse">
<stop stop-color="#625CF9"/>
<stop offset="1" stop-color="#6E23ED"/>
</linearGradient>
<linearGradient id="paint16_linear_149_2" x1="105.581" y1="199.014" x2="116.008" y2="116.646" gradientUnits="userSpaceOnUse">
<stop stop-color="#1C5896"/>
<stop offset="1" stop-color="#6E23ED"/>
</linearGradient>
<linearGradient id="paint17_linear_149_2" x1="113.446" y1="84.0765" x2="114.357" y2="97.1245" gradientUnits="userSpaceOnUse">
<stop stop-color="#F4F3F1"/>
<stop offset="1" stop-color="#FFB5B2"/>
</linearGradient>
<linearGradient id="paint18_linear_149_2" x1="119.208" y1="104.377" x2="116.691" y2="89.559" gradientUnits="userSpaceOnUse">
<stop stop-color="#090786"/>
<stop offset="0.2" stop-color="#090781"/>
<stop offset="0.45" stop-color="#070672"/>
<stop offset="0.72" stop-color="#05065A"/>
<stop offset="1" stop-color="#020538"/>
</linearGradient>
<linearGradient id="paint19_linear_149_2" x1="145.923" y1="141.647" x2="107.735" y2="127.449" gradientUnits="userSpaceOnUse">
<stop stop-color="#090786"/>
<stop offset="0.2" stop-color="#08077E"/>
<stop offset="0.5" stop-color="#060669"/>
<stop offset="0.86" stop-color="#030547"/>
<stop offset="1" stop-color="#020538"/>
</linearGradient>
<linearGradient id="paint20_linear_149_2" x1="118.603" y1="73.7823" x2="97.3425" y2="75.2751" gradientUnits="userSpaceOnUse">
<stop stop-color="#F4F3F1"/>
<stop offset="1" stop-color="#FFB5B2"/>
</linearGradient>
<linearGradient id="paint21_linear_149_2" x1="128.732" y1="46.1794" x2="91.9306" y2="54.932" gradientUnits="userSpaceOnUse">
<stop stop-color="#F4F3F1"/>
<stop offset="1" stop-color="#FFB5B2"/>
</linearGradient>
<linearGradient id="paint22_linear_149_2" x1="122.197" y1="65.0121" x2="103.778" y2="5.82796" gradientUnits="userSpaceOnUse">
<stop offset="0.3" stop-color="#4E1F10"/>
<stop offset="0.63" stop-color="#794419"/>
<stop offset="0.79" stop-color="#8A521C"/>
</linearGradient>
<linearGradient id="paint23_linear_149_2" x1="95.0339" y1="50.0545" x2="87.9378" y2="51.7422" gradientUnits="userSpaceOnUse">
<stop stop-color="#F4F3F1"/>
<stop offset="1" stop-color="#FFB5B2"/>
</linearGradient>
<linearGradient id="paint24_linear_149_2" x1="120.436" y1="92.1018" x2="119.343" y2="76.993" gradientUnits="userSpaceOnUse">
<stop stop-color="#EBE6FF"/>
<stop offset="0.37" stop-color="#C9CBF8"/>
<stop offset="0.77" stop-color="#AAB2F1"/>
<stop offset="1" stop-color="#9EA9EE"/>
</linearGradient>
<linearGradient id="paint25_linear_149_2" x1="124.902" y1="89.3677" x2="123.91" y2="75.658" gradientUnits="userSpaceOnUse">
<stop stop-color="#F9FBFC"/>
<stop offset="1" stop-color="#CDD3FF"/>
</linearGradient>
<linearGradient id="paint26_linear_149_2" x1="103.899" y1="95.5231" x2="102.082" y2="70.4133" gradientUnits="userSpaceOnUse">
<stop stop-color="#F9FBFC"/>
<stop offset="0.31" stop-color="#F0F3FD"/>
<stop offset="0.8" stop-color="#D8DDFE"/>
<stop offset="1" stop-color="#CDD3FF"/>
</linearGradient>
<linearGradient id="paint27_linear_149_2" x1="115.141" y1="92.4847" x2="114.755" y2="87.1474" gradientUnits="userSpaceOnUse">
<stop stop-color="#EBE6FF"/>
<stop offset="0.37" stop-color="#C9CBF8"/>
<stop offset="0.77" stop-color="#AAB2F1"/>
<stop offset="1" stop-color="#9EA9EE"/>
</linearGradient>
<linearGradient id="paint28_linear_149_2" x1="53.1653" y1="128.321" x2="102.315" y2="114.953" gradientUnits="userSpaceOnUse">
<stop stop-color="#625CF9"/>
<stop offset="1" stop-color="#6E23ED"/>
</linearGradient>
<linearGradient id="paint29_linear_149_2" x1="122.466" y1="155.321" x2="177.934" y2="153.335" gradientUnits="userSpaceOnUse">
<stop stop-color="#F4F3F1"/>
<stop offset="1" stop-color="#FFB5B2"/>
</linearGradient>
<linearGradient id="paint30_linear_149_2" x1="91.6371" y1="179.109" x2="118.629" y2="142.648" gradientUnits="userSpaceOnUse">
<stop stop-color="#625CF9"/>
<stop offset="1" stop-color="#6E23ED"/>
</linearGradient>
<linearGradient id="paint31_linear_149_2" x1="131.407" y1="172.83" x2="136.46" y2="151.918" gradientUnits="userSpaceOnUse">
<stop stop-color="#F9FBFC"/>
<stop offset="0.31" stop-color="#F0F3FD"/>
<stop offset="0.8" stop-color="#D8DDFE"/>
<stop offset="1" stop-color="#CDD3FF"/>
</linearGradient>
<linearGradient id="paint32_linear_149_2" x1="211.449" y1="64.9542" x2="190.812" y2="58.6827" gradientUnits="userSpaceOnUse">
<stop stop-color="#F9FBFC"/>
<stop offset="0.31" stop-color="#F0F3FD"/>
<stop offset="0.8" stop-color="#D8DDFE"/>
<stop offset="1" stop-color="#CDD3FF"/>
</linearGradient>
<linearGradient id="paint33_linear_149_2" x1="501.872" y1="160.687" x2="489.147" y2="139.189" gradientUnits="userSpaceOnUse">
<stop stop-color="#4E1F10"/>
<stop offset="1" stop-color="#8A521C"/>
</linearGradient>
<linearGradient id="paint34_linear_149_2" x1="286.778" y1="147.35" x2="286.778" y2="155.648" gradientUnits="userSpaceOnUse">
<stop stop-color="#F9FBFC"/>
<stop offset="0.3" stop-color="#F5F7FC"/>
<stop offset="0.6" stop-color="#E9ECFD"/>
<stop offset="0.91" stop-color="#D4DAFE"/>
<stop offset="1" stop-color="#CDD3FF"/>
</linearGradient>
<linearGradient id="paint35_linear_149_2" x1="426.177" y1="371.276" x2="380.632" y2="371.276" gradientUnits="userSpaceOnUse">
<stop stop-color="#F4F3F1"/>
<stop offset="1" stop-color="#FFB5B2"/>
</linearGradient>
<linearGradient id="paint36_linear_149_2" x1="426.177" y1="379.061" x2="380.632" y2="379.061" gradientUnits="userSpaceOnUse">
<stop stop-color="#1C5896"/>
<stop offset="1" stop-color="#6E23ED"/>
</linearGradient>
<linearGradient id="paint37_linear_149_2" x1="416.558" y1="246.232" x2="495.907" y2="292.182" gradientUnits="userSpaceOnUse">
<stop stop-color="#090786"/>
<stop offset="0.15" stop-color="#07066B"/>
<stop offset="0.32" stop-color="#050655"/>
<stop offset="0.51" stop-color="#030545"/>
<stop offset="0.72" stop-color="#02053B"/>
<stop offset="1" stop-color="#020538"/>
</linearGradient>
<linearGradient id="paint38_linear_149_2" x1="414.823" y1="260.63" x2="414.823" y2="351.044" gradientUnits="userSpaceOnUse">
<stop stop-color="#090786"/>
<stop offset="0.09" stop-color="#110E77"/>
<stop offset="0.28" stop-color="#1C1A61"/>
<stop offset="0.48" stop-color="#252251"/>
<stop offset="0.7" stop-color="#292647"/>
<stop offset="1" stop-color="#2B2844"/>
</linearGradient>
<linearGradient id="paint39_linear_149_2" x1="475.362" y1="363.282" x2="482.204" y2="363.282" gradientUnits="userSpaceOnUse">
<stop stop-color="#070C4B"/>
<stop offset="0.24" stop-color="#0C0F4E"/>
<stop offset="0.53" stop-color="#1B1655"/>
<stop offset="0.85" stop-color="#332262"/>
<stop offset="1" stop-color="#42296A"/>
</linearGradient>
<linearGradient id="paint40_linear_149_2" x1="526.235" y1="134.787" x2="484.355" y2="121.521" gradientUnits="userSpaceOnUse">
<stop stop-color="#4E1F10"/>
<stop offset="1" stop-color="#8A521C"/>
</linearGradient>
<linearGradient id="paint41_linear_149_2" x1="483.029" y1="177.498" x2="483.029" y2="151.009" gradientUnits="userSpaceOnUse">
<stop stop-color="#F4F3F1"/>
<stop offset="1" stop-color="#FFB5B2"/>
</linearGradient>
<linearGradient id="paint42_linear_149_2" x1="510.8" y1="120.035" x2="481.256" y2="147.163" gradientUnits="userSpaceOnUse">
<stop stop-color="#F4F3F1"/>
<stop offset="1" stop-color="#FFB5B2"/>
</linearGradient>
<linearGradient id="paint43_linear_149_2" x1="520.038" y1="126.903" x2="490.188" y2="117.449" gradientUnits="userSpaceOnUse">
<stop stop-color="#4E1F10"/>
<stop offset="1" stop-color="#8A521C"/>
</linearGradient>
<linearGradient id="paint44_linear_149_2" x1="508.017" y1="138.443" x2="515.877" y2="140.933" gradientUnits="userSpaceOnUse">
<stop stop-color="#F4F3F1"/>
<stop offset="1" stop-color="#FFB5B2"/>
</linearGradient>
<linearGradient id="paint45_linear_149_2" x1="508.188" y1="157.781" x2="496.377" y2="222.28" gradientUnits="userSpaceOnUse">
<stop stop-color="#072AC0"/>
<stop offset="0.56" stop-color="#06189E"/>
<stop offset="1" stop-color="#060D88"/>
</linearGradient>
<linearGradient id="paint46_linear_149_2" x1="438.325" y1="229.681" x2="440.715" y2="208.869" gradientUnits="userSpaceOnUse">
<stop stop-color="#F4F3F1"/>
<stop offset="1" stop-color="#FFB5B2"/>
</linearGradient>
<linearGradient id="paint47_linear_149_2" x1="395.67" y1="293.046" x2="491.166" y2="292.741" gradientUnits="userSpaceOnUse">
<stop stop-color="#090786"/>
<stop offset="0.09" stop-color="#110E77"/>
<stop offset="0.28" stop-color="#1C1A61"/>
<stop offset="0.48" stop-color="#252251"/>
<stop offset="0.7" stop-color="#292647"/>
<stop offset="1" stop-color="#2B2844"/>
</linearGradient>
<linearGradient id="paint48_linear_149_2" x1="484.973" y1="368.04" x2="453.632" y2="368.04" gradientUnits="userSpaceOnUse">
<stop stop-color="#F4F3F1"/>
<stop offset="1" stop-color="#FFB5B2"/>
</linearGradient>
<linearGradient id="paint49_linear_149_2" x1="481.819" y1="375.884" x2="455.615" y2="375.096" gradientUnits="userSpaceOnUse">
<stop stop-color="#1C5896"/>
<stop offset="1" stop-color="#6E23ED"/>
</linearGradient>
<linearGradient id="paint50_linear_149_2" x1="408.205" y1="306.944" x2="464.909" y2="306.932" gradientUnits="userSpaceOnUse">
<stop stop-color="#090786"/>
<stop offset="0.09" stop-color="#110E77"/>
<stop offset="0.28" stop-color="#1C1A61"/>
<stop offset="0.48" stop-color="#252251"/>
<stop offset="0.7" stop-color="#292647"/>
<stop offset="1" stop-color="#2B2844"/>
</linearGradient>
<linearGradient id="paint51_linear_149_2" x1="459.475" y1="214.555" x2="507.335" y2="214.555" gradientUnits="userSpaceOnUse">
<stop stop-color="#625CF9"/>
<stop offset="1" stop-color="#2B2844"/>
</linearGradient>
<linearGradient id="paint52_linear_149_2" x1="475.293" y1="174.136" x2="483.441" y2="251.93" gradientUnits="userSpaceOnUse">
<stop stop-color="#1C5896"/>
<stop offset="1" stop-color="#6E23ED"/>
</linearGradient>
<linearGradient id="paint53_linear_149_2" x1="464.766" y1="222.046" x2="470.969" y2="152.911" gradientUnits="userSpaceOnUse">
<stop stop-color="#F4F3F1"/>
<stop offset="1" stop-color="#FFB5B2"/>
</linearGradient>
<linearGradient id="paint54_linear_149_2" x1="427.014" y1="258.155" x2="454.94" y2="248.181" gradientUnits="userSpaceOnUse">
<stop stop-color="#F4F3F1"/>
<stop offset="1" stop-color="#FFB5B2"/>
</linearGradient>
<linearGradient id="paint55_linear_149_2" x1="501.804" y1="248.549" x2="460.328" y2="272.811" gradientUnits="userSpaceOnUse">
<stop stop-color="#F4F3F1"/>
<stop offset="1" stop-color="#FFB5B2"/>
</linearGradient>
<linearGradient id="paint56_linear_149_2" x1="233.305" y1="181.973" x2="257.007" y2="202.329" gradientUnits="userSpaceOnUse">
<stop offset="0.21" stop-color="#625CF9"/>
<stop offset="0.61" stop-color="#6C6CFB"/>
<stop offset="1" stop-color="#7780FE"/>
</linearGradient>
<linearGradient id="paint57_linear_149_2" x1="313.846" y1="156.279" x2="339.783" y2="230.013" gradientUnits="userSpaceOnUse">
<stop offset="0.21" stop-color="#625CF9"/>
<stop offset="0.61" stop-color="#6C6CFB"/>
<stop offset="1" stop-color="#7780FE"/>
</linearGradient>
<linearGradient id="paint58_linear_149_2" x1="356.734" y1="271.526" x2="218.357" y2="271.526" gradientUnits="userSpaceOnUse">
<stop stop-color="#090786"/>
<stop offset="0.09" stop-color="#110E77"/>
<stop offset="0.28" stop-color="#1C1A61"/>
<stop offset="0.48" stop-color="#252251"/>
<stop offset="0.7" stop-color="#292647"/>
<stop offset="1" stop-color="#2B2844"/>
</linearGradient>
<linearGradient id="paint59_linear_149_2" x1="286.928" y1="152.137" x2="286.928" y2="264.519" gradientUnits="userSpaceOnUse">
<stop offset="0.21" stop-color="#625CF9"/>
<stop offset="0.61" stop-color="#6C6CFB"/>
<stop offset="1" stop-color="#7780FE"/>
</linearGradient>
<linearGradient id="paint60_linear_149_2" x1="279.52" y1="168.599" x2="288.734" y2="147.782" gradientUnits="userSpaceOnUse">
<stop stop-color="#FFD7C1"/>
<stop offset="0.3" stop-color="#FFCBB1"/>
<stop offset="0.88" stop-color="#FFAD88"/>
<stop offset="1" stop-color="#FFA67F"/>
</linearGradient>
<linearGradient id="paint61_linear_149_2" x1="290.226" y1="168.774" x2="301.304" y2="149.372" gradientUnits="userSpaceOnUse">
<stop stop-color="#EBE6FF"/>
<stop offset="0.37" stop-color="#C9CBF8"/>
<stop offset="0.77" stop-color="#AAB2F1"/>
<stop offset="1" stop-color="#9EA9EE"/>
</linearGradient>
<linearGradient id="paint62_linear_149_2" x1="298.904" y1="147.781" x2="298.903" y2="170.872" gradientUnits="userSpaceOnUse">
<stop stop-color="#F9FBFC"/>
<stop offset="0.3" stop-color="#F5F7FC"/>
<stop offset="0.6" stop-color="#E9ECFD"/>
<stop offset="0.91" stop-color="#D4DAFE"/>
<stop offset="1" stop-color="#CDD3FF"/>
</linearGradient>
<linearGradient id="paint63_linear_149_2" x1="296.813" y1="167.906" x2="285.668" y2="148.454" gradientUnits="userSpaceOnUse">
<stop stop-color="#EBE6FF"/>
<stop offset="0.37" stop-color="#C9CBF8"/>
<stop offset="0.77" stop-color="#AAB2F1"/>
<stop offset="1" stop-color="#9EA9EE"/>
</linearGradient>
<linearGradient id="paint64_linear_149_2" x1="286.801" y1="177.609" x2="286.801" y2="166.551" gradientUnits="userSpaceOnUse">
<stop stop-color="#090786"/>
<stop offset="0.2" stop-color="#090781"/>
<stop offset="0.45" stop-color="#070672"/>
<stop offset="0.72" stop-color="#05065A"/>
<stop offset="1" stop-color="#020538"/>
</linearGradient>
<linearGradient id="paint65_linear_149_2" x1="265.845" y1="215.342" x2="301.42" y2="194.742" gradientUnits="userSpaceOnUse">
<stop stop-color="#090786"/>
<stop offset="0.2" stop-color="#08077E"/>
<stop offset="0.5" stop-color="#060669"/>
<stop offset="0.86" stop-color="#030547"/>
<stop offset="1" stop-color="#020538"/>
</linearGradient>
<linearGradient id="paint66_linear_149_2" x1="288.212" y1="146.679" x2="288.246" y2="169.86" gradientUnits="userSpaceOnUse">
<stop stop-color="#F9FBFC"/>
<stop offset="0.3" stop-color="#F5F7FC"/>
<stop offset="0.6" stop-color="#E9ECFD"/>
<stop offset="0.91" stop-color="#D4DAFE"/>
<stop offset="1" stop-color="#CDD3FF"/>
</linearGradient>
<linearGradient id="paint67_linear_149_2" x1="222.399" y1="396.399" x2="222.399" y2="348.082" gradientUnits="userSpaceOnUse">
<stop stop-color="#FFD7C1"/>
<stop offset="0.28" stop-color="#FFD5BE"/>
<stop offset="0.51" stop-color="#FFCDB4"/>
<stop offset="0.72" stop-color="#FFC0A2"/>
<stop offset="0.92" stop-color="#FFAF8B"/>
<stop offset="1" stop-color="#FFA67F"/>
</linearGradient>
<linearGradient id="paint68_linear_149_2" x1="245.79" y1="381.986" x2="199.01" y2="381.986" gradientUnits="userSpaceOnUse">
<stop stop-color="#090786"/>
<stop offset="0.15" stop-color="#07066B"/>
<stop offset="0.32" stop-color="#050655"/>
<stop offset="0.51" stop-color="#030545"/>
<stop offset="0.72" stop-color="#02053B"/>
<stop offset="1" stop-color="#020538"/>
</linearGradient>
<linearGradient id="paint69_linear_149_2" x1="231.192" y1="359.037" x2="231.192" y2="268.698" gradientUnits="userSpaceOnUse">
<stop stop-color="#090786"/>
<stop offset="0.09" stop-color="#110E77"/>
<stop offset="0.28" stop-color="#1C1A61"/>
<stop offset="0.48" stop-color="#252251"/>
<stop offset="0.7" stop-color="#292647"/>
<stop offset="1" stop-color="#2B2844"/>
</linearGradient>
<linearGradient id="paint70_linear_149_2" x1="352.7" y1="396.399" x2="352.7" y2="348.082" gradientUnits="userSpaceOnUse">
<stop stop-color="#FFD7C1"/>
<stop offset="0.28" stop-color="#FFD5BE"/>
<stop offset="0.51" stop-color="#FFCDB4"/>
<stop offset="0.72" stop-color="#FFC0A2"/>
<stop offset="0.92" stop-color="#FFAF8B"/>
<stop offset="1" stop-color="#FFA67F"/>
</linearGradient>
<linearGradient id="paint71_linear_149_2" x1="376.089" y1="381.985" x2="329.308" y2="381.985" gradientUnits="userSpaceOnUse">
<stop stop-color="#090786"/>
<stop offset="0.15" stop-color="#07066B"/>
<stop offset="0.32" stop-color="#050655"/>
<stop offset="0.51" stop-color="#030545"/>
<stop offset="0.72" stop-color="#02053B"/>
<stop offset="1" stop-color="#020538"/>
</linearGradient>
<linearGradient id="paint72_linear_149_2" x1="343.9" y1="268.698" x2="343.9" y2="359.037" gradientUnits="userSpaceOnUse">
<stop stop-color="#090786"/>
<stop offset="0.09" stop-color="#110E77"/>
<stop offset="0.28" stop-color="#1C1A61"/>
<stop offset="0.48" stop-color="#252251"/>
<stop offset="0.7" stop-color="#292647"/>
<stop offset="1" stop-color="#2B2844"/>
</linearGradient>
<linearGradient id="paint73_linear_149_2" x1="260.641" y1="207.008" x2="260.568" y2="239.058" gradientUnits="userSpaceOnUse">
<stop offset="0.21" stop-color="#623BF1"/>
<stop offset="0.44" stop-color="#674BF4"/>
<stop offset="0.9" stop-color="#7476FC"/>
<stop offset="1" stop-color="#7780FE"/>
</linearGradient>
<linearGradient id="paint74_linear_149_2" x1="316.36" y1="199.247" x2="316.361" y2="231.414" gradientUnits="userSpaceOnUse">
<stop offset="0.21" stop-color="#623BF1"/>
<stop offset="0.44" stop-color="#674BF4"/>
<stop offset="0.9" stop-color="#7476FC"/>
<stop offset="1" stop-color="#7780FE"/>
</linearGradient>
<linearGradient id="paint75_linear_149_2" x1="193.618" y1="319.627" x2="179.169" y2="319.627" gradientUnits="userSpaceOnUse">
<stop stop-color="#070C4B"/>
<stop offset="0.24" stop-color="#0C0F4E"/>
<stop offset="0.53" stop-color="#1B1655"/>
<stop offset="0.85" stop-color="#332262"/>
<stop offset="1" stop-color="#42296A"/>
</linearGradient>
<linearGradient id="paint76_linear_149_2" x1="307.809" y1="219.38" x2="307.809" y2="252.548" gradientUnits="userSpaceOnUse">
<stop stop-color="#F4F3F1"/>
<stop offset="0.74" stop-color="#9D9D9F"/>
<stop offset="1" stop-color="#7D7E81"/>
</linearGradient>
<linearGradient id="paint77_linear_149_2" x1="284.91" y1="139.906" x2="298.379" y2="160.124" gradientUnits="userSpaceOnUse">
<stop stop-color="#FFD7C1"/>
<stop offset="0.3" stop-color="#FFCBB1"/>
<stop offset="0.88" stop-color="#FFAD88"/>
<stop offset="1" stop-color="#FFA67F"/>
</linearGradient>
<linearGradient id="paint78_linear_149_2" x1="266.862" y1="122.802" x2="298.207" y2="137.343" gradientUnits="userSpaceOnUse">
<stop stop-color="#FFD7C1"/>
<stop offset="0.3" stop-color="#FFCBB1"/>
<stop offset="0.88" stop-color="#FFAD88"/>
<stop offset="1" stop-color="#FFA67F"/>
</linearGradient>
<linearGradient id="paint79_linear_149_2" x1="288.75" y1="129.492" x2="278.89" y2="125.84" gradientUnits="userSpaceOnUse">
<stop stop-color="#FFD7C1"/>
<stop offset="0.47" stop-color="#FFBFA0"/>
<stop offset="1" stop-color="#FFA67F"/>
</linearGradient>
<linearGradient id="paint80_linear_149_2" x1="281.583" y1="145.673" x2="292.175" y2="100.556" gradientUnits="userSpaceOnUse">
<stop stop-color="#4E1F10"/>
<stop offset="1" stop-color="#8A521C"/>
</linearGradient>
<linearGradient id="paint81_linear_149_2" x1="296.74" y1="132.514" x2="302.862" y2="135.354" gradientUnits="userSpaceOnUse">
<stop stop-color="#FFD7C1"/>
<stop offset="0.3" stop-color="#FFCBB1"/>
<stop offset="0.88" stop-color="#FFAD88"/>
<stop offset="1" stop-color="#FFA67F"/>
</linearGradient>
<linearGradient id="paint82_linear_149_2" x1="274.585" y1="191.562" x2="318.242" y2="257.109" gradientUnits="userSpaceOnUse">
<stop stop-color="#2B2844"/>
<stop offset="0.31" stop-color="#2E2849"/>
<stop offset="0.69" stop-color="#372958"/>
<stop offset="1" stop-color="#42296A"/>
</linearGradient>
</defs>
</svg>
