<svg width="90" height="118" viewBox="0 0 90 118" fill="none" xmlns="http://www.w3.org/2000/svg">
<path d="M21.848 82.8948C21.1902 82.7442 20.6661 82.198 20.5747 81.488C19.7053 74.6641 17.5588 68.3566 14.1979 62.7415C9.3156 54.5557 7.80689 44.9488 9.94717 35.6831C14.256 17.0285 33.0351 4.52086 51.8117 7.79903C61.817 9.5345 70.4297 15.1473 76.0361 23.6004C81.6457 32.0609 83.4865 42.175 81.218 52.0804C79.102 61.32 73.5738 69.2854 65.6524 74.5072C61.7713 77.0573 58.266 80.2061 55.2315 83.8655C53.9326 85.434 52.756 87.0338 51.7342 88.6175C51.239 89.3879 50.2166 89.6115 49.4429 89.1114C48.6752 88.6143 48.454 87.5866 48.9527 86.8153C50.0446 85.1212 51.2985 83.4159 52.6822 81.7453C55.9281 77.8297 59.6813 74.4614 63.8362 71.731C71.0364 66.9832 76.0633 59.7419 77.9874 51.3406C80.0505 42.3319 78.3766 33.1349 73.2752 25.4416C68.1771 17.7557 60.3519 12.6262 51.241 11.074C34.1682 8.09111 17.0944 19.4662 13.1764 36.4293C11.2307 44.8523 12.6033 53.5892 17.0418 61.0308C20.6396 67.0398 22.9342 73.7806 23.863 81.0626C23.9783 81.9729 23.3375 82.8065 22.4292 82.9231C22.2291 82.9488 22.0341 82.9375 21.848 82.8948Z" fill="#2B2844"/>
<path d="M50.4551 99.2638L16.9529 91.5912C16.0601 91.3867 15.5035 90.4969 15.7085 89.6017L17.8459 80.2688C18.0509 79.3737 18.9393 78.8148 19.8321 79.0192L53.3343 86.6919C54.2271 86.8964 54.7837 87.7862 54.5787 88.6814L52.4413 98.0142C52.2363 98.9094 51.3479 99.4683 50.4551 99.2638ZM19.31 88.722L49.5815 95.6548L50.9772 89.561L20.7056 82.6282L19.31 88.722Z" fill="#2B2844"/>
<path d="M48.3177 108.595L14.8156 100.922C13.9227 100.718 13.3661 99.8282 13.5711 98.933L15.7082 89.6017C15.9132 88.7065 16.8016 88.1476 17.6944 88.3521L51.1966 96.0248C52.0894 96.2292 52.646 97.1191 52.441 98.0142L50.304 107.346C50.0989 108.241 49.2106 108.8 48.3177 108.595ZM17.1727 98.0534L47.4442 104.986L48.8395 98.8939L18.5679 91.9611L17.1727 98.0534Z" fill="#2B2844"/>
<path d="M29.2018 115.056C22.649 113.556 18.5415 106.989 20.0461 100.419C20.2511 99.5239 21.1395 98.965 22.0323 99.1695C22.9252 99.374 23.4817 100.264 23.2767 101.159C22.181 105.943 25.1718 110.725 29.9436 111.817C34.7265 112.913 39.5079 109.911 40.6036 105.127C40.8086 104.232 41.697 103.673 42.5898 103.878C43.4827 104.082 44.0392 104.972 43.8342 105.867C42.3296 112.437 35.7656 116.56 29.2018 115.056Z" fill="#2B2844"/>
<path d="M43.4473 87.8315L28.5702 84.4244C27.8714 84.2643 27.3547 83.6716 27.2911 82.9562L24.0582 46.9661C23.9754 46.0517 24.6486 45.2437 25.5591 45.1609C26.4801 45.0756 27.2768 45.7507 27.3583 46.6633L30.4841 81.4537L43.017 84.324L60.9725 54.3616C61.443 53.5755 62.4564 53.3116 63.2462 53.792C64.0299 54.2628 64.2844 55.2832 63.8119 56.0705L45.2379 87.0664C44.8693 87.6828 44.1461 87.9915 43.4473 87.8315Z" fill="#2B2844"/>
<path d="M56.1221 58.3309C51.631 57.3023 48.8165 52.8027 49.8474 48.3015C50.0524 47.4064 50.9407 46.8475 51.8336 47.0519C52.7264 47.2564 53.283 48.1462 53.078 49.0414C52.4561 51.757 54.1538 54.4711 56.8639 55.0918C59.5724 55.7121 62.2821 54.0073 62.904 51.2918C63.109 50.3966 63.9974 49.8377 64.8902 50.0422C65.7831 50.2467 66.3397 51.1365 66.1347 52.0317C65.1038 56.5328 60.6115 59.359 56.1221 58.3309Z" fill="#2B2844"/>
<path d="M43.0638 55.3404C38.5744 54.3122 35.7599 49.8126 36.7907 45.3114C36.9957 44.4163 37.8841 43.8574 38.7769 44.0618C39.6698 44.2663 40.2264 45.1561 40.0214 46.0513C39.3994 48.7669 41.0971 51.481 43.8057 52.1013C46.5157 52.722 49.2255 51.0172 49.8474 48.3017C50.0524 47.4065 50.9408 46.8476 51.8336 47.0521C52.7265 47.2565 53.283 48.1464 53.078 49.0415C52.0472 53.5427 47.5549 56.3689 43.0638 55.3404Z" fill="#2B2844"/>
<path d="M30.0073 52.35C25.5163 51.3215 22.7018 46.8219 23.7326 42.3207C23.9376 41.4255 24.826 40.8666 25.7188 41.0711C26.6117 41.2756 27.1683 42.1654 26.9633 43.0606C26.3413 45.7762 28.039 48.4903 30.7491 49.111C33.4592 49.7316 36.1689 48.0269 36.7909 45.3113C36.9959 44.4161 37.8842 43.8572 38.7771 44.0617C39.6699 44.2662 40.2265 45.156 40.0215 46.0512C38.9906 50.5523 34.4984 53.3786 30.0073 52.35Z" fill="#2B2844"/>
</svg>
