<svg width="125" height="128" viewBox="0 0 125 128" fill="none" xmlns="http://www.w3.org/2000/svg">
<path fill-rule="evenodd" clip-rule="evenodd" d="M82.6639 31.6558C83.0742 31.9319 83.3967 32.3261 83.5912 32.7894C83.7858 33.2527 83.8438 33.7647 83.7581 34.2617L77.1285 72.879C77.0572 73.2992 76.8858 73.6945 76.6296 74.0295C76.3734 74.3645 76.0404 74.6287 75.6605 74.7984C75.2807 74.9681 74.8658 75.0379 74.4533 75.0017C74.0408 74.9654 73.6434 74.8242 73.297 74.5907L48.1995 57.6571C47.8532 57.4236 47.5686 57.1052 47.3713 56.7305C47.1739 56.3557 47.07 55.9364 47.0688 55.5101C47.0676 55.0838 47.1691 54.6638 47.3644 54.2879C47.5596 53.912 47.8424 53.5919 48.1873 53.3563L79.9134 31.6676C80.3209 31.3876 80.7994 31.2372 81.2892 31.2349C81.7791 31.2326 82.2588 31.3786 82.6688 31.6548L82.6639 31.6558ZM54.1142 55.4877L72.8648 68.139L77.8178 39.2827L54.1142 55.4877Z" fill="#2B2844"/>
<path fill-rule="evenodd" clip-rule="evenodd" d="M48.5785 53.1413C48.9581 52.9723 49.3725 52.9028 49.7845 52.9392C50.1966 52.9756 50.5934 53.1167 50.9395 53.3499L76.032 70.2846C76.3773 70.518 76.661 70.8359 76.8579 71.2098C77.0548 71.5838 77.1586 72.0021 77.1602 72.4275C77.1618 72.8529 77.0611 73.272 76.867 73.6475C76.673 74.023 76.3916 74.3431 76.0481 74.5793L44.3231 96.273C43.9154 96.5519 43.4373 96.7014 42.9479 96.703C42.4585 96.7046 41.9795 96.5582 41.5701 96.282C41.1608 96.0058 40.8391 95.6119 40.645 95.1492C40.4509 94.6865 40.393 94.1752 40.4783 93.6789L47.1069 55.0566C47.1791 54.6368 47.3514 54.2421 47.6082 53.9078C47.8651 53.5735 48.1985 53.3102 48.5785 53.1413ZM51.3716 59.8016L46.4137 88.659L70.1212 72.4479L51.3706 59.7966L51.3716 59.8016Z" fill="#2B2844"/>
<path fill-rule="evenodd" clip-rule="evenodd" d="M52.4148 16.0757C40.082 18.7233 29.2755 26.3088 22.3725 37.1634C15.4695 48.0181 13.0355 61.2527 15.606 73.9558C18.1765 86.6589 25.5408 97.7899 36.079 104.9C46.6172 112.01 59.4659 114.517 71.7987 111.87C84.1315 109.222 94.938 101.637 101.841 90.782C108.744 79.9274 111.178 66.6928 108.607 53.9897C106.037 41.2866 98.6726 30.1556 88.1344 23.0453C77.5963 15.9351 64.7475 13.428 52.4148 16.0757ZM10.7112 75.0066C4.794 45.7642 23.0095 17.1277 51.3945 11.0339C79.7796 4.94001 107.585 23.6964 113.502 52.9389C119.418 82.1763 101.204 110.818 72.8189 116.912C44.4339 123.005 16.6274 104.244 10.7112 75.0066Z" fill="#2B2844"/>
</svg>
