<svg width="1084" height="296" viewBox="0 0 1084 296" fill="none" xmlns="http://www.w3.org/2000/svg">
<path d="M445.667 204.5C445.667 207.446 448.054 209.833 451 209.833C453.946 209.833 456.333 207.446 456.333 204.5C456.333 201.554 453.946 199.167 451 199.167C448.054 199.167 445.667 201.554 445.667 204.5ZM526 170L525.125 169.516L526 170ZM626.167 124.5C626.167 127.446 628.554 129.833 631.5 129.833C634.446 129.833 636.833 127.446 636.833 124.5C636.833 121.554 634.446 119.167 631.5 119.167C628.554 119.167 626.167 121.554 626.167 124.5ZM450.935 205.498C451.573 205.539 452.238 205.573 452.928 205.597L452.999 203.598C452.328 203.575 451.683 203.542 451.065 203.502L450.935 205.498ZM456.919 205.64C458.193 205.624 459.525 205.58 460.907 205.505L460.799 203.508C459.444 203.581 458.14 203.624 456.894 203.64L456.919 205.64ZM464.87 205.214C466.159 205.094 467.48 204.949 468.828 204.774L468.571 202.79C467.247 202.962 465.951 203.105 464.686 203.222L464.87 205.214ZM472.768 204.189C474.055 203.975 475.361 203.733 476.68 203.462L476.278 201.503C474.984 201.768 473.703 202.006 472.439 202.217L472.768 204.189ZM480.566 202.589C481.843 202.276 483.128 201.936 484.416 201.566L483.865 199.644C482.602 200.006 481.343 200.34 480.091 200.646L480.566 202.589ZM488.223 200.389C489.477 199.973 490.731 199.528 491.982 199.051L491.27 197.182C490.047 197.648 488.82 198.084 487.593 198.491L488.223 200.389ZM495.675 197.548C496.89 197.02 498.099 196.461 499.298 195.869L498.413 194.076C497.244 194.652 496.065 195.198 494.878 195.713L495.675 197.548ZM502.835 194.009C503.994 193.36 505.139 192.678 506.269 191.962L505.197 190.273C504.1 190.969 502.986 191.632 501.858 192.263L502.835 194.009ZM509.584 189.721C510.664 188.943 511.725 188.131 512.763 187.282L511.497 185.734C510.492 186.556 509.464 187.343 508.416 188.097L509.584 189.721ZM515.781 184.647C516.753 183.74 517.701 182.797 518.62 181.816L517.161 180.448C516.273 181.396 515.357 182.307 514.417 183.184L515.781 184.647ZM521.262 178.793C522.1 177.763 522.908 176.697 523.683 175.592L522.046 174.443C521.299 175.508 520.519 176.537 519.711 177.53L521.262 178.793ZM525.869 172.229C526.213 171.657 526.549 171.075 526.875 170.484L525.125 169.516C524.81 170.086 524.486 170.648 524.155 171.2L525.869 172.229ZM526.875 170.484C527.2 169.896 527.53 169.316 527.864 168.744L526.138 167.735C525.795 168.321 525.457 168.914 525.125 169.516L526.875 170.484ZM529.953 165.364C530.686 164.243 531.438 163.154 532.21 162.097L530.594 160.918C529.802 162.003 529.03 163.12 528.279 164.27L529.953 165.364ZM534.634 158.954C535.477 157.92 536.341 156.918 537.224 155.949L535.746 154.602C534.838 155.599 533.95 156.628 533.084 157.69L534.634 158.954ZM539.976 153.092C540.924 152.16 541.893 151.26 542.882 150.392L541.562 148.89C540.546 149.782 539.55 150.707 538.574 151.665L539.976 153.092ZM545.934 147.856C546.978 147.037 548.04 146.248 549.122 145.489L547.973 143.852C546.863 144.631 545.771 145.441 544.699 146.284L545.934 147.856ZM552.432 143.294C553.554 142.591 554.694 141.917 555.851 141.27L554.875 139.524C553.689 140.187 552.521 140.878 551.37 141.599L552.432 143.294ZM559.367 139.413C560.551 138.823 561.751 138.258 562.968 137.718L562.156 135.89C560.913 136.442 559.686 137.019 558.475 137.623L559.367 139.413ZM566.641 136.179C567.872 135.693 569.117 135.229 570.377 134.787L569.714 132.9C568.431 133.35 567.162 133.823 565.906 134.319L566.641 136.179ZM574.164 133.534C575.428 133.14 576.705 132.766 577.993 132.411L577.461 130.483C576.152 130.844 574.855 131.224 573.569 131.624L574.164 133.534ZM581.859 131.407C583.146 131.093 584.445 130.796 585.754 130.514L585.333 128.559C584.007 128.844 582.691 129.146 581.385 129.464L581.859 131.407ZM589.674 129.722C590.978 129.475 592.292 129.242 593.614 129.022L593.286 127.049C591.95 127.272 590.622 127.507 589.302 127.757L589.674 129.722ZM597.571 128.406C598.886 128.215 600.21 128.035 601.541 127.866L601.288 125.882C599.946 126.052 598.611 126.234 597.283 126.427L597.571 128.406ZM605.521 127.393C606.845 127.247 608.174 127.109 609.51 126.981L609.319 124.99C607.974 125.119 606.634 125.258 605.301 125.405L605.521 127.393ZM613.506 126.622C614.835 126.511 616.169 126.407 617.508 126.31L617.363 124.315C616.018 124.413 614.676 124.517 613.34 124.629L613.506 126.622ZM621.514 126.039C622.847 125.955 624.184 125.876 625.524 125.802L625.414 123.805C624.069 123.879 622.727 123.958 621.388 124.043L621.514 126.039ZM629.537 125.594C630.206 125.561 630.876 125.53 631.546 125.499L631.454 123.501C630.782 123.532 630.11 123.564 629.44 123.596L629.537 125.594Z" fill="#818181"/>
<g filter="url(#filter0_d_242_2)">
<circle cx="80" cy="66" r="64" fill="white"/>
</g>
<path d="M59.0712 41.1365C61.8301 39.3726 65.3126 39.8249 68.4786 39.3726C69.9711 39.2369 71.4636 39.1012 72.9561 38.9655C74.0416 38.0158 75.2175 37.2016 76.5292 36.478C83.0872 32.905 91.4996 33.5382 97.4244 38.1062C100.726 40.6842 102.942 44.4381 104.344 48.3729C105.792 52.4887 106.289 56.9662 105.52 61.2629C105.113 63.66 104.254 65.9666 103.078 68.0471C104.887 78.54 107.148 88.8519 113.752 96.9025C114.204 97.4 114.159 98.3498 113.435 98.5307C106.153 99.6162 89.6452 102.194 82.3636 103.37C79.2428 103.868 75.715 104.546 72.5491 104.953C59.7496 91.1586 61.5135 66.2832 55.1363 49.0966C53.9604 46.1568 56.9455 42.9456 59.0712 41.1365ZM103.756 52.1269C102.897 48.1016 101.133 44.0763 98.329 41.046C93.5348 35.89 85.6652 34.3523 79.1524 36.8851C72.73 39.4178 68.0715 45.6593 67.167 52.4435C66.6695 56.1974 67.2122 60.0417 68.6143 63.5695C69.2927 65.3334 70.2425 66.9616 71.3732 68.4994C72.5491 70.0823 73.9059 71.4844 75.0366 73.0674C75.5794 73.8363 76.0316 74.6956 76.3935 75.5549C76.4387 75.6454 76.4387 75.6906 76.4387 75.7811C76.8457 75.8263 77.2528 75.8263 77.6146 75.8715C78.7453 75.962 79.9212 76.1429 81.0519 76.4143C82.9515 76.8213 84.8511 77.364 86.7054 77.952C87.8814 76.5047 89.7809 76.1881 91.4544 75.6454C93.2635 75.0574 94.9369 74.1981 96.4747 73.1126C99.5954 70.8965 101.902 67.64 103.168 64.0218C104.435 60.2679 104.616 56.1069 103.756 52.1269ZM57.9857 52.9862C63.006 69.4944 61.7849 89.3947 73.1371 103.325C75.6698 102.918 79.0167 102.375 81.5494 101.968C88.4241 100.883 104.706 98.2593 111.581 97.1739C105.746 89.259 103.44 79.7611 101.676 70.1276C101.133 70.8512 100.59 71.5296 99.9572 72.1628C98.6004 73.5649 96.9722 74.786 95.2535 75.7358C94.3942 76.2333 93.4444 76.6404 92.5398 76.957C91.6805 77.2736 90.7307 77.4997 89.8714 77.7711C89.3287 77.952 88.7859 78.1781 88.3336 78.54C88.4241 78.54 88.4693 78.5852 88.5598 78.5852C89.5096 78.9018 89.1025 80.3491 88.1527 80.0777C84.1274 78.7661 79.9665 77.4545 75.715 77.364C75.4437 77.364 75.1723 77.364 74.9009 77.364C74.8105 77.364 74.6748 77.364 74.5844 77.364C74.5844 77.364 74.5391 77.364 74.4939 77.4093C74.6748 77.4997 74.9009 77.6354 75.0366 77.6806C75.9412 78.0877 76.891 78.3591 77.8408 78.6304C79.7403 79.1279 81.6399 79.3993 83.5395 79.8516C84.6249 80.0777 85.7104 80.3943 86.7507 80.7561C87.6552 81.0727 88.7407 81.525 88.7407 82.6557C88.7407 83.0175 88.5146 83.2889 88.198 83.3794C86.615 83.8316 84.9415 83.7412 83.3133 83.5603C81.5947 83.3341 79.9212 83.0628 78.2026 82.7914C77.4337 82.6557 76.6196 82.5653 75.8507 82.6105C75.6698 82.6105 75.4889 82.6557 75.308 82.6557C75.1723 82.7009 74.9914 82.7462 74.8105 82.7914C74.9009 82.8366 74.9914 82.9271 74.9914 82.9271C76.3935 83.7412 78.0217 84.0125 79.5594 84.3291C81.5494 84.7362 83.5395 85.098 85.5295 85.4598C85.9366 85.5051 86.1627 86.0478 86.0722 86.4096C85.9366 86.8619 85.5295 86.9976 85.1225 86.9524C83.1324 86.6358 81.1424 86.2287 79.1524 85.8217C77.4337 85.4598 75.4437 85.1432 73.9512 84.103C73.2727 83.6055 72.7752 82.7462 73.318 81.9773C73.8155 81.2536 74.9914 81.118 75.8055 81.0727C76.7101 81.0275 77.6598 81.2084 78.5644 81.3441C79.5594 81.4798 80.5092 81.6607 81.5042 81.7964C82.9967 82.0225 84.5797 82.3391 86.1175 82.2034C85.7104 82.0677 85.3034 81.9321 84.8963 81.7964C83.9013 81.525 82.8611 81.2989 81.8208 81.0727C79.7403 80.6657 77.6599 80.3039 75.6698 79.6254C75.1723 79.4445 74.72 79.2636 74.2678 79.0827C73.7702 78.8566 73.2727 78.6304 73.0014 78.1781C72.3682 77.1831 73.2727 76.0977 74.2678 75.962C74.4939 75.9167 74.6748 75.9167 74.9009 75.8715C74.1321 74.1076 72.8205 72.6151 71.5993 71.1678C70.2877 69.6301 69.1118 67.9566 68.2072 66.1475C66.3981 62.6197 65.4483 58.5945 65.584 54.6144C65.7197 49.5036 67.7549 44.5286 71.147 40.7747C68.1168 41.046 65.1317 41.3174 62.1014 41.6792C62.5085 43.3074 63.006 44.9809 64.4081 46.0663C64.9508 46.5638 64.4985 47.5136 63.8201 47.5136C61.423 47.5136 59.0712 47.9659 56.855 48.8705C57.2621 50.2273 57.6691 51.6294 57.9857 52.9862ZM61.9205 45.9306C61.1517 44.8452 60.6994 43.5788 60.5185 42.2219C58.6189 43.217 57.443 45.2522 56.5384 47.197C58.3023 46.5186 60.0662 46.0663 61.9205 45.9306Z" fill="#625CF9"/>
<path d="M74.1321 85.9121C77.7051 86.7262 81.3234 87.4046 84.9868 87.9021C85.0321 87.9021 85.0321 87.9021 85.0773 87.9021C85.5748 87.9021 86.0723 88.4449 85.7557 89.0328C84.3536 91.5656 81.1425 91.8822 78.5645 91.5204C75.9865 91.2038 73.3632 89.666 73.1371 86.8167C73.1371 86.6358 73.1823 86.4548 73.2728 86.3644C73.3633 86.093 73.6798 85.8217 74.1321 85.9121ZM78.8811 90.0731C80.4188 90.254 82.3636 90.2088 83.63 89.2137C80.6902 88.7615 77.7504 88.264 74.8105 87.6308C75.3985 89.1685 77.3433 89.8922 78.8811 90.0731ZM95.344 64.6098C93.2635 68.4089 90.1428 71.5749 86.3889 73.7458C85.7557 74.1076 85.1677 73.1126 85.8009 72.7508C88.4694 71.213 90.8212 69.1326 92.6303 66.6902C93.5349 65.4691 94.349 64.1575 94.9822 62.7554C95.7058 61.2177 96.4295 59.4538 96.2938 57.6899C96.1129 54.9762 93.4444 52.6696 90.7308 52.8957C90.0071 52.941 89.2382 53.2123 88.6051 53.6646C88.786 54.8405 88.5598 56.0617 87.791 56.921C87.1125 57.6899 86.1628 57.1472 85.9818 56.2426C85.8462 55.4737 86.208 54.5692 86.6603 53.936C86.8412 53.6646 87.0673 53.4385 87.2934 53.2576C86.7959 52.0816 85.5748 51.3128 84.2632 51.4032C83.1325 51.4484 82.2279 52.2173 81.8209 53.1671C82.0018 53.8455 81.9566 54.6144 81.3686 55.1119C80.9615 55.4285 80.4188 55.2476 80.3736 54.7048C80.3283 54.1621 80.4188 53.6646 80.5997 53.1671C80.464 52.941 80.3283 52.7148 80.1927 52.5791C79.6499 51.9459 78.9715 51.3128 78.1122 51.0866C76.3031 50.5891 74.7201 52.0816 74.1321 53.6646C73.4537 55.4285 73.5442 57.4638 73.7703 59.3181C74.0417 61.1724 74.5844 63.0268 75.3081 64.7454C76.1674 66.7355 77.2981 68.5898 78.5645 70.3537C79.0167 70.9417 78.0217 71.5296 77.5694 70.9417C74.9462 67.2782 72.911 63.0268 72.5039 58.504C72.323 56.3331 72.4135 53.8003 73.7251 51.9459C74.901 50.2725 77.0267 49.3227 78.9715 50.1821C79.8308 50.5439 80.6449 51.2223 81.1877 51.9912C81.6852 51.3128 82.3636 50.77 83.1777 50.4987C84.8511 49.9107 86.7959 50.5439 87.8362 51.9459C87.9719 52.1269 88.1076 52.353 88.198 52.5791C89.0573 52.0816 90.0071 51.765 91.0021 51.765C92.766 51.765 94.4847 52.5791 95.6606 53.8907C96.8818 55.2024 97.5602 56.9662 97.3793 58.7754C97.2436 60.8106 96.339 62.8006 95.344 64.6098ZM87.5196 54.8405C87.3839 55.1119 87.2482 55.3833 87.203 55.6999C87.203 55.7451 87.203 55.7903 87.203 55.8355C87.3839 55.5642 87.4744 55.2024 87.5196 54.8405ZM108.324 48.5991C108.234 48.2825 108.415 48.0111 108.731 47.8754C110.495 47.197 112.259 46.5638 113.978 45.8854C114.249 45.7949 114.611 46.0211 114.702 46.2925C114.792 46.6091 114.611 46.8804 114.295 47.0161C112.531 47.6945 110.767 48.3277 109.048 49.0061C108.731 49.1418 108.37 48.9157 108.324 48.5991ZM102.173 36.2971C101.902 36.478 101.54 36.3423 101.405 36.0709C101.224 35.7996 101.359 35.483 101.631 35.3021C102.942 34.3071 104.254 33.0407 105.204 31.6838C105.385 31.4125 105.701 31.322 105.973 31.4577C106.199 31.5934 106.38 32.0004 106.199 32.2266C105.023 33.8096 103.711 35.1664 102.173 36.2971ZM89.193 30.8245C88.9217 30.8245 88.6051 30.5531 88.6051 30.2365C88.6955 28.7893 88.8312 27.342 88.9217 25.8494C88.9669 25.5328 89.1478 25.2615 89.5096 25.2615C89.781 25.2615 90.0976 25.5328 90.0976 25.8494C90.0071 27.2967 89.8714 28.744 89.781 30.2365C89.7358 30.5531 89.5096 30.8245 89.193 30.8245ZM71.1019 35.7544C69.9259 34.488 68.6595 33.3573 67.3027 32.2718C67.0766 32.0909 67.0766 31.6386 67.3027 31.4577C67.5288 31.2316 67.8907 31.2768 68.1168 31.4577C69.4736 32.5432 70.74 33.7191 71.916 34.9402C72.1421 35.1664 72.1421 35.5282 71.916 35.7544C71.735 35.9805 71.328 35.9805 71.1019 35.7544Z" fill="#625CF9"/>
<g filter="url(#filter1_d_242_2)">
<circle cx="388" cy="202" r="64" fill="white"/>
</g>
<path d="M362.985 208.975C363.176 208.138 363.638 207.348 364.369 206.71C365.104 206.076 366.001 205.694 366.931 205.553L381.88 202.66L377.555 205.531L384.383 226.935L388.228 211.036L392.075 226.935L398.899 205.531L394.576 202.661L409.526 205.554C410.456 205.694 411.352 206.076 412.087 206.71C412.818 207.348 413.282 208.138 413.471 208.975L417.904 228.444L409.543 231.345C406.767 234.231 398.997 236.353 389.678 236.556H386.779C377.46 236.354 369.691 234.231 366.914 231.345L358.553 228.444L362.985 208.975Z" fill="#625CF9"/>
<path d="M388.228 204.834L391.674 206.068L388.228 211.036L384.781 206.068L388.228 204.834ZM375.433 185.662C375.433 176.826 379.07 169.901 388.228 169.901C397.387 169.901 401.022 176.827 401.022 185.662C401.979 186.162 402.609 187.335 401.668 189.848C401.193 191.11 400.357 192.168 399.647 192.721C397.037 199.219 391.904 204.236 388.228 204.236C384.551 204.236 379.418 199.219 376.809 192.721C376.099 192.168 375.264 191.11 374.788 189.848C373.847 187.334 374.476 186.162 375.433 185.662ZM419.003 224.003C423.27 223.499 426.635 222.346 428.034 220.891L433.456 219.01L430.582 206.387C430.459 205.845 430.158 205.332 429.684 204.919C429.212 204.517 428.637 204.257 428.023 204.169L417.524 201.764C419.104 200.413 420.637 198.295 421.618 195.849C422.079 195.49 422.621 194.805 422.929 193.986C423.54 192.357 423.132 191.597 422.51 191.272C422.51 185.544 420.155 181.054 414.216 181.054H414.214C408.277 181.054 405.92 185.544 405.92 191.272C405.299 191.597 404.891 192.357 405.5 193.986C405.809 194.805 406.351 195.49 406.812 195.849C407.793 198.295 409.327 200.413 410.906 201.764L406.263 202.828L409.878 203.527C411.212 203.735 412.441 204.298 413.439 205.161C414.477 206.067 415.183 207.228 415.477 208.518L419.003 224.003ZM345.874 206.387C345.998 205.844 346.298 205.332 346.772 204.919C347.247 204.508 347.829 204.259 348.432 204.169L358.932 201.764C357.352 200.413 355.818 198.295 354.836 195.848C354.375 195.49 353.834 194.804 353.526 193.986C352.916 192.357 353.324 191.597 353.945 191.272C353.945 185.543 356.303 181.054 362.241 181.054C368.179 181.054 370.536 185.543 370.536 191.272C371.157 191.597 371.565 192.357 370.954 193.986C370.647 194.804 370.105 195.49 369.645 195.848C368.663 198.294 367.129 200.413 365.549 201.764L370.193 202.828L366.579 203.527C365.245 203.735 364.016 204.298 363.026 205.152C361.979 206.067 361.275 207.228 360.98 208.516L357.454 224.003C353.187 223.499 349.823 222.346 348.422 220.891L343.001 219.01L345.874 206.387Z" fill="#625CF9"/>
<g filter="url(#filter2_d_242_2)">
<circle cx="696" cy="122" r="64" fill="white"/>
</g>
<g filter="url(#filter3_d_242_2)">
<circle cx="1004" cy="170" r="64" fill="white"/>
</g>
<path d="M139.167 69C139.167 71.9455 141.554 74.3333 144.5 74.3333C147.446 74.3333 149.833 71.9455 149.833 69C149.833 66.0545 147.446 63.6667 144.5 63.6667C141.554 63.6667 139.167 66.0545 139.167 69ZM246 108.5L246.84 107.958L246 108.5ZM318.667 206C318.667 208.946 321.054 211.333 324 211.333C326.946 211.333 329.333 208.946 329.333 206C329.333 203.054 326.946 200.667 324 200.667C321.054 200.667 318.667 203.054 318.667 206ZM144.481 69.9998C145.122 70.0123 145.782 70.0299 146.461 70.0528L146.529 68.0539C145.841 68.0307 145.17 68.0129 144.519 68.0002L144.481 69.9998ZM150.448 70.2381C151.731 70.3132 153.063 70.4053 154.438 70.5157L154.598 68.5221C153.209 68.4106 151.863 68.3175 150.565 68.2415L150.448 70.2381ZM158.434 70.877C159.728 71.0067 161.051 71.1518 162.401 71.3129L162.638 69.327C161.276 69.1644 159.94 69.018 158.634 68.887L158.434 70.877ZM166.367 71.8235C167.668 72.0033 168.989 72.1976 170.326 72.4072L170.636 70.4313C169.287 70.2198 167.954 70.0237 166.64 69.8423L166.367 71.8235ZM174.275 73.0634C175.576 73.2919 176.889 73.5348 178.211 73.7927L178.594 71.8297C177.259 71.5694 175.934 71.3242 174.621 71.0935L174.275 73.0634ZM182.131 74.5965C183.427 74.8753 184.728 75.1686 186.033 75.4769L186.493 73.5305C185.175 73.219 183.86 72.9228 182.552 72.6413L182.131 74.5965ZM189.915 76.4366C191.201 76.7689 192.488 77.1162 193.773 77.4789L194.316 75.554C193.016 75.1872 191.715 74.8361 190.416 74.5002L189.915 76.4366ZM197.606 78.6081C198.878 78.9993 200.147 79.4062 201.409 79.8291L202.044 77.9327C200.766 77.5043 199.481 77.0924 198.194 76.6965L197.606 78.6081ZM205.178 81.1471C206.43 81.6041 207.674 82.0776 208.907 82.5683L209.647 80.71C208.395 80.212 207.133 79.7316 205.864 79.2683L205.178 81.1471ZM212.59 84.0995C213.814 84.6311 215.025 85.1806 216.219 85.7485L217.078 83.9422C215.862 83.3642 214.631 82.8054 213.387 82.2651L212.59 84.0995ZM219.784 87.5236C220.967 88.1408 222.132 88.7775 223.274 89.4341L224.271 87.7C223.104 87.0293 221.916 86.3796 220.709 85.7504L219.784 87.5236ZM226.676 91.4898C227.8 92.2053 228.9 92.9421 229.971 93.7009L231.127 92.0687C230.028 91.29 228.901 90.5347 227.749 89.8023L226.676 91.4898ZM233.142 96.0776C234.183 96.9044 235.191 97.7549 236.164 98.6295L237.501 97.1423C236.497 96.2393 235.457 95.3626 234.386 94.5115L233.142 96.0776ZM239.012 101.367C239.935 102.317 240.818 103.293 241.656 104.295L243.19 103.012C242.319 101.97 241.403 100.957 240.447 99.9731L239.012 101.367ZM244.059 107.414C244.438 107.949 244.805 108.492 245.16 109.042L246.84 107.958C246.47 107.384 246.087 106.818 245.692 106.259L244.059 107.414ZM245.16 109.042C245.522 109.604 245.881 110.168 246.235 110.734L247.93 109.671C247.571 109.099 247.208 108.528 246.84 107.958L245.16 109.042ZM248.322 114.151C249.007 115.301 249.678 116.457 250.335 117.616L252.075 116.628C251.411 115.458 250.733 114.291 250.041 113.128L248.322 114.151ZM252.282 121.121C252.922 122.298 253.551 123.479 254.17 124.661L255.942 123.733C255.318 122.542 254.684 121.353 254.039 120.166L252.282 121.121ZM256.01 128.23C256.618 129.427 257.218 130.624 257.811 131.822L259.603 130.934C259.007 129.731 258.404 128.528 257.793 127.324L256.01 128.23ZM259.583 135.431C260.172 136.64 260.756 137.848 261.337 139.053L263.139 138.184C262.557 136.978 261.971 135.768 261.381 134.556L259.583 135.431ZM263.085 142.682C263.669 143.895 264.252 145.106 264.836 146.311L266.636 145.439C266.053 144.236 265.471 143.027 264.887 141.814L263.085 142.682ZM266.605 149.937C267.201 151.148 267.799 152.354 268.403 153.552L270.189 152.653C269.589 151.461 268.993 150.261 268.4 149.054L266.605 149.937ZM270.243 157.15C270.866 158.35 271.497 159.541 272.138 160.724L273.896 159.771C273.262 158.6 272.636 157.418 272.017 156.227L270.243 157.15ZM274.101 164.264C274.771 165.442 275.452 166.608 276.147 167.763L277.86 166.731C277.175 165.592 276.502 164.44 275.84 163.276L274.101 164.264ZM278.288 171.208C279.021 172.349 279.77 173.476 280.538 174.588L282.184 173.452C281.429 172.359 280.693 171.251 279.971 170.127L278.288 171.208ZM282.908 177.89C283.72 178.977 284.553 180.047 285.409 181.099L286.96 179.837C286.122 178.807 285.306 177.759 284.51 176.693L282.908 177.89ZM288.05 184.199C288.952 185.211 289.88 186.203 290.836 187.174L292.262 185.771C291.33 184.824 290.424 183.856 289.542 182.868L288.05 184.199ZM293.769 190.008C294.767 190.922 295.792 191.815 296.849 192.685L298.12 191.141C297.092 190.294 296.093 189.424 295.121 188.534L293.769 190.008ZM300.071 195.192C301.157 195.991 302.275 196.767 303.425 197.519L304.519 195.845C303.4 195.113 302.313 194.358 301.255 193.581L300.071 195.192ZM306.9 199.658C308.063 200.33 309.257 200.98 310.484 201.606L311.392 199.824C310.196 199.214 309.034 198.582 307.902 197.927L306.9 199.658ZM314.161 203.362C315.382 203.908 316.634 204.431 317.919 204.931L318.644 203.067C317.39 202.579 316.168 202.068 314.977 201.536L314.161 203.362ZM321.744 206.319C322.389 206.536 323.041 206.748 323.702 206.954L324.298 205.046C323.652 204.844 323.014 204.636 322.383 204.424L321.744 206.319Z" fill="#818181"/>
<path d="M755.167 119C755.167 121.946 757.554 124.333 760.5 124.333C763.446 124.333 765.833 121.946 765.833 119C765.833 116.055 763.446 113.667 760.5 113.667C757.554 113.667 755.167 116.055 755.167 119ZM857 119L856.324 119.737L857 119ZM933.667 175.5C933.667 178.446 936.054 180.833 939 180.833C941.946 180.833 944.333 178.446 944.333 175.5C944.333 172.554 941.946 170.167 939 170.167C936.054 170.167 933.667 172.554 933.667 175.5ZM761.085 119.811C761.603 119.437 762.143 119.059 762.704 118.677L761.581 117.023C761.003 117.415 760.448 117.804 759.915 118.189L761.085 119.811ZM766.035 116.537C767.126 115.873 768.275 115.206 769.478 114.545L768.514 112.792C767.286 113.468 766.111 114.149 764.995 114.829L766.035 116.537ZM773.003 112.7C774.164 112.122 775.365 111.552 776.602 110.997L775.782 109.172C774.521 109.739 773.296 110.319 772.111 110.909L773.003 112.7ZM780.26 109.44C781.474 108.951 782.716 108.478 783.984 108.025L783.312 106.142C782.018 106.604 780.751 107.086 779.513 107.584L780.26 109.44ZM787.757 106.764C789.009 106.373 790.283 106.004 791.575 105.66L791.06 103.727C789.74 104.079 788.44 104.456 787.161 104.855L787.757 106.764ZM795.438 104.719C796.723 104.436 798.024 104.179 799.338 103.952L798.998 101.981C797.653 102.214 796.322 102.476 795.007 102.766L795.438 104.719ZM803.266 103.368C804.572 103.206 805.888 103.074 807.213 102.977L807.066 100.982C805.707 101.082 804.357 101.217 803.019 101.383L803.266 103.368ZM811.174 102.789C812.489 102.761 813.811 102.769 815.137 102.815L815.206 100.816C813.842 100.769 812.483 100.761 811.132 100.789L811.174 102.789ZM819.091 103.064C820.399 103.184 821.71 103.344 823.022 103.544L823.325 101.567C821.972 101.36 820.622 101.196 819.275 101.072L819.091 103.064ZM826.91 104.262C828.189 104.54 829.468 104.859 830.744 105.222L831.292 103.299C829.974 102.924 828.654 102.594 827.335 102.308L826.91 104.262ZM834.509 106.426C835.738 106.863 836.965 107.344 838.187 107.87L838.978 106.033C837.716 105.489 836.449 104.993 835.179 104.541L834.509 106.426ZM841.764 109.549C842.925 110.14 844.08 110.775 845.228 111.455L846.247 109.735C845.062 109.033 843.87 108.378 842.672 107.767L841.764 109.549ZM848.566 113.576C849.641 114.307 850.709 115.081 851.769 115.898L852.99 114.315C851.899 113.473 850.798 112.676 849.69 111.922L848.566 113.576ZM854.832 118.406C855.332 118.839 855.829 119.283 856.324 119.737L857.676 118.263C857.167 117.796 856.656 117.34 856.143 116.895L854.832 118.406ZM856.324 119.737C856.821 120.193 857.313 120.647 857.799 121.097L859.158 119.629C858.67 119.177 858.176 118.722 857.676 118.263L856.324 119.737ZM860.671 123.781C861.647 124.701 862.598 125.607 863.526 126.499L864.912 125.057C863.979 124.161 863.024 123.251 862.043 122.326L860.671 123.781ZM866.37 129.257C867.334 130.2 868.271 131.126 869.183 132.035L870.595 130.618C869.678 129.705 868.737 128.775 867.769 127.828L866.37 129.257ZM871.969 134.834C872.916 135.794 873.835 136.734 874.73 137.656L876.165 136.262C875.267 135.337 874.343 134.393 873.392 133.43L871.969 134.834ZM877.472 140.498C878.407 141.474 879.315 142.427 880.198 143.358L881.649 141.981C880.764 141.049 879.854 140.093 878.916 139.114L877.472 140.498ZM882.913 146.229C883.843 147.213 884.746 148.171 885.625 149.102L887.079 147.728C886.2 146.798 885.298 145.842 884.368 144.856L882.913 146.229ZM888.348 151.968C889.292 152.955 890.213 153.909 891.116 154.83L892.544 153.429C891.648 152.516 890.734 151.568 889.794 150.585L888.348 151.968ZM893.926 157.64C894.902 158.593 895.864 159.507 896.821 160.383L898.171 158.907C897.233 158.049 896.287 157.15 895.324 156.209L893.926 157.64ZM899.831 163.018C900.877 163.889 901.927 164.716 902.992 165.498L904.176 163.886C903.147 163.13 902.129 162.329 901.112 161.482L899.831 163.018ZM906.322 167.762C907.46 168.474 908.625 169.14 909.828 169.762L910.746 167.985C909.593 167.39 908.476 166.751 907.383 166.067L906.322 167.762ZM913.487 171.462C914.704 171.967 915.964 172.433 917.277 172.862L917.898 170.961C916.633 170.548 915.421 170.1 914.254 169.615L913.487 171.462ZM921.131 173.973C922.389 174.291 923.695 174.581 925.055 174.843L925.434 172.879C924.108 172.624 922.84 172.342 921.622 172.034L921.131 173.973ZM929.004 175.506C930.274 175.69 931.59 175.854 932.956 176L933.168 174.011C931.825 173.868 930.534 173.707 929.291 173.527L929.004 175.506ZM936.923 176.359C937.583 176.409 938.255 176.455 938.938 176.498L939.062 174.502C938.388 174.46 937.725 174.414 937.074 174.365L936.923 176.359Z" fill="#818181"/>
<path d="M665.31 123.928L674.185 106.132C674.286 105.932 674.422 105.751 674.587 105.599C674.75 105.452 674.939 105.338 675.145 105.263L685.552 101.523C686.292 101.256 687.075 101.123 687.862 101.13C688.649 101.138 689.428 101.287 690.163 101.568L698.06 104.58C698.623 104.795 699.174 105.041 699.711 105.315C699.893 105.409 700.072 105.511 700.25 105.611C700.852 105.285 701.476 105.001 702.118 104.762C704.109 104.013 706.243 103.72 708.363 103.901L713.676 104.357C713.917 104.378 714.15 104.453 714.358 104.577C714.576 104.705 714.756 104.878 714.898 105.079L726.859 122.107C727.118 122.476 727.237 122.924 727.197 123.373C727.163 123.818 726.971 124.237 726.656 124.553L721.453 129.71C721.747 130.245 721.92 130.837 721.961 131.446C721.999 132.001 721.927 132.558 721.748 133.084C721.57 133.611 721.289 134.096 720.921 134.513C720.556 134.932 720.111 135.275 719.612 135.52C719.113 135.766 718.571 135.911 718.016 135.945C717.956 135.949 717.895 135.949 717.834 135.952C718.296 137.447 717.918 139.146 716.713 140.287C715.997 140.965 715.067 141.37 714.084 141.431C714.717 143.001 714.374 144.872 713.08 146.097C712.296 146.843 711.254 147.258 710.171 147.256C709.039 147.256 707.982 146.814 707.184 146.015C706.888 147.932 705.295 149.46 703.281 149.591C703.189 149.598 703.094 149.602 703.001 149.602C702.5 149.601 702.003 149.51 701.535 149.334C700.771 149.848 699.863 150.106 698.943 150.069C697.775 150.021 696.727 149.505 695.944 148.7L698.806 145.844C698.799 145.778 698.787 145.715 698.784 145.647C698.748 145.102 698.818 144.556 698.99 144.039L693.134 149.88C692.395 150.181 691.591 150.332 690.753 150.298C689.077 150.23 687.584 149.438 686.527 148.213L685.94 147.534C685.886 147.469 685.845 147.397 685.808 147.319L694.825 138.327C695.058 138.097 695.076 137.714 694.87 137.473C694.664 137.233 694.305 137.225 694.075 137.455L683.351 148.149C682.766 148.354 682.141 148.454 681.491 148.427C680.017 148.367 678.703 147.671 677.773 146.592L676.357 144.953C676.016 144.552 675.837 144.037 675.857 143.511L685.267 134.128C685.497 133.898 685.518 133.514 685.312 133.275C685.104 133.034 684.746 133.026 684.516 133.256L675.061 142.684C674.666 142.791 674.256 142.837 673.847 142.822C672.639 142.773 671.564 142.203 670.804 141.32L670.423 140.879C669.662 139.998 669.213 138.804 669.259 137.505C669.305 136.207 669.834 135.054 670.655 134.235L673.179 131.719L672.541 132.354L665.716 126.191C665.412 125.914 665.209 125.543 665.139 125.137C665.065 124.726 665.125 124.302 665.31 123.928ZM717.898 134.121C718.213 134.101 718.521 134.019 718.804 133.879C719.087 133.74 719.339 133.545 719.547 133.308C719.755 133.071 719.915 132.795 720.016 132.496C720.118 132.197 720.158 131.881 720.136 131.566C720.094 130.931 719.801 130.338 719.322 129.918C718.844 129.498 718.218 129.286 717.582 129.327C717.267 129.347 716.959 129.429 716.676 129.568C716.393 129.708 716.141 129.902 715.933 130.14C715.725 130.377 715.565 130.653 715.463 130.952C715.362 131.251 715.321 131.567 715.342 131.882C715.43 133.194 716.57 134.209 717.898 134.121ZM713.806 139.616C714.42 139.617 715.011 139.382 715.456 138.96C716.406 138.061 716.458 136.548 715.576 135.591C715.53 135.543 714.593 134.552 714.144 134.079L713.908 133.828C713.684 133.59 713.413 133.4 713.113 133.271C712.813 133.142 712.489 133.076 712.163 133.077C711.546 133.077 710.959 133.311 710.512 133.735C710.282 133.951 710.097 134.211 709.968 134.499C709.84 134.787 709.769 135.098 709.762 135.414C709.752 135.729 709.805 136.043 709.918 136.337C710.031 136.631 710.2 136.901 710.418 137.129L711.086 137.836L711.539 138.314C711.564 138.342 711.592 138.37 711.616 138.396L711.916 138.711C711.961 138.76 712.007 138.81 712.054 138.857C712.278 139.098 712.549 139.29 712.851 139.42C713.152 139.551 713.477 139.617 713.806 139.616ZM708.443 144.693C708.666 144.927 708.935 145.112 709.232 145.238C709.529 145.365 709.849 145.429 710.172 145.428C710.787 145.429 711.378 145.193 711.823 144.77C712.773 143.871 712.825 142.358 711.946 141.406C711.925 141.383 711.374 140.8 710.751 140.142L710.288 139.653C709.477 138.795 709.211 138.516 709.121 138.418C709.11 138.409 709.1 138.398 709.09 138.388L709.088 138.386C709.01 138.302 708.964 138.255 708.963 138.253C708.739 138.015 708.469 137.825 708.168 137.696C707.868 137.567 707.544 137.501 707.217 137.502C706.601 137.502 706.015 137.735 705.567 138.16C705.337 138.376 705.153 138.635 705.024 138.924C704.895 139.212 704.825 139.522 704.817 139.838C704.808 140.153 704.861 140.468 704.974 140.763C705.087 141.059 705.257 141.328 705.475 141.557L708.443 144.693ZM703.162 147.769C703.798 147.726 704.39 147.433 704.81 146.954C705.23 146.475 705.442 145.85 705.402 145.214C705.319 143.955 704.269 142.969 703.009 142.969C702.68 142.969 702.355 143.037 702.053 143.167C701.751 143.298 701.479 143.489 701.254 143.729C701.029 143.969 700.856 144.252 700.745 144.562C700.634 144.871 700.587 145.2 700.608 145.528C700.695 146.839 701.833 147.856 703.162 147.769ZM673.798 131.102L692.493 112.463L692.282 111.931C692.226 111.789 692.203 111.636 692.214 111.483C692.225 111.33 692.27 111.182 692.347 111.05C692.507 110.775 692.774 110.614 693.055 110.6L694.444 110.516L695.962 110.426L696.077 112.225C696.079 112.263 696.379 116.354 698.466 120.051C700.605 123.844 703.439 125.152 703.871 125.236C704.353 125.33 704.859 125.419 705.28 125.419C705.569 125.419 705.791 125.378 705.982 125.291L706.691 124.962C706.989 124.824 707.216 124.571 707.336 124.248C707.452 123.937 707.452 123.596 707.336 123.285L700.226 107.681L699.017 106.884L698.53 106.699H698.531L689.594 103.29C689.036 103.077 688.444 102.964 687.847 102.959L687.797 102.958C687.217 102.958 686.643 103.059 686.093 103.257L675.685 106.997L666.809 124.792L673.798 131.102ZM663.683 94.7671L670.709 98.27C671.228 98.5286 671.691 98.887 672.072 99.3248C672.452 99.7626 672.742 100.271 672.926 100.821C673.11 101.371 673.184 101.952 673.144 102.531C673.104 103.11 672.949 103.675 672.69 104.194L663.492 122.636C663.233 123.155 662.875 123.618 662.437 123.999C661.999 124.379 661.49 124.669 660.939 124.852C660.39 125.037 659.809 125.111 659.23 125.071C658.652 125.03 658.087 124.876 657.569 124.616L650.544 121.111L663.683 94.7671ZM657.587 121.122C658.035 121.122 658.466 120.944 658.783 120.627C659.101 120.309 659.279 119.879 659.279 119.43C659.279 118.981 659.101 118.551 658.783 118.233C658.466 117.916 658.035 117.737 657.587 117.737C657.138 117.737 656.707 117.916 656.39 118.233C656.072 118.551 655.894 118.981 655.894 119.43C655.894 119.879 656.072 120.309 656.39 120.627C656.707 120.944 657.138 121.122 657.587 121.122ZM741 117.09L734.577 121.603C734.103 121.937 733.567 122.174 733.001 122.3C732.435 122.427 731.849 122.44 731.278 122.339C730.707 122.24 730.161 122.029 729.671 121.718C729.182 121.408 728.758 121.003 728.426 120.528L716.579 103.664C716.245 103.19 716.008 102.655 715.881 102.089C715.754 101.523 715.741 100.937 715.842 100.366C715.941 99.7942 716.152 99.2479 716.463 98.7581C716.774 98.2683 717.178 97.8446 717.653 97.5115L724.077 93L741 117.09ZM735.46 116.225C735.429 116.003 735.354 115.789 735.24 115.596C735.126 115.404 734.975 115.235 734.796 115.101C734.617 114.967 734.412 114.87 734.195 114.816C733.978 114.761 733.752 114.75 733.531 114.783C733.309 114.817 733.097 114.894 732.905 115.01C732.714 115.126 732.547 115.279 732.415 115.46C732.283 115.641 732.188 115.846 732.136 116.064C732.084 116.282 732.076 116.508 732.112 116.729C732.183 117.169 732.425 117.563 732.785 117.825C733.145 118.088 733.594 118.198 734.035 118.131C734.476 118.065 734.872 117.828 735.139 117.471C735.406 117.114 735.521 116.666 735.46 116.225Z" fill="#625CF9"/>
<path d="M984.446 173.681H975.568C974.343 173.681 973.349 174.674 973.349 175.9V198.094C973.349 199.319 974.343 200.313 975.568 200.313H984.446C985.671 200.313 986.665 199.319 986.665 198.094V175.9C986.665 174.674 985.671 173.681 984.446 173.681Z" fill="#625CF9"/>
<path d="M1008.86 159.987H999.981C999.393 159.987 998.828 160.221 998.412 160.637C997.996 161.053 997.762 161.618 997.762 162.207V199.114C997.762 199.703 997.996 200.268 998.412 200.684C998.828 201.1 999.393 201.334 999.981 201.334H1008.86C1009.45 201.334 1010.01 201.1 1010.43 200.684C1010.84 200.268 1011.08 199.703 1011.08 199.114V162.295C1011.09 161.997 1011.04 161.698 1010.94 161.419C1010.83 161.139 1010.67 160.884 1010.46 160.668C1010.25 160.453 1010 160.281 1009.73 160.164C1009.45 160.047 1009.16 159.987 1008.86 159.987ZM1033.27 146.183H1024.39C1023.81 146.183 1023.24 146.417 1022.82 146.833C1022.41 147.249 1022.17 147.814 1022.17 148.402V199.114C1022.17 199.703 1022.41 200.268 1022.82 200.684C1023.24 201.1 1023.81 201.334 1024.39 201.334H1033.27C1033.86 201.334 1034.42 201.1 1034.84 200.684C1035.26 200.268 1035.49 199.703 1035.49 199.114V148.491C1035.5 148.192 1035.45 147.894 1035.35 147.614C1035.24 147.335 1035.08 147.08 1034.87 146.864C1034.67 146.648 1034.42 146.477 1034.14 146.36C1033.87 146.243 1033.57 146.183 1033.27 146.183ZM1015.52 143.631C1015.51 143.55 1015.51 143.468 1015.52 143.386C1015.47 143.195 1015.4 143.009 1015.32 142.832C1015.31 142.773 1015.31 142.713 1015.32 142.654C1015.19 142.433 1015.03 142.237 1014.83 142.077C1014.63 141.943 1014.41 141.838 1014.19 141.766L1005.31 139.547C1005.01 139.406 1004.68 139.333 1004.35 139.334C1004.02 139.334 1003.7 139.409 1003.4 139.551C1003.1 139.694 1002.84 139.901 1002.63 140.157C1002.43 140.414 1002.28 140.713 1002.2 141.034C1002.12 141.323 1002.09 141.625 1002.13 141.923C1002.17 142.221 1002.27 142.509 1002.42 142.768C1002.57 143.027 1002.77 143.253 1003.01 143.432C1003.25 143.611 1003.53 143.739 1003.82 143.808L1007.08 144.652L974.525 162.584C974 162.883 973.612 163.374 973.443 163.954C973.273 164.533 973.335 165.156 973.615 165.691C973.798 166.054 974.077 166.359 974.421 166.574C974.765 166.79 975.162 166.906 975.568 166.912C975.934 166.921 976.295 166.829 976.611 166.645L1009.9 148.358L1008.86 152.53C1008.77 152.82 1008.75 153.125 1008.78 153.426C1008.82 153.726 1008.91 154.016 1009.06 154.278C1009.22 154.54 1009.42 154.768 1009.66 154.949C1009.91 155.129 1010.18 155.258 1010.48 155.327C1010.77 155.417 1011.08 155.446 1011.38 155.412C1011.68 155.379 1011.98 155.283 1012.24 155.131C1012.51 154.979 1012.74 154.774 1012.92 154.529C1013.1 154.284 1013.23 154.004 1013.3 153.706L1015.52 144.518C1015.57 144.225 1015.57 143.924 1015.52 143.631Z" fill="#625CF9"/>
<defs>
<filter id="filter0_d_242_2" x="0.4" y="0.4" width="159.2" height="159.2" filterUnits="userSpaceOnUse" color-interpolation-filters="sRGB">
<feFlood flood-opacity="0" result="BackgroundImageFix"/>
<feColorMatrix in="SourceAlpha" type="matrix" values="0 0 0 0 0 0 0 0 0 0 0 0 0 0 0 0 0 0 127 0" result="hardAlpha"/>
<feOffset dy="14"/>
<feGaussianBlur stdDeviation="7.8"/>
<feComposite in2="hardAlpha" operator="out"/>
<feColorMatrix type="matrix" values="0 0 0 0 0 0 0 0 0 0 0 0 0 0 0 0 0 0 0.1 0"/>
<feBlend mode="normal" in2="BackgroundImageFix" result="effect1_dropShadow_242_2"/>
<feBlend mode="normal" in="SourceGraphic" in2="effect1_dropShadow_242_2" result="shape"/>
</filter>
<filter id="filter1_d_242_2" x="308.4" y="136.4" width="159.2" height="159.2" filterUnits="userSpaceOnUse" color-interpolation-filters="sRGB">
<feFlood flood-opacity="0" result="BackgroundImageFix"/>
<feColorMatrix in="SourceAlpha" type="matrix" values="0 0 0 0 0 0 0 0 0 0 0 0 0 0 0 0 0 0 127 0" result="hardAlpha"/>
<feOffset dy="14"/>
<feGaussianBlur stdDeviation="7.8"/>
<feComposite in2="hardAlpha" operator="out"/>
<feColorMatrix type="matrix" values="0 0 0 0 0 0 0 0 0 0 0 0 0 0 0 0 0 0 0.1 0"/>
<feBlend mode="normal" in2="BackgroundImageFix" result="effect1_dropShadow_242_2"/>
<feBlend mode="normal" in="SourceGraphic" in2="effect1_dropShadow_242_2" result="shape"/>
</filter>
<filter id="filter2_d_242_2" x="616.4" y="56.4" width="159.2" height="159.2" filterUnits="userSpaceOnUse" color-interpolation-filters="sRGB">
<feFlood flood-opacity="0" result="BackgroundImageFix"/>
<feColorMatrix in="SourceAlpha" type="matrix" values="0 0 0 0 0 0 0 0 0 0 0 0 0 0 0 0 0 0 127 0" result="hardAlpha"/>
<feOffset dy="14"/>
<feGaussianBlur stdDeviation="7.8"/>
<feComposite in2="hardAlpha" operator="out"/>
<feColorMatrix type="matrix" values="0 0 0 0 0 0 0 0 0 0 0 0 0 0 0 0 0 0 0.1 0"/>
<feBlend mode="normal" in2="BackgroundImageFix" result="effect1_dropShadow_242_2"/>
<feBlend mode="normal" in="SourceGraphic" in2="effect1_dropShadow_242_2" result="shape"/>
</filter>
<filter id="filter3_d_242_2" x="924.4" y="104.4" width="159.2" height="159.2" filterUnits="userSpaceOnUse" color-interpolation-filters="sRGB">
<feFlood flood-opacity="0" result="BackgroundImageFix"/>
<feColorMatrix in="SourceAlpha" type="matrix" values="0 0 0 0 0 0 0 0 0 0 0 0 0 0 0 0 0 0 127 0" result="hardAlpha"/>
<feOffset dy="14"/>
<feGaussianBlur stdDeviation="7.8"/>
<feComposite in2="hardAlpha" operator="out"/>
<feColorMatrix type="matrix" values="0 0 0 0 0 0 0 0 0 0 0 0 0 0 0 0 0 0 0.1 0"/>
<feBlend mode="normal" in2="BackgroundImageFix" result="effect1_dropShadow_242_2"/>
<feBlend mode="normal" in="SourceGraphic" in2="effect1_dropShadow_242_2" result="shape"/>
</filter>
</defs>
</svg>
