<svg width="333" height="782" viewBox="0 0 333 782" fill="none" xmlns="http://www.w3.org/2000/svg">
<g filter="url(#filter0_d_242_59)">
<circle cx="80" cy="66" r="64" fill="white"/>
<path d="M59.0712 41.1367C61.8301 39.3728 65.3126 39.8251 68.4786 39.3728C69.9711 39.2371 71.4636 39.1015 72.9561 38.9658C74.0416 38.016 75.2175 37.2019 76.5292 36.4782C83.0872 32.9052 91.4996 33.5384 97.4244 38.1065C100.726 40.6844 102.942 44.4384 104.344 48.3732C105.792 52.4889 106.289 56.9665 105.52 61.2631C105.113 63.6602 104.254 65.9668 103.078 68.0473C104.887 78.5402 107.148 88.8522 113.752 96.9027C114.204 97.4003 114.159 98.35 113.435 98.531C106.153 99.6164 89.6452 102.194 82.3635 103.37C79.2428 103.868 75.715 104.546 72.5491 104.953C59.7496 91.1588 61.5135 66.2834 55.1363 49.0968C53.9604 46.157 56.9455 42.9458 59.0712 41.1367ZM103.756 52.1271C102.897 48.1018 101.133 44.0765 98.329 41.0463C93.5348 35.8903 85.6652 34.3525 79.1524 36.8853C72.73 39.4181 68.0715 45.6595 67.167 52.4437C66.6695 56.1976 67.2122 60.042 68.6143 63.5698C69.2927 65.3337 70.2425 66.9619 71.3732 68.4996C72.5491 70.0826 73.9059 71.4847 75.0366 73.0676C75.5794 73.8365 76.0316 74.6958 76.3935 75.5552C76.4387 75.6456 76.4387 75.6908 76.4387 75.7813C76.8457 75.8265 77.2528 75.8265 77.6146 75.8718C78.7453 75.9622 79.9212 76.1431 81.0519 76.4145C82.9515 76.8215 84.8511 77.3643 86.7054 77.9522C87.8814 76.505 89.7809 76.1884 91.4544 75.6456C93.2635 75.0577 94.9369 74.1983 96.4747 73.1129C99.5954 70.8967 101.902 67.6403 103.168 64.022C104.435 60.2681 104.616 56.1072 103.756 52.1271ZM57.9857 52.9864C63.006 69.4946 61.7848 89.3949 73.1371 103.325C75.6698 102.918 79.0167 102.375 81.5494 101.968C88.4241 100.883 104.706 98.2596 111.581 97.1741C105.746 89.2592 103.44 79.7614 101.676 70.1278C101.133 70.8515 100.59 71.5299 99.9572 72.1631C98.6004 73.5651 96.9722 74.7863 95.2535 75.7361C94.3942 76.2336 93.4444 76.6406 92.5398 76.9572C91.6805 77.2738 90.7307 77.5 89.8714 77.7713C89.3287 77.9522 88.7859 78.1784 88.3336 78.5402C88.4241 78.5402 88.4693 78.5854 88.5598 78.5854C89.5096 78.902 89.1025 80.3493 88.1527 80.078C84.1274 78.7663 79.9665 77.4547 75.715 77.3643C75.4437 77.3643 75.1723 77.3643 74.9009 77.3643C74.8105 77.3643 74.6748 77.3643 74.5843 77.3643C74.5843 77.3643 74.5391 77.3643 74.4939 77.4095C74.6748 77.5 74.9009 77.6356 75.0366 77.6809C75.9412 78.0879 76.891 78.3593 77.8408 78.6307C79.7403 79.1282 81.6399 79.3995 83.5395 79.8518C84.6249 80.078 85.7104 80.3945 86.7507 80.7564C87.6552 81.073 88.7407 81.5252 88.7407 82.6559C88.7407 83.0178 88.5145 83.2891 88.198 83.3796C86.615 83.8319 84.9415 83.7414 83.3133 83.5605C81.5947 83.3344 79.9212 83.063 78.2026 82.7916C77.4337 82.6559 76.6196 82.5655 75.8507 82.6107C75.6698 82.6107 75.4889 82.6559 75.308 82.6559C75.1723 82.7012 74.9914 82.7464 74.8105 82.7916C74.9009 82.8369 74.9914 82.9273 74.9914 82.9273C76.3935 83.7414 78.0217 84.0128 79.5594 84.3294C81.5494 84.7364 83.5395 85.0983 85.5295 85.4601C85.9366 85.5053 86.1627 86.048 86.0722 86.4099C85.9366 86.8621 85.5295 86.9978 85.1225 86.9526C83.1324 86.636 81.1424 86.2289 79.1524 85.8219C77.4337 85.4601 75.4437 85.1435 73.9512 84.1032C73.2727 83.6057 72.7752 82.7464 73.318 81.9775C73.8155 81.2539 74.9914 81.1182 75.8055 81.073C76.7101 81.0277 77.6598 81.2087 78.5644 81.3443C79.5594 81.48 80.5092 81.6609 81.5042 81.7966C82.9967 82.0228 84.5797 82.3393 86.1175 82.2037C85.7104 82.068 85.3034 81.9323 84.8963 81.7966C83.9013 81.5253 82.8611 81.2991 81.8208 81.073C79.7403 80.6659 77.6598 80.3041 75.6698 79.6257C75.1723 79.4448 74.72 79.2639 74.2678 79.0829C73.7702 78.8568 73.2727 78.6307 73.0014 78.1784C72.3682 77.1834 73.2727 76.0979 74.2678 75.9622C74.4939 75.917 74.6748 75.917 74.9009 75.8718C74.1321 74.1079 72.8205 72.6153 71.5993 71.1681C70.2877 69.6303 69.1118 67.9569 68.2072 66.1478C66.3981 62.62 65.4483 58.5947 65.584 54.6146C65.7197 49.5039 67.7549 44.5288 71.147 40.7749C68.1168 41.0463 65.1317 41.3176 62.1014 41.6795C62.5085 43.3077 63.006 44.9811 64.4081 46.0666C64.9508 46.5641 64.4985 47.5139 63.8201 47.5139C61.423 47.5139 59.0712 47.9661 56.855 48.8707C57.2621 50.2275 57.6691 51.6296 57.9857 52.9864ZM61.9205 45.9309C61.1517 44.8454 60.6994 43.579 60.5185 42.2222C58.6189 43.2172 57.443 45.2525 56.5384 47.1973C58.3023 46.5188 60.0662 46.0666 61.9205 45.9309Z" fill="#625CF9"/>
<path d="M74.1324 85.9124C77.7054 86.7265 81.3236 87.4049 84.9871 87.9024C85.0323 87.9024 85.0323 87.9024 85.0775 87.9024C85.575 87.9024 86.0725 88.4451 85.7559 89.0331C84.3539 91.5658 81.1427 91.8824 78.5647 91.5206C75.9867 91.204 73.3635 89.6663 73.1374 86.8169C73.1374 86.636 73.1826 86.4551 73.273 86.3646C73.3635 86.0933 73.6801 85.8219 74.1324 85.9124ZM78.8813 90.0733C80.419 90.2542 82.3638 90.209 83.6302 89.214C80.6904 88.7617 77.7506 88.2642 74.8108 87.631C75.3987 89.1688 77.3435 89.8924 78.8813 90.0733ZM95.3443 64.61C93.2638 68.4091 90.1431 71.5751 86.3891 73.746C85.7559 74.1079 85.168 73.1129 85.8012 72.751C88.4696 71.2133 90.8215 69.1328 92.6306 66.6905C93.5351 65.4693 94.3492 64.1577 94.9824 62.7557C95.7061 61.2179 96.4297 59.454 96.294 57.6901C96.1131 54.9765 93.4447 52.6698 90.731 52.896C90.0074 52.9412 89.2385 53.2126 88.6053 53.6648C88.7862 54.8408 88.5601 56.0619 87.7912 56.9213C87.1128 57.6901 86.163 57.1474 85.9821 56.2428C85.8464 55.474 86.2082 54.5694 86.6605 53.9362C86.8414 53.6648 87.0676 53.4387 87.2937 53.2578C86.7962 52.0819 85.575 51.313 84.2634 51.4035C83.1327 51.4487 82.2282 52.2176 81.8211 53.1673C82.002 53.8458 81.9568 54.6146 81.3688 55.1121C80.9618 55.4287 80.419 55.2478 80.3738 54.7051C80.3286 54.1624 80.419 53.6648 80.6 53.1673C80.4643 52.9412 80.3286 52.7151 80.1929 52.5794C79.6502 51.9462 78.9718 51.313 78.1124 51.0869C76.3033 50.5893 74.7203 52.0819 74.1324 53.6648C73.4539 55.4287 73.5444 57.464 73.7705 59.3183C74.0419 61.1727 74.5846 63.027 75.3083 64.7457C76.1676 66.7357 77.2983 68.5901 78.5647 70.3539C79.017 70.9419 78.022 71.5299 77.5697 70.9419C74.9465 67.2784 72.9112 63.027 72.5042 58.5042C72.3232 56.3333 72.4137 53.8005 73.7253 51.9462C74.9012 50.2728 77.027 49.323 78.9718 50.1823C79.8311 50.5441 80.6452 51.2225 81.1879 51.9914C81.6854 51.313 82.3638 50.7703 83.1779 50.4989C84.8514 49.9109 86.7962 50.5441 87.8364 51.9462C87.9721 52.1271 88.1078 52.3532 88.1983 52.5794C89.0576 52.0819 90.0074 51.7653 91.0024 51.7653C92.7663 51.7653 94.4849 52.5794 95.6609 53.891C96.882 55.2026 97.5604 56.9665 97.3795 58.7756C97.2438 60.8109 96.3393 62.8009 95.3443 64.61ZM87.5198 54.8408C87.3841 55.1121 87.2485 55.3835 87.2032 55.7001C87.2032 55.7453 87.2032 55.7906 87.2032 55.8358C87.3841 55.5644 87.4746 55.2026 87.5198 54.8408ZM108.325 48.5993C108.234 48.2827 108.415 48.0114 108.732 47.8757C110.496 47.1973 112.26 46.5641 113.978 45.8856C114.25 45.7952 114.611 46.0213 114.702 46.2927C114.792 46.6093 114.611 46.8807 114.295 47.0163C112.531 47.6948 110.767 48.328 109.048 49.0064C108.732 49.1421 108.37 48.9159 108.325 48.5993ZM102.174 36.2973C101.902 36.4782 101.54 36.3426 101.405 36.0712C101.224 35.7998 101.36 35.4832 101.631 35.3023C102.943 34.3073 104.254 33.0409 105.204 31.6841C105.385 31.4127 105.701 31.3223 105.973 31.4579C106.199 31.5936 106.38 32.0007 106.199 32.2268C105.023 33.8098 103.711 35.1666 102.174 36.2973ZM89.1933 30.8248C88.9219 30.8248 88.6053 30.5534 88.6053 30.2368C88.6958 28.7895 88.8314 27.3422 88.9219 25.8497C88.9671 25.5331 89.148 25.2617 89.5099 25.2617C89.7812 25.2617 90.0978 25.5331 90.0978 25.8497C90.0074 27.297 89.8717 28.7443 89.7812 30.2368C89.736 30.5534 89.5099 30.8248 89.1933 30.8248ZM71.1021 35.7546C69.9262 34.4882 68.6598 33.3575 67.3029 32.272C67.0768 32.0911 67.0768 31.6389 67.303 31.4579C67.5291 31.2318 67.8909 31.277 68.1171 31.4579C69.4739 32.5434 70.7403 33.7193 71.9162 34.9405C72.1423 35.1666 72.1423 35.5285 71.9162 35.7546C71.7353 35.9807 71.3282 35.9807 71.1021 35.7546Z" fill="#625CF9"/>
</g>
<g filter="url(#filter1_d_242_59)">
<circle cx="225" cy="260" r="64" fill="white"/>
<path d="M199.985 266.975C200.176 266.138 200.638 265.348 201.369 264.71C202.104 264.076 203.001 263.694 203.931 263.553L218.88 260.661L214.555 263.531L221.383 284.935L225.228 269.036L229.075 284.935L235.899 263.532L231.576 260.661L246.526 263.554C247.456 263.695 248.352 264.076 249.087 264.71C249.818 265.349 250.282 266.139 250.471 266.975L254.904 286.444L246.543 289.346C243.767 292.231 235.997 294.354 226.678 294.556L223.779 294.556C214.46 294.354 206.691 292.231 203.914 289.346L195.553 286.444L199.985 266.975Z" fill="#625CF9"/>
<path d="M225.228 262.834L228.674 264.068L225.228 269.036L221.781 264.068L225.228 262.834ZM212.434 243.662C212.434 234.826 216.07 227.901 225.228 227.901C234.387 227.901 238.022 234.827 238.022 243.662C238.98 244.162 239.609 245.335 238.668 247.848C238.194 249.11 237.357 250.168 236.648 250.721C234.038 257.219 228.905 262.236 225.228 262.236C221.552 262.236 216.418 257.219 213.809 250.721C213.099 250.168 212.264 249.11 211.788 247.848C210.847 245.334 211.476 244.162 212.434 243.662ZM256.003 282.003C260.271 281.499 263.635 280.346 265.035 278.891L270.456 277.01L267.582 264.387C267.459 263.845 267.158 263.332 266.684 262.919C266.213 262.517 265.637 262.257 265.024 262.169L254.524 259.764C256.104 258.413 257.638 256.295 258.619 253.849C259.079 253.49 259.621 252.805 259.929 251.986C260.54 250.357 260.132 249.597 259.51 249.272C259.51 243.544 257.155 239.054 251.216 239.054L251.215 239.054C245.277 239.054 242.92 243.544 242.92 249.272C242.299 249.597 241.891 250.357 242.501 251.986C242.809 252.805 243.351 253.49 243.812 253.849C244.793 256.295 246.327 258.413 247.906 259.764L243.264 260.828L246.878 261.527C248.212 261.735 249.441 262.298 250.44 263.161C251.478 264.067 252.183 265.228 252.478 266.518L256.003 282.003ZM182.874 264.387C182.998 263.844 183.298 263.332 183.772 262.919C184.248 262.508 184.829 262.259 185.433 262.169L195.932 259.764C194.352 258.413 192.819 256.295 191.836 253.848C191.375 253.49 190.835 252.804 190.527 251.986C189.916 250.357 190.324 249.597 190.945 249.272C190.945 243.543 193.303 239.054 199.241 239.054C205.18 239.054 207.536 243.543 207.536 249.272C208.157 249.597 208.565 250.357 207.955 251.986C207.648 252.804 207.105 253.49 206.645 253.848C205.663 256.294 204.129 258.413 202.549 259.764L207.193 260.828L203.579 261.527C202.246 261.735 201.016 262.298 200.026 263.152C198.979 264.067 198.275 265.228 197.981 266.516L194.455 282.003C190.187 281.499 186.823 280.346 185.423 278.891L180.002 277.01L182.874 264.387Z" fill="#625CF9"/>
</g>
<g filter="url(#filter2_d_242_59)">
<circle cx="84" cy="474" r="64" fill="white"/>
<path d="M53.3097 475.928L62.1848 458.132C62.2855 457.932 62.4219 457.751 62.5873 457.599C62.7495 457.452 62.939 457.338 63.145 457.263L73.5519 453.523C74.2925 453.256 75.0746 453.123 75.8617 453.13C76.6488 453.138 77.4281 453.287 78.1634 453.568L86.0597 456.58C86.623 456.795 87.1744 457.041 87.7114 457.315C87.8932 457.409 88.0719 457.511 88.2496 457.611C88.8517 457.285 89.4759 457.001 90.1176 456.762C92.1094 456.013 94.2432 455.72 96.3631 455.901L101.676 456.357C101.917 456.378 102.15 456.453 102.358 456.577C102.576 456.705 102.756 456.878 102.898 457.079L114.859 474.107C115.118 474.476 115.237 474.924 115.197 475.373C115.163 475.818 114.971 476.237 114.656 476.553L109.453 481.71C109.747 482.245 109.92 482.837 109.961 483.446C109.999 484.001 109.927 484.558 109.748 485.084C109.57 485.611 109.289 486.096 108.921 486.513C108.556 486.932 108.111 487.275 107.612 487.52C107.113 487.766 106.571 487.911 106.016 487.945C105.956 487.949 105.895 487.949 105.834 487.952C106.296 489.447 105.918 491.146 104.713 492.287C103.997 492.965 103.067 493.37 102.084 493.431C102.717 495.001 102.374 496.872 101.08 498.097C100.296 498.843 99.254 499.258 98.1713 499.256C97.0388 499.256 95.9823 498.814 95.1844 498.015C94.8877 499.932 93.2953 501.46 91.2813 501.591C91.1886 501.598 91.0936 501.602 91.0009 501.602C90.5 501.601 90.0034 501.51 89.5346 501.334C88.7707 501.848 87.8628 502.106 86.9426 502.069C85.7748 502.021 84.7273 501.505 83.9439 500.7L86.8055 497.844C86.7987 497.778 86.7865 497.715 86.7838 497.647C86.7481 497.102 86.8183 496.556 86.9905 496.039L81.1339 501.88C80.3949 502.181 79.5908 502.332 78.7531 502.298C77.077 502.23 75.584 501.438 74.5266 500.213L73.9404 499.534C73.8862 499.469 73.8446 499.397 73.8084 499.319L82.8255 490.327C83.0579 490.097 83.0765 489.714 82.8702 489.473C82.6635 489.233 82.3053 489.225 82.0747 489.455L71.3507 500.149C70.7663 500.354 70.1408 500.454 69.4909 500.427C68.0174 500.367 66.7026 499.671 65.7732 498.592L64.3571 496.953C64.0158 496.552 63.8373 496.037 63.8569 495.511L73.2674 486.128C73.4972 485.898 73.518 485.514 73.3118 485.275C73.1037 485.034 72.7464 485.026 72.5162 485.256L63.0613 494.684C62.6657 494.791 62.2563 494.837 61.8469 494.822C60.6389 494.773 59.5643 494.203 58.8036 493.32L58.4232 492.879C57.662 491.998 57.2133 490.804 57.259 489.505C57.3052 488.207 57.8343 487.054 58.6548 486.235L61.1789 483.719L60.5412 484.354L53.7163 478.191C53.4119 477.914 53.2087 477.543 53.1392 477.137C53.065 476.726 53.1248 476.302 53.3097 475.928ZM105.898 486.121C106.213 486.101 106.521 486.019 106.804 485.879C107.087 485.74 107.339 485.545 107.547 485.308C107.755 485.071 107.915 484.795 108.016 484.496C108.118 484.197 108.158 483.881 108.136 483.566C108.094 482.931 107.801 482.338 107.322 481.918C106.844 481.498 106.218 481.286 105.582 481.327C105.267 481.347 104.959 481.429 104.676 481.568C104.393 481.708 104.141 481.902 103.933 482.14C103.725 482.377 103.565 482.653 103.463 482.952C103.362 483.251 103.321 483.567 103.342 483.882C103.43 485.194 104.57 486.209 105.898 486.121ZM101.806 491.616C102.42 491.617 103.011 491.382 103.456 490.96C104.406 490.061 104.458 488.548 103.576 487.591C103.53 487.543 102.593 486.552 102.144 486.079L101.908 485.828C101.684 485.59 101.413 485.4 101.113 485.271C100.813 485.142 100.489 485.076 100.163 485.077C99.5458 485.077 98.9592 485.311 98.5123 485.735C98.2822 485.951 98.0973 486.211 97.9684 486.499C97.8395 486.787 97.7692 487.098 97.7615 487.414C97.7521 487.729 97.8052 488.043 97.9179 488.337C98.0305 488.631 98.2004 488.901 98.4178 489.129L99.0863 489.836L99.5394 490.314C99.5643 490.342 99.5919 490.37 99.6159 490.396L99.9157 490.711C99.9614 490.76 100.007 490.81 100.054 490.857C100.278 491.098 100.549 491.29 100.851 491.42C101.152 491.551 101.477 491.617 101.806 491.616ZM96.4431 496.693C96.6664 496.927 96.9348 497.112 97.2321 497.238C97.5294 497.365 97.8492 497.429 98.1722 497.428C98.7866 497.429 99.3779 497.193 99.823 496.77C100.773 495.871 100.825 494.358 99.9456 493.406C99.9248 493.383 99.3744 492.8 98.7507 492.142L98.2875 491.653C97.4766 490.795 97.2107 490.516 97.1211 490.418C97.1101 490.409 97.0997 490.398 97.0899 490.388L97.0881 490.386C97.0098 490.302 96.9642 490.255 96.9628 490.253C96.739 490.015 96.4686 489.825 96.1683 489.696C95.868 489.567 95.5444 489.501 95.2175 489.502C94.6005 489.502 94.0153 489.735 93.5671 490.16C93.3374 490.376 93.1528 490.635 93.0241 490.924C92.8954 491.212 92.8251 491.522 92.8172 491.838C92.8076 492.153 92.8609 492.468 92.9738 492.763C93.0868 493.059 93.2572 493.328 93.4753 493.557L96.4431 496.693ZM91.1623 499.769C91.7976 499.726 92.3901 499.433 92.8099 498.954C93.2296 498.475 93.4424 497.85 93.4016 497.214C93.3188 495.955 92.269 494.969 91.009 494.969C90.6802 494.969 90.3548 495.037 90.053 495.167C89.7513 495.298 89.4795 495.489 89.2545 495.729C89.0295 495.969 88.856 496.252 88.7448 496.562C88.6336 496.871 88.587 497.2 88.6078 497.528C88.6947 498.839 89.8331 499.856 91.1623 499.769ZM61.7981 483.102L80.4926 464.463L80.2818 463.931C80.2259 463.789 80.2027 463.636 80.2139 463.483C80.2251 463.33 80.2704 463.182 80.3465 463.05C80.5066 462.775 80.7744 462.614 81.0548 462.6L82.4442 462.516L83.962 462.426L84.0774 464.225C84.0787 464.263 84.3795 468.354 86.4659 472.051C88.6047 475.844 91.4387 477.152 91.8706 477.236C92.3532 477.33 92.8593 477.419 93.2799 477.419C93.5689 477.419 93.7914 477.378 93.9818 477.291L94.6915 476.962C94.9891 476.824 95.2161 476.571 95.336 476.248C95.452 475.937 95.452 475.596 95.336 475.285L88.2257 459.681L87.0167 458.884L86.5296 458.699L86.5305 458.699L77.5944 455.29C77.0362 455.077 76.4444 454.964 75.8468 454.959L75.797 454.958C75.2172 454.958 74.6428 455.059 74.0929 455.257L63.6855 458.997L54.8095 476.792L61.7981 483.102ZM51.6833 446.767L58.709 450.27C59.2282 450.529 59.6912 450.887 60.0717 451.325C60.4521 451.763 60.7424 452.271 60.9261 452.821C61.1104 453.371 61.1844 453.952 61.144 454.531C61.1035 455.11 60.9494 455.675 60.6905 456.194L51.4916 474.636C51.2334 475.155 50.8749 475.618 50.4369 475.999C49.9989 476.379 49.4899 476.669 48.9393 476.852C48.3897 477.037 47.8089 477.111 47.2304 477.071C46.6519 477.03 46.0871 476.876 45.5685 476.616L38.5442 473.111L51.6833 446.767ZM45.5866 473.122C46.0355 473.122 46.4659 472.944 46.7833 472.627C47.1007 472.309 47.279 471.879 47.279 471.43C47.279 470.981 47.1007 470.55 46.7833 470.233C46.4659 469.916 46.0355 469.737 45.5866 469.737C45.1377 469.737 44.7073 469.916 44.3899 470.233C44.0725 470.55 43.8942 470.981 43.8942 471.43C43.8942 471.879 44.0725 472.309 44.3899 472.627C44.7073 472.944 45.1377 473.122 45.5866 473.122ZM129 469.09L122.577 473.603C122.103 473.937 121.567 474.174 121.001 474.3C120.435 474.427 119.849 474.44 119.278 474.339C118.707 474.24 118.161 474.029 117.671 473.718C117.182 473.408 116.758 473.003 116.426 472.528L104.579 455.664C104.245 455.19 104.008 454.655 103.881 454.089C103.754 453.523 103.741 452.937 103.842 452.366C103.941 451.794 104.152 451.248 104.463 450.758C104.774 450.268 105.178 449.845 105.653 449.511L112.077 445L129 469.09ZM123.46 468.225C123.429 468.003 123.354 467.789 123.24 467.596C123.126 467.404 122.975 467.235 122.796 467.101C122.617 466.967 122.412 466.87 122.195 466.816C121.978 466.761 121.752 466.75 121.531 466.783C121.309 466.817 121.097 466.894 120.905 467.01C120.714 467.126 120.547 467.279 120.415 467.46C120.283 467.641 120.188 467.846 120.136 468.064C120.084 468.282 120.076 468.508 120.112 468.729C120.183 469.169 120.425 469.563 120.785 469.825C121.145 470.088 121.594 470.198 122.035 470.131C122.476 470.065 122.872 469.828 123.139 469.471C123.406 469.114 123.521 468.666 123.46 468.225Z" fill="#625CF9"/>
</g>
<g filter="url(#filter3_d_242_59)">
<circle cx="225" cy="688" r="64" fill="white"/>
<path d="M205.446 691.681L196.568 691.681C195.343 691.681 194.349 692.675 194.349 693.901L194.349 716.094C194.349 717.32 195.343 718.313 196.568 718.313L205.446 718.313C206.672 718.313 207.665 717.32 207.665 716.094L207.665 693.901C207.665 692.675 206.672 691.681 205.446 691.681Z" fill="#625CF9"/>
<path d="M229.859 677.987L220.981 677.987C220.393 677.987 219.828 678.221 219.412 678.638C218.996 679.054 218.762 679.618 218.762 680.207L218.762 717.115C218.762 717.703 218.996 718.268 219.412 718.684C219.828 719.1 220.393 719.334 220.981 719.334L229.859 719.334C230.447 719.334 231.012 719.1 231.428 718.684C231.844 718.268 232.078 717.703 232.078 717.115L232.078 680.296C232.09 679.997 232.041 679.699 231.935 679.419C231.829 679.139 231.667 678.884 231.46 678.669C231.253 678.453 231.004 678.282 230.729 678.164C230.454 678.047 230.158 677.987 229.859 677.987ZM254.271 664.183L245.394 664.183C244.805 664.183 244.241 664.417 243.825 664.833C243.409 665.249 243.175 665.814 243.175 666.402L243.175 717.115C243.175 717.703 243.409 718.268 243.825 718.684C244.241 719.1 244.805 719.334 245.394 719.334L254.271 719.334C254.86 719.334 255.425 719.1 255.841 718.684C256.257 718.268 256.491 717.703 256.491 717.115L256.491 666.491C256.503 666.192 256.454 665.894 256.348 665.615C256.242 665.335 256.08 665.08 255.873 664.864C255.666 664.649 255.417 664.477 255.142 664.36C254.867 664.243 254.571 664.183 254.271 664.183ZM236.517 661.631C236.506 661.55 236.506 661.468 236.517 661.387C236.47 661.195 236.403 661.009 236.317 660.832C236.313 660.773 236.313 660.713 236.317 660.654C236.191 660.433 236.026 660.238 235.829 660.077C235.63 659.943 235.414 659.838 235.185 659.767L226.308 657.547C226.009 657.406 225.683 657.333 225.353 657.334C225.024 657.335 224.698 657.409 224.4 657.551C224.103 657.694 223.841 657.901 223.633 658.157C223.425 658.414 223.278 658.713 223.201 659.034C223.117 659.323 223.094 659.625 223.131 659.923C223.168 660.221 223.265 660.509 223.417 660.768C223.568 661.028 223.771 661.254 224.012 661.432C224.253 661.611 224.528 661.739 224.821 661.808L228.083 662.652L195.525 680.584C195 680.883 194.612 681.374 194.443 681.954C194.273 682.533 194.335 683.156 194.615 683.691C194.798 684.054 195.077 684.359 195.421 684.575C195.765 684.79 196.162 684.907 196.568 684.912C196.934 684.921 197.295 684.829 197.611 684.646L230.902 666.358L229.859 670.53C229.772 670.82 229.745 671.125 229.781 671.426C229.816 671.726 229.913 672.017 230.065 672.279C230.216 672.541 230.42 672.769 230.663 672.949C230.906 673.129 231.184 673.258 231.479 673.327C231.77 673.417 232.077 673.446 232.38 673.413C232.683 673.379 232.976 673.283 233.241 673.131C233.505 672.979 233.736 672.774 233.918 672.529C234.099 672.284 234.229 672.004 234.297 671.707L236.517 662.519C236.568 662.225 236.568 661.925 236.517 661.631Z" fill="#625CF9"/>
</g>
<path d="M136.001 63.5C136.001 67.9182 139.582 71.5 144.001 71.5C148.419 71.5 152.001 67.9182 152.001 63.5C152.001 59.0817 148.419 55.5 144.001 55.5C139.582 55.5 136.001 59.0817 136.001 63.5ZM163.501 153L163.72 154.484L163.501 153ZM155.5 240.5C155.5 244.918 159.082 248.5 163.5 248.5C167.919 248.5 171.5 244.918 171.5 240.5C171.5 236.082 167.919 232.5 163.5 232.5C159.082 232.5 155.5 236.082 155.5 240.5ZM144.264 64.9767C145.182 64.8131 146.104 64.6815 147.031 64.5808L146.707 61.5984C145.714 61.7063 144.724 61.8475 143.738 62.0232L144.264 64.9767ZM152.622 64.34C154.484 64.3777 156.354 64.5295 158.222 64.7878L158.633 61.8161C156.654 61.5424 154.667 61.3807 152.683 61.3406L152.622 64.34ZM163.749 65.8583C165.563 66.3091 167.368 66.8542 169.155 67.4862L170.155 64.658C168.281 63.9951 166.384 63.4218 164.472 62.9468L163.749 65.8583ZM174.4 69.6122C176.113 70.3958 177.799 71.256 179.452 72.1853L180.922 69.5706C179.199 68.6014 177.439 67.7033 175.648 66.8841L174.4 69.6122ZM184.281 75.1636C185.854 76.2216 187.383 77.3408 188.862 78.5137L190.726 76.1633C189.187 74.942 187.594 73.7766 185.956 72.6746L184.281 75.1636ZM193.167 82.2134C194.563 83.5124 195.897 84.8588 197.161 86.2445L199.377 84.2228C198.057 82.7756 196.666 81.3711 195.211 80.0173L193.167 82.2134ZM200.795 90.5903C201.954 92.1088 203.028 93.6601 204.007 95.2347L206.555 93.6507C205.523 91.9912 204.395 90.3611 203.179 88.7695L200.795 90.5903ZM206.717 100.157C207.544 101.879 208.252 103.616 208.831 105.355L211.677 104.408C211.056 102.541 210.3 100.687 209.422 98.8584L206.717 100.157ZM210.2 110.75C210.52 112.596 210.682 114.431 210.674 116.244L213.674 116.256C213.682 114.257 213.504 112.246 213.156 110.238L210.2 110.75ZM210.113 121.699C209.746 123.469 209.195 125.208 208.445 126.904L211.189 128.117C212.026 126.223 212.641 124.282 213.05 122.308L210.113 121.699ZM205.73 131.654C204.71 133.085 203.519 134.478 202.143 135.822L204.24 137.968C205.737 136.504 207.046 134.977 208.173 133.395L205.73 131.654ZM197.882 139.393C196.443 140.434 194.867 141.436 193.146 142.391L194.603 145.014C196.421 144.004 198.099 142.939 199.641 141.823L197.882 139.393ZM188.089 144.879C186.433 145.601 184.673 146.286 182.806 146.931L183.786 149.767C185.723 149.098 187.555 148.384 189.287 147.63L188.089 144.879ZM177.346 148.615C175.561 149.106 173.693 149.563 171.74 149.986L172.375 152.918C174.379 152.484 176.3 152.014 178.14 151.508L177.346 148.615ZM166.202 151.052C165.246 151.214 164.272 151.369 163.281 151.516L163.72 154.484C164.732 154.334 165.727 154.176 166.704 154.01L166.202 151.052ZM163.281 151.516C162.274 151.665 161.279 151.817 160.297 151.972L160.763 154.935C161.736 154.782 162.722 154.631 163.72 154.484L163.281 151.516ZM154.519 152.936C152.517 153.291 150.571 153.657 148.679 154.036L149.268 156.977C151.137 156.603 153.061 156.241 155.042 155.89L154.519 152.936ZM142.87 155.275C140.882 155.727 138.963 156.194 137.112 156.675L137.866 159.578C139.686 159.105 141.575 158.646 143.535 158.201L142.87 155.275ZM131.403 158.268C129.429 158.859 127.544 159.47 125.748 160.099L126.741 162.931C128.49 162.317 130.331 161.721 132.264 161.141L131.403 158.268ZM120.172 162.231C118.231 163.043 116.417 163.881 114.73 164.747L116.099 167.416C117.71 166.59 119.453 165.784 121.329 164.999L120.172 162.231ZM109.531 167.759C107.707 168.96 106.088 170.21 104.677 171.509L106.708 173.717C107.985 172.541 109.473 171.389 111.181 170.264L109.531 167.759ZM100.616 176.205C99.3897 178.064 98.5286 180.005 98.0404 182.021L100.956 182.727C101.357 181.073 102.07 179.449 103.12 177.856L100.616 176.205ZM97.7196 188.401C97.98 190.397 98.5634 192.413 99.4456 194.443L102.197 193.248C101.411 191.44 100.914 189.694 100.694 188.013L97.7196 188.401ZM102.433 199.803C103.505 201.387 104.746 202.983 106.151 204.589L108.409 202.613C107.075 201.088 105.912 199.591 104.918 198.122L102.433 199.803ZM110.302 208.914C111.681 210.238 113.168 211.569 114.759 212.908L116.69 210.613C115.144 209.312 113.707 208.024 112.379 206.75L110.302 208.914ZM119.421 216.627C120.949 217.785 122.552 218.949 124.23 220.118L125.944 217.656C124.297 216.509 122.727 215.369 121.234 214.237L119.421 216.627ZM129.149 223.419C130.76 224.464 132.43 225.512 134.157 226.563L135.717 224C134.013 222.963 132.367 221.93 130.78 220.902L129.149 223.419ZM139.244 229.572C140.916 230.535 142.636 231.5 144.402 232.468L145.843 229.837C144.095 228.879 142.394 227.924 140.741 226.972L139.244 229.572ZM149.627 235.266C151.342 236.163 153.096 237.063 154.888 237.964L156.235 235.283C154.457 234.39 152.718 233.498 151.018 232.608L149.627 235.266ZM160.158 240.561C161.049 240.992 161.948 241.423 162.857 241.855L164.144 239.145C163.242 238.717 162.349 238.288 161.464 237.861L160.158 240.561Z" fill="#919191"/>
<path d="M278.5 269C278.5 273.418 282.082 277 286.5 277C290.918 277 294.5 273.418 294.5 269C294.5 264.582 290.918 261 286.5 261C282.082 261 278.5 264.582 278.5 269ZM271.5 382.5L271.944 381.067L271.5 382.5ZM120 425.5C120 429.918 123.582 433.5 128 433.5C132.418 433.5 136 429.918 136 425.5C136 421.082 132.418 417.5 128 417.5C123.582 417.5 120 421.082 120 425.5ZM130.662 423.596C131.049 422.863 130.768 421.956 130.035 421.57C129.302 421.183 128.395 421.464 128.009 422.197L130.662 423.596ZM130.927 416.984C130.504 417.696 130.737 418.617 131.449 419.041C132.161 419.464 133.081 419.231 133.505 418.519L130.927 416.984ZM136.62 413.61C137.083 412.924 136.903 411.991 136.217 411.527C135.531 411.064 134.598 411.244 134.134 411.93L136.62 413.61ZM137.64 407.067C137.135 407.724 137.258 408.666 137.915 409.171C138.572 409.676 139.513 409.552 140.018 408.896L137.64 407.067ZM143.703 404.404C144.249 403.781 144.186 402.833 143.563 402.287C142.94 401.742 141.992 401.804 141.446 402.428L143.703 404.404ZM145.535 398.057C144.949 398.643 144.949 399.592 145.535 400.178C146.121 400.764 147.071 400.764 147.656 400.178L145.535 398.057ZM151.898 396.213C152.523 395.668 152.587 394.721 152.043 394.097C151.498 393.472 150.55 393.408 149.926 393.952L151.898 396.213ZM154.574 390.172C153.913 390.672 153.784 391.613 154.284 392.274C154.784 392.934 155.725 393.064 156.385 392.564L154.574 390.172ZM161.12 389.231C161.814 388.778 162.009 387.849 161.557 387.155C161.104 386.461 160.174 386.266 159.481 386.719L161.12 389.231ZM164.628 383.609C163.904 384.013 163.645 384.926 164.048 385.65C164.452 386.374 165.365 386.633 166.089 386.23L164.628 383.609ZM171.237 383.587C171.987 383.234 172.308 382.34 171.955 381.59C171.602 380.841 170.709 380.52 169.959 380.873L171.237 383.587ZM175.458 378.504C174.687 378.806 174.307 379.677 174.609 380.448C174.911 381.219 175.782 381.6 176.553 381.297L175.458 378.504ZM182.015 379.358C182.804 379.106 183.24 378.262 182.987 377.472C182.735 376.683 181.891 376.248 181.102 376.5L182.015 379.358ZM186.858 374.855C186.055 375.058 185.569 375.874 185.772 376.677C185.976 377.48 186.792 377.967 187.595 377.763L186.858 374.855ZM193.265 376.504C194.078 376.347 194.611 375.561 194.455 374.747C194.298 373.934 193.512 373.401 192.698 373.557L193.265 376.504ZM198.596 372.592C197.776 372.704 197.201 373.46 197.312 374.28C197.424 375.101 198.18 375.676 199.001 375.565L198.596 372.592ZM204.784 374.93C205.609 374.86 206.222 374.134 206.152 373.309C206.083 372.483 205.357 371.871 204.532 371.94L204.784 374.93ZM210.489 371.582C209.661 371.613 209.014 372.308 209.044 373.136C209.074 373.964 209.77 374.611 210.598 374.58L210.489 371.582ZM216.433 374.499C217.261 374.506 217.938 373.84 217.945 373.011C217.952 372.183 217.285 371.506 216.457 371.499L216.433 374.499ZM222.432 371.672C221.604 371.631 220.9 372.269 220.86 373.096C220.819 373.924 221.456 374.628 222.284 374.668L222.432 371.672ZM228.11 375.069C228.936 375.142 229.663 374.531 229.736 373.706C229.808 372.881 229.198 372.153 228.373 372.081L228.11 375.069ZM234.262 372.704C233.44 372.602 232.691 373.187 232.59 374.009C232.488 374.831 233.072 375.58 233.894 375.681L234.262 372.704ZM239.68 376.494C240.499 376.622 241.266 376.063 241.395 375.245C241.523 374.426 240.964 373.659 240.146 373.53L239.68 376.494ZM246.032 374.549C245.218 374.395 244.434 374.931 244.28 375.745C244.126 376.559 244.662 377.343 245.476 377.497L246.032 374.549ZM251.196 378.662C252.006 378.839 252.805 378.326 252.982 377.516C253.158 376.707 252.646 375.908 251.836 375.731L251.196 378.662ZM257.599 377.07C256.794 376.872 255.982 377.363 255.784 378.168C255.586 378.972 256.077 379.785 256.882 379.983L257.599 377.07ZM262.594 381.466C263.393 381.684 264.217 381.212 264.435 380.413C264.653 379.614 264.182 378.789 263.383 378.571L262.594 381.466ZM269.053 380.189C268.259 379.953 267.424 380.405 267.188 381.199C266.952 381.993 267.404 382.828 268.198 383.064L269.053 380.189ZM274.076 384.783C274.879 384.987 275.695 384.5 275.898 383.697C276.102 382.894 275.615 382.078 274.812 381.875L274.076 384.783ZM280.492 382.975C279.67 382.867 278.917 383.444 278.808 384.265C278.699 385.087 279.276 385.841 280.098 385.949L280.492 382.975ZM286.248 386.354C287.077 386.352 287.746 385.678 287.744 384.85C287.741 384.021 287.067 383.352 286.239 383.354L286.248 386.354ZM291.958 382.909C291.139 383.037 290.579 383.804 290.707 384.623C290.834 385.441 291.601 386.001 292.42 385.874L291.958 382.909ZM298.454 384.427C299.241 384.169 299.67 383.321 299.411 382.534C299.153 381.747 298.306 381.318 297.519 381.576L298.454 384.427ZM302.786 379.355C302.052 379.738 301.767 380.644 302.15 381.379C302.533 382.113 303.438 382.398 304.173 382.015L302.786 379.355ZM309.428 378.724C310.094 378.232 310.235 377.293 309.743 376.627C309.251 375.96 308.311 375.819 307.645 376.312L309.428 378.724ZM312.019 372.562C311.429 373.143 311.422 374.093 312.004 374.683C312.586 375.273 313.535 375.279 314.125 374.698L312.019 372.562ZM318.225 370.1C318.737 369.449 318.624 368.506 317.973 367.994C317.322 367.481 316.379 367.594 315.867 368.245L318.225 370.1ZM319.192 363.488C318.755 364.191 318.971 365.116 319.675 365.553C320.378 365.991 321.303 365.775 321.741 365.071L319.192 363.488ZM324.708 359.719C325.074 358.976 324.769 358.077 324.026 357.71C323.283 357.344 322.384 357.649 322.017 358.392L324.708 359.719ZM324.367 353.041C324.066 353.813 324.449 354.682 325.221 354.983C325.993 355.283 326.863 354.9 327.163 354.128L324.367 353.041ZM329.14 348.361C329.378 347.568 328.927 346.732 328.134 346.494C327.34 346.256 326.504 346.707 326.266 347.501L329.14 348.361ZM327.737 341.822C327.559 342.631 328.071 343.431 328.88 343.609C329.689 343.788 330.489 343.276 330.667 342.467L327.737 341.822ZM331.764 336.483C331.885 335.663 331.318 334.901 330.498 334.78C329.679 334.66 328.917 335.226 328.796 336.046L331.764 336.483ZM329.451 330.207C329.387 331.033 330.004 331.755 330.83 331.819C331.656 331.883 332.378 331.265 332.442 330.439L329.451 330.207ZM332.704 324.364C332.711 323.535 332.046 322.858 331.217 322.851C330.389 322.843 329.711 323.509 329.704 324.337L332.704 324.364ZM329.551 318.466C329.602 319.293 330.313 319.922 331.14 319.871C331.967 319.821 332.596 319.109 332.546 318.283L329.551 318.466ZM331.953 312.224C331.842 311.403 331.087 310.827 330.266 310.938C329.445 311.049 328.869 311.805 328.98 312.626L331.953 312.224ZM327.971 306.853C328.146 307.663 328.944 308.177 329.754 308.002C330.564 307.827 331.079 307.029 330.904 306.219L327.971 306.853ZM329.364 300.311C329.121 299.519 328.281 299.075 327.489 299.318C326.698 299.562 326.253 300.401 326.497 301.193L329.364 300.311ZM324.523 295.705C324.841 296.47 325.719 296.832 326.484 296.514C327.249 296.196 327.611 295.318 327.293 294.553L324.523 295.705ZM324.64 289.021C324.241 288.295 323.329 288.03 322.603 288.429C321.877 288.828 321.612 289.74 322.011 290.466L324.64 289.021ZM318.924 285.575C319.41 286.246 320.347 286.397 321.018 285.911C321.689 285.425 321.84 284.487 321.354 283.816L318.924 285.575ZM317.394 279.074C316.818 278.478 315.869 278.461 315.273 279.036C314.677 279.612 314.66 280.561 315.235 281.157L317.394 279.074ZM310.945 277.353C311.607 277.852 312.548 277.719 313.046 277.057C313.544 276.395 313.412 275.455 312.75 274.957L310.945 277.353ZM307.49 271.646C306.754 271.266 305.849 271.554 305.468 272.29C305.088 273.026 305.376 273.931 306.112 274.311L307.49 271.646ZM300.84 272.132C301.63 272.383 302.473 271.947 302.724 271.157C302.975 270.368 302.538 269.524 301.749 269.273L300.84 272.132ZM295.709 267.88C294.89 267.758 294.127 268.323 294.005 269.142C293.882 269.962 294.448 270.725 295.267 270.847L295.709 267.88ZM289.536 270.416C290.365 270.421 291.04 269.753 291.044 268.924C291.049 268.096 290.381 267.421 289.553 267.416L289.536 270.416ZM129.342 426.171C129.745 425.365 130.184 424.504 130.662 423.596L128.009 422.197C127.518 423.127 127.069 424.008 126.658 424.829L129.342 426.171ZM133.505 418.519C134.439 416.95 135.474 415.305 136.62 413.61L134.134 411.93C132.954 413.676 131.888 415.37 130.927 416.984L133.505 418.519ZM140.018 408.896C141.159 407.411 142.386 405.909 143.703 404.404L141.446 402.428C140.084 403.983 138.818 405.535 137.64 407.067L140.018 408.896ZM147.656 400.178C148.992 398.842 150.404 397.517 151.898 396.213L149.926 393.952C148.379 395.303 146.916 396.675 145.535 398.057L147.656 400.178ZM156.385 392.564C157.891 391.423 159.468 390.309 161.12 389.231L159.481 386.719C157.769 387.836 156.134 388.99 154.574 390.172L156.385 392.564ZM166.089 386.23C167.738 385.31 169.454 384.427 171.237 383.587L169.959 380.873C168.113 381.742 166.337 382.657 164.628 383.609L166.089 386.23ZM176.553 381.297C178.313 380.607 180.133 379.959 182.015 379.358L181.102 376.5C179.159 377.121 177.278 377.791 175.458 378.504L176.553 381.297ZM187.595 377.763C189.43 377.299 191.32 376.877 193.265 376.504L192.698 373.557C190.697 373.942 188.751 374.376 186.858 374.855L187.595 377.763ZM199.001 375.565C200.88 375.309 202.807 375.096 204.784 374.93L204.532 371.94C202.505 372.111 200.527 372.329 198.596 372.592L199.001 375.565ZM210.598 374.58C212.5 374.511 214.445 374.483 216.433 374.499L216.457 371.499C214.425 371.483 212.436 371.512 210.489 371.582L210.598 374.58ZM222.284 374.668C224.188 374.762 226.13 374.895 228.11 375.069L228.373 372.081C226.355 371.904 224.375 371.768 222.432 371.672L222.284 374.668ZM233.894 375.681C235.79 375.915 237.718 376.186 239.68 376.494L240.146 373.53C238.152 373.217 236.191 372.942 234.262 372.704L233.894 375.681ZM245.476 377.497C247.353 377.851 249.26 378.239 251.196 378.662L251.836 375.731C249.872 375.302 247.938 374.909 246.032 374.549L245.476 377.497ZM256.882 379.983C258.759 380.445 260.663 380.939 262.594 381.466L263.383 378.571C261.428 378.038 259.5 377.538 257.599 377.07L256.882 379.983ZM268.198 383.064C269.144 383.346 270.097 383.635 271.056 383.933L271.944 381.067C270.974 380.767 270.011 380.474 269.053 380.189L268.198 383.064ZM271.056 383.933C272.074 384.248 273.08 384.531 274.076 384.783L274.812 381.875C273.869 381.636 272.913 381.367 271.944 381.067L271.056 383.933ZM280.098 385.949C282.204 386.228 284.254 386.361 286.248 386.354L286.239 383.354C284.385 383.36 282.469 383.237 280.492 382.975L280.098 385.949ZM292.42 385.874C294.507 385.548 296.519 385.062 298.454 384.427L297.519 381.576C295.738 382.16 293.884 382.609 291.958 382.909L292.42 385.874ZM304.173 382.015C306.012 381.056 307.764 379.954 309.428 378.724L307.645 376.312C306.102 377.452 304.482 378.471 302.786 379.355L304.173 382.015ZM314.125 374.698C315.577 373.266 316.943 371.729 318.225 370.1L315.867 368.245C314.659 369.781 313.376 371.223 312.019 372.562L314.125 374.698ZM321.741 365.071C322.807 363.355 323.796 361.567 324.708 359.719L322.017 358.392C321.147 360.156 320.205 361.859 319.192 363.488L321.741 365.071ZM327.163 354.128C327.894 352.248 328.553 350.322 329.14 348.361L326.266 347.501C325.701 349.387 325.068 351.238 324.367 353.041L327.163 354.128ZM330.667 342.467C331.102 340.493 331.468 338.495 331.764 336.483L328.796 336.046C328.51 337.99 328.157 339.918 327.737 341.822L330.667 342.467ZM332.442 330.439C332.599 328.417 332.686 326.388 332.704 324.364L329.704 324.337C329.687 326.293 329.602 328.253 329.451 330.207L332.442 330.439ZM332.546 318.283C332.421 316.246 332.224 314.224 331.953 312.224L328.98 312.626C329.241 314.551 329.431 316.501 329.551 318.466L332.546 318.283ZM330.904 306.219C330.47 304.212 329.957 302.239 329.364 300.311L326.497 301.193C327.064 303.036 327.555 304.926 327.971 306.853L330.904 306.219ZM327.293 294.553C326.499 292.643 325.615 290.795 324.64 289.021L322.011 290.466C322.931 292.14 323.768 293.89 324.523 295.705L327.293 294.553ZM321.354 283.816C320.136 282.134 318.817 280.548 317.394 279.074L315.235 281.157C316.555 282.524 317.784 284.001 318.924 285.575L321.354 283.816ZM312.75 274.957C311.102 273.716 309.349 272.607 307.49 271.646L306.112 274.311C307.818 275.193 309.428 276.211 310.945 277.353L312.75 274.957ZM301.749 269.273C299.824 268.662 297.811 268.193 295.709 267.88L295.267 270.847C297.213 271.137 299.071 271.57 300.84 272.132L301.749 269.273ZM289.553 267.416C288.523 267.41 287.476 267.439 286.411 267.503L286.589 270.497C287.591 270.437 288.573 270.411 289.536 270.416L289.553 267.416Z" fill="#919191"/>
<path d="M43.5002 531.5C43.5002 535.918 47.0819 539.5 51.5002 539.5C55.9185 539.5 59.5002 535.918 59.5002 531.5C59.5002 527.082 55.9185 523.5 51.5002 523.5C47.0819 523.5 43.5002 527.082 43.5002 531.5ZM108 588.5L108.634 589.859L108.634 589.859L108 588.5ZM217 624C217 628.418 220.582 632 225 632C229.419 632 233 628.418 233 624C233 619.582 229.419 616 225 616C220.582 616 217 619.582 217 624ZM48.7611 533.74C48.4184 534.495 48.752 535.384 49.5062 535.726C50.2604 536.069 51.1496 535.736 51.4923 534.981L48.7611 533.74ZM49.1947 540.7C49.4676 539.917 49.0548 539.062 48.2726 538.789C47.4905 538.516 46.6351 538.929 46.3622 539.711L49.1947 540.7ZM44.5427 545.913C44.3516 546.719 44.8501 547.528 45.6562 547.719C46.4622 547.91 47.2706 547.412 47.4618 546.606L44.5427 545.913ZM46.3896 552.642C46.4857 551.819 45.8965 551.074 45.0737 550.978C44.2509 550.882 43.5059 551.471 43.4099 552.294L46.3896 552.642ZM43.0744 558.778C43.0872 559.606 43.7691 560.268 44.5974 560.255C45.4258 560.242 46.0869 559.56 46.0741 558.732L43.0744 558.778ZM46.6083 564.784C46.4735 563.966 45.7016 563.413 44.8842 563.548C44.0668 563.682 43.5135 564.454 43.6483 565.272L46.6083 564.784ZM45.233 571.627C45.4996 572.411 46.3516 572.831 47.136 572.564C47.9203 572.298 48.34 571.446 48.0733 570.661L45.233 571.627ZM50.5097 576.181C50.1084 575.456 49.1955 575.194 48.4708 575.595C47.7461 575.997 47.4839 576.909 47.8852 577.634L50.5097 576.181ZM51.5945 583.07C52.1237 583.707 53.0694 583.795 53.7068 583.266C54.3442 582.737 54.4319 581.791 53.9028 581.154L51.5945 583.07ZM58.1659 585.396C57.5261 584.87 56.5808 584.962 56.0545 585.602C55.5283 586.242 55.6203 587.187 56.2601 587.713L58.1659 585.396ZM61.7036 591.4C62.4291 591.8 63.3414 591.536 63.7412 590.81C64.141 590.085 63.877 589.173 63.1514 588.773L61.7036 591.4ZM68.6761 591.211C67.8924 590.943 67.0395 591.36 66.7711 592.144C66.5028 592.928 66.9206 593.781 67.7044 594.049L68.6761 591.211ZM74.0434 595.661C74.8598 595.802 75.6357 595.255 75.7766 594.438C75.9174 593.622 75.3697 592.846 74.5534 592.705L74.0434 595.661ZM80.6205 593.301C79.7924 593.278 79.1024 593.931 79.0792 594.759C79.0561 595.587 79.7087 596.277 80.5368 596.3L80.6205 593.301ZM87.0131 596.063C87.8376 595.982 88.4398 595.247 88.3584 594.423C88.2769 593.599 87.5425 592.996 86.7181 593.078L87.0131 596.063ZM92.7777 592.127C91.9675 592.3 91.4509 593.097 91.6239 593.907C91.7969 594.717 92.5939 595.234 93.4041 595.061L92.7777 592.127ZM99.6481 593.395C100.437 593.142 100.873 592.298 100.62 591.509C100.368 590.72 99.5242 590.285 98.7351 590.537L99.6481 593.395ZM104.518 588.401C103.754 588.721 103.394 589.6 103.714 590.364C104.034 591.128 104.912 591.489 105.677 591.169L104.518 588.401ZM111.296 588.622C112.048 588.274 112.375 587.383 112.028 586.631C111.68 585.879 110.788 585.552 110.036 585.9L111.296 588.622ZM115.358 583.461C114.604 583.803 114.269 584.692 114.612 585.447C114.954 586.201 115.843 586.535 116.597 586.193L115.358 583.461ZM121.914 583.81C122.671 583.475 123.013 582.589 122.678 581.831C122.343 581.074 121.457 580.732 120.699 581.067L121.914 583.81ZM126.065 578.726C125.304 579.053 124.952 579.935 125.279 580.697C125.606 581.458 126.488 581.81 127.249 581.483L126.065 578.726ZM132.618 579.218C133.383 578.901 133.747 578.024 133.43 577.259C133.113 576.493 132.236 576.129 131.47 576.446L132.618 579.218ZM136.914 574.242C136.144 574.546 135.767 575.418 136.071 576.188C136.376 576.958 137.247 577.336 138.018 577.031L136.914 574.242ZM143.449 574.94C144.225 574.65 144.619 573.786 144.328 573.01C144.038 572.234 143.174 571.84 142.398 572.13L143.449 574.94ZM147.927 570.131C147.145 570.404 146.732 571.259 147.005 572.041C147.277 572.824 148.132 573.237 148.915 572.964L147.927 570.131ZM154.419 571.127C155.208 570.876 155.644 570.032 155.393 569.243C155.142 568.453 154.298 568.017 153.509 568.268L154.419 571.127ZM159.148 566.572C158.351 566.797 157.887 567.626 158.112 568.423C158.337 569.22 159.166 569.684 159.963 569.459L159.148 566.572ZM165.557 567.996C166.363 567.803 166.859 566.994 166.667 566.188C166.474 565.382 165.664 564.886 164.859 565.078L165.557 567.996ZM170.661 563.837C169.846 563.989 169.31 564.773 169.462 565.587C169.614 566.401 170.398 566.938 171.212 566.786L170.661 563.837ZM176.901 565.898C177.724 565.797 178.308 565.049 178.207 564.227C178.106 563.404 177.358 562.82 176.536 562.921L176.901 565.898ZM182.47 562.421C181.643 562.456 181 563.156 181.036 563.984C181.071 564.811 181.771 565.454 182.598 565.418L182.47 562.421ZM188.282 565.453C189.109 565.502 189.819 564.871 189.868 564.044C189.917 563.217 189.286 562.507 188.459 562.458L188.282 565.453ZM194.457 563.19C193.643 563.035 192.857 563.568 192.702 564.382C192.546 565.196 193.08 565.981 193.893 566.137L194.457 563.19ZM199.285 567.61C200.063 567.894 200.924 567.493 201.208 566.715C201.492 565.936 201.091 565.075 200.313 564.791L199.285 567.61ZM205.841 567.406C205.129 566.982 204.209 567.216 203.785 567.928C203.361 568.64 203.595 569.56 204.307 569.984L205.841 567.406ZM208.763 573.265C209.379 573.819 210.327 573.769 210.881 573.153C211.435 572.537 211.384 571.588 210.768 571.034L208.763 573.265ZM214.919 575.529C214.414 574.873 213.472 574.751 212.816 575.256C212.159 575.762 212.037 576.704 212.543 577.36L214.919 575.529ZM215.592 582.043C215.992 582.768 216.904 583.033 217.63 582.633C218.356 582.234 218.62 581.321 218.22 580.596L215.592 582.043ZM220.781 586.046C220.474 585.276 219.602 584.902 218.832 585.209C218.063 585.516 217.688 586.389 217.995 587.158L220.781 586.046ZM219.841 592.563C220.072 593.359 220.904 593.817 221.7 593.586C222.495 593.355 222.953 592.523 222.723 591.728L219.841 592.563ZM224.155 597.529C223.987 596.718 223.192 596.197 222.381 596.365C221.57 596.534 221.049 597.328 221.218 598.139L224.155 597.529ZM222.207 603.807C222.325 604.627 223.085 605.196 223.905 605.078C224.725 604.96 225.294 604.2 225.176 603.38L222.207 603.807ZM225.865 609.246C225.789 608.421 225.058 607.815 224.233 607.891C223.408 607.968 222.802 608.699 222.878 609.524L225.865 609.246ZM223.287 615.268C223.329 616.095 224.034 616.732 224.862 616.69C225.689 616.647 226.326 615.943 226.283 615.115L223.287 615.268ZM226.477 620.989C226.464 620.161 225.782 619.5 224.953 619.513C224.125 619.526 223.464 620.208 223.477 621.037L226.477 620.989ZM50.1616 530.823C49.6678 531.8 49.2011 532.772 48.7611 533.74L51.4923 534.981C51.9148 534.052 52.3634 533.117 52.8387 532.177L50.1616 530.823ZM46.3622 539.711C45.6309 541.807 45.0259 543.876 44.5427 545.913L47.4618 546.606C47.9204 544.672 48.4962 542.701 49.1947 540.7L46.3622 539.711ZM43.4099 552.294C43.1515 554.506 43.0419 556.67 43.0744 558.778L46.0741 558.732C46.0436 556.76 46.1461 554.727 46.3896 552.642L43.4099 552.294ZM43.6483 565.272C44.0118 567.476 44.5432 569.598 45.233 571.627L48.0733 570.661C47.4377 568.792 46.9457 566.829 46.6083 564.784L43.6483 565.272ZM47.8852 577.634C48.9586 579.572 50.1991 581.389 51.5945 583.07L53.9028 581.154C52.628 579.618 51.4931 577.957 50.5097 576.181L47.8852 577.634ZM56.2601 587.713C57.9411 589.096 59.76 590.329 61.7036 591.4L63.1514 588.773C61.3678 587.79 59.7024 586.66 58.1659 585.396L56.2601 587.713ZM67.7044 594.049C69.7256 594.741 71.8422 595.282 74.0434 595.661L74.5534 592.705C72.5048 592.352 70.5429 591.85 68.6761 591.211L67.7044 594.049ZM80.5368 596.3C82.6388 596.359 84.8 596.282 87.0131 596.063L86.7181 593.078C84.6268 593.285 82.5922 593.356 80.6205 593.301L80.5368 596.3ZM93.4041 595.061C95.4514 594.624 97.5344 594.07 99.6481 593.395L98.7351 590.537C96.7126 591.183 94.7252 591.711 92.7777 592.127L93.4041 595.061ZM105.677 591.169C106.657 590.758 107.643 590.322 108.634 589.859L107.366 587.141C106.411 587.586 105.461 588.007 104.518 588.401L105.677 591.169ZM108.634 589.859C109.525 589.444 110.412 589.031 111.296 588.622L110.036 585.9C109.149 586.31 108.259 586.724 107.366 587.141L108.634 589.859ZM116.597 586.193C118.384 585.383 120.156 584.588 121.914 583.81L120.699 581.067C118.933 581.848 117.152 582.647 115.358 583.461L116.597 586.193ZM127.249 581.483C129.056 580.707 130.846 579.951 132.618 579.218L131.47 576.446C129.685 577.185 127.883 577.946 126.065 578.726L127.249 581.483ZM138.018 577.031C139.85 576.307 141.66 575.609 143.449 574.94L142.398 572.13C140.591 572.806 138.762 573.511 136.914 574.242L138.018 577.031ZM148.915 572.964C150.776 572.316 152.611 571.702 154.419 571.127L153.509 568.268C151.673 568.853 149.812 569.474 147.927 570.131L148.915 572.964ZM159.963 569.459C161.862 568.923 163.727 568.434 165.557 567.996L164.859 565.078C162.987 565.526 161.083 566.025 159.148 566.572L159.963 569.459ZM171.212 566.786C173.155 566.422 175.052 566.125 176.901 565.898L176.536 562.921C174.619 563.156 172.66 563.463 170.661 563.837L171.212 566.786ZM182.598 565.418C184.558 565.335 186.453 565.345 188.282 565.453L188.459 562.458C186.519 562.343 184.522 562.334 182.47 562.421L182.598 565.418ZM193.893 566.137C195.777 566.497 197.574 566.986 199.285 567.61L200.313 564.791C198.44 564.108 196.486 563.578 194.457 563.19L193.893 566.137ZM204.307 569.984C205.881 570.921 207.368 572.011 208.763 573.265L210.768 571.034C209.227 569.649 207.583 568.442 205.841 567.406L204.307 569.984ZM212.543 577.36C213.633 578.775 214.651 580.333 215.592 582.043L218.22 580.596C217.21 578.76 216.109 577.073 214.919 575.529L212.543 577.36ZM217.995 587.158C218.669 588.845 219.285 590.645 219.841 592.563L222.723 591.728C222.141 589.722 221.494 587.829 220.781 586.046L217.995 587.158ZM221.218 598.139C221.592 599.941 221.922 601.83 222.207 603.807L225.176 603.38C224.884 601.345 224.543 599.396 224.155 597.529L221.218 598.139ZM222.878 609.524C223.05 611.37 223.186 613.285 223.287 615.268L226.283 615.115C226.18 613.093 226.041 611.137 225.865 609.246L222.878 609.524ZM223.477 621.037C223.493 622.009 223.5 622.997 223.5 624L226.5 624C226.5 622.982 226.493 621.978 226.477 620.989L223.477 621.037Z" fill="#919191"/>
<defs>
<filter id="filter0_d_242_59" x="0.5" y="0.5" width="159" height="159" filterUnits="userSpaceOnUse" color-interpolation-filters="sRGB">
<feFlood flood-opacity="0" result="BackgroundImageFix"/>
<feColorMatrix in="SourceAlpha" type="matrix" values="0 0 0 0 0 0 0 0 0 0 0 0 0 0 0 0 0 0 127 0" result="hardAlpha"/>
<feOffset dy="14"/>
<feGaussianBlur stdDeviation="7.75"/>
<feComposite in2="hardAlpha" operator="out"/>
<feColorMatrix type="matrix" values="0 0 0 0 0 0 0 0 0 0 0 0 0 0 0 0 0 0 0.1 0"/>
<feBlend mode="normal" in2="BackgroundImageFix" result="effect1_dropShadow_242_59"/>
<feBlend mode="normal" in="SourceGraphic" in2="effect1_dropShadow_242_59" result="shape"/>
</filter>
<filter id="filter1_d_242_59" x="145.5" y="194.5" width="159" height="159" filterUnits="userSpaceOnUse" color-interpolation-filters="sRGB">
<feFlood flood-opacity="0" result="BackgroundImageFix"/>
<feColorMatrix in="SourceAlpha" type="matrix" values="0 0 0 0 0 0 0 0 0 0 0 0 0 0 0 0 0 0 127 0" result="hardAlpha"/>
<feOffset dy="14"/>
<feGaussianBlur stdDeviation="7.75"/>
<feComposite in2="hardAlpha" operator="out"/>
<feColorMatrix type="matrix" values="0 0 0 0 0 0 0 0 0 0 0 0 0 0 0 0 0 0 0.1 0"/>
<feBlend mode="normal" in2="BackgroundImageFix" result="effect1_dropShadow_242_59"/>
<feBlend mode="normal" in="SourceGraphic" in2="effect1_dropShadow_242_59" result="shape"/>
</filter>
<filter id="filter2_d_242_59" x="4.5" y="408.5" width="159" height="159" filterUnits="userSpaceOnUse" color-interpolation-filters="sRGB">
<feFlood flood-opacity="0" result="BackgroundImageFix"/>
<feColorMatrix in="SourceAlpha" type="matrix" values="0 0 0 0 0 0 0 0 0 0 0 0 0 0 0 0 0 0 127 0" result="hardAlpha"/>
<feOffset dy="14"/>
<feGaussianBlur stdDeviation="7.75"/>
<feComposite in2="hardAlpha" operator="out"/>
<feColorMatrix type="matrix" values="0 0 0 0 0 0 0 0 0 0 0 0 0 0 0 0 0 0 0.1 0"/>
<feBlend mode="normal" in2="BackgroundImageFix" result="effect1_dropShadow_242_59"/>
<feBlend mode="normal" in="SourceGraphic" in2="effect1_dropShadow_242_59" result="shape"/>
</filter>
<filter id="filter3_d_242_59" x="145.5" y="622.5" width="159" height="159" filterUnits="userSpaceOnUse" color-interpolation-filters="sRGB">
<feFlood flood-opacity="0" result="BackgroundImageFix"/>
<feColorMatrix in="SourceAlpha" type="matrix" values="0 0 0 0 0 0 0 0 0 0 0 0 0 0 0 0 0 0 127 0" result="hardAlpha"/>
<feOffset dy="14"/>
<feGaussianBlur stdDeviation="7.75"/>
<feComposite in2="hardAlpha" operator="out"/>
<feColorMatrix type="matrix" values="0 0 0 0 0 0 0 0 0 0 0 0 0 0 0 0 0 0 0.1 0"/>
<feBlend mode="normal" in2="BackgroundImageFix" result="effect1_dropShadow_242_59"/>
<feBlend mode="normal" in="SourceGraphic" in2="effect1_dropShadow_242_59" result="shape"/>
</filter>
</defs>
</svg>
