<svg width="145" height="49" viewBox="0 0 145 49" fill="none" xmlns="http://www.w3.org/2000/svg">
<path d="M102.102 23.273C100.82 25.3758 102.074 27.4444 104.705 27.747C106.605 27.9637 108.524 27.5568 110.173 26.5878C111.822 25.6187 113.111 24.14 113.846 22.3744C114.092 21.808 114.47 21.3084 114.947 20.9174C115.621 20.3807 116.938 20.4962 117.55 20.9954C118.351 21.6506 118.174 22.443 117.862 23.248C115.756 28.6924 111.104 31.8686 105.322 31.8124C102.449 31.7843 100.396 31.0324 98.1026 29.1822C97.0948 29.8062 96.162 30.5769 95.1012 31.0542C92.5178 32.1993 89.9937 32.1587 87.6568 30.3148C87.4665 30.165 86.933 30.2524 86.674 30.4115C84.93 31.4879 83.0798 32.1774 81.0424 31.6127C79.9005 31.3007 78.8584 30.6549 77.626 30.1026C72.5342 33.0011 69.0024 32.087 67.5796 27.4101L63.7264 26.4522C61.0027 32.3615 54.1231 33.051 51.2964 30.1276C49.7364 30.7079 48.3324 31.4598 46.8316 31.7375C45.2311 32.0495 43.7116 31.3943 42.5104 30.2649C39.2438 32.0558 36.052 32.6423 32.8384 29.9966C32.6637 30.112 32.4172 30.2586 32.1895 30.4302C29.4252 32.5331 25.6375 32.1712 23.7967 29.3944C23.6928 29.29 23.5658 29.2116 23.4259 29.1655C23.2861 29.1194 23.1373 29.107 22.9917 29.1292C21.3963 29.5758 19.7105 29.5876 18.1089 29.1635C17.8344 29.0918 17.3913 29.3663 17.123 29.5941C14.627 31.6845 11.819 32.6798 8.59916 32.0058C7.62884 31.803 6.72716 31.282 5.73188 30.8826C5.44332 31.2308 5.13054 31.5582 4.79588 31.8623C4.29813 32.2773 3.67888 32.5191 3.03162 32.5512C2.38435 32.5833 1.74423 32.4039 1.20788 32.0402C0.122121 31.3132 -0.27724 30.2056 0.197 28.8234C2.33108 22.6271 4.48284 16.437 6.65228 10.2532C7.35532 8.23144 8.0646 6.21071 8.78012 4.19103C9.7598 1.44543 12.2527 0.858878 14.3961 2.89312C15.0201 2.60608 15.666 2.20672 16.3492 2.03512C19.0699 1.3612 21.4816 2.08504 23.441 4.02256C25.4004 5.96008 25.625 8.3188 24.7982 10.8117C23.3443 15.2577 21.8311 19.685 20.3584 24.1122C20.2555 24.4242 20.165 24.7362 20.0714 25.0295C20.8081 25.2965 21.6204 25.2625 22.3323 24.9349C23.0441 24.6073 23.5983 24.0125 23.8747 23.2792C24.7077 20.9174 25.6468 18.5992 26.3395 16.1874C27.5376 12.0316 31.5405 10.5714 35.5404 12.2001C35.7213 12.275 35.9023 12.353 36.0084 12.1814C36.9444 11.8694 37.8523 11.3514 38.8008 11.2797C40.4169 11.158 41.459 12.4278 41.016 13.9847C40.3327 16.3902 39.456 18.7396 38.6604 21.1139C38.1144 22.7363 37.5184 24.3462 37.0473 25.9905C36.9132 26.4616 36.9475 27.2385 37.2408 27.5006C37.534 27.7626 38.3203 27.7626 38.8008 27.6035C40.6291 26.9795 41.6618 25.563 42.2764 23.8096C43.409 20.5773 44.5135 17.3325 45.6398 14.097C45.7915 13.6274 45.9912 13.1747 46.2357 12.7461C46.5343 12.204 47.0347 11.8016 47.6283 11.6264C48.2218 11.4511 48.8605 11.5171 49.4056 11.8101C50.5101 12.3436 50.9937 13.4606 50.5725 14.7179C49.3744 18.2872 48.1264 21.8378 46.9221 25.3914C46.9003 25.4538 46.8628 25.51 46.8441 25.5755C46.6444 26.2869 46.1546 27.1137 47.0376 27.616C47.8612 28.084 48.7099 27.694 49.2403 27.0107C49.8592 26.2487 50.3598 25.3978 50.7254 24.4866C51.9921 21.0234 53.159 17.5197 54.3727 14.0378C54.5124 13.598 54.6964 13.1736 54.9218 12.771C55.2194 12.2509 55.6992 11.8595 56.2684 11.6722C56.8377 11.485 57.4561 11.5152 58.0044 11.757C58.5629 11.9827 59.0101 12.4193 59.2489 12.9724C59.4878 13.5254 59.4991 14.1503 59.2804 14.7117C58.0886 18.1437 56.85 21.5382 55.63 24.9515C55.4854 25.2093 55.3862 25.49 55.3368 25.7814C55.3617 26.3711 55.3087 27.3009 55.6207 27.4662C56.123 27.7314 56.903 27.5536 57.5426 27.4444C57.8559 27.3276 58.1201 27.1075 58.2914 26.8204C58.637 26.3398 58.9497 25.8363 59.2274 25.3134C60.1478 23.6286 60.0324 21.9376 59.7235 20.0531C59.4824 18.7126 59.5699 17.3337 59.9785 16.0344C60.3871 14.7351 61.1047 13.5543 62.0697 12.5932C62.5745 12.0622 63.236 11.7067 63.9574 11.5787C64.6788 11.4507 65.4222 11.5569 66.0789 11.8818C67.1522 12.4466 67.7637 13.8974 67.5204 15.4106C67.4236 15.9951 67.2732 16.5696 67.0711 17.1266C66.6156 18.3964 66.1132 19.6506 65.6359 20.9174C65.1585 22.1841 65.2521 22.6178 66.0914 22.9984C67.1709 23.4914 68.4376 23.1107 68.8744 22.0842C69.3112 21.0578 69.642 19.9814 70.0164 18.9268C70.4251 17.7786 70.7964 16.6149 71.2363 15.4792C72.7682 11.5074 77.2111 10.3062 80.5464 12.9458C80.6743 13.0456 80.8147 13.1298 81.0768 13.3108C81.5635 11.9567 82.0346 10.6775 82.4901 9.39208C83.0954 7.68232 83.6414 5.96008 84.3122 4.27216C84.6094 3.54544 85.0401 2.88085 85.582 2.3128C86.2747 1.58584 87.2044 1.61704 88.078 2.0476C88.4647 2.20942 88.7858 2.4963 88.99 2.8623C89.1942 3.2283 89.2697 3.65224 89.2044 4.06624C89.1147 4.71668 88.9632 5.3571 88.752 5.9788C86.5097 12.4871 84.2581 18.9913 81.9972 25.4913C81.8907 25.7684 81.8051 26.0531 81.7413 26.343C81.5697 27.1854 82.0533 27.8531 82.9051 27.7314C83.554 27.6378 84.334 27.3976 84.7459 26.9421C85.5883 26.0061 86.4744 24.9734 86.9018 23.8221C89.2075 17.5478 91.3821 11.2204 93.6004 4.91488C93.7658 4.45 93.9124 3.97888 94.1184 3.52648C94.7424 2.10064 96.0465 1.45168 97.3008 1.9228C98.555 2.39392 99.0604 3.53272 98.5488 5.10832C97.8748 7.17376 97.151 9.22048 96.4428 11.2734C94.7424 16.1968 93.0295 21.1108 91.3603 26.0404C91.2199 26.4522 91.2074 27.1948 91.4476 27.382C91.822 27.6722 92.5927 27.8625 92.9671 27.6628C93.9023 27.1986 94.7425 26.5637 95.4444 25.7908C96.0954 24.9653 96.6028 24.0361 96.9451 23.0421C97.7064 21.0422 98.3116 18.9861 99.0355 16.9706C100.283 13.5167 103.226 11.4201 106.608 11.523C109.447 11.6073 111.862 13.2702 112.567 15.6165C113.338 18.1905 112.174 21.376 109.856 22.9329C107.363 24.5958 104.786 24.6208 102.102 23.273ZM15.4039 21.9282C16.7486 17.8972 18.0247 14.0658 19.2976 10.2314C19.6502 9.1768 19.5098 8.18776 18.708 7.39528C17.9061 6.6028 16.8547 6.51856 15.7658 6.81808C14.0404 7.29232 13.0545 8.5528 12.4617 10.1003C11.404 12.8615 10.4587 15.6695 9.47276 18.4588C9.26996 19.0266 9.08588 19.5976 8.84876 20.3308C9.99266 20.1419 11.1629 20.186 12.2893 20.4605C13.4158 20.735 14.4751 21.2343 15.4039 21.9282ZM28.3113 26.056C28.3113 27.5723 29.2036 28.24 30.2676 27.5973C31.0819 27.0731 31.731 26.3288 32.1396 25.4507C32.8228 23.9313 33.2472 22.2933 33.7495 20.6927C34.0376 19.82 34.2751 18.9314 34.4608 18.0314C34.6356 17.1234 34.1114 16.1282 33.3969 15.8973C32.4266 15.5853 31.8151 16.1625 31.3564 16.8863C31.0722 17.3667 30.848 17.8801 30.6888 18.4151C30.0304 20.4119 29.394 22.4181 28.7606 24.4211C28.5672 25.0482 28.4143 25.6722 28.3113 26.0529V26.056ZM78.7555 18.3621C78.7555 17.0298 78.5777 16.1781 77.5948 15.8661C76.612 15.5541 76.0816 16.2935 75.6136 16.9986C75.4525 17.2481 75.3226 17.5163 75.2268 17.7974C74.478 19.9439 73.7323 22.0874 73.0178 24.2433C72.9135 24.624 72.8713 25.0191 72.893 25.4133C72.893 26.2307 73.414 26.7674 74.141 26.5302C74.868 26.2931 75.7228 25.8314 76.0785 25.2136C76.8554 23.8564 77.3796 22.3494 77.9505 20.8799C78.3187 19.9377 78.5714 18.9486 78.7555 18.359V18.3621ZM13.6972 25.8501C13.2105 25.51 12.8018 25.1762 12.3494 24.9141C11.0796 24.1902 9.43844 24.2526 8.6054 25.1824C8.23724 25.588 7.94396 26.3274 8.05316 26.8173C8.14676 27.2541 8.7926 27.7533 9.30116 27.8843C10.8924 28.3492 12.755 27.4631 13.6972 25.8594V25.8501ZM105.222 19.8191L105.244 19.9065C105.725 19.8222 106.198 19.698 106.658 19.5352C107.537 19.1483 108.024 18.1218 107.856 17.0392C107.737 16.2748 107.372 15.6758 106.517 15.5447C105.581 15.4043 104.807 15.8567 104.308 16.8489C104.085 17.3248 103.891 17.8134 103.725 18.3122C103.297 19.4978 103.45 19.7193 104.729 19.816C104.91 19.8316 105.07 19.8191 105.222 19.8191Z" fill="#625CF9"/>
<path d="M133.995 8.43735C131.499 9.02391 129.225 9.63231 126.907 10.0878C125.641 10.3105 124.357 10.415 123.072 10.3998C121.824 10.3998 121.216 9.8351 120.888 8.64638C120.729 8.16887 120.747 7.65008 120.938 7.1845C121.129 6.71892 121.481 6.33754 121.93 6.10983C123.154 5.4032 124.45 4.82999 125.796 4.40007C129.811 3.23943 133.867 2.21607 137.901 1.13031C138.485 0.938301 139.112 0.927026 139.702 1.09796C140.291 1.26889 140.816 1.61404 141.206 2.08815C142.208 3.24243 142.849 4.66588 143.049 6.18159C143.508 8.87415 144.029 11.5761 144.176 14.2936C144.269 16.0252 143.773 17.7973 143.471 19.5383C143.361 20.1623 142.934 20.5367 142.207 20.571C141.48 20.6053 141.143 20.2341 140.859 19.6537C139.864 17.6257 139.702 15.4137 139.421 13.2265C139.375 12.7309 139.236 12.2484 139.012 11.8038C138.837 12.1158 138.656 12.4278 138.485 12.7398C132.173 24.4242 123.44 33.8186 112.024 40.6482C105.321 44.7067 97.8592 47.3545 90.0968 48.4295C88.0126 48.7134 85.8941 48.7415 83.7881 48.8757C83.0549 48.9225 82.4278 48.7197 82.3342 47.896C82.2406 47.0723 82.8334 46.857 83.5105 46.7291C90.3872 45.4586 97.0477 43.2146 103.291 40.0648C115.603 33.8248 125.418 24.9671 132.033 12.7429C132.675 11.5573 133.218 10.3187 133.802 9.09879C133.88 8.88267 133.945 8.66173 133.995 8.43735Z" fill="#625CF9"/>
</svg>
